<svg width="51" height="51" viewBox="0 0 51 51" fill="none" xmlns="http://www.w3.org/2000/svg">
<path fill-rule="evenodd" clip-rule="evenodd" d="M24.2614 3.07879C24.0623 3.13003 23.8811 3.19017 23.8587 3.21254C23.8364 3.23486 23.7709 3.25317 23.7132 3.25317C23.6555 3.25317 23.5191 3.29261 23.41 3.34088C23.301 3.38909 23.1263 3.46585 23.0218 3.51147C22.4141 3.77659 21.3846 4.62494 20.9027 5.25757C20.8007 5.39165 20.7042 5.51353 20.6885 5.52843C20.6403 5.57421 20.4183 5.97557 20.299 6.23268C20.0814 6.70144 20.0356 6.81851 20.0356 6.90524C20.0356 6.95329 20.0123 7.03493 19.9838 7.08666C19.6916 7.6175 19.6914 9.7803 19.9836 10.3084C20.0122 10.3602 20.0356 10.4418 20.0356 10.4899C20.0356 10.6859 20.4923 11.572 20.8387 12.0479C21.0416 12.3267 21.0328 12.368 20.755 12.4418C20.6878 12.4597 20.6328 12.496 20.6328 12.5226C20.6328 12.5492 20.6044 12.5709 20.5698 12.5709C20.4966 12.5709 19.963 12.9008 19.9361 12.9627C19.9261 12.9856 19.8938 13.0043 19.8643 13.0043C19.8348 13.0043 19.7801 13.0348 19.7427 13.072C19.7053 13.1093 19.5575 13.2372 19.4142 13.3564C19.0268 13.6784 18.9973 13.7077 18.704 14.0607C18.5555 14.2394 18.4156 14.3938 18.3932 14.4037C18.3708 14.4137 18.3525 14.4543 18.3525 14.494C18.3525 14.5338 18.3337 14.5744 18.3108 14.5844C18.2488 14.6112 17.9181 15.1436 17.9181 15.2166C17.9181 15.2512 17.8937 15.2796 17.8638 15.2796C17.834 15.2796 17.8096 15.3033 17.8096 15.3323C17.8096 15.3613 17.7509 15.5136 17.6792 15.6708C17.6075 15.8281 17.5065 16.0908 17.4546 16.2547C17.4028 16.4185 17.3392 16.6014 17.3133 16.661C17.2236 16.8671 17.1442 17.4763 17.1209 18.1372L17.0975 18.8008H14.0851C11.1768 18.8008 11.0654 18.8045 10.8593 18.9095C10.5877 19.0477 10.2627 19.331 10.2627 19.4294C10.2627 19.471 10.2383 19.505 10.2084 19.505C10.1785 19.505 10.1541 19.566 10.1541 19.6405C10.1541 19.715 10.1297 19.7759 10.0998 19.7759C10.0692 19.7759 10.0455 19.9294 10.0455 20.128C10.0455 20.3267 10.0692 20.4802 10.0998 20.4802C10.1297 20.4802 10.1541 20.5411 10.1541 20.6156C10.1541 20.6901 10.1785 20.751 10.2084 20.751C10.2383 20.751 10.2627 20.785 10.2627 20.8266C10.2627 20.9251 10.5877 21.2084 10.8593 21.3466C11.0131 21.4249 11.1796 21.4553 11.455 21.4553H11.8372V25.4881V29.5209L11.1721 29.5435C10.5097 29.5661 9.94056 29.6479 9.76123 29.7462C9.70938 29.7747 9.62761 29.7979 9.57956 29.7979C9.53151 29.7979 9.42732 29.8323 9.34805 29.8743C9.26878 29.9163 9.10623 29.9932 8.98678 30.0453C8.86733 30.0973 8.67188 30.2014 8.55243 30.2766C8.43298 30.3518 8.27716 30.4436 8.20614 30.4806C7.95047 30.6139 7.36697 31.1397 6.95847 31.6047C6.40298 32.2371 5.90109 33.2766 5.74239 34.1233C5.61686 34.7934 5.70444 36.6982 5.86851 36.8648C5.89637 36.893 5.91917 36.9604 5.91917 37.0145C5.91917 37.0685 5.94241 37.1551 5.97086 37.2068C5.99925 37.2585 6.06283 37.3984 6.11213 37.5175C6.26573 37.8891 6.31818 37.985 6.61142 38.4308C6.90618 38.8791 6.93816 38.9531 6.83679 38.9531C6.76415 38.9531 6.39131 39.123 6.35352 39.1732C6.33859 39.1931 6.27143 39.2265 6.20421 39.2474C6.13705 39.2684 6.08205 39.3082 6.08205 39.336C6.08205 39.3638 6.05501 39.3865 6.022 39.3865C5.88345 39.3865 4.61612 40.4974 4.61612 40.6189C4.61612 40.642 4.55503 40.7067 4.48038 40.7627C4.40573 40.8186 4.34465 40.887 4.34465 40.9148C4.34465 40.9426 4.31413 40.9992 4.27678 41.0408C4.11563 41.22 4.07318 41.2813 4.07318 41.3345C4.07318 41.3655 4.05037 41.3909 4.02252 41.3909C3.99467 41.3909 3.95476 41.4457 3.9338 41.5128C3.91279 41.5798 3.88065 41.6469 3.86224 41.6618C3.80089 41.7117 3.63882 42.0488 3.63882 42.1266C3.63882 42.1689 3.62015 42.2035 3.59729 42.2035C3.54902 42.2035 3.36735 42.6908 3.36735 42.8202C3.36735 42.8684 3.34699 42.9077 3.32213 42.9077C3.27875 42.9077 3.20735 43.1906 3.08959 43.8287C2.99843 44.3227 2.96536 46.6798 3.04496 47.0113C3.08253 47.1678 3.13378 47.2958 3.15886 47.2958C3.18395 47.2958 3.20447 47.3277 3.20447 47.3667C3.20447 47.4787 3.49576 47.747 3.76115 47.8791L4.00362 48H25.4922H46.9807L47.2232 47.8791C47.4885 47.747 47.7798 47.4787 47.7798 47.3667C47.7798 47.3277 47.7992 47.2958 47.8229 47.2958C48.0537 47.2958 48.0612 44.095 47.8317 43.5307C47.8075 43.4711 47.772 43.328 47.7529 43.2126C47.7337 43.0972 47.6978 42.9631 47.6729 42.9146C47.6481 42.8661 47.5836 42.6863 47.5297 42.515C47.4757 42.3437 47.4122 42.2035 47.3885 42.2035C47.3649 42.2035 47.3455 42.1689 47.3455 42.1266C47.3455 42.0556 47.1906 41.724 47.1283 41.6618C47.089 41.6225 46.9709 41.4314 46.9274 41.3367C46.9068 41.292 46.8643 41.2258 46.8327 41.1896C46.6742 41.0076 46.6397 40.9581 46.6397 40.9132C46.6397 40.8863 46.5786 40.8186 46.5039 40.7627C46.4293 40.7067 46.3682 40.642 46.3682 40.6189C46.3682 40.4989 45.0969 39.3865 44.9597 39.3865C44.9281 39.3865 44.9022 39.3638 44.9022 39.336C44.9022 39.3082 44.8472 39.2684 44.7801 39.2474C44.7129 39.2265 44.6457 39.1931 44.6308 39.1732C44.593 39.123 44.2202 38.9531 44.1475 38.9531C44.0461 38.9531 44.0781 38.8791 44.3729 38.4308C44.5297 38.1925 44.686 37.9382 44.7203 37.8658C44.8429 37.6069 44.9451 37.3516 45.0115 37.1383C45.0486 37.0191 45.1032 36.8607 45.1327 36.7862C45.2947 36.3779 45.3599 34.8237 45.2419 34.1859C45.1549 33.7162 45.0432 33.3191 44.998 33.3191C44.9752 33.3191 44.9565 33.2784 44.9565 33.2286C44.9565 33.0036 44.398 32.0287 44.0258 31.6043C43.6308 31.1537 42.9827 30.5637 42.8207 30.5072C42.786 30.4952 42.6843 30.4323 42.5948 30.3674C42.5052 30.3026 42.2853 30.1818 42.1061 30.0989C41.9269 30.0161 41.7316 29.9227 41.6721 29.8915C41.3621 29.7288 40.5075 29.5686 39.8122 29.5429L39.1471 29.5182V25.4867V21.4553H39.5293C39.8047 21.4553 39.9712 21.4249 40.125 21.3466C40.3966 21.2084 40.7216 20.9251 40.7216 20.8266C40.7216 20.785 40.746 20.751 40.7759 20.751C40.8058 20.751 40.8302 20.6901 40.8302 20.6156C40.8302 20.5411 40.8546 20.4802 40.8845 20.4802C40.9151 20.4802 40.9388 20.3267 40.9388 20.128C40.9388 19.9294 40.9151 19.7759 40.8845 19.7759C40.8546 19.7759 40.8302 19.715 40.8302 19.6405C40.8302 19.566 40.8058 19.505 40.7759 19.505C40.746 19.505 40.7216 19.471 40.7216 19.4294C40.7216 19.331 40.3966 19.0477 40.125 18.9095C39.9393 18.8149 39.8052 18.8008 39.095 18.8008H38.2784V16.666V14.5312L38.1393 14.2636C37.952 13.9034 36.0668 12.0326 35.7299 11.8727C35.2562 11.6478 34.6328 11.7632 34.2173 12.1527C34.0382 12.3205 33.8263 12.8125 33.8263 13.0603C33.8263 13.2669 33.9449 13.7085 34.0004 13.7085C34.0241 13.7085 34.0435 13.7431 34.0435 13.7853C34.0435 13.8275 34.3977 14.2175 34.8307 14.652L35.618 15.4419V17.1213V18.8008H34.7538H33.8896L33.8655 18.1643C33.841 17.5174 33.7555 16.8573 33.6707 16.661C33.645 16.6014 33.5815 16.4185 33.5297 16.2547C33.4778 16.0908 33.3768 15.8281 33.3051 15.6708C33.2334 15.5136 33.1747 15.3613 33.1747 15.3323C33.1747 15.3033 33.1503 15.2796 33.1205 15.2796C33.0906 15.2796 33.0662 15.2512 33.0662 15.2166C33.0662 15.1436 32.7355 14.6112 32.6735 14.5844C32.6506 14.5744 32.6318 14.5338 32.6318 14.494C32.6318 14.4543 32.6135 14.4137 32.5911 14.4037C32.5687 14.3938 32.4285 14.2394 32.2795 14.0607C31.9483 13.6633 31.9714 13.6863 31.5731 13.3558C31.3939 13.2072 31.2392 13.0672 31.2292 13.0449C31.2192 13.0226 31.1785 13.0043 31.1387 13.0043C31.0989 13.0043 31.0582 12.9856 31.0482 12.9627C31.0213 12.9008 30.4877 12.5709 30.4146 12.5709C30.3799 12.5709 30.3515 12.5492 30.3515 12.5226C30.3515 12.496 30.2965 12.4597 30.2293 12.4418C29.9491 12.3673 29.9422 12.3271 30.1592 12.0323C30.4245 11.6716 30.9487 10.6416 30.9487 10.4809C30.9487 10.4123 30.9691 10.3436 30.994 10.3283C31.019 10.3129 31.083 10.0688 31.1364 9.78577C31.2885 8.97957 31.1951 7.27307 30.9875 7.06597C30.9662 7.04462 30.9487 6.9801 30.9487 6.92252C30.9487 6.71812 30.5438 5.90699 30.1987 5.42009C29.9199 5.02674 29.3116 4.39708 28.9398 4.11712C28.8054 4.01592 28.6833 3.92031 28.6683 3.90465C28.616 3.84978 27.9457 3.50421 27.5743 3.3405C27.4652 3.2925 27.3288 3.25317 27.2711 3.25317C27.2134 3.25317 27.1488 3.23573 27.1274 3.21444C27.0078 3.09509 26.4982 3.0257 25.6007 3.00657C24.8034 2.98956 24.5568 3.00284 24.2614 3.07879ZM26.5372 5.83175C26.7687 5.91306 26.9703 5.99632 26.9852 6.0168C27.0002 6.03722 27.1101 6.11642 27.2296 6.19281C27.4523 6.33517 27.6349 6.49791 27.8277 6.72609C27.9757 6.90107 28.2883 7.413 28.2883 7.48023C28.2883 7.50997 28.3116 7.57666 28.3401 7.62839C28.4301 7.79183 28.5598 8.42311 28.5598 8.69755C28.5598 8.97199 28.4301 9.60326 28.3401 9.7667C28.3116 9.81844 28.2883 9.88513 28.2883 9.91487C28.2883 10.0515 27.8355 10.6983 27.5888 10.9139C27.5176 10.9761 27.4321 11.0522 27.3988 11.0831C27.2973 11.1769 26.7701 11.4875 26.7122 11.4875C26.6824 11.4875 26.6155 11.5107 26.5637 11.5391C26.401 11.6283 25.768 11.7583 25.4964 11.7583C24.7663 11.7583 23.7396 11.3177 23.2878 10.8103C23.0504 10.5438 22.9675 10.4391 22.9675 10.4059C22.9675 10.3863 22.923 10.3226 22.8687 10.2644C22.6856 10.0684 22.4257 9.14843 22.426 8.69755C22.4262 8.30149 22.6815 7.30406 22.8073 7.20779C22.8268 7.19289 22.9042 7.08319 22.9794 6.96401C23.1433 6.7042 23.6791 6.17851 23.7799 6.17851C23.7996 6.17851 23.8634 6.13414 23.9218 6.07991C24.0329 5.97666 24.7239 5.71582 25.0035 5.67161C25.3975 5.60937 26.1184 5.68461 26.5372 5.83175ZM28.0162 14.5104C28.3146 14.573 28.4925 14.6313 28.8123 14.7713C28.9064 14.8125 29.0102 14.8462 29.043 14.8462C29.0759 14.8462 29.1027 14.8677 29.1027 14.894C29.1027 14.9203 29.1455 14.9562 29.1977 14.9737C29.2922 15.0054 29.3991 15.0701 29.6135 15.2254C29.7587 15.3305 30.3004 15.871 30.4058 16.0159C30.5614 16.2297 30.6262 16.3365 30.658 16.4307C30.6755 16.4829 30.7115 16.5255 30.7379 16.5255C30.7642 16.5255 30.7858 16.5523 30.7858 16.5851C30.7858 16.6178 30.8196 16.7214 30.8609 16.8153C31.0838 17.3221 31.1669 17.6956 31.2034 18.3539L31.2281 18.8008H25.4922H19.7562L19.7809 18.3539C19.8174 17.6956 19.9005 17.3221 20.1234 16.8153C20.1647 16.7214 20.1985 16.6178 20.1985 16.5851C20.1985 16.5523 20.2201 16.5255 20.2464 16.5255C20.2728 16.5255 20.3088 16.4829 20.3263 16.4307C20.3581 16.3365 20.4229 16.2297 20.5785 16.0159C20.6839 15.871 21.2256 15.3305 21.3708 15.2254C21.5852 15.0701 21.6921 15.0054 21.7866 14.9737C21.8388 14.9562 21.8816 14.9203 21.8816 14.894C21.8816 14.8677 21.9084 14.8462 21.9413 14.8462C21.9741 14.8462 22.0779 14.8112 22.172 14.7685C22.4591 14.6383 22.8546 14.5212 23.0101 14.5203C23.0912 14.5198 23.1942 14.4956 23.239 14.4663C23.3555 14.3902 27.6313 14.4296 28.0162 14.5104ZM36.4867 25.9472V30.4391L36.2831 30.5633C36.1711 30.6316 36.0138 30.7494 35.9335 30.825C35.8532 30.9007 35.7066 31.038 35.6077 31.1301C35.2675 31.447 34.7493 32.0754 34.7493 32.1713C34.7493 32.2017 34.7307 32.2348 34.7081 32.2447C34.5915 32.2958 34.0435 33.5552 34.0435 33.772C34.0435 33.8407 34.0252 33.9152 34.0029 33.9375C33.9426 33.9977 33.8313 34.8118 33.8282 35.2152C33.8253 35.6004 33.9197 36.3705 33.9908 36.5424C34.0154 36.602 34.0513 36.7452 34.0704 36.8606C34.0895 36.976 34.1258 37.11 34.1511 37.1585C34.1764 37.207 34.2606 37.3929 34.3383 37.5717C34.4159 37.7505 34.5042 37.9333 34.5345 37.978C34.5648 38.0227 34.6039 38.102 34.6215 38.1541C34.639 38.2062 34.6749 38.2489 34.7013 38.2489C34.7277 38.2489 34.7493 38.2837 34.7493 38.3263C34.7493 38.3688 34.7808 38.4359 34.8194 38.4753C34.9401 38.5986 35.075 38.8119 35.075 38.8796C35.075 38.9153 35.0017 38.9606 34.9122 38.9802C34.8226 38.9998 34.749 39.0323 34.7487 39.0522C34.7483 39.0722 34.6506 39.1351 34.5315 39.1921C34.4124 39.249 34.3149 39.316 34.3149 39.3411C34.3149 39.366 34.2821 39.3865 34.2419 39.3865C34.2018 39.3865 34.098 39.4474 34.0112 39.5219C33.9244 39.5963 33.8387 39.6573 33.8206 39.6573C33.752 39.6574 33.1211 40.2498 32.8143 40.6022C32.6381 40.8046 32.5655 40.8526 32.4777 40.8249C32.4162 40.8054 32.3519 40.7456 32.3349 40.692C32.3017 40.5877 31.6704 39.9446 31.5172 39.8591C31.4666 39.8308 31.3833 39.7678 31.3321 39.719C31.1468 39.5422 30.9236 39.3865 30.8555 39.3865C30.8171 39.3865 30.7858 39.3638 30.7858 39.336C30.7858 39.3082 30.7309 39.2684 30.6637 39.2474C30.5964 39.2265 30.5293 39.1927 30.5143 39.1723C30.4994 39.1519 30.3712 39.0799 30.2293 39.0123C30.0019 38.9038 29.8919 38.7906 30.014 38.7906C30.0374 38.7906 30.1027 38.7114 30.1592 38.6145C30.2157 38.5177 30.2759 38.4263 30.2931 38.4114C30.3421 38.3689 30.5661 37.9706 30.6588 37.7613C30.705 37.657 30.7891 37.4694 30.8458 37.3445C30.9024 37.2195 30.9487 37.079 30.9487 37.0322C30.9487 36.9855 30.9721 36.9049 31.0007 36.8532C31.0293 36.8014 31.0904 36.5837 31.1364 36.3692C31.2963 35.6245 31.2169 34.0222 31.0007 33.6314C30.9721 33.5797 30.9487 33.498 30.9487 33.45C30.9487 33.2468 30.4874 32.3591 30.1207 31.8565C29.8088 31.429 29.1348 30.7845 28.6941 30.4921C28.281 30.2181 27.4156 29.7979 27.2644 29.7979C27.2123 29.7979 27.1466 29.7763 27.1183 29.7501C26.8431 29.4947 24.1412 29.4947 23.866 29.7501C23.8377 29.7763 23.7711 29.7979 23.7182 29.7979C23.6269 29.7979 23.186 29.9795 22.8317 30.163C21.8822 30.6549 20.9003 31.6303 20.4428 32.5362C20.3532 32.7135 20.2616 32.8668 20.2392 32.8767C20.2168 32.8867 20.1985 32.9265 20.1985 32.9653C20.1985 33.0041 20.162 33.1057 20.1174 33.1911C20.0728 33.2764 20.0361 33.3962 20.0359 33.4573C20.0358 33.5184 20.0145 33.5915 19.9886 33.6198C19.9629 33.6481 19.8987 33.8807 19.8462 34.1368C19.6926 34.8857 19.7906 36.6682 19.9968 36.8739C20.0181 36.8952 20.0356 36.9597 20.0356 37.0173C20.0356 37.1206 20.0766 37.2279 20.299 37.7071C20.4242 37.977 20.6427 38.3693 20.6912 38.4114C20.7084 38.4263 20.7686 38.5177 20.8251 38.6145C20.8816 38.7114 20.9469 38.7906 20.9703 38.7906C21.0924 38.7906 20.9824 38.9038 20.755 39.0123C20.6131 39.0799 20.4849 39.1519 20.47 39.1723C20.455 39.1927 20.3879 39.2265 20.3206 39.2474C20.2534 39.2684 20.1985 39.3082 20.1985 39.336C20.1985 39.3638 20.1672 39.3865 20.1288 39.3865C20.0607 39.3865 19.8375 39.5422 19.6522 39.719C19.601 39.7678 19.5177 39.8308 19.4671 39.8591C19.3139 39.9446 18.6826 40.5877 18.6494 40.692C18.6324 40.7456 18.5681 40.8054 18.5066 40.8249C18.4188 40.8526 18.3463 40.8046 18.17 40.6019C17.791 40.1662 17.4294 39.8303 17.1264 39.6325C17.0393 39.5757 16.9357 39.4971 16.8963 39.4579C16.8568 39.4186 16.7896 39.3865 16.747 39.3865C16.7043 39.3865 16.6694 39.366 16.6694 39.3411C16.6694 39.316 16.5719 39.249 16.4528 39.1921C16.3337 39.1351 16.236 39.0722 16.2356 39.0522C16.2353 39.0323 16.1617 38.9998 16.0721 38.9802C15.9826 38.9606 15.9093 38.9153 15.9093 38.8796C15.9093 38.8119 16.0442 38.5986 16.1649 38.4753C16.2035 38.4359 16.235 38.3688 16.235 38.3263C16.235 38.2837 16.2566 38.2489 16.283 38.2489C16.3094 38.2489 16.3453 38.2062 16.3628 38.1541C16.3804 38.102 16.4195 38.0227 16.4498 37.978C16.4967 37.9087 16.6688 37.5332 16.8347 37.1383C16.8849 37.0188 16.9721 36.6479 17.0576 36.1903C17.1234 35.8379 17.0856 34.1781 17.0064 33.9421C16.9764 33.8527 16.9104 33.6455 16.8598 33.4817C16.754 33.1391 16.3475 32.2716 16.2803 32.2447C16.2554 32.2348 16.235 32.2017 16.235 32.1713C16.235 32.0754 15.7168 31.447 15.3766 31.1301C15.2777 31.038 15.1311 30.9007 15.0508 30.825C14.9705 30.7494 14.8132 30.6316 14.7012 30.5633L14.4976 30.4391V25.9472V21.4553H25.4922H36.4867V25.9472ZM12.1087 32.2897C12.2729 32.3242 12.4305 32.3749 12.4589 32.4024C12.4873 32.4299 12.5418 32.4524 12.5802 32.4524C12.6609 32.4524 13.2128 32.7793 13.2398 32.843C13.2498 32.8665 13.2795 32.8858 13.3058 32.8858C13.381 32.8858 13.6399 33.1579 13.847 33.4546C13.951 33.6035 14.0545 33.7336 14.0768 33.7435C14.0992 33.7534 14.1176 33.7933 14.1176 33.8321C14.1176 33.8709 14.154 33.9725 14.1987 34.0578C14.2433 34.1432 14.2799 34.2507 14.2801 34.297C14.2803 34.3432 14.3102 34.4106 14.3465 34.4469C14.3914 34.4917 14.4128 34.7336 14.4131 35.2026C14.4136 35.8356 14.4006 35.9258 14.2557 36.2986C14.1689 36.5221 14.0657 36.7372 14.0263 36.7765C13.9869 36.8159 13.9547 36.8706 13.9547 36.898C13.9547 37.0129 13.4339 37.5477 13.1315 37.7433C13.0019 37.8271 12.8837 37.9089 12.8688 37.9251C12.8539 37.9413 12.6584 38.0256 12.4344 38.1125C12.0753 38.2519 11.9568 38.2708 11.43 38.2733C10.8013 38.2761 10.475 38.2051 10.0018 37.9625C9.74852 37.8326 9.01903 37.2726 9.01588 37.2056C9.0148 37.183 8.94063 37.0635 8.85105 36.9401C8.76146 36.8168 8.68816 36.6828 8.68816 36.6426C8.68816 36.6024 8.66373 36.5695 8.63387 36.5695C8.60401 36.5695 8.57958 36.5256 8.57958 36.472C8.57958 36.4184 8.55786 36.3513 8.53131 36.323C8.37098 36.1521 8.29464 35.0827 8.40779 34.5922C8.47484 34.3015 8.48896 34.2647 8.71151 33.7996C8.84507 33.5204 9.36923 32.8858 9.4662 32.8858C9.48873 32.8858 9.56105 32.8355 9.62702 32.7742C9.79609 32.6169 10.3397 32.3681 10.7242 32.2722C11.0812 32.1831 11.6331 32.1901 12.1087 32.2897ZM26.0894 32.2676C26.6512 32.3953 26.8913 32.5046 27.3684 32.8504C27.8836 33.2236 28.2962 33.8851 28.474 34.6228C28.6405 35.3131 28.5448 35.9534 28.1605 36.7204C27.9779 37.0847 27.5314 37.5767 27.2026 37.7758C27.098 37.8392 27.0002 37.9057 26.9852 37.9238C26.9703 37.9418 26.8359 37.9998 26.6866 38.0527C26.5373 38.1056 26.3565 38.1775 26.2848 38.2125C26.1165 38.2944 24.8754 38.297 24.6995 38.2158C24.348 38.0534 24.1511 37.978 24.0787 37.978C24.0349 37.978 23.9991 37.9592 23.9991 37.9361C23.9991 37.9131 23.9197 37.8514 23.8226 37.7989C23.6115 37.6848 23.1304 37.2455 23.1304 37.1669C23.1304 37.1363 23.1112 37.1112 23.0878 37.1112C23.0643 37.1112 22.999 37.032 22.9426 36.9352C22.8861 36.8383 22.8246 36.7469 22.8059 36.732C22.6804 36.6321 22.4262 35.6354 22.426 35.2423C22.4258 34.9571 22.5777 34.2714 22.702 33.9963C22.8258 33.7222 23.07 33.3563 23.2696 33.1461C23.4711 32.9338 24.1618 32.4524 24.265 32.4524C24.2987 32.4524 24.3688 32.4295 24.4206 32.4016C24.5789 32.3163 25.1506 32.1966 25.4379 32.1887C25.5872 32.1846 25.8804 32.2201 26.0894 32.2676ZM40.2058 32.2675C40.6206 32.3616 41.0758 32.5589 41.3731 32.7736C41.6302 32.9592 41.9704 33.2938 41.9704 33.3611C41.9704 33.3912 42.0029 33.4284 42.0427 33.4436C42.104 33.4671 42.2749 33.7774 42.4664 34.213C42.5657 34.4388 42.6389 34.8767 42.6387 35.2423C42.6385 35.6375 42.5413 36.1801 42.4548 36.2689C42.4273 36.2971 42.4047 36.3764 42.4047 36.4449C42.4047 36.5134 42.383 36.5695 42.3563 36.5695C42.3297 36.5695 42.2926 36.6305 42.2738 36.7049C42.2551 36.7794 42.2158 36.8404 42.1865 36.8404C42.1572 36.8404 42.1331 36.8709 42.1329 36.9081C42.1317 37.132 41.277 37.8548 40.7759 38.0556C40.6415 38.1094 40.4729 38.181 40.4012 38.2147C40.326 38.2501 39.9928 38.2753 39.614 38.2743C39.0179 38.2729 38.9194 38.258 38.5499 38.1136C38.3259 38.0261 38.1304 37.9413 38.1155 37.9251C38.1006 37.9089 37.9906 37.8315 37.8712 37.7529C37.5386 37.5341 37.0296 37.0169 37.0296 36.8978C37.0296 36.8705 36.9974 36.8159 36.958 36.7765C36.9186 36.7372 36.8156 36.5221 36.729 36.2986C36.5869 35.932 36.5713 35.8284 36.5698 35.2369C36.5688 34.8532 36.5939 34.5276 36.6302 34.4514C36.6644 34.3799 36.7355 34.1994 36.7882 34.0505C36.8408 33.9015 36.8986 33.7674 36.9166 33.7525C36.9345 33.7376 37.0129 33.6273 37.0908 33.5073C37.2549 33.2543 37.6018 32.8858 37.6757 32.8858C37.7036 32.8858 37.7345 32.8665 37.7445 32.843C37.7729 32.7759 38.3255 32.4524 38.4117 32.4524C38.4543 32.4524 38.5034 32.4294 38.5207 32.4013C38.5382 32.3733 38.6679 32.3333 38.809 32.3126C38.9502 32.2918 39.1145 32.2554 39.1742 32.2316C39.3535 32.1603 39.802 32.1758 40.2058 32.2675ZM13.8189 41.0511C14.1682 41.1204 14.6256 41.2457 14.6605 41.2816C14.6754 41.2971 14.8525 41.3942 15.0541 41.4975C15.2557 41.6009 15.4206 41.7028 15.4206 41.7241C15.4206 41.7454 15.4647 41.7768 15.5186 41.7938C15.7468 41.8661 16.3457 42.5565 16.6259 43.0703C16.8934 43.5607 17.1037 44.3942 17.1037 44.9639V45.3455H11.3757H5.6477L5.64966 45.1966C5.65492 44.7935 5.86108 43.6703 5.96814 43.4612C5.99431 43.41 6.0612 43.2707 6.11675 43.1515C6.17234 43.0323 6.23022 42.9226 6.24542 42.9077C6.26068 42.8928 6.33734 42.7831 6.41585 42.664C6.63151 42.3367 7.31844 41.6618 7.43593 41.6618C7.46345 41.6618 7.51824 41.6303 7.55771 41.592C7.64235 41.5096 7.99993 41.3367 8.08555 41.3367C8.1184 41.3367 8.14522 41.3181 8.14522 41.2954C8.14522 41.2471 8.58951 41.1276 9.0054 41.064C9.16497 41.0396 9.31059 41.0047 9.329 40.9862C9.38307 40.9323 13.5213 40.9921 13.8189 41.0511ZM27.9354 41.0535C28.4087 41.1361 28.9762 41.3573 29.397 41.623C29.8581 41.9141 30.5509 42.6572 30.658 42.9755C30.6755 43.0276 30.7115 43.0703 30.7379 43.0703C30.7642 43.0703 30.7858 43.097 30.7858 43.1298C30.7858 43.1625 30.819 43.2662 30.8596 43.36C31.0313 43.7572 31.0585 43.8473 31.0919 44.1302C31.1111 44.2938 31.1479 44.4406 31.1735 44.4564C31.1992 44.4722 31.2202 44.6787 31.2202 44.9153V45.3455H25.4922H19.7641V44.9153C19.7641 44.6787 19.7851 44.4722 19.8108 44.4564C19.8364 44.4406 19.8732 44.2938 19.8924 44.1302C19.9258 43.8473 19.953 43.7572 20.1247 43.36C20.1653 43.2662 20.1985 43.1625 20.1985 43.1298C20.1985 43.097 20.2201 43.0703 20.2464 43.0703C20.2728 43.0703 20.3088 43.0276 20.3263 42.9755C20.4314 42.6633 21.3662 41.6618 21.5526 41.6618C21.5799 41.6618 21.6347 41.6306 21.6741 41.5924C21.8686 41.4044 22.5629 41.1472 23.2118 41.0227C23.5692 40.9541 27.5139 40.9798 27.9354 41.0535ZM41.9975 41.0519C42.4971 41.1548 42.8391 41.2536 42.8391 41.2954C42.8391 41.3181 42.8738 41.3367 42.9161 41.3367C43.0043 41.3367 43.314 41.4936 43.4241 41.5941C43.465 41.6313 43.5208 41.6618 43.5484 41.6618C43.6661 41.6618 44.3606 42.3408 44.5652 42.6558C44.6455 42.7795 44.7236 42.8928 44.7389 42.9077C44.7666 42.9349 44.8913 43.1952 44.9983 43.4495C45.1566 43.8253 45.2395 44.2285 45.2676 44.7593L45.2986 45.3455H39.5896H33.8806L33.8838 44.9528C33.8856 44.7368 33.9087 44.4503 33.9352 44.3162C34.0576 43.6961 34.041 43.7475 34.2936 43.2113C34.5483 42.6706 35.0527 42.0479 35.4035 41.8412C35.4916 41.7892 35.5637 41.733 35.5637 41.7161C35.5637 41.6993 35.7286 41.6009 35.9302 41.4975C36.1317 41.3942 36.3089 41.297 36.3238 41.2816C36.3696 41.2343 36.8208 41.1206 37.1892 41.0635C37.3815 41.0336 37.5513 40.9968 37.5666 40.9816C37.6179 40.9303 41.7233 40.9955 41.9975 41.0519Z" fill="#49A999"/>
<path fill-rule="evenodd" clip-rule="evenodd" d="M24.2614 3.07879C24.0623 3.13003 23.8811 3.19017 23.8587 3.21254C23.8364 3.23486 23.7709 3.25317 23.7132 3.25317C23.6555 3.25317 23.5191 3.29261 23.41 3.34088C23.301 3.38909 23.1263 3.46585 23.0218 3.51147C22.4141 3.77659 21.3846 4.62494 20.9027 5.25757C20.8007 5.39165 20.7042 5.51353 20.6885 5.52843C20.6403 5.57421 20.4183 5.97557 20.299 6.23268C20.0814 6.70144 20.0356 6.81851 20.0356 6.90524C20.0356 6.95329 20.0123 7.03493 19.9838 7.08666C19.6916 7.6175 19.6914 9.7803 19.9836 10.3084C20.0122 10.3602 20.0356 10.4418 20.0356 10.4899C20.0356 10.6859 20.4923 11.572 20.8387 12.0479C21.0416 12.3267 21.0328 12.368 20.755 12.4418C20.6878 12.4597 20.6328 12.496 20.6328 12.5226C20.6328 12.5492 20.6044 12.5709 20.5698 12.5709C20.4966 12.5709 19.963 12.9008 19.9361 12.9627C19.9261 12.9856 19.8938 13.0043 19.8643 13.0043C19.8348 13.0043 19.7801 13.0348 19.7427 13.072C19.7053 13.1093 19.5575 13.2372 19.4142 13.3564C19.0268 13.6784 18.9973 13.7077 18.704 14.0607C18.5555 14.2394 18.4156 14.3938 18.3932 14.4037C18.3708 14.4137 18.3525 14.4543 18.3525 14.494C18.3525 14.5338 18.3337 14.5744 18.3108 14.5844C18.2488 14.6112 17.9181 15.1436 17.9181 15.2166C17.9181 15.2512 17.8937 15.2796 17.8638 15.2796C17.834 15.2796 17.8096 15.3033 17.8096 15.3323C17.8096 15.3613 17.7509 15.5136 17.6792 15.6708C17.6075 15.8281 17.5065 16.0908 17.4546 16.2547C17.4028 16.4185 17.3392 16.6014 17.3133 16.661C17.2236 16.8671 17.1442 17.4763 17.1209 18.1372L17.0975 18.8008H14.0851C11.1768 18.8008 11.0654 18.8045 10.8593 18.9095C10.5877 19.0477 10.2627 19.331 10.2627 19.4294C10.2627 19.471 10.2383 19.505 10.2084 19.505C10.1785 19.505 10.1541 19.566 10.1541 19.6405C10.1541 19.715 10.1297 19.7759 10.0998 19.7759C10.0692 19.7759 10.0455 19.9294 10.0455 20.128C10.0455 20.3267 10.0692 20.4802 10.0998 20.4802C10.1297 20.4802 10.1541 20.5411 10.1541 20.6156C10.1541 20.6901 10.1785 20.751 10.2084 20.751C10.2383 20.751 10.2627 20.785 10.2627 20.8266C10.2627 20.9251 10.5877 21.2084 10.8593 21.3466C11.0131 21.4249 11.1796 21.4553 11.455 21.4553H11.8372V25.4881V29.5209L11.1721 29.5435C10.5097 29.5661 9.94056 29.6479 9.76123 29.7462C9.70938 29.7747 9.62761 29.7979 9.57956 29.7979C9.53151 29.7979 9.42732 29.8323 9.34805 29.8743C9.26878 29.9163 9.10623 29.9932 8.98678 30.0453C8.86733 30.0973 8.67188 30.2014 8.55243 30.2766C8.43298 30.3518 8.27716 30.4436 8.20614 30.4806C7.95047 30.6139 7.36697 31.1397 6.95847 31.6047C6.40298 32.2371 5.90109 33.2766 5.74239 34.1233C5.61686 34.7934 5.70444 36.6982 5.86851 36.8648C5.89637 36.893 5.91917 36.9604 5.91917 37.0145C5.91917 37.0685 5.94241 37.1551 5.97086 37.2068C5.99925 37.2585 6.06283 37.3984 6.11213 37.5175C6.26573 37.8891 6.31818 37.985 6.61142 38.4308C6.90618 38.8791 6.93816 38.9531 6.83679 38.9531C6.76415 38.9531 6.39131 39.123 6.35352 39.1732C6.33859 39.1931 6.27143 39.2265 6.20421 39.2474C6.13705 39.2684 6.08205 39.3082 6.08205 39.336C6.08205 39.3638 6.05501 39.3865 6.022 39.3865C5.88345 39.3865 4.61612 40.4974 4.61612 40.6189C4.61612 40.642 4.55503 40.7067 4.48038 40.7627C4.40573 40.8186 4.34465 40.887 4.34465 40.9148C4.34465 40.9426 4.31413 40.9992 4.27678 41.0408C4.11563 41.22 4.07318 41.2813 4.07318 41.3345C4.07318 41.3655 4.05037 41.3909 4.02252 41.3909C3.99467 41.3909 3.95476 41.4457 3.9338 41.5128C3.91279 41.5798 3.88065 41.6469 3.86224 41.6618C3.80089 41.7117 3.63882 42.0488 3.63882 42.1266C3.63882 42.1689 3.62015 42.2035 3.59729 42.2035C3.54902 42.2035 3.36735 42.6908 3.36735 42.8202C3.36735 42.8684 3.34699 42.9077 3.32213 42.9077C3.27875 42.9077 3.20735 43.1906 3.08959 43.8287C2.99843 44.3227 2.96536 46.6798 3.04496 47.0113C3.08253 47.1678 3.13378 47.2958 3.15886 47.2958C3.18395 47.2958 3.20447 47.3277 3.20447 47.3667C3.20447 47.4787 3.49576 47.747 3.76115 47.8791L4.00362 48H25.4922H46.9807L47.2232 47.8791C47.4885 47.747 47.7798 47.4787 47.7798 47.3667C47.7798 47.3277 47.7992 47.2958 47.8229 47.2958C48.0537 47.2958 48.0612 44.095 47.8317 43.5307C47.8075 43.4711 47.772 43.328 47.7529 43.2126C47.7337 43.0972 47.6978 42.9631 47.6729 42.9146C47.6481 42.8661 47.5836 42.6863 47.5297 42.515C47.4757 42.3437 47.4122 42.2035 47.3885 42.2035C47.3649 42.2035 47.3455 42.1689 47.3455 42.1266C47.3455 42.0556 47.1906 41.724 47.1283 41.6618C47.089 41.6225 46.9709 41.4314 46.9274 41.3367C46.9068 41.292 46.8643 41.2258 46.8327 41.1896C46.6742 41.0076 46.6397 40.9581 46.6397 40.9132C46.6397 40.8863 46.5786 40.8186 46.5039 40.7627C46.4293 40.7067 46.3682 40.642 46.3682 40.6189C46.3682 40.4989 45.0969 39.3865 44.9597 39.3865C44.9281 39.3865 44.9022 39.3638 44.9022 39.336C44.9022 39.3082 44.8472 39.2684 44.7801 39.2474C44.7129 39.2265 44.6457 39.1931 44.6308 39.1732C44.593 39.123 44.2202 38.9531 44.1475 38.9531C44.0461 38.9531 44.0781 38.8791 44.3729 38.4308C44.5297 38.1925 44.686 37.9382 44.7203 37.8658C44.8429 37.6069 44.9451 37.3516 45.0115 37.1383C45.0486 37.0191 45.1032 36.8607 45.1327 36.7862C45.2947 36.3779 45.3599 34.8237 45.2419 34.1859C45.1549 33.7162 45.0432 33.3191 44.998 33.3191C44.9752 33.3191 44.9565 33.2784 44.9565 33.2286C44.9565 33.0036 44.398 32.0287 44.0258 31.6043C43.6308 31.1537 42.9827 30.5637 42.8207 30.5072C42.786 30.4952 42.6843 30.4323 42.5948 30.3674C42.5052 30.3026 42.2853 30.1818 42.1061 30.0989C41.9269 30.0161 41.7316 29.9227 41.6721 29.8915C41.3621 29.7288 40.5075 29.5686 39.8122 29.5429L39.1471 29.5182V25.4867V21.4553H39.5293C39.8047 21.4553 39.9712 21.4249 40.125 21.3466C40.3966 21.2084 40.7216 20.9251 40.7216 20.8266C40.7216 20.785 40.746 20.751 40.7759 20.751C40.8058 20.751 40.8302 20.6901 40.8302 20.6156C40.8302 20.5411 40.8546 20.4802 40.8845 20.4802C40.9151 20.4802 40.9388 20.3267 40.9388 20.128C40.9388 19.9294 40.9151 19.7759 40.8845 19.7759C40.8546 19.7759 40.8302 19.715 40.8302 19.6405C40.8302 19.566 40.8058 19.505 40.7759 19.505C40.746 19.505 40.7216 19.471 40.7216 19.4294C40.7216 19.331 40.3966 19.0477 40.125 18.9095C39.9393 18.8149 39.8052 18.8008 39.095 18.8008H38.2784V16.666V14.5312L38.1393 14.2636C37.952 13.9034 36.0668 12.0326 35.7299 11.8727C35.2562 11.6478 34.6328 11.7632 34.2173 12.1527C34.0382 12.3205 33.8263 12.8125 33.8263 13.0603C33.8263 13.2669 33.9449 13.7085 34.0004 13.7085C34.0241 13.7085 34.0435 13.7431 34.0435 13.7853C34.0435 13.8275 34.3977 14.2175 34.8307 14.652L35.618 15.4419V17.1213V18.8008H34.7538H33.8896L33.8655 18.1643C33.841 17.5174 33.7555 16.8573 33.6707 16.661C33.645 16.6014 33.5815 16.4185 33.5297 16.2547C33.4778 16.0908 33.3768 15.8281 33.3051 15.6708C33.2334 15.5136 33.1747 15.3613 33.1747 15.3323C33.1747 15.3033 33.1503 15.2796 33.1205 15.2796C33.0906 15.2796 33.0662 15.2512 33.0662 15.2166C33.0662 15.1436 32.7355 14.6112 32.6735 14.5844C32.6506 14.5744 32.6318 14.5338 32.6318 14.494C32.6318 14.4543 32.6135 14.4137 32.5911 14.4037C32.5687 14.3938 32.4285 14.2394 32.2795 14.0607C31.9483 13.6633 31.9714 13.6863 31.5731 13.3558C31.3939 13.2072 31.2392 13.0672 31.2292 13.0449C31.2192 13.0226 31.1785 13.0043 31.1387 13.0043C31.0989 13.0043 31.0582 12.9856 31.0482 12.9627C31.0213 12.9008 30.4877 12.5709 30.4146 12.5709C30.3799 12.5709 30.3515 12.5492 30.3515 12.5226C30.3515 12.496 30.2965 12.4597 30.2293 12.4418C29.9491 12.3673 29.9422 12.3271 30.1592 12.0323C30.4245 11.6716 30.9487 10.6416 30.9487 10.4809C30.9487 10.4123 30.9691 10.3436 30.994 10.3283C31.019 10.3129 31.083 10.0688 31.1364 9.78577C31.2885 8.97957 31.1951 7.27307 30.9875 7.06597C30.9662 7.04462 30.9487 6.9801 30.9487 6.92252C30.9487 6.71812 30.5438 5.90699 30.1987 5.42009C29.9199 5.02674 29.3116 4.39708 28.9398 4.11712C28.8054 4.01592 28.6833 3.92031 28.6683 3.90465C28.616 3.84978 27.9457 3.50421 27.5743 3.3405C27.4652 3.2925 27.3288 3.25317 27.2711 3.25317C27.2134 3.25317 27.1488 3.23573 27.1274 3.21444C27.0078 3.09509 26.4982 3.0257 25.6007 3.00657C24.8034 2.98956 24.5568 3.00284 24.2614 3.07879ZM26.5372 5.83175C26.7687 5.91306 26.9703 5.99632 26.9852 6.0168C27.0002 6.03722 27.1101 6.11642 27.2296 6.19281C27.4523 6.33517 27.6349 6.49791 27.8277 6.72609C27.9757 6.90107 28.2883 7.413 28.2883 7.48023C28.2883 7.50997 28.3116 7.57666 28.3401 7.62839C28.4301 7.79183 28.5598 8.42311 28.5598 8.69755C28.5598 8.97199 28.4301 9.60326 28.3401 9.7667C28.3116 9.81844 28.2883 9.88513 28.2883 9.91487C28.2883 10.0515 27.8355 10.6983 27.5888 10.9139C27.5176 10.9761 27.4321 11.0522 27.3988 11.0831C27.2973 11.1769 26.7701 11.4875 26.7122 11.4875C26.6824 11.4875 26.6155 11.5107 26.5637 11.5391C26.401 11.6283 25.768 11.7583 25.4964 11.7583C24.7663 11.7583 23.7396 11.3177 23.2878 10.8103C23.0504 10.5438 22.9675 10.4391 22.9675 10.4059C22.9675 10.3863 22.923 10.3226 22.8687 10.2644C22.6856 10.0684 22.4257 9.14843 22.426 8.69755C22.4262 8.30149 22.6815 7.30406 22.8073 7.20779C22.8268 7.19289 22.9042 7.08319 22.9794 6.96401C23.1433 6.7042 23.6791 6.17851 23.7799 6.17851C23.7996 6.17851 23.8634 6.13414 23.9218 6.07991C24.0329 5.97666 24.7239 5.71582 25.0035 5.67161C25.3975 5.60937 26.1184 5.68461 26.5372 5.83175ZM28.0162 14.5104C28.3146 14.573 28.4925 14.6313 28.8123 14.7713C28.9064 14.8125 29.0102 14.8462 29.043 14.8462C29.0759 14.8462 29.1027 14.8677 29.1027 14.894C29.1027 14.9203 29.1455 14.9562 29.1977 14.9737C29.2922 15.0054 29.3991 15.0701 29.6135 15.2254C29.7587 15.3305 30.3004 15.871 30.4058 16.0159C30.5614 16.2297 30.6262 16.3365 30.658 16.4307C30.6755 16.4829 30.7115 16.5255 30.7379 16.5255C30.7642 16.5255 30.7858 16.5523 30.7858 16.5851C30.7858 16.6178 30.8196 16.7214 30.8609 16.8153C31.0838 17.3221 31.1669 17.6956 31.2034 18.3539L31.2281 18.8008H25.4922H19.7562L19.7809 18.3539C19.8174 17.6956 19.9005 17.3221 20.1234 16.8153C20.1647 16.7214 20.1985 16.6178 20.1985 16.5851C20.1985 16.5523 20.2201 16.5255 20.2464 16.5255C20.2728 16.5255 20.3088 16.4829 20.3263 16.4307C20.3581 16.3365 20.4229 16.2297 20.5785 16.0159C20.6839 15.871 21.2256 15.3305 21.3708 15.2254C21.5852 15.0701 21.6921 15.0054 21.7866 14.9737C21.8388 14.9562 21.8816 14.9203 21.8816 14.894C21.8816 14.8677 21.9084 14.8462 21.9413 14.8462C21.9741 14.8462 22.0779 14.8112 22.172 14.7685C22.4591 14.6383 22.8546 14.5212 23.0101 14.5203C23.0912 14.5198 23.1942 14.4956 23.239 14.4663C23.3555 14.3902 27.6313 14.4296 28.0162 14.5104ZM36.4867 25.9472V30.4391L36.2831 30.5633C36.1711 30.6316 36.0138 30.7494 35.9335 30.825C35.8532 30.9007 35.7066 31.038 35.6077 31.1301C35.2675 31.447 34.7493 32.0754 34.7493 32.1713C34.7493 32.2017 34.7307 32.2348 34.7081 32.2447C34.5915 32.2958 34.0435 33.5552 34.0435 33.772C34.0435 33.8407 34.0252 33.9152 34.0029 33.9375C33.9426 33.9977 33.8313 34.8118 33.8282 35.2152C33.8253 35.6004 33.9197 36.3705 33.9908 36.5424C34.0154 36.602 34.0513 36.7452 34.0704 36.8606C34.0895 36.976 34.1258 37.11 34.1511 37.1585C34.1764 37.207 34.2606 37.3929 34.3383 37.5717C34.4159 37.7505 34.5042 37.9333 34.5345 37.978C34.5648 38.0227 34.6039 38.102 34.6215 38.1541C34.639 38.2062 34.6749 38.2489 34.7013 38.2489C34.7277 38.2489 34.7493 38.2837 34.7493 38.3263C34.7493 38.3688 34.7808 38.4359 34.8194 38.4753C34.9401 38.5986 35.075 38.8119 35.075 38.8796C35.075 38.9153 35.0017 38.9606 34.9122 38.9802C34.8226 38.9998 34.749 39.0323 34.7487 39.0522C34.7483 39.0722 34.6506 39.1351 34.5315 39.1921C34.4124 39.249 34.3149 39.316 34.3149 39.3411C34.3149 39.366 34.2821 39.3865 34.2419 39.3865C34.2018 39.3865 34.098 39.4474 34.0112 39.5219C33.9244 39.5963 33.8387 39.6573 33.8206 39.6573C33.752 39.6574 33.1211 40.2498 32.8143 40.6022C32.6381 40.8046 32.5655 40.8526 32.4777 40.8249C32.4162 40.8054 32.3519 40.7456 32.3349 40.692C32.3017 40.5877 31.6704 39.9446 31.5172 39.8591C31.4666 39.8308 31.3833 39.7678 31.3321 39.719C31.1468 39.5422 30.9236 39.3865 30.8555 39.3865C30.8171 39.3865 30.7858 39.3638 30.7858 39.336C30.7858 39.3082 30.7309 39.2684 30.6637 39.2474C30.5964 39.2265 30.5293 39.1927 30.5143 39.1723C30.4994 39.1519 30.3712 39.0799 30.2293 39.0123C30.0019 38.9038 29.8919 38.7906 30.014 38.7906C30.0374 38.7906 30.1027 38.7114 30.1592 38.6145C30.2157 38.5177 30.2759 38.4263 30.2931 38.4114C30.3421 38.3689 30.5661 37.9706 30.6588 37.7613C30.705 37.657 30.7891 37.4694 30.8458 37.3445C30.9024 37.2195 30.9487 37.079 30.9487 37.0322C30.9487 36.9855 30.9721 36.9049 31.0007 36.8532C31.0293 36.8014 31.0904 36.5837 31.1364 36.3692C31.2963 35.6245 31.2169 34.0222 31.0007 33.6314C30.9721 33.5797 30.9487 33.498 30.9487 33.45C30.9487 33.2468 30.4874 32.3591 30.1207 31.8565C29.8088 31.429 29.1348 30.7845 28.6941 30.4921C28.281 30.2181 27.4156 29.7979 27.2644 29.7979C27.2123 29.7979 27.1466 29.7763 27.1183 29.7501C26.8431 29.4947 24.1412 29.4947 23.866 29.7501C23.8377 29.7763 23.7711 29.7979 23.7182 29.7979C23.6269 29.7979 23.186 29.9795 22.8317 30.163C21.8822 30.6549 20.9003 31.6303 20.4428 32.5362C20.3532 32.7135 20.2616 32.8668 20.2392 32.8767C20.2168 32.8867 20.1985 32.9265 20.1985 32.9653C20.1985 33.0041 20.162 33.1057 20.1174 33.1911C20.0728 33.2764 20.0361 33.3962 20.0359 33.4573C20.0358 33.5184 20.0145 33.5915 19.9886 33.6198C19.9629 33.6481 19.8987 33.8807 19.8462 34.1368C19.6926 34.8857 19.7906 36.6682 19.9968 36.8739C20.0181 36.8952 20.0356 36.9597 20.0356 37.0173C20.0356 37.1206 20.0766 37.2279 20.299 37.7071C20.4242 37.977 20.6427 38.3693 20.6912 38.4114C20.7084 38.4263 20.7686 38.5177 20.8251 38.6145C20.8816 38.7114 20.9469 38.7906 20.9703 38.7906C21.0924 38.7906 20.9824 38.9038 20.755 39.0123C20.6131 39.0799 20.4849 39.1519 20.47 39.1723C20.455 39.1927 20.3879 39.2265 20.3206 39.2474C20.2534 39.2684 20.1985 39.3082 20.1985 39.336C20.1985 39.3638 20.1672 39.3865 20.1288 39.3865C20.0607 39.3865 19.8375 39.5422 19.6522 39.719C19.601 39.7678 19.5177 39.8308 19.4671 39.8591C19.3139 39.9446 18.6826 40.5877 18.6494 40.692C18.6324 40.7456 18.5681 40.8054 18.5066 40.8249C18.4188 40.8526 18.3463 40.8046 18.17 40.6019C17.791 40.1662 17.4294 39.8303 17.1264 39.6325C17.0393 39.5757 16.9357 39.4971 16.8963 39.4579C16.8568 39.4186 16.7896 39.3865 16.747 39.3865C16.7043 39.3865 16.6694 39.366 16.6694 39.3411C16.6694 39.316 16.5719 39.249 16.4528 39.1921C16.3337 39.1351 16.236 39.0722 16.2356 39.0522C16.2353 39.0323 16.1617 38.9998 16.0721 38.9802C15.9826 38.9606 15.9093 38.9153 15.9093 38.8796C15.9093 38.8119 16.0442 38.5986 16.1649 38.4753C16.2035 38.4359 16.235 38.3688 16.235 38.3263C16.235 38.2837 16.2566 38.2489 16.283 38.2489C16.3094 38.2489 16.3453 38.2062 16.3628 38.1541C16.3804 38.102 16.4195 38.0227 16.4498 37.978C16.4967 37.9087 16.6688 37.5332 16.8347 37.1383C16.8849 37.0188 16.9721 36.6479 17.0576 36.1903C17.1234 35.8379 17.0856 34.1781 17.0064 33.9421C16.9764 33.8527 16.9104 33.6455 16.8598 33.4817C16.754 33.1391 16.3475 32.2716 16.2803 32.2447C16.2554 32.2348 16.235 32.2017 16.235 32.1713C16.235 32.0754 15.7168 31.447 15.3766 31.1301C15.2777 31.038 15.1311 30.9007 15.0508 30.825C14.9705 30.7494 14.8132 30.6316 14.7012 30.5633L14.4976 30.4391V25.9472V21.4553H25.4922H36.4867V25.9472ZM12.1087 32.2897C12.2729 32.3242 12.4305 32.3749 12.4589 32.4024C12.4873 32.4299 12.5418 32.4524 12.5802 32.4524C12.6609 32.4524 13.2128 32.7793 13.2398 32.843C13.2498 32.8665 13.2795 32.8858 13.3058 32.8858C13.381 32.8858 13.6399 33.1579 13.847 33.4546C13.951 33.6035 14.0545 33.7336 14.0768 33.7435C14.0992 33.7534 14.1176 33.7933 14.1176 33.8321C14.1176 33.8709 14.154 33.9725 14.1987 34.0578C14.2433 34.1432 14.2799 34.2507 14.2801 34.297C14.2803 34.3432 14.3102 34.4106 14.3465 34.4469C14.3914 34.4917 14.4128 34.7336 14.4131 35.2026C14.4136 35.8356 14.4006 35.9258 14.2557 36.2986C14.1689 36.5221 14.0657 36.7372 14.0263 36.7765C13.9869 36.8159 13.9547 36.8706 13.9547 36.898C13.9547 37.0129 13.4339 37.5477 13.1315 37.7433C13.0019 37.8271 12.8837 37.9089 12.8688 37.9251C12.8539 37.9413 12.6584 38.0256 12.4344 38.1125C12.0753 38.2519 11.9568 38.2708 11.43 38.2733C10.8013 38.2761 10.475 38.2051 10.0018 37.9625C9.74852 37.8326 9.01903 37.2726 9.01588 37.2056C9.0148 37.183 8.94063 37.0635 8.85105 36.9401C8.76146 36.8168 8.68816 36.6828 8.68816 36.6426C8.68816 36.6024 8.66373 36.5695 8.63387 36.5695C8.60401 36.5695 8.57958 36.5256 8.57958 36.472C8.57958 36.4184 8.55786 36.3513 8.53131 36.323C8.37098 36.1521 8.29464 35.0827 8.40779 34.5922C8.47484 34.3015 8.48896 34.2647 8.71151 33.7996C8.84507 33.5204 9.36923 32.8858 9.4662 32.8858C9.48873 32.8858 9.56105 32.8355 9.62702 32.7742C9.79609 32.6169 10.3397 32.3681 10.7242 32.2722C11.0812 32.1831 11.6331 32.1901 12.1087 32.2897ZM26.0894 32.2676C26.6512 32.3953 26.8913 32.5046 27.3684 32.8504C27.8836 33.2236 28.2962 33.8851 28.474 34.6228C28.6405 35.3131 28.5448 35.9534 28.1605 36.7204C27.9779 37.0847 27.5314 37.5767 27.2026 37.7758C27.098 37.8392 27.0002 37.9057 26.9852 37.9238C26.9703 37.9418 26.8359 37.9998 26.6866 38.0527C26.5373 38.1056 26.3565 38.1775 26.2848 38.2125C26.1165 38.2944 24.8754 38.297 24.6995 38.2158C24.348 38.0534 24.1511 37.978 24.0787 37.978C24.0349 37.978 23.9991 37.9592 23.9991 37.9361C23.9991 37.9131 23.9197 37.8514 23.8226 37.7989C23.6115 37.6848 23.1304 37.2455 23.1304 37.1669C23.1304 37.1363 23.1112 37.1112 23.0878 37.1112C23.0643 37.1112 22.999 37.032 22.9426 36.9352C22.8861 36.8383 22.8246 36.7469 22.8059 36.732C22.6804 36.6321 22.4262 35.6354 22.426 35.2423C22.4258 34.9571 22.5777 34.2714 22.702 33.9963C22.8258 33.7222 23.07 33.3563 23.2696 33.1461C23.4711 32.9338 24.1618 32.4524 24.265 32.4524C24.2987 32.4524 24.3688 32.4295 24.4206 32.4016C24.5789 32.3163 25.1506 32.1966 25.4379 32.1887C25.5872 32.1846 25.8804 32.2201 26.0894 32.2676ZM40.2058 32.2675C40.6206 32.3616 41.0758 32.5589 41.3731 32.7736C41.6302 32.9592 41.9704 33.2938 41.9704 33.3611C41.9704 33.3912 42.0029 33.4284 42.0427 33.4436C42.104 33.4671 42.2749 33.7774 42.4664 34.213C42.5657 34.4388 42.6389 34.8767 42.6387 35.2423C42.6385 35.6375 42.5413 36.1801 42.4548 36.2689C42.4273 36.2971 42.4047 36.3764 42.4047 36.4449C42.4047 36.5134 42.383 36.5695 42.3563 36.5695C42.3297 36.5695 42.2926 36.6305 42.2738 36.7049C42.2551 36.7794 42.2158 36.8404 42.1865 36.8404C42.1572 36.8404 42.1331 36.8709 42.1329 36.9081C42.1317 37.132 41.277 37.8548 40.7759 38.0556C40.6415 38.1094 40.4729 38.181 40.4012 38.2147C40.326 38.2501 39.9928 38.2753 39.614 38.2743C39.0179 38.2729 38.9194 38.258 38.5499 38.1136C38.3259 38.0261 38.1304 37.9413 38.1155 37.9251C38.1006 37.9089 37.9906 37.8315 37.8712 37.7529C37.5386 37.5341 37.0296 37.0169 37.0296 36.8978C37.0296 36.8705 36.9974 36.8159 36.958 36.7765C36.9186 36.7372 36.8156 36.5221 36.729 36.2986C36.5869 35.932 36.5713 35.8284 36.5698 35.2369C36.5688 34.8532 36.5939 34.5276 36.6302 34.4514C36.6644 34.3799 36.7355 34.1994 36.7882 34.0505C36.8408 33.9015 36.8986 33.7674 36.9166 33.7525C36.9345 33.7376 37.0129 33.6273 37.0908 33.5073C37.2549 33.2543 37.6018 32.8858 37.6757 32.8858C37.7036 32.8858 37.7345 32.8665 37.7445 32.843C37.7729 32.7759 38.3255 32.4524 38.4117 32.4524C38.4543 32.4524 38.5034 32.4294 38.5207 32.4013C38.5382 32.3733 38.6679 32.3333 38.809 32.3126C38.9502 32.2918 39.1145 32.2554 39.1742 32.2316C39.3535 32.1603 39.802 32.1758 40.2058 32.2675ZM13.8189 41.0511C14.1682 41.1204 14.6256 41.2457 14.6605 41.2816C14.6754 41.2971 14.8525 41.3942 15.0541 41.4975C15.2557 41.6009 15.4206 41.7028 15.4206 41.7241C15.4206 41.7454 15.4647 41.7768 15.5186 41.7938C15.7468 41.8661 16.3457 42.5565 16.6259 43.0703C16.8934 43.5607 17.1037 44.3942 17.1037 44.9639V45.3455H11.3757H5.6477L5.64966 45.1966C5.65492 44.7935 5.86108 43.6703 5.96814 43.4612C5.99431 43.41 6.0612 43.2707 6.11675 43.1515C6.17234 43.0323 6.23022 42.9226 6.24542 42.9077C6.26068 42.8928 6.33734 42.7831 6.41585 42.664C6.63151 42.3367 7.31844 41.6618 7.43593 41.6618C7.46345 41.6618 7.51824 41.6303 7.55771 41.592C7.64235 41.5096 7.99993 41.3367 8.08555 41.3367C8.1184 41.3367 8.14522 41.3181 8.14522 41.2954C8.14522 41.2471 8.58951 41.1276 9.0054 41.064C9.16497 41.0396 9.31059 41.0047 9.329 40.9862C9.38307 40.9323 13.5213 40.9921 13.8189 41.0511ZM27.9354 41.0535C28.4087 41.1361 28.9762 41.3573 29.397 41.623C29.8581 41.9141 30.5509 42.6572 30.658 42.9755C30.6755 43.0276 30.7115 43.0703 30.7379 43.0703C30.7642 43.0703 30.7858 43.097 30.7858 43.1298C30.7858 43.1625 30.819 43.2662 30.8596 43.36C31.0313 43.7572 31.0585 43.8473 31.0919 44.1302C31.1111 44.2938 31.1479 44.4406 31.1735 44.4564C31.1992 44.4722 31.2202 44.6787 31.2202 44.9153V45.3455H25.4922H19.7641V44.9153C19.7641 44.6787 19.7851 44.4722 19.8108 44.4564C19.8364 44.4406 19.8732 44.2938 19.8924 44.1302C19.9258 43.8473 19.953 43.7572 20.1247 43.36C20.1653 43.2662 20.1985 43.1625 20.1985 43.1298C20.1985 43.097 20.2201 43.0703 20.2464 43.0703C20.2728 43.0703 20.3088 43.0276 20.3263 42.9755C20.4314 42.6633 21.3662 41.6618 21.5526 41.6618C21.5799 41.6618 21.6347 41.6306 21.6741 41.5924C21.8686 41.4044 22.5629 41.1472 23.2118 41.0227C23.5692 40.9541 27.5139 40.9798 27.9354 41.0535ZM41.9975 41.0519C42.4971 41.1548 42.8391 41.2536 42.8391 41.2954C42.8391 41.3181 42.8738 41.3367 42.9161 41.3367C43.0043 41.3367 43.314 41.4936 43.4241 41.5941C43.465 41.6313 43.5208 41.6618 43.5484 41.6618C43.6661 41.6618 44.3606 42.3408 44.5652 42.6558C44.6455 42.7795 44.7236 42.8928 44.7389 42.9077C44.7666 42.9349 44.8913 43.1952 44.9983 43.4495C45.1566 43.8253 45.2395 44.2285 45.2676 44.7593L45.2986 45.3455H39.5896H33.8806L33.8838 44.9528C33.8856 44.7368 33.9087 44.4503 33.9352 44.3162C34.0576 43.6961 34.041 43.7475 34.2936 43.2113C34.5483 42.6706 35.0527 42.0479 35.4035 41.8412C35.4916 41.7892 35.5637 41.733 35.5637 41.7161C35.5637 41.6993 35.7286 41.6009 35.9302 41.4975C36.1317 41.3942 36.3089 41.297 36.3238 41.2816C36.3696 41.2343 36.8208 41.1206 37.1892 41.0635C37.3815 41.0336 37.5513 40.9968 37.5666 40.9816C37.6179 40.9303 41.7233 40.9955 41.9975 41.0519Z" fill="url(#paint0_radial_313_14)"/>
<defs>
<radialGradient id="paint0_radial_313_14" cx="0" cy="0" r="1" gradientUnits="userSpaceOnUse" gradientTransform="translate(45.7425 24.9682) rotate(-135.405) scale(85.8385 159.182)">
<stop stop-color="#42E8E0"/>
<stop offset="0.02" stop-color="#43E0DE"/>
<stop offset="0.11" stop-color="#47BAD1"/>
<stop offset="0.21" stop-color="#4B9AC7"/>
<stop offset="0.32" stop-color="#4E7FBE"/>
<stop offset="0.44" stop-color="#506BB7"/>
<stop offset="0.58" stop-color="#525CB3"/>
<stop offset="0.74" stop-color="#5354B0"/>
<stop offset="1" stop-color="#5351AF"/>
</radialGradient>
</defs>
</svg>
