<svg width="47" height="43" viewBox="0 0 47 43" fill="none" xmlns="http://www.w3.org/2000/svg">
<path fill-rule="evenodd" clip-rule="evenodd" d="M22.4518 1.25054C21.9436 1.42405 20.9589 1.75831 20.2636 1.99344C19.5682 2.22847 17.9271 2.78747 16.6167 3.23551C15.3062 3.68356 13.4681 4.30728 12.5321 4.62151C11.596 4.93583 10.7427 5.24174 10.6357 5.30138C10.5009 5.37651 9.09522 5.42432 6.06039 5.45702C1.20364 5.50938 1.36916 5.48708 0.954873 6.14728C0.769122 6.44337 0.765329 6.74965 0.765037 21.6269L0.764648 36.8045L0.98541 37.1256C1.45095 37.8029 1.17116 37.7772 8.08283 37.7773L14.2826 37.7775V39.0533V40.3291L12.0701 40.3295C9.53412 40.3299 9.39339 40.3662 9.01703 41.1192C8.74871 41.6558 8.82807 42.1099 9.27261 42.5812L9.59957 42.928H23.7646H37.9297L38.2567 42.5812C38.7103 42.1002 38.7755 41.6794 38.4846 41.1095C38.1067 40.3692 37.9501 40.3294 35.4105 40.3293L33.2467 40.3291V39.0533V37.7775L39.4465 37.7773C46.3581 37.7772 46.0783 37.8029 46.5439 37.1256L46.7646 36.8045L46.7643 21.6269C46.764 6.74965 46.7602 6.44337 46.5744 6.14728C46.1634 5.49227 46.2804 5.50947 41.8579 5.45646L37.8661 5.40864L30.9927 3.16473C26.5069 1.70029 23.9901 0.923275 23.7474 0.928C23.5429 0.931969 22.9599 1.07713 22.4518 1.25054ZM28.6678 5.21906C31.309 6.07584 33.4874 6.7935 33.5084 6.81392C33.5295 6.83433 31.3537 7.56163 28.6732 8.43003L23.7999 10.009L21.6913 9.29843C15.8618 7.33388 14.4696 6.83896 14.5909 6.77422C14.662 6.73623 15.4205 6.47049 16.2763 6.18357C17.1321 5.89675 18.6638 5.37792 19.6801 5.03053C22.826 3.95535 23.6638 3.67609 23.7664 3.66862C23.8209 3.66466 26.0264 4.36238 28.6678 5.21906ZM11.527 8.68038C12.3205 8.94593 13.112 9.22018 13.2858 9.28983L13.6019 9.41656L13.6022 12.2329C13.6027 15.8686 13.4537 15.5885 15.8677 16.4913C16.6274 16.7753 18.0365 17.3036 18.9993 17.6652C19.9621 18.0268 21.4257 18.5626 22.2516 18.856L23.7534 19.3894L25.0233 18.953C25.7217 18.713 27.1028 18.2099 28.0923 17.8352C29.0819 17.4605 30.6022 16.8875 31.4709 16.5619C33.2497 15.8952 33.4696 15.7777 33.7372 15.3512C33.9134 15.0703 33.9268 14.8576 33.9279 12.3086L33.9291 9.56796L35.2371 9.12672L36.5452 8.68548L36.5736 12.5761L36.6019 16.4668L36.8352 16.7846C37.4446 17.6151 38.7318 17.5184 39.2031 16.6066C39.3571 16.3089 39.3732 15.8954 39.3733 12.2377L39.3735 8.19765H41.7076H44.0416V21.6173V35.0369H23.7646H3.48769V21.6173V8.19765H6.78598H10.0844L11.527 8.68038ZM18.0345 10.8981C22.4721 12.4083 23.4906 12.7339 23.7773 12.7339C23.9498 12.7339 25.6709 12.2235 27.6021 11.5998C29.5332 10.9761 31.1348 10.4658 31.1611 10.4658C31.1874 10.4658 31.1969 11.217 31.1823 12.1351L31.1558 13.8044L28.919 14.6442C25.5278 15.9173 23.8806 16.514 23.757 16.514C23.6955 16.514 22.95 16.2548 22.1003 15.9379C21.2506 15.6212 19.9427 15.1343 19.1938 14.856C18.445 14.5779 17.5041 14.2258 17.1029 14.0737L16.3735 13.7973L16.347 12.0842C16.3325 11.1421 16.3578 10.3712 16.4034 10.3712C16.4489 10.3712 17.183 10.6084 18.0345 10.8981ZM6.86641 23.434C6.64283 23.56 6.42566 23.7909 6.30721 24.0287C6.127 24.3905 6.11349 24.6146 6.11349 27.2479C6.11349 30.4042 6.13313 30.5111 6.79415 30.9496C7.11031 31.1593 7.15845 31.1622 10.2368 31.1615C13.1313 31.161 13.379 31.148 13.6368 30.9828C13.7896 30.8849 13.9973 30.6832 14.098 30.5346C14.2681 30.2839 14.2814 30.0423 14.2819 27.1767L14.2826 24.0888L14.0197 23.7853C13.5505 23.2434 13.4146 23.2236 10.1769 23.226C7.3303 23.2281 7.21963 23.2351 6.86641 23.434ZM17.7856 23.3894C17.0685 23.7394 16.7906 24.6283 17.1963 25.2747C17.5971 25.9137 16.7769 25.8749 29.3129 25.8475L40.6528 25.8227L40.9798 25.476C41.1596 25.2852 41.336 24.9783 41.3716 24.7939C41.4644 24.3128 41.1384 23.6976 40.6489 23.4302L40.271 23.2238L29.1975 23.224C18.8492 23.2241 18.1019 23.235 17.7856 23.3894ZM11.538 27.2166L11.565 28.5161H10.2494H8.93378V27.256C8.93378 26.563 8.96422 25.9664 9.00137 25.9302C9.03852 25.8941 9.61843 25.8764 10.29 25.8909L11.5109 25.9172L11.538 27.2166ZM17.7254 28.651C16.8083 29.0389 16.7648 30.4148 17.6515 30.9828C17.9198 31.1547 18.3225 31.161 29.172 31.1615L40.4145 31.1622L40.7351 30.9496C41.6467 30.3449 41.5921 29.1579 40.6309 28.6816C40.319 28.527 39.5756 28.5166 29.1621 28.5199C20.0367 28.5228 17.9724 28.5465 17.7254 28.651ZM30.5236 39.0533V40.3291H23.7646H17.0057V39.0533V37.7775H23.7646H30.5236V39.0533Z" fill="#DD6799"/>
<path fill-rule="evenodd" clip-rule="evenodd" d="M22.4518 1.25054C21.9436 1.42405 20.9589 1.75831 20.2636 1.99344C19.5682 2.22847 17.9271 2.78747 16.6167 3.23551C15.3062 3.68356 13.4681 4.30728 12.5321 4.62151C11.596 4.93583 10.7427 5.24174 10.6357 5.30138C10.5009 5.37651 9.09522 5.42432 6.06039 5.45702C1.20364 5.50938 1.36916 5.48708 0.954873 6.14728C0.769122 6.44337 0.765329 6.74965 0.765037 21.6269L0.764648 36.8045L0.98541 37.1256C1.45095 37.8029 1.17116 37.7772 8.08283 37.7773L14.2826 37.7775V39.0533V40.3291L12.0701 40.3295C9.53412 40.3299 9.39339 40.3662 9.01703 41.1192C8.74871 41.6558 8.82807 42.1099 9.27261 42.5812L9.59957 42.928H23.7646H37.9297L38.2567 42.5812C38.7103 42.1002 38.7755 41.6794 38.4846 41.1095C38.1067 40.3692 37.9501 40.3294 35.4105 40.3293L33.2467 40.3291V39.0533V37.7775L39.4465 37.7773C46.3581 37.7772 46.0783 37.8029 46.5439 37.1256L46.7646 36.8045L46.7643 21.6269C46.764 6.74965 46.7602 6.44337 46.5744 6.14728C46.1634 5.49227 46.2804 5.50947 41.8579 5.45646L37.8661 5.40864L30.9927 3.16473C26.5069 1.70029 23.9901 0.923275 23.7474 0.928C23.5429 0.931969 22.9599 1.07713 22.4518 1.25054ZM28.6678 5.21906C31.309 6.07584 33.4874 6.7935 33.5084 6.81392C33.5295 6.83433 31.3537 7.56163 28.6732 8.43003L23.7999 10.009L21.6913 9.29843C15.8618 7.33388 14.4696 6.83896 14.5909 6.77422C14.662 6.73623 15.4205 6.47049 16.2763 6.18357C17.1321 5.89675 18.6638 5.37792 19.6801 5.03053C22.826 3.95535 23.6638 3.67609 23.7664 3.66862C23.8209 3.66466 26.0264 4.36238 28.6678 5.21906ZM11.527 8.68038C12.3205 8.94593 13.112 9.22018 13.2858 9.28983L13.6019 9.41656L13.6022 12.2329C13.6027 15.8686 13.4537 15.5885 15.8677 16.4913C16.6274 16.7753 18.0365 17.3036 18.9993 17.6652C19.9621 18.0268 21.4257 18.5626 22.2516 18.856L23.7534 19.3894L25.0233 18.953C25.7217 18.713 27.1028 18.2099 28.0923 17.8352C29.0819 17.4605 30.6022 16.8875 31.4709 16.5619C33.2497 15.8952 33.4696 15.7777 33.7372 15.3512C33.9134 15.0703 33.9268 14.8576 33.9279 12.3086L33.9291 9.56796L35.2371 9.12672L36.5452 8.68548L36.5736 12.5761L36.6019 16.4668L36.8352 16.7846C37.4446 17.6151 38.7318 17.5184 39.2031 16.6066C39.3571 16.3089 39.3732 15.8954 39.3733 12.2377L39.3735 8.19765H41.7076H44.0416V21.6173V35.0369H23.7646H3.48769V21.6173V8.19765H6.78598H10.0844L11.527 8.68038ZM18.0345 10.8981C22.4721 12.4083 23.4906 12.7339 23.7773 12.7339C23.9498 12.7339 25.6709 12.2235 27.6021 11.5998C29.5332 10.9761 31.1348 10.4658 31.1611 10.4658C31.1874 10.4658 31.1969 11.217 31.1823 12.1351L31.1558 13.8044L28.919 14.6442C25.5278 15.9173 23.8806 16.514 23.757 16.514C23.6955 16.514 22.95 16.2548 22.1003 15.9379C21.2506 15.6212 19.9427 15.1343 19.1938 14.856C18.445 14.5779 17.5041 14.2258 17.1029 14.0737L16.3735 13.7973L16.347 12.0842C16.3325 11.1421 16.3578 10.3712 16.4034 10.3712C16.4489 10.3712 17.183 10.6084 18.0345 10.8981ZM6.86641 23.434C6.64283 23.56 6.42566 23.7909 6.30721 24.0287C6.127 24.3905 6.11349 24.6146 6.11349 27.2479C6.11349 30.4042 6.13313 30.5111 6.79415 30.9496C7.11031 31.1593 7.15845 31.1622 10.2368 31.1615C13.1313 31.161 13.379 31.148 13.6368 30.9828C13.7896 30.8849 13.9973 30.6832 14.098 30.5346C14.2681 30.2839 14.2814 30.0423 14.2819 27.1767L14.2826 24.0888L14.0197 23.7853C13.5505 23.2434 13.4146 23.2236 10.1769 23.226C7.3303 23.2281 7.21963 23.2351 6.86641 23.434ZM17.7856 23.3894C17.0685 23.7394 16.7906 24.6283 17.1963 25.2747C17.5971 25.9137 16.7769 25.8749 29.3129 25.8475L40.6528 25.8227L40.9798 25.476C41.1596 25.2852 41.336 24.9783 41.3716 24.7939C41.4644 24.3128 41.1384 23.6976 40.6489 23.4302L40.271 23.2238L29.1975 23.224C18.8492 23.2241 18.1019 23.235 17.7856 23.3894ZM11.538 27.2166L11.565 28.5161H10.2494H8.93378V27.256C8.93378 26.563 8.96422 25.9664 9.00137 25.9302C9.03852 25.8941 9.61843 25.8764 10.29 25.8909L11.5109 25.9172L11.538 27.2166ZM17.7254 28.651C16.8083 29.0389 16.7648 30.4148 17.6515 30.9828C17.9198 31.1547 18.3225 31.161 29.172 31.1615L40.4145 31.1622L40.7351 30.9496C41.6467 30.3449 41.5921 29.1579 40.6309 28.6816C40.319 28.527 39.5756 28.5166 29.1621 28.5199C20.0367 28.5228 17.9724 28.5465 17.7254 28.651ZM30.5236 39.0533V40.3291H23.7646H17.0057V39.0533V37.7775H23.7646H30.5236V39.0533Z" fill="url(#paint0_radial_117_51)"/>
<defs>
<radialGradient id="paint0_radial_117_51" cx="0" cy="0" r="1" gradientUnits="userSpaceOnUse" gradientTransform="translate(44.457 21.4316) rotate(-138.006) scale(84.0715 155.063)">
<stop stop-color="#42E8E0"/>
<stop offset="0.02" stop-color="#43E0DE"/>
<stop offset="0.11" stop-color="#47BAD1"/>
<stop offset="0.21" stop-color="#4B9AC7"/>
<stop offset="0.32" stop-color="#4E7FBE"/>
<stop offset="0.44" stop-color="#506BB7"/>
<stop offset="0.58" stop-color="#525CB3"/>
<stop offset="0.74" stop-color="#5354B0"/>
<stop offset="1" stop-color="#5351AF"/>
</radialGradient>
</defs>
</svg>
