<svg width="52" height="52" viewBox="0 0 52 52" fill="none" xmlns="http://www.w3.org/2000/svg">
<path class="fillsvg" fill-rule="evenodd" clip-rule="evenodd" d="M24.6871 5.32256C24.179 5.49607 23.1943 5.83034 22.4989 6.06546C21.8036 6.3005 20.1625 6.85949 18.852 7.30753C17.5415 7.75558 15.7035 8.37931 14.7674 8.69353C13.8314 9.00785 12.978 9.31376 12.871 9.3734C12.7362 9.44853 11.3306 9.49635 8.29574 9.52905C3.43899 9.5814 3.60452 9.5591 3.19022 10.2193C3.00447 10.5154 3.00068 10.8217 3.00039 25.6989L3 40.8765L3.22076 41.1976C3.6863 41.8749 3.40651 41.8492 10.3182 41.8493L16.518 41.8495V43.1253V44.4011L14.3055 44.4015C11.7695 44.4019 11.6287 44.4383 11.2524 45.1912C10.9841 45.7278 11.0634 46.1819 11.508 46.6533L11.8349 47H26H40.1651L40.492 46.6533C40.9456 46.1722 41.0109 45.7514 40.72 45.1815C40.3421 44.4412 40.1854 44.4014 37.6459 44.4013L35.482 44.4011V43.1253V41.8495L41.6818 41.8493C48.5935 41.8492 48.3137 41.8749 48.7792 41.1976L49 40.8765L48.9996 25.6989C48.9993 10.8217 48.9955 10.5154 48.8098 10.2193C48.3988 9.5643 48.5158 9.5815 44.0933 9.52848L40.1015 9.48066L33.228 7.23675C28.7423 5.77231 26.2254 4.9953 25.9828 5.00002C25.7783 5.00399 25.1952 5.14915 24.6871 5.32256ZM30.9031 9.29108C33.5444 10.1479 35.7227 10.8655 35.7437 10.8859C35.7648 10.9064 33.589 11.6337 30.9086 12.5021L26.0352 14.081L23.9267 13.3705C18.0971 11.4059 16.705 10.911 16.8263 10.8462C16.8973 10.8083 17.6558 10.5425 18.5116 10.2556C19.3674 9.96877 20.8992 9.44995 21.9154 9.10255C25.0613 8.02737 25.8992 7.74811 26.0018 7.74065C26.0562 7.73668 28.2618 8.4344 30.9031 9.29108ZM13.7623 12.7524C14.5558 13.018 15.3474 13.2922 15.5211 13.3619L15.8372 13.4886L15.8376 16.3049C15.8381 19.9406 15.6891 19.6606 18.1031 20.5634C18.8627 20.8474 20.2719 21.3756 21.2347 21.7372C22.1975 22.0988 23.661 22.6346 24.487 22.9281L25.9887 23.4614L27.2586 23.025C27.9571 22.785 29.3382 22.2819 30.3277 21.9072C31.3172 21.5325 32.8376 20.9595 33.7062 20.634C35.485 19.9672 35.7049 19.8498 35.9726 19.4233C36.1488 19.1423 36.1621 18.9296 36.1633 16.3806L36.1644 13.64L37.4725 13.1987L38.7805 12.7575L38.8089 16.6481L38.8372 20.5388L39.0705 20.8566C39.68 21.6871 40.9671 21.5904 41.4385 20.6787C41.5924 20.3809 41.6086 19.9674 41.6087 16.3097L41.6089 12.2697H43.9429H46.277V25.6893V39.1089H26H5.72304V25.6893V12.2697H9.02133H12.3197L13.7623 12.7524ZM20.2698 14.9701C24.7074 16.4803 25.7259 16.8059 26.0126 16.8059C26.1852 16.8059 27.9062 16.2956 29.8375 15.6718C31.7686 15.0481 33.3701 14.5378 33.3965 14.5378C33.4227 14.5378 33.4323 15.289 33.4177 16.2071L33.3911 17.8764L31.1543 18.7162C27.7632 19.9893 26.1159 20.586 25.9923 20.586C25.9309 20.586 25.1853 20.3268 24.3356 20.01C23.4859 19.6932 22.178 19.2063 21.4292 18.9281C20.6803 18.6499 19.7394 18.2978 19.3383 18.1458L18.6089 17.8693L18.5823 16.1563C18.5678 15.2141 18.5931 14.4433 18.6387 14.4433C18.6843 14.4433 19.4183 14.6804 20.2698 14.9701ZM9.10176 27.506C8.87818 27.632 8.66101 27.8629 8.54256 28.1007C8.36236 28.4625 8.34884 28.6866 8.34884 31.3199C8.34884 34.4762 8.36848 34.5831 9.0295 35.0216C9.34567 35.2313 9.39381 35.2342 12.4721 35.2336C15.3666 35.233 15.6143 35.22 15.8721 35.0548C16.025 34.9569 16.2326 34.7552 16.3334 34.6066C16.5035 34.3559 16.5167 34.1143 16.5173 31.2487L16.518 28.1609L16.2551 27.8573C15.7859 27.3154 15.65 27.2957 12.4122 27.298C9.56565 27.3001 9.45498 27.3071 9.10176 27.506ZM20.021 27.4614C19.3038 27.8115 19.026 28.7003 19.4316 29.3467C19.8325 29.9857 19.0123 29.9469 31.5483 29.9195L42.8881 29.8947L43.2152 29.548C43.395 29.3572 43.5713 29.0503 43.6069 28.8659C43.6998 28.3848 43.3737 27.7696 42.8842 27.5023L42.5063 27.2959L31.4329 27.296C21.0845 27.2961 20.3372 27.307 20.021 27.4614ZM13.7733 31.2887L13.8004 32.5881H12.4848H11.1691V31.3281C11.1691 30.635 11.1996 30.0385 11.2367 30.0023C11.2739 29.9662 11.8538 29.9484 12.5253 29.963L13.7463 29.9892L13.7733 31.2887ZM19.9608 32.723C19.0437 33.1109 19.0001 34.4868 19.8869 35.0548C20.1552 35.2267 20.5579 35.233 31.4074 35.2336L42.6499 35.2342L42.9705 35.0216C43.882 34.4169 43.8275 33.23 42.8662 32.7537C42.5544 32.5991 41.811 32.5887 31.3975 32.592C22.2721 32.5948 20.2078 32.6185 19.9608 32.723ZM32.759 43.1253V44.4011H26H19.241V43.1253V41.8495H26H32.759V43.1253Z" fill="#DD6799"/>
<path class="fillsvg" fill-rule="evenodd" clip-rule="evenodd" d="M24.6871 5.32256C24.179 5.49607 23.1943 5.83034 22.4989 6.06546C21.8036 6.3005 20.1625 6.85949 18.852 7.30753C17.5415 7.75558 15.7035 8.37931 14.7674 8.69353C13.8314 9.00785 12.978 9.31376 12.871 9.3734C12.7362 9.44853 11.3306 9.49635 8.29574 9.52905C3.43899 9.5814 3.60452 9.5591 3.19022 10.2193C3.00447 10.5154 3.00068 10.8217 3.00039 25.6989L3 40.8765L3.22076 41.1976C3.6863 41.8749 3.40651 41.8492 10.3182 41.8493L16.518 41.8495V43.1253V44.4011L14.3055 44.4015C11.7695 44.4019 11.6287 44.4383 11.2524 45.1912C10.9841 45.7278 11.0634 46.1819 11.508 46.6533L11.8349 47H26H40.1651L40.492 46.6533C40.9456 46.1722 41.0109 45.7514 40.72 45.1815C40.3421 44.4412 40.1854 44.4014 37.6459 44.4013L35.482 44.4011V43.1253V41.8495L41.6818 41.8493C48.5935 41.8492 48.3137 41.8749 48.7792 41.1976L49 40.8765L48.9996 25.6989C48.9993 10.8217 48.9955 10.5154 48.8098 10.2193C48.3988 9.5643 48.5158 9.5815 44.0933 9.52848L40.1015 9.48066L33.228 7.23675C28.7423 5.77231 26.2254 4.9953 25.9828 5.00002C25.7783 5.00399 25.1952 5.14915 24.6871 5.32256ZM30.9031 9.29108C33.5444 10.1479 35.7227 10.8655 35.7437 10.8859C35.7648 10.9064 33.589 11.6337 30.9086 12.5021L26.0352 14.081L23.9267 13.3705C18.0971 11.4059 16.705 10.911 16.8263 10.8462C16.8973 10.8083 17.6558 10.5425 18.5116 10.2556C19.3674 9.96877 20.8992 9.44995 21.9154 9.10255C25.0613 8.02737 25.8992 7.74811 26.0018 7.74065C26.0562 7.73668 28.2618 8.4344 30.9031 9.29108ZM13.7623 12.7524C14.5558 13.018 15.3474 13.2922 15.5211 13.3619L15.8372 13.4886L15.8376 16.3049C15.8381 19.9406 15.6891 19.6606 18.1031 20.5634C18.8627 20.8474 20.2719 21.3756 21.2347 21.7372C22.1975 22.0988 23.661 22.6346 24.487 22.9281L25.9887 23.4614L27.2586 23.025C27.9571 22.785 29.3382 22.2819 30.3277 21.9072C31.3172 21.5325 32.8376 20.9595 33.7062 20.634C35.485 19.9672 35.7049 19.8498 35.9726 19.4233C36.1488 19.1423 36.1621 18.9296 36.1633 16.3806L36.1644 13.64L37.4725 13.1987L38.7805 12.7575L38.8089 16.6481L38.8372 20.5388L39.0705 20.8566C39.68 21.6871 40.9671 21.5904 41.4385 20.6787C41.5924 20.3809 41.6086 19.9674 41.6087 16.3097L41.6089 12.2697H43.9429H46.277V25.6893V39.1089H26H5.72304V25.6893V12.2697H9.02133H12.3197L13.7623 12.7524ZM20.2698 14.9701C24.7074 16.4803 25.7259 16.8059 26.0126 16.8059C26.1852 16.8059 27.9062 16.2956 29.8375 15.6718C31.7686 15.0481 33.3701 14.5378 33.3965 14.5378C33.4227 14.5378 33.4323 15.289 33.4177 16.2071L33.3911 17.8764L31.1543 18.7162C27.7632 19.9893 26.1159 20.586 25.9923 20.586C25.9309 20.586 25.1853 20.3268 24.3356 20.01C23.4859 19.6932 22.178 19.2063 21.4292 18.9281C20.6803 18.6499 19.7394 18.2978 19.3383 18.1458L18.6089 17.8693L18.5823 16.1563C18.5678 15.2141 18.5931 14.4433 18.6387 14.4433C18.6843 14.4433 19.4183 14.6804 20.2698 14.9701ZM9.10176 27.506C8.87818 27.632 8.66101 27.8629 8.54256 28.1007C8.36236 28.4625 8.34884 28.6866 8.34884 31.3199C8.34884 34.4762 8.36848 34.5831 9.0295 35.0216C9.34567 35.2313 9.39381 35.2342 12.4721 35.2336C15.3666 35.233 15.6143 35.22 15.8721 35.0548C16.025 34.9569 16.2326 34.7552 16.3334 34.6066C16.5035 34.3559 16.5167 34.1143 16.5173 31.2487L16.518 28.1609L16.2551 27.8573C15.7859 27.3154 15.65 27.2957 12.4122 27.298C9.56565 27.3001 9.45498 27.3071 9.10176 27.506ZM20.021 27.4614C19.3038 27.8115 19.026 28.7003 19.4316 29.3467C19.8325 29.9857 19.0123 29.9469 31.5483 29.9195L42.8881 29.8947L43.2152 29.548C43.395 29.3572 43.5713 29.0503 43.6069 28.8659C43.6998 28.3848 43.3737 27.7696 42.8842 27.5023L42.5063 27.2959L31.4329 27.296C21.0845 27.2961 20.3372 27.307 20.021 27.4614ZM13.7733 31.2887L13.8004 32.5881H12.4848H11.1691V31.3281C11.1691 30.635 11.1996 30.0385 11.2367 30.0023C11.2739 29.9662 11.8538 29.9484 12.5253 29.963L13.7463 29.9892L13.7733 31.2887ZM19.9608 32.723C19.0437 33.1109 19.0001 34.4868 19.8869 35.0548C20.1552 35.2267 20.5579 35.233 31.4074 35.2336L42.6499 35.2342L42.9705 35.0216C43.882 34.4169 43.8275 33.23 42.8662 32.7537C42.5544 32.5991 41.811 32.5887 31.3975 32.592C22.2721 32.5948 20.2078 32.6185 19.9608 32.723ZM32.759 43.1253V44.4011H26H19.241V43.1253V41.8495H26H32.759V43.1253Z" fill="url(#paint0_radial_313_17)"/>
<defs>
<radialGradient id="paint0_radial_313_17" cx="0" cy="0" r="1" gradientUnits="userSpaceOnUse" gradientTransform="translate(46.6923 25.5036) rotate(-138.006) scale(84.0715 155.063)">
<stop stop-color="#42E8E0"/>
<stop offset="0.02" stop-color="#43E0DE"/>
<stop offset="0.11" stop-color="#47BAD1"/>
<stop offset="0.21" stop-color="#4B9AC7"/>
<stop offset="0.32" stop-color="#4E7FBE"/>
<stop offset="0.44" stop-color="#506BB7"/>
<stop offset="0.58" stop-color="#525CB3"/>
<stop offset="0.74" stop-color="#5354B0"/>
<stop offset="1" stop-color="#5351AF"/>
</radialGradient>
</defs>
</svg>
