<svg width="42" height="42" viewBox="0 0 42 42" fill="none" xmlns="http://www.w3.org/2000/svg">
<path d="M36.1848 0C35.5801 0 35.0043 0.273952 34.5205 0.757396L33.3627 1.86448L40.1648 8.6617L41.2743 7.50466C42.2419 6.53777 42.2419 5.09711 41.2743 4.13022L37.8974 0.755784C37.4136 0.27234 36.7879 0 36.1832 0H36.1848ZM32.2532 2.8217L30.4889 4.28331L37.7458 11.535L39.3585 9.92349L32.2532 2.82009V2.8217ZM29.531 5.44036L14.9688 19.8438C14.8951 19.9046 14.8271 19.972 14.7656 20.0452L14.6657 20.0952C14.4898 20.2966 14.3682 20.5395 14.3125 20.801L12.3467 27.6997C12.2624 27.9728 12.2543 28.2636 12.3231 28.541C12.392 28.8183 12.5352 29.0716 12.7374 29.2737C12.9396 29.4757 13.1931 29.6189 13.4706 29.6877C13.7482 29.7565 14.0392 29.7483 14.3125 29.6641L21.2162 27.6997C21.4454 27.6454 21.6595 27.5403 21.8426 27.3922C22.0257 27.2441 22.1732 27.0567 22.2741 26.844L36.588 12.692L33.8658 9.7704V9.92188L31.95 8.00744H32.1016L29.5326 5.44036H29.531ZM1.31133 6.54744C0.937729 6.61845 0.601258 6.81911 0.361355 7.11398C0.121452 7.40885 -0.00644702 7.77896 0.000250284 8.15892V40.3885C0.000250284 40.8159 0.170154 41.2258 0.472583 41.528C0.775013 41.8302 1.1852 42 1.6129 42H33.8658C34.2935 42 34.7037 41.8302 35.0061 41.528C35.3086 41.2258 35.4785 40.8159 35.4785 40.3885V22.6622C35.4785 22.2348 35.3086 21.825 35.0061 21.5228C34.7037 21.2205 34.2935 21.0508 33.8658 21.0508C33.4381 21.0508 33.0279 21.2205 32.7255 21.5228C32.4231 21.825 32.2532 22.2348 32.2532 22.6622V38.777H3.22554V9.7704H19.352C19.7797 9.7704 20.1899 9.60062 20.4923 9.29841C20.7947 8.9962 20.9646 8.58631 20.9646 8.15892C20.9646 7.73153 20.7947 7.32165 20.4923 7.01943C20.1899 6.71722 19.7797 6.54744 19.352 6.54744H1.6129C1.56239 6.54507 1.51181 6.54507 1.46131 6.54744C1.41081 6.54507 1.36022 6.54507 1.30972 6.54744H1.31133ZM17.1362 22.3609L19.3536 22.5108L19.5052 24.928L17.2878 25.5822L16.4315 24.7282L17.1362 22.3593V22.3609Z" fill="#42E8E0"/>
<path d="M36.1848 0C35.5801 0 35.0043 0.273952 34.5205 0.757396L33.3627 1.86448L40.1648 8.6617L41.2743 7.50466C42.2419 6.53777 42.2419 5.09711 41.2743 4.13022L37.8974 0.755784C37.4136 0.27234 36.7879 0 36.1832 0H36.1848ZM32.2532 2.8217L30.4889 4.28331L37.7458 11.535L39.3585 9.92349L32.2532 2.82009V2.8217ZM29.531 5.44036L14.9688 19.8438C14.8951 19.9046 14.8271 19.972 14.7656 20.0452L14.6657 20.0952C14.4898 20.2966 14.3682 20.5395 14.3125 20.801L12.3467 27.6997C12.2624 27.9728 12.2543 28.2636 12.3231 28.541C12.392 28.8183 12.5352 29.0716 12.7374 29.2737C12.9396 29.4757 13.1931 29.6189 13.4706 29.6877C13.7482 29.7565 14.0392 29.7483 14.3125 29.6641L21.2162 27.6997C21.4454 27.6454 21.6595 27.5403 21.8426 27.3922C22.0257 27.2441 22.1732 27.0567 22.2741 26.844L36.588 12.692L33.8658 9.7704V9.92188L31.95 8.00744H32.1016L29.5326 5.44036H29.531ZM1.31133 6.54744C0.937729 6.61845 0.601258 6.81911 0.361355 7.11398C0.121452 7.40885 -0.00644702 7.77896 0.000250284 8.15892V40.3885C0.000250284 40.8159 0.170154 41.2258 0.472583 41.528C0.775013 41.8302 1.1852 42 1.6129 42H33.8658C34.2935 42 34.7037 41.8302 35.0061 41.528C35.3086 41.2258 35.4785 40.8159 35.4785 40.3885V22.6622C35.4785 22.2348 35.3086 21.825 35.0061 21.5228C34.7037 21.2205 34.2935 21.0508 33.8658 21.0508C33.4381 21.0508 33.0279 21.2205 32.7255 21.5228C32.4231 21.825 32.2532 22.2348 32.2532 22.6622V38.777H3.22554V9.7704H19.352C19.7797 9.7704 20.1899 9.60062 20.4923 9.29841C20.7947 8.9962 20.9646 8.58631 20.9646 8.15892C20.9646 7.73153 20.7947 7.32165 20.4923 7.01943C20.1899 6.71722 19.7797 6.54744 19.352 6.54744H1.6129C1.56239 6.54507 1.51181 6.54507 1.46131 6.54744C1.41081 6.54507 1.36022 6.54507 1.30972 6.54744H1.31133ZM17.1362 22.3609L19.3536 22.5108L19.5052 24.928L17.2878 25.5822L16.4315 24.7282L17.1362 22.3593V22.3609Z" fill="url(#paint0_radial_98_799)"/>
<defs>
<radialGradient id="paint0_radial_98_799" cx="0" cy="0" r="1" gradientUnits="userSpaceOnUse" gradientTransform="translate(39.893 20.5036) rotate(-135.405) scale(80.1159 148.57)">
<stop stop-color="#42E8E0"/>
<stop offset="0.02" stop-color="#43E0DE"/>
<stop offset="0.11" stop-color="#47BAD1"/>
<stop offset="0.21" stop-color="#4B9AC7"/>
<stop offset="0.32" stop-color="#4E7FBE"/>
<stop offset="0.44" stop-color="#506BB7"/>
<stop offset="0.58" stop-color="#525CB3"/>
<stop offset="0.74" stop-color="#5354B0"/>
<stop offset="1" stop-color="#5351AF"/>
</radialGradient>
</defs>
</svg>
