<svg width="1440" height="166" viewBox="0 0 1440 166" fill="none" xmlns="http://www.w3.org/2000/svg">
<path fill-rule="evenodd" clip-rule="evenodd" d="M-13.5966 119.097L47.4131 107.798C108.423 96.4999 230.442 73.9031 353.12 86.886C475.798 99.8688 599.135 148.431 721.813 161.414C844.491 174.397 966.51 151.8 1088.81 144.452C1211.11 137.103 1333.7 145.003 1394.99 148.953L1456.28 152.903L1453.46 0.419572L1392.26 1.55235C1331.06 2.68513 1208.67 4.95069 1086.27 7.21625C963.876 9.48181 841.48 11.7474 719.084 14.0129C596.688 16.2785 474.293 18.544 351.897 20.8096C229.501 23.0752 107.106 25.3407 45.9078 26.4735L-15.2901 27.6063L-13.5966 119.097Z" fill="#0A1849"/>
</svg>
