<svg width="31" height="31" viewBox="0 0 31 31" fill="none" xmlns="http://www.w3.org/2000/svg">
<circle cx="15.6878" cy="15.5794" r="15.3123" fill="#42E8E0"/>
<circle cx="15.6878" cy="15.5794" r="15.3123" fill="url(#paint0_radial_98_424)"/>
<path d="M10.9393 19.9686C11.0316 19.8994 11.1238 19.8269 11.2116 19.7545C11.2194 19.7482 11.2287 19.7442 11.2386 19.7429C11.2484 19.7415 11.2585 19.7429 11.2676 19.7468C14.1431 21.0599 17.2557 21.0599 20.096 19.7468L10.9393 19.9686ZM10.9393 19.9686C10.9323 19.9741 10.9266 19.9813 10.9229 19.9894L10.9393 19.9686ZM21.7572 10.0356C20.6217 9.51449 19.4235 9.14254 18.1925 8.92905C18.1904 8.9287 18.1883 8.92901 18.1863 8.92992C18.1844 8.93084 18.1828 8.93233 18.1818 8.93419L18.1817 8.93442C18.0279 9.20712 17.8573 9.56459 17.7381 9.84454L17.7246 9.87638L17.6904 9.87119C16.3637 9.66985 15.0142 9.66985 13.6876 9.87119L13.6534 9.87638L13.6398 9.84456C13.507 9.533 13.3567 9.22916 13.1897 8.9345L21.7572 10.0356ZM21.7572 10.0356L21.7609 10.041C23.7394 12.9502 24.7167 16.2315 24.351 20.0093L24.3509 20.0106C24.3509 20.0115 24.3507 20.0124 24.3504 20.0132C24.3502 20.0137 24.35 20.0141 24.3498 20.0145C24.3496 20.0148 24.3494 20.0152 24.3491 20.0155C24.3485 20.0163 24.3478 20.0169 24.347 20.0175L24.347 20.0175L24.3458 20.0183C23.0224 20.9989 21.5414 21.7467 19.9666 22.2293L19.9662 22.2294C19.9641 22.2301 19.9619 22.2301 19.9598 22.2294C19.9578 22.2287 19.956 22.2273 19.9547 22.2255L19.9544 22.2251C19.624 21.7656 19.3233 21.28 19.0608 20.7715L19.0608 20.7714C19.06 20.7699 19.0595 20.7683 19.0594 20.7666C19.0593 20.7649 19.0595 20.7632 19.06 20.7616L19.0179 20.747L19.0598 20.7622C19.0603 20.7608 19.0612 20.7595 19.0622 20.7584C19.0626 20.758 19.063 20.7577 19.0634 20.7574C19.0642 20.7568 19.0651 20.7564 19.066 20.756L19.0665 20.7558C19.5434 20.5763 20.0044 20.3571 20.4446 20.1004L20.4449 20.1002C20.4592 20.0917 20.4712 20.0798 20.4797 20.0655C20.4883 20.0513 20.4932 20.0351 20.494 20.0185C20.4948 20.0019 20.4914 19.9853 20.4842 19.9703C20.4771 19.9554 20.4664 19.9425 20.4531 19.9327M21.7572 10.0356L20.4531 19.9327M20.4531 19.9327C20.4532 19.9328 20.4532 19.9328 20.4533 19.9329L20.4265 19.9685L20.4528 19.9325C20.4529 19.9326 20.453 19.9327 20.4531 19.9327ZM9.61144 10.0368L9.6114 10.0367L9.61121 10.0369L9.60962 10.0397L9.60953 10.0396C7.33853 13.433 6.71595 16.7416 7.02139 20.0094L7.02145 20.0102C7.02146 20.0102 7.02166 20.0113 7.02283 20.0133C7.02408 20.0154 7.02583 20.0175 7.02767 20.0192C8.34932 20.998 9.82754 21.7453 11.3993 22.2293L11.3996 22.2294C11.4017 22.2301 11.4039 22.2301 11.406 22.2294C11.4081 22.2287 11.4099 22.2273 11.4111 22.2255L11.4117 22.2247L11.4117 22.2247C11.7485 21.7655 12.048 21.2812 12.306 20.7718L12.3061 20.7716C12.3071 20.7697 12.3074 20.7674 12.307 20.7653C12.3067 20.7631 12.3056 20.7611 12.304 20.7595L12.3348 20.7272L12.3042 20.7597C12.303 20.7586 12.3016 20.7578 12.3001 20.7572L12.299 20.7568L12.299 20.7568C11.8238 20.5742 11.3636 20.3548 10.9225 20.1006C10.9005 20.0879 10.884 20.0673 10.8766 20.043C10.8693 20.0188 10.8715 19.9927 10.8826 19.9701L9.61144 10.0368ZM9.61144 10.0368L9.61414 10.0356M9.61144 10.0368L9.61414 10.0356M9.61414 10.0356C10.749 9.51358 11.9473 9.14147 13.1785 8.92912L9.61414 10.0356ZM21.7758 9.99504L21.7633 10.0302L21.7609 10.0371C21.7599 10.0367 21.759 10.0362 21.7583 10.0355C21.758 10.0353 21.7578 10.035 21.7576 10.0348L21.7588 10.0321L21.7758 9.99504ZM6.97697 20.0136L6.97695 20.0136L6.97697 20.0136ZM11.1516 16.2477C11.1516 17.2424 11.8796 18.0622 12.7751 18.0622C13.6839 18.0622 14.3984 17.2424 14.3985 16.248C14.4118 15.2583 13.6902 14.4321 12.7751 14.4321C11.8661 14.4321 11.1516 15.2521 11.1516 16.2477ZM16.9882 16.2477C16.9882 17.2425 17.7172 18.0622 18.6116 18.0622C19.5271 18.0622 20.2349 17.2422 20.2351 16.248C20.2495 15.2583 19.5267 14.4321 18.6116 14.4321C17.7027 14.4321 16.9882 15.2521 16.9882 16.2477Z" fill="white" stroke="white" stroke-width="0.0892685"/>
<defs>
<radialGradient id="paint0_radial_98_424" cx="0" cy="0" r="1" gradientUnits="userSpaceOnUse" gradientTransform="translate(29.4638 15.2175) rotate(-135.405) scale(58.4172 108.331)">
<stop stop-color="#42E8E0"/>
<stop offset="0.02" stop-color="#43E0DE"/>
<stop offset="0.11" stop-color="#47BAD1"/>
<stop offset="0.21" stop-color="#4B9AC7"/>
<stop offset="0.32" stop-color="#4E7FBE"/>
<stop offset="0.44" stop-color="#506BB7"/>
<stop offset="0.58" stop-color="#525CB3"/>
<stop offset="0.74" stop-color="#5354B0"/>
<stop offset="1" stop-color="#5351AF"/>
</radialGradient>
</defs>
</svg>
