<svg width="31" height="31" viewBox="0 0 31 31" fill="none" xmlns="http://www.w3.org/2000/svg">
<circle cx="15.6875" cy="15.5794" r="15.3123" fill="#42E8E0"/>
<circle cx="15.6875" cy="15.5794" r="15.3123" fill="url(#paint0_radial_1_391)"/>
<path d="M10.9392 19.9686C11.0315 19.8994 11.1237 19.8269 11.2115 19.7545C11.2193 19.7482 11.2286 19.7442 11.2385 19.7429C11.2483 19.7415 11.2584 19.7429 11.2675 19.7468C14.143 21.0599 17.2556 21.0599 20.0959 19.7468L10.9392 19.9686ZM10.9392 19.9686C10.9322 19.9741 10.9265 19.9813 10.9228 19.9894L10.9392 19.9686ZM21.7571 10.0356C20.6216 9.51449 19.4234 9.14254 18.1924 8.92905C18.1903 8.9287 18.1881 8.92901 18.1862 8.92992C18.1843 8.93084 18.1827 8.93233 18.1817 8.93419L18.1816 8.93442C18.0278 9.20712 17.8572 9.56459 17.738 9.84454L17.7245 9.87638L17.6902 9.87119C16.3636 9.66985 15.0141 9.66985 13.6874 9.87119L13.6533 9.87638L13.6397 9.84456C13.5069 9.533 13.3566 9.22916 13.1896 8.9345L21.7571 10.0356ZM21.7571 10.0356L21.7608 10.041C23.7393 12.9502 24.7166 16.2315 24.3509 20.0093L24.3508 20.0106C24.3508 20.0115 24.3506 20.0124 24.3503 20.0132C24.3501 20.0137 24.3499 20.0141 24.3497 20.0145C24.3495 20.0148 24.3492 20.0152 24.349 20.0155C24.3484 20.0163 24.3477 20.0169 24.3469 20.0175L24.3469 20.0175L24.3457 20.0183C23.0223 20.9989 21.5413 21.7467 19.9664 22.2293L19.9661 22.2294C19.964 22.2301 19.9618 22.2301 19.9597 22.2294C19.9576 22.2287 19.9559 22.2273 19.9546 22.2255L19.9543 22.2251C19.6239 21.7656 19.3231 21.28 19.0607 20.7715L19.0606 20.7714C19.0599 20.7699 19.0594 20.7683 19.0593 20.7666C19.0591 20.7649 19.0594 20.7632 19.0599 20.7616L19.0178 20.747L19.0597 20.7622C19.0602 20.7608 19.061 20.7595 19.0621 20.7584C19.0625 20.758 19.0629 20.7577 19.0633 20.7574C19.0641 20.7568 19.0649 20.7564 19.0659 20.756L19.0664 20.7558C19.5433 20.5763 20.0043 20.3571 20.4445 20.1004L20.4448 20.1002C20.4591 20.0917 20.4711 20.0798 20.4796 20.0655C20.4882 20.0513 20.4931 20.0351 20.4939 20.0185C20.4946 20.0019 20.4913 19.9853 20.4841 19.9703C20.477 19.9554 20.4663 19.9425 20.453 19.9327M21.7571 10.0356L20.453 19.9327M20.453 19.9327C20.453 19.9328 20.4531 19.9328 20.4532 19.9329L20.4264 19.9685L20.4527 19.9325C20.4528 19.9326 20.4529 19.9327 20.453 19.9327ZM9.61133 10.0368L9.61129 10.0367L9.6111 10.0369L9.60951 10.0397L9.60942 10.0396C7.33842 13.433 6.71584 16.7416 7.02128 20.0094L7.02134 20.0102C7.02135 20.0102 7.02155 20.0113 7.02272 20.0133C7.02397 20.0154 7.02572 20.0175 7.02756 20.0192C8.34921 20.998 9.82743 21.7453 11.3992 22.2293L11.3995 22.2294C11.4016 22.2301 11.4038 22.2301 11.4059 22.2294C11.408 22.2287 11.4098 22.2273 11.411 22.2255L11.4116 22.2247L11.4116 22.2247C11.7484 21.7655 12.0479 21.2812 12.3059 20.7718L12.306 20.7716C12.307 20.7697 12.3073 20.7674 12.3069 20.7653C12.3066 20.7631 12.3055 20.7611 12.3039 20.7595L12.3347 20.7272L12.304 20.7597C12.3029 20.7586 12.3015 20.7578 12.3 20.7572L12.2989 20.7568L12.2989 20.7568C11.8237 20.5742 11.3635 20.3548 10.9224 20.1006C10.9003 20.0879 10.8839 20.0673 10.8765 20.043C10.8692 20.0188 10.8714 19.9927 10.8825 19.9701L9.61133 10.0368ZM9.61133 10.0368L9.61403 10.0356M9.61133 10.0368L9.61403 10.0356M9.61403 10.0356C10.7489 9.51358 11.9472 9.14147 13.1784 8.92912L9.61403 10.0356ZM21.7757 9.99504L21.7632 10.0302L21.7608 10.0371C21.7598 10.0367 21.7589 10.0362 21.7582 10.0355C21.7579 10.0353 21.7577 10.035 21.7575 10.0348L21.7587 10.0321L21.7757 9.99504ZM6.97686 20.0136L6.97683 20.0136L6.97686 20.0136ZM11.1515 16.2477C11.1515 17.2424 11.8795 18.0622 12.775 18.0622C13.6838 18.0622 14.3983 17.2424 14.3984 16.248C14.4117 15.2583 13.6901 14.4321 12.775 14.4321C11.866 14.4321 11.1515 15.2521 11.1515 16.2477ZM16.9881 16.2477C16.9881 17.2425 17.7171 18.0622 18.6115 18.0622C19.527 18.0622 20.2348 17.2422 20.235 16.248C20.2494 15.2583 19.5266 14.4321 18.6115 14.4321C17.7026 14.4321 16.9881 15.2521 16.9881 16.2477Z" fill="white" stroke="white" stroke-width="0.0892685"/>
<defs>
<radialGradient id="paint0_radial_1_391" cx="0" cy="0" r="1" gradientUnits="userSpaceOnUse" gradientTransform="translate(29.4635 15.2175) rotate(-135.405) scale(58.4172 108.331)">
<stop stop-color="#42E8E0"/>
<stop offset="0.02" stop-color="#43E0DE"/>
<stop offset="0.11" stop-color="#47BAD1"/>
<stop offset="0.21" stop-color="#4B9AC7"/>
<stop offset="0.32" stop-color="#4E7FBE"/>
<stop offset="0.44" stop-color="#506BB7"/>
<stop offset="0.58" stop-color="#525CB3"/>
<stop offset="0.74" stop-color="#5354B0"/>
<stop offset="1" stop-color="#5351AF"/>
</radialGradient>
</defs>
</svg>
