<svg width="672" height="430" viewBox="0 0 672 430" fill="none" xmlns="http://www.w3.org/2000/svg">
<path d="M671.45 394.48C671.45 394.62 521.13 394.74 335.74 394.74C150.35 394.74 0 394.62 0 394.48C0 394.34 150.29 394.22 335.74 394.22C521.19 394.22 671.45 394.33 671.45 394.48Z" fill="#0A1849"/>
<path d="M82.5796 44.9102H591.34C593.127 44.9102 594.841 45.6203 596.105 46.8843C597.369 48.1482 598.08 49.8626 598.08 51.6502V376.35C598.077 380.211 596.542 383.913 593.812 386.643C591.082 389.373 587.38 390.908 583.52 390.91H89.3996C85.5354 390.91 81.8295 389.375 79.097 386.643C76.3646 383.91 74.8296 380.204 74.8296 376.34V52.6502C74.8322 50.5965 75.6499 48.6278 77.103 47.1765C78.5562 45.7253 80.5259 44.9102 82.5796 44.9102Z" fill="#010101"/>
<path d="M52.9497 365.33H619.85V381.91C619.85 385.549 618.404 389.039 615.831 391.612C613.258 394.185 609.768 395.63 606.13 395.63H66.6697C63.0309 395.63 59.5412 394.185 56.9682 391.612C54.3952 389.039 52.9497 385.549 52.9497 381.91V365.33Z" fill="#010101"/>
<g opacity="0.7" filter="url(#filter0_b_98_121)">
<path d="M582.57 58.6401H88.8696V350.85H582.57V58.6401Z" fill="url(#paint0_radial_98_121)"/>
</g>
<path d="M284.87 365.33L291.91 376.52H390.9L397.43 365.33H284.87Z" fill="#0A1849"/>
<path d="M598.17 365.22H74.9097V366.89H598.17V365.22Z" fill="#0A1849"/>
<path d="M228.66 44.9101H174.3V25.7501C174.3 12.2401 185.25 0.810059 198.76 0.810059L228.66 1.28006V44.9101Z" fill="white"/>
<path d="M197.59 0.780046C197.59 0.780046 228.53 -2.02995 228.53 38.32V352.17H471.33V26.91C471.329 23.4043 470.636 19.9333 469.292 16.6954C467.948 13.4575 465.979 10.5164 463.497 8.04028C461.015 5.56414 458.07 3.60158 454.829 2.26486C451.588 0.928131 448.116 0.243474 444.61 0.250047L197.59 0.780046Z" fill="white"/>
<path d="M197.59 0.780176L377.22 0.200178L420.72 0.0801748L443.85 0.0101751C447.902 -0.101092 451.927 0.701396 455.626 2.3581C459.326 4.0148 462.605 6.4832 465.22 9.58017C467.896 12.7683 469.795 16.5336 470.77 20.5802C471.026 21.5968 471.216 22.629 471.34 23.6702C471.48 24.6702 471.47 25.7602 471.54 26.8102C471.54 28.8968 471.54 30.9968 471.54 33.1102C471.54 41.5302 471.54 50.0868 471.54 58.7802C471.54 76.1468 471.54 94.0102 471.54 112.37C471.54 185.71 471.54 266.37 471.54 350.97V352.43H471.28H228.48H228.24V352.19C228.24 243.53 228.31 151.26 228.34 86.1902C228.34 69.9102 228.34 55.3302 228.34 42.6202C228.34 39.4402 228.34 36.3802 228.16 33.4502C227.985 30.6382 227.597 27.8435 227 25.0902C226.425 22.5811 225.629 20.1281 224.62 17.7602C223.67 15.6453 222.504 13.6346 221.14 11.7602C218.804 8.6429 215.809 6.07876 212.37 4.25018C209.857 2.92101 207.161 1.97073 204.37 1.43018C202.677 1.08605 200.957 0.891963 199.23 0.850175C198.07 0.850175 197.47 0.850175 197.47 0.850175C198.056 0.815214 198.644 0.815214 199.23 0.850175C200.962 0.879006 202.689 1.0597 204.39 1.39018C207.18 1.92385 209.876 2.8674 212.39 4.19018C215.853 6.0127 218.869 8.58111 221.22 11.7102C222.596 13.584 223.776 15.5946 224.74 17.7102C225.759 20.0875 226.565 22.5505 227.15 25.0702C227.754 27.833 228.149 30.6377 228.33 33.4602C228.55 36.4002 228.52 39.4602 228.52 42.6402C228.52 55.3502 228.52 69.9302 228.52 86.2102C228.52 151.32 228.57 243.59 228.61 352.21L228.37 351.98H471.17L470.91 352.24V351.04C470.91 266.41 470.91 185.78 470.91 112.44C470.91 94.1002 470.91 76.2368 470.91 58.8502V33.1102C470.85 28.9002 471.22 24.6802 470.16 20.6802C469.248 16.7352 467.445 13.0512 464.89 9.91018C462.323 6.86143 459.102 4.43041 455.466 2.79782C451.831 1.16523 447.874 0.373054 443.89 0.480176H420.71L377.14 0.550176L197.59 0.780176Z" fill="#0A1849"/>
<path d="M332.46 96.03C332.46 96.17 317.69 96.29 299.46 96.29C281.23 96.29 266.46 96.17 266.46 96.03C266.46 95.89 281.22 95.77 299.46 95.77C317.7 95.77 332.46 95.91 332.46 96.03Z" fill="#0A1849"/>
<path d="M347.24 103.91C347.24 104.06 329.17 104.17 306.87 104.17C284.57 104.17 266.51 104.06 266.51 103.91C266.51 103.76 284.58 103.65 306.87 103.65C329.16 103.65 347.24 103.77 347.24 103.91Z" fill="#0A1849"/>
<path d="M352.54 134.96C352.54 135.1 333.88 135.22 310.86 135.22C287.84 135.22 269.18 135.1 269.18 134.96C269.18 134.82 287.84 134.7 310.86 134.7C333.88 134.7 352.54 134.81 352.54 134.96Z" fill="#0A1849"/>
<path d="M406.99 165.22C406.99 165.36 375.79 165.48 337.31 165.48C298.83 165.48 267.63 165.36 267.63 165.22C267.63 165.08 298.82 164.96 337.31 164.96C375.8 164.96 406.99 165.07 406.99 165.22Z" fill="#0A1849"/>
<path d="M406.99 174.24C406.99 174.39 375.79 174.5 337.31 174.5C298.83 174.5 267.63 174.39 267.63 174.24C267.63 174.09 298.82 173.98 337.31 173.98C375.8 173.98 406.99 174.1 406.99 174.24Z" fill="#0A1849"/>
<path d="M406.99 183.27C406.99 183.42 375.79 183.53 337.31 183.53C298.83 183.53 267.63 183.42 267.63 183.27C267.63 183.12 298.82 183.01 337.31 183.01C375.8 183.01 406.99 183.13 406.99 183.27Z" fill="#0A1849"/>
<path d="M406.99 192.3C406.99 192.44 375.79 192.56 337.31 192.56C298.83 192.56 267.63 192.44 267.63 192.3C267.63 192.16 298.82 192.04 337.31 192.04C375.8 192.04 406.99 192.16 406.99 192.3Z" fill="#0A1849"/>
<path d="M406.99 201.33C406.99 201.47 375.79 201.59 337.31 201.59C298.83 201.59 267.63 201.47 267.63 201.33C267.63 201.19 298.82 201.07 337.31 201.07C375.8 201.07 406.99 201.18 406.99 201.33Z" fill="#0A1849"/>
<path d="M320.48 210.36C320.48 210.5 308.64 210.62 294.05 210.62C279.46 210.62 267.63 210.5 267.63 210.36C267.63 210.22 279.46 210.1 294.05 210.1C308.64 210.1 320.48 210.21 320.48 210.36Z" fill="#0A1849"/>
<path d="M431.91 163.91L407.12 221.52C407.001 221.788 406.966 222.087 407.02 222.375C407.075 222.663 407.215 222.929 407.423 223.136C407.631 223.342 407.897 223.481 408.186 223.534C408.474 223.587 408.772 223.55 409.04 223.43L428.15 214.99C428.338 214.904 428.541 214.858 428.748 214.857C428.954 214.855 429.159 214.897 429.348 214.98C429.537 215.063 429.706 215.186 429.844 215.339C429.983 215.493 430.087 215.674 430.15 215.87L436.6 235.22C436.699 235.505 436.884 235.752 437.129 235.927C437.375 236.101 437.669 236.195 437.97 236.195C438.271 236.195 438.565 236.101 438.811 235.927C439.056 235.752 439.241 235.505 439.34 235.22L462.65 173.08L431.91 163.91Z" fill="#42E8E0"/>
<path d="M431.91 163.91L407.12 221.52C407.001 221.788 406.966 222.087 407.02 222.375C407.075 222.663 407.215 222.929 407.423 223.136C407.631 223.342 407.897 223.481 408.186 223.534C408.474 223.587 408.772 223.55 409.04 223.43L428.15 214.99C428.338 214.904 428.541 214.858 428.748 214.857C428.954 214.855 429.159 214.897 429.348 214.98C429.537 215.063 429.706 215.186 429.844 215.339C429.983 215.493 430.087 215.674 430.15 215.87L436.6 235.22C436.699 235.505 436.884 235.752 437.129 235.927C437.375 236.101 437.669 236.195 437.97 236.195C438.271 236.195 438.565 236.101 438.811 235.927C439.056 235.752 439.241 235.505 439.34 235.22L462.65 173.08L431.91 163.91Z" fill="url(#paint1_radial_98_121)"/>
<path d="M464.22 173.54L476.09 235.12C476.145 235.408 476.286 235.672 476.494 235.879C476.701 236.085 476.967 236.225 477.255 236.279C477.543 236.333 477.84 236.299 478.109 236.181C478.377 236.064 478.604 235.868 478.76 235.62L489.82 217.91C489.927 217.738 490.069 217.59 490.237 217.476C490.405 217.362 490.594 217.285 490.794 217.248C490.993 217.211 491.198 217.216 491.395 217.263C491.593 217.31 491.778 217.398 491.94 217.52L508.15 229.91C508.389 230.091 508.679 230.193 508.979 230.203C509.279 230.214 509.575 230.131 509.826 229.967C510.077 229.803 510.272 229.566 510.384 229.287C510.495 229.009 510.518 228.702 510.45 228.41L494.79 163.91L464.22 173.54Z" fill="#42E8E0"/>
<path d="M464.22 173.54L476.09 235.12C476.145 235.408 476.286 235.672 476.494 235.879C476.701 236.085 476.967 236.225 477.255 236.279C477.543 236.333 477.84 236.299 478.109 236.181C478.377 236.064 478.604 235.868 478.76 235.62L489.82 217.91C489.927 217.738 490.069 217.59 490.237 217.476C490.405 217.362 490.594 217.285 490.794 217.248C490.993 217.211 491.198 217.216 491.395 217.263C491.593 217.31 491.778 217.398 491.94 217.52L508.15 229.91C508.389 230.091 508.679 230.193 508.979 230.203C509.279 230.214 509.575 230.131 509.826 229.967C510.077 229.803 510.272 229.566 510.384 229.287C510.495 229.009 510.518 228.702 510.45 228.41L494.79 163.91L464.22 173.54Z" fill="url(#paint2_radial_98_121)"/>
<g opacity="0.3">
<path d="M431.91 163.91L407.12 221.52C407.001 221.788 406.966 222.087 407.02 222.375C407.075 222.663 407.215 222.929 407.423 223.136C407.631 223.342 407.897 223.481 408.186 223.534C408.474 223.587 408.772 223.55 409.04 223.43L428.15 214.99C428.338 214.904 428.541 214.858 428.748 214.857C428.954 214.855 429.159 214.897 429.348 214.98C429.537 215.063 429.706 215.186 429.844 215.339C429.983 215.493 430.087 215.674 430.15 215.87L436.6 235.22C436.699 235.505 436.884 235.752 437.129 235.927C437.375 236.101 437.669 236.195 437.97 236.195C438.271 236.195 438.565 236.101 438.811 235.927C439.056 235.752 439.241 235.505 439.34 235.22L462.65 173.08L431.91 163.91Z" fill="#010101"/>
</g>
<g opacity="0.3">
<path d="M464.22 173.54L476.09 235.12C476.145 235.408 476.286 235.672 476.494 235.879C476.701 236.085 476.967 236.225 477.255 236.279C477.543 236.333 477.84 236.299 478.109 236.181C478.377 236.064 478.604 235.868 478.76 235.62L489.82 217.91C489.927 217.738 490.069 217.59 490.237 217.476C490.405 217.362 490.594 217.285 490.794 217.248C490.993 217.211 491.198 217.216 491.395 217.263C491.593 217.31 491.778 217.398 491.94 217.52L508.15 229.91C508.389 230.091 508.679 230.193 508.979 230.203C509.279 230.214 509.575 230.131 509.826 229.967C510.077 229.803 510.272 229.566 510.384 229.287C510.495 229.009 510.518 228.702 510.45 228.41L494.79 163.91L464.22 173.54Z" fill="#010101"/>
</g>
<path d="M465.42 62.9702L473.56 56.9902L479.96 64.8002L489.33 61.0402L493.58 70.2002L503.6 68.8802L505.43 78.8102L515.46 80.0202L514.77 90.1002L524.18 93.7602L521.01 103.35L529.21 109.25L523.76 117.75L530.24 125.49L522.83 132.37L527.19 141.48L518.31 146.3L520.26 156.21L510.46 158.67L509.88 168.75L499.78 168.7L496.71 178.32L486.94 175.76L481.57 184.31L472.75 179.4L465.42 186.35L458.1 179.4L449.28 184.31L443.91 175.76L434.14 178.32L431.07 168.7L420.97 168.75L420.39 158.67L410.59 156.21L412.54 146.3L403.66 141.48L408.01 132.37L400.61 125.49L407.09 117.75L401.64 109.25L409.84 103.35L406.66 93.7602L416.08 90.1002L415.39 80.0202L425.42 78.8102L427.25 68.8802L437.27 70.2002L441.52 61.0402L450.89 64.8002L457.28 56.9902L465.42 62.9702Z" fill="#42E8E0"/>
<path d="M465.42 62.9702L473.56 56.9902L479.96 64.8002L489.33 61.0402L493.58 70.2002L503.6 68.8802L505.43 78.8102L515.46 80.0202L514.77 90.1002L524.18 93.7602L521.01 103.35L529.21 109.25L523.76 117.75L530.24 125.49L522.83 132.37L527.19 141.48L518.31 146.3L520.26 156.21L510.46 158.67L509.88 168.75L499.78 168.7L496.71 178.32L486.94 175.76L481.57 184.31L472.75 179.4L465.42 186.35L458.1 179.4L449.28 184.31L443.91 175.76L434.14 178.32L431.07 168.7L420.97 168.75L420.39 158.67L410.59 156.21L412.54 146.3L403.66 141.48L408.01 132.37L400.61 125.49L407.09 117.75L401.64 109.25L409.84 103.35L406.66 93.7602L416.08 90.1002L415.39 80.0202L425.42 78.8102L427.25 68.8802L437.27 70.2002L441.52 61.0402L450.89 64.8002L457.28 56.9902L465.42 62.9702Z" fill="url(#paint3_radial_98_121)"/>
<path d="M497.77 154.021C515.637 136.155 515.637 107.187 497.77 89.3207C479.904 71.4543 450.936 71.4543 433.07 89.3208C415.203 107.187 415.203 136.155 433.07 154.021C450.936 171.888 479.904 171.888 497.77 154.021Z" fill="white"/>
<path d="M475.4 110.83L487.67 112.63C488.125 112.696 488.552 112.888 488.903 113.185C489.254 113.481 489.516 113.87 489.657 114.307C489.799 114.744 489.815 115.212 489.704 115.658C489.593 116.104 489.36 116.51 489.03 116.83L480.14 125.48C479.853 125.758 479.638 126.102 479.514 126.482C479.39 126.862 479.362 127.267 479.43 127.66L481.52 139.91C481.597 140.363 481.546 140.827 481.373 141.252C481.199 141.677 480.911 142.045 480.539 142.314C480.168 142.583 479.729 142.744 479.271 142.777C478.814 142.809 478.356 142.714 477.95 142.5L466.95 136.71C466.597 136.523 466.204 136.425 465.805 136.425C465.406 136.425 465.012 136.523 464.66 136.71L453.66 142.47C453.253 142.682 452.796 142.776 452.339 142.741C451.882 142.707 451.443 142.545 451.073 142.275C450.703 142.004 450.416 141.636 450.244 141.211C450.072 140.786 450.022 140.322 450.1 139.87L452.21 127.65C452.278 127.257 452.25 126.854 452.128 126.474C452.006 126.095 451.794 125.75 451.51 125.47L442.63 116.8C442.3 116.48 442.066 116.073 441.956 115.626C441.846 115.179 441.863 114.711 442.006 114.273C442.148 113.836 442.411 113.447 442.763 113.151C443.116 112.856 443.544 112.665 444 112.6L456.28 110.83C456.674 110.776 457.05 110.625 457.372 110.391C457.695 110.158 457.955 109.848 458.13 109.49L463.64 98.3703C463.843 97.9592 464.157 97.6131 464.547 97.3712C464.937 97.1292 465.386 97.001 465.845 97.001C466.304 97.001 466.753 97.1292 467.143 97.3712C467.532 97.6131 467.847 97.9592 468.05 98.3703L473.52 109.51C473.702 109.867 473.968 110.174 474.296 110.404C474.623 110.634 475.003 110.781 475.4 110.83Z" fill="#42E8E0"/>
<path d="M475.4 110.83L487.67 112.63C488.125 112.696 488.552 112.888 488.903 113.185C489.254 113.481 489.516 113.87 489.657 114.307C489.799 114.744 489.815 115.212 489.704 115.658C489.593 116.104 489.36 116.51 489.03 116.83L480.14 125.48C479.853 125.758 479.638 126.102 479.514 126.482C479.39 126.862 479.362 127.267 479.43 127.66L481.52 139.91C481.597 140.363 481.546 140.827 481.373 141.252C481.199 141.677 480.911 142.045 480.539 142.314C480.168 142.583 479.729 142.744 479.271 142.777C478.814 142.809 478.356 142.714 477.95 142.5L466.95 136.71C466.597 136.523 466.204 136.425 465.805 136.425C465.406 136.425 465.012 136.523 464.66 136.71L453.66 142.47C453.253 142.682 452.796 142.776 452.339 142.741C451.882 142.707 451.443 142.545 451.073 142.275C450.703 142.004 450.416 141.636 450.244 141.211C450.072 140.786 450.022 140.322 450.1 139.87L452.21 127.65C452.278 127.257 452.25 126.854 452.128 126.474C452.006 126.095 451.794 125.75 451.51 125.47L442.63 116.8C442.3 116.48 442.066 116.073 441.956 115.626C441.846 115.179 441.863 114.711 442.006 114.273C442.148 113.836 442.411 113.447 442.763 113.151C443.116 112.856 443.544 112.665 444 112.6L456.28 110.83C456.674 110.776 457.05 110.625 457.372 110.391C457.695 110.158 457.955 109.848 458.13 109.49L463.64 98.3703C463.843 97.9592 464.157 97.6131 464.547 97.3712C464.937 97.1292 465.386 97.001 465.845 97.001C466.304 97.001 466.753 97.1292 467.143 97.3712C467.532 97.6131 467.847 97.9592 468.05 98.3703L473.52 109.51C473.702 109.867 473.968 110.174 474.296 110.404C474.623 110.634 475.003 110.781 475.4 110.83Z" fill="url(#paint4_radial_98_121)"/>
<path d="M289.61 49.3902C289.602 48.6161 289.755 47.8489 290.059 47.1367C290.362 46.4246 290.81 45.7831 291.373 45.2524C291.937 44.7217 292.604 44.3134 293.333 44.0531C294.062 43.7929 294.837 43.6863 295.61 43.7402C296.489 43.6928 297.368 43.8486 298.178 44.1954C298.988 44.5422 299.707 45.0708 300.28 45.7402L298.33 47.5101C298.029 47.1157 297.642 46.7959 297.198 46.5756C296.754 46.3553 296.265 46.2405 295.77 46.2402C294.947 46.2402 294.159 46.5668 293.578 47.1481C292.996 47.7295 292.67 48.518 292.67 49.3402C292.67 50.1623 292.996 50.9508 293.578 51.5322C294.159 52.1135 294.947 52.4402 295.77 52.4402C296.265 52.4398 296.754 52.325 297.198 52.1047C297.642 51.8844 298.029 51.5646 298.33 51.1702L300.28 52.9301C299.712 53.6086 298.995 54.1467 298.185 54.5023C297.375 54.8579 296.493 55.0215 295.61 54.9802C294.842 55.0336 294.072 54.9288 293.348 54.6721C292.623 54.4155 291.958 54.0126 291.395 53.4884C290.833 52.9641 290.384 52.3298 290.077 51.6248C289.77 50.9198 289.611 50.1592 289.61 49.3902Z" fill="#0A1849"/>
<path d="M310.32 52.44V54.81H301.61V43.96H310.12V46.33H304.64V48.16H309.47V50.46H304.64V52.46L310.32 52.44Z" fill="#0A1849"/>
<path d="M316.77 51.91H315.1V54.79H312.03V43.96H317.03C320.03 43.96 321.85 45.49 321.85 47.96C321.876 48.6774 321.688 49.3864 321.308 49.9958C320.928 50.6053 320.375 51.0873 319.72 51.38L322.07 54.79H318.78L316.77 51.91ZM316.77 46.36H315.07V49.54H316.77C318.04 49.54 318.68 48.95 318.68 47.96C318.68 46.97 318.07 46.38 316.8 46.38L316.77 46.36Z" fill="#0A1849"/>
<path d="M325.65 46.39H322.32V43.96H332.04V46.39H328.72V54.81H325.65V46.39Z" fill="#0A1849"/>
<path d="M333.19 43.96H336.26V54.81H333.19V43.96Z" fill="#0A1849"/>
<path d="M341.52 46.33V48.72H346.31V51.09H341.52V54.81H338.45V43.96H346.96V46.33H341.52Z" fill="#0A1849"/>
<path d="M348.4 43.96H351.47V54.81H348.4V43.96Z" fill="#0A1849"/>
<path d="M353.1 49.3904C353.094 48.6168 353.248 47.8502 353.552 47.1388C353.856 46.4274 354.304 45.7864 354.867 45.2561C355.43 44.7257 356.097 44.3173 356.825 44.0565C357.553 43.7957 358.328 43.6881 359.1 43.7404C359.978 43.6931 360.855 43.8489 361.663 44.1958C362.472 44.5427 363.189 45.0712 363.76 45.7404L361.81 47.5104C361.51 47.1154 361.123 46.7952 360.679 46.5748C360.235 46.3545 359.746 46.24 359.25 46.2404C358.428 46.2404 357.639 46.567 357.058 47.1484C356.476 47.7297 356.15 48.5182 356.15 49.3404C356.15 50.1626 356.476 50.9511 357.058 51.5324C357.639 52.1138 358.428 52.4404 359.25 52.4404C359.746 52.4408 360.235 52.3263 360.679 52.106C361.123 51.8857 361.51 51.5654 361.81 51.1704L363.76 52.9304C363.194 53.6087 362.479 54.1468 361.67 54.5024C360.862 54.8581 359.982 55.0217 359.1 54.9804C355.63 55.0304 353.1 52.6904 353.1 49.3904Z" fill="#0A1849"/>
<path d="M372.18 52.7H367.6L366.74 54.81H363.61L368.4 43.96H371.4L376.2 54.81H373.01L372.18 52.7ZM371.29 50.44L369.89 46.97L368.49 50.44H371.29Z" fill="#0A1849"/>
<path d="M378.87 46.39H375.54V43.96H385.26V46.39H381.94V54.81H378.87V46.39Z" fill="#0A1849"/>
<path d="M386.4 43.96H389.47V54.81H386.4V43.96Z" fill="#0A1849"/>
<path d="M391.1 49.3902C391.1 46.1302 393.66 43.7402 397.1 43.7402C400.54 43.7402 403.1 46.1302 403.1 49.3902C403.1 52.6502 400.54 55.0302 397.1 55.0302C393.66 55.0302 391.1 52.6402 391.1 49.3902ZM400.1 49.3902C400.066 48.8192 399.867 48.2703 399.525 47.8113C399.184 47.3523 398.716 47.0034 398.178 46.8074C397.641 46.6115 397.058 46.5772 396.501 46.7087C395.944 46.8403 395.438 47.1319 395.045 47.5476C394.652 47.9634 394.39 48.485 394.29 49.0483C394.19 49.6115 394.257 50.1917 394.483 50.7173C394.709 51.2428 395.083 51.6908 395.561 52.0058C396.038 52.3209 396.598 52.4893 397.17 52.4902C397.567 52.4898 397.96 52.4077 398.324 52.249C398.689 52.0903 399.017 51.8584 399.288 51.5677C399.559 51.277 399.767 50.9337 399.9 50.5592C400.033 50.1846 400.087 49.7867 400.06 49.3902H400.1Z" fill="#0A1849"/>
<path d="M415.1 43.96V54.81H412.57L407.78 49.03V54.81H404.78V43.96H407.3L412.09 49.74V43.96H415.1Z" fill="#0A1849"/>
<path d="M427.4 248.47C427.4 248.61 413.56 248.73 396.5 248.73C379.44 248.73 365.59 248.61 365.59 248.47C365.59 248.33 379.43 248.21 396.5 248.21C413.57 248.21 427.4 248.33 427.4 248.47Z" fill="#0A1849"/>
<path d="M427.4 257.19C427.4 257.33 413.56 257.45 396.5 257.45C379.44 257.45 365.59 257.33 365.59 257.19C365.59 257.05 379.4 256.91 396.51 256.91C413.62 256.91 427.4 257.05 427.4 257.19Z" fill="#0A1849"/>
<path d="M423.3 295.08C423.285 294.934 423.285 294.786 423.3 294.64C423.3 294.33 423.25 293.91 423.21 293.37C423.21 293.09 423.19 292.78 423.15 292.44C423.15 292.09 423.04 291.72 422.98 291.32C422.856 290.388 422.665 289.465 422.41 288.56C421.779 286.057 420.767 283.666 419.41 281.47C416.237 276.162 411.312 272.126 405.484 270.058C399.656 267.99 393.289 268.019 387.48 270.14C386.293 270.567 385.137 271.075 384.02 271.66C382.888 272.283 381.798 272.981 380.76 273.75C379.705 274.537 378.703 275.392 377.76 276.31C376.827 277.279 375.958 278.308 375.16 279.39C373.509 281.605 372.229 284.074 371.37 286.7C369.543 292.134 369.543 298.016 371.37 303.45C372.229 306.076 373.509 308.545 375.16 310.76C375.958 311.842 376.827 312.871 377.76 313.84C378.703 314.758 379.705 315.613 380.76 316.4C382.8 317.945 385.067 319.166 387.48 320.02C391.934 321.636 396.738 322.04 401.4 321.19C405.114 320.495 408.638 319.021 411.741 316.865C414.844 314.709 417.454 311.919 419.4 308.68C420.757 306.484 421.769 304.093 422.4 301.59C422.656 300.685 422.847 299.763 422.97 298.83C423.03 298.43 423.1 298.06 423.14 297.72C423.18 297.38 423.14 297.06 423.2 296.78C423.2 296.24 423.27 295.78 423.29 295.51C423.274 295.367 423.274 295.223 423.29 295.08C423.303 295.223 423.303 295.367 423.29 295.51V296.79C423.29 297.07 423.29 297.39 423.29 297.73C423.29 298.07 423.2 298.45 423.14 298.86C423.039 299.799 422.865 300.728 422.62 301.64C422.022 304.173 421.037 306.598 419.7 308.83C416.517 314.241 411.54 318.368 405.633 320.494C399.726 322.62 393.261 322.612 387.36 320.47C386.149 320.038 384.97 319.523 383.83 318.93C382.673 318.302 381.563 317.59 380.51 316.8C379.426 316.003 378.397 315.135 377.43 314.2C376.478 313.213 375.592 312.164 374.78 311.06C373.095 308.803 371.787 306.287 370.91 303.61C369.043 298.073 369.043 292.077 370.91 286.54C371.79 283.864 373.096 281.349 374.78 279.09C375.593 277.986 376.482 276.941 377.44 275.96C378.404 275.023 379.429 274.151 380.51 273.35C383.543 271.11 387.013 269.532 390.696 268.719C394.378 267.906 398.19 267.876 401.885 268.63C405.579 269.384 409.074 270.906 412.143 273.097C415.212 275.289 417.787 278.1 419.7 281.35C421.035 283.583 422.02 286.008 422.62 288.54C422.866 289.455 423.04 290.388 423.14 291.33C423.2 291.74 423.26 292.11 423.29 292.45C423.32 292.79 423.29 293.11 423.29 293.4V294.67C423.304 294.806 423.308 294.943 423.3 295.08Z" fill="#42E8E0"/>
<path d="M423.3 295.08C423.285 294.934 423.285 294.786 423.3 294.64C423.3 294.33 423.25 293.91 423.21 293.37C423.21 293.09 423.19 292.78 423.15 292.44C423.15 292.09 423.04 291.72 422.98 291.32C422.856 290.388 422.665 289.465 422.41 288.56C421.779 286.057 420.767 283.666 419.41 281.47C416.237 276.162 411.312 272.126 405.484 270.058C399.656 267.99 393.289 268.019 387.48 270.14C386.293 270.567 385.137 271.075 384.02 271.66C382.888 272.283 381.798 272.981 380.76 273.75C379.705 274.537 378.703 275.392 377.76 276.31C376.827 277.279 375.958 278.308 375.16 279.39C373.509 281.605 372.229 284.074 371.37 286.7C369.543 292.134 369.543 298.016 371.37 303.45C372.229 306.076 373.509 308.545 375.16 310.76C375.958 311.842 376.827 312.871 377.76 313.84C378.703 314.758 379.705 315.613 380.76 316.4C382.8 317.945 385.067 319.166 387.48 320.02C391.934 321.636 396.738 322.04 401.4 321.19C405.114 320.495 408.638 319.021 411.741 316.865C414.844 314.709 417.454 311.919 419.4 308.68C420.757 306.484 421.769 304.093 422.4 301.59C422.656 300.685 422.847 299.763 422.97 298.83C423.03 298.43 423.1 298.06 423.14 297.72C423.18 297.38 423.14 297.06 423.2 296.78C423.2 296.24 423.27 295.78 423.29 295.51C423.274 295.367 423.274 295.223 423.29 295.08C423.303 295.223 423.303 295.367 423.29 295.51V296.79C423.29 297.07 423.29 297.39 423.29 297.73C423.29 298.07 423.2 298.45 423.14 298.86C423.039 299.799 422.865 300.728 422.62 301.64C422.022 304.173 421.037 306.598 419.7 308.83C416.517 314.241 411.54 318.368 405.633 320.494C399.726 322.62 393.261 322.612 387.36 320.47C386.149 320.038 384.97 319.523 383.83 318.93C382.673 318.302 381.563 317.59 380.51 316.8C379.426 316.003 378.397 315.135 377.43 314.2C376.478 313.213 375.592 312.164 374.78 311.06C373.095 308.803 371.787 306.287 370.91 303.61C369.043 298.073 369.043 292.077 370.91 286.54C371.79 283.864 373.096 281.349 374.78 279.09C375.593 277.986 376.482 276.941 377.44 275.96C378.404 275.023 379.429 274.151 380.51 273.35C383.543 271.11 387.013 269.532 390.696 268.719C394.378 267.906 398.19 267.876 401.885 268.63C405.579 269.384 409.074 270.906 412.143 273.097C415.212 275.289 417.787 278.1 419.7 281.35C421.035 283.583 422.02 286.008 422.62 288.54C422.866 289.455 423.04 290.388 423.14 291.33C423.2 291.74 423.26 292.11 423.29 292.45C423.32 292.79 423.29 293.11 423.29 293.4V294.67C423.304 294.806 423.308 294.943 423.3 295.08Z" fill="url(#paint5_radial_98_121)"/>
<path d="M413.242 299.048C415.443 289.795 409.726 280.511 400.474 278.31C391.222 276.109 381.938 281.826 379.737 291.078C377.536 300.33 383.252 309.615 392.505 311.815C401.757 314.016 411.041 308.3 413.242 299.048Z" fill="#42E8E0"/>
<path d="M413.242 299.048C415.443 289.795 409.726 280.511 400.474 278.31C391.222 276.109 381.938 281.826 379.737 291.078C377.536 300.33 383.252 309.615 392.505 311.815C401.757 314.016 411.041 308.3 413.242 299.048Z" fill="url(#paint6_radial_98_121)"/>
<path d="M434.8 280.25L434.08 280.65L431.93 281.79L423.66 286.1L410.59 292.91C409.261 293.602 407.823 294.062 406.34 294.27C405.532 294.371 404.711 294.301 403.932 294.063C403.153 293.825 402.433 293.426 401.82 292.89C401.168 292.326 400.703 291.575 400.49 290.74C400.367 290.304 400.356 289.845 400.455 289.403C400.555 288.961 400.762 288.551 401.06 288.21C401.684 287.527 402.547 287.112 403.47 287.05C403.953 286.985 404.444 287.078 404.87 287.316C405.296 287.554 405.632 287.924 405.83 288.37V288.44C405.855 291.327 404.827 294.125 402.94 296.31C401.953 297.491 400.733 298.456 399.357 299.144C397.98 299.832 396.477 300.229 394.94 300.31C393.318 300.397 391.696 300.158 390.169 299.607C388.642 299.055 387.241 298.203 386.05 297.1C384.761 295.971 383.864 294.462 383.49 292.79C383.317 291.909 383.436 290.997 383.83 290.19C384.229 289.364 384.92 288.716 385.77 288.37C386.21 288.201 386.685 288.146 387.152 288.211C387.619 288.276 388.062 288.458 388.44 288.74C389.16 289.315 389.687 290.097 389.95 290.98C390.234 291.834 390.373 292.73 390.36 293.63C390.4 294.076 390.4 294.524 390.36 294.97C390.338 295.42 390.281 295.868 390.19 296.31C389.486 299.947 387.507 303.213 384.61 305.52C383.149 306.73 381.452 307.622 379.626 308.139C377.801 308.655 375.888 308.785 374.01 308.52C370.139 307.871 366.666 305.759 364.31 302.62C362.934 300.86 361.983 298.807 361.53 296.62C361.039 294.446 361.21 292.176 362.02 290.1C362.459 289.061 363.206 288.182 364.16 287.58C365.127 286.982 366.281 286.765 367.4 286.97C367.947 287.095 368.46 287.339 368.903 287.684C369.345 288.03 369.706 288.469 369.96 288.97C370.447 289.917 370.804 290.927 371.02 291.97C371.958 296.013 371.701 300.241 370.28 304.14C368.934 307.894 366.339 311.072 362.93 313.14C359.686 315.118 355.873 315.952 352.1 315.51C350.299 315.291 348.557 314.727 346.97 313.85C345.433 312.984 344.076 311.834 342.97 310.46C340.833 307.878 339.663 304.632 339.66 301.28C339.692 299.703 340.032 298.147 340.66 296.7C340.929 295.984 341.343 295.33 341.877 294.781C342.41 294.233 343.051 293.8 343.76 293.51C344.48 293.286 345.248 293.265 345.98 293.45C346.666 293.676 347.292 294.055 347.81 294.56C348.774 295.532 349.497 296.717 349.92 298.02C350.354 299.223 350.58 300.491 350.59 301.77C350.59 302.39 350.59 302.99 350.59 303.59C350.59 304.19 350.54 304.77 350.48 305.34C350.105 309.268 348.959 313.084 347.11 316.57C345.947 318.767 344.509 320.807 342.83 322.64C342.26 323.27 341.78 323.71 341.46 324.01C341.14 324.31 340.97 324.45 340.97 324.45C340.97 324.45 341.12 324.28 341.43 323.97C341.74 323.66 342.19 323.21 342.75 322.57C344.383 320.716 345.787 318.671 346.93 316.48C348.728 313.006 349.836 309.216 350.19 305.32C350.25 304.75 350.28 304.17 350.29 303.58C350.3 302.99 350.29 302.39 350.29 301.78C350.272 300.534 350.045 299.301 349.62 298.13C349.219 296.886 348.534 295.753 347.62 294.82C347.141 294.361 346.562 294.019 345.93 293.82C345.27 293.655 344.578 293.676 343.93 293.88C343.271 294.157 342.677 294.566 342.183 295.082C341.689 295.598 341.307 296.21 341.06 296.88C340.476 298.282 340.168 299.782 340.15 301.3C340.17 304.555 341.314 307.703 343.39 310.21C344.47 311.561 345.805 312.686 347.321 313.52C348.836 314.354 350.501 314.88 352.22 315.07C355.89 315.491 359.596 314.675 362.75 312.75C366.067 310.727 368.585 307.623 369.88 303.96C371.266 300.153 371.513 296.025 370.59 292.08C370.39 291.082 370.053 290.116 369.59 289.21C369.372 288.768 369.059 288.381 368.673 288.075C368.288 287.769 367.839 287.552 367.36 287.44C366.37 287.26 365.349 287.46 364.5 288C363.629 288.539 362.954 289.341 362.57 290.29C361.796 292.263 361.636 294.424 362.11 296.49C362.548 298.601 363.469 300.583 364.8 302.28C367.077 305.306 370.426 307.346 374.16 307.98C375.97 308.226 377.812 308.093 379.568 307.589C381.324 307.084 382.956 306.22 384.36 305.05C387.164 302.823 389.08 299.666 389.76 296.15C389.919 295.3 389.986 294.435 389.96 293.57C389.976 292.721 389.847 291.876 389.58 291.07C389.343 290.287 388.88 289.591 388.25 289.07C387.937 288.838 387.57 288.688 387.183 288.636C386.797 288.583 386.403 288.629 386.04 288.77C385.306 289.075 384.709 289.637 384.36 290.35C384.012 291.063 383.906 291.871 384.06 292.65C384.425 294.205 385.272 295.604 386.48 296.65C387.621 297.713 388.964 298.537 390.429 299.071C391.894 299.605 393.452 299.84 395.01 299.76C396.484 299.683 397.926 299.302 399.246 298.641C400.566 297.981 401.735 297.054 402.68 295.92C404.509 293.816 405.512 291.118 405.5 288.33V288.4C405.335 288.023 405.048 287.712 404.685 287.518C404.323 287.324 403.905 287.257 403.5 287.33C402.684 287.375 401.918 287.733 401.36 288.33C401.1 288.626 400.918 288.983 400.831 289.367C400.744 289.751 400.754 290.151 400.86 290.53C401.049 291.307 401.475 292.006 402.08 292.53C402.651 293.036 403.324 293.414 404.054 293.638C404.784 293.862 405.553 293.928 406.31 293.83C407.758 293.639 409.162 293.199 410.46 292.53L423.56 285.86L431.89 281.65L434.06 280.56L434.8 280.25Z" fill="#0A1849"/>
<path d="M345.22 33.5603C345.22 33.7103 324.07 33.8303 297.98 33.8303C271.89 33.8303 250.73 33.7103 250.73 33.5603C250.73 33.4103 271.88 33.3003 297.98 33.3003C324.08 33.3003 345.22 33.4203 345.22 33.5603Z" fill="white"/>
<path d="M360.97 33.5603C358.798 33.9202 356.582 33.9202 354.41 33.5603C356.583 33.2136 358.797 33.2136 360.97 33.5603Z" fill="white"/>
<path d="M455.03 33.5603C455.03 33.7103 435.73 33.8303 411.94 33.8303C388.15 33.8303 368.85 33.7103 368.85 33.5603C368.85 33.4103 388.13 33.3003 411.94 33.3003C435.75 33.3003 455.03 33.4203 455.03 33.5603Z" fill="white"/>
<path d="M345.22 59.8503C345.22 60.0003 324.07 60.1103 297.98 60.1103C271.89 60.1103 250.73 60.0003 250.73 59.8503C250.73 59.7003 271.88 59.5903 297.98 59.5903C324.08 59.5903 345.22 59.7103 345.22 59.8503Z" fill="white"/>
<path d="M360.97 59.8503C358.797 60.197 356.583 60.197 354.41 59.8503C356.583 59.5037 358.797 59.5037 360.97 59.8503Z" fill="white"/>
<path d="M455.03 59.8503C455.03 60.0003 435.73 60.1103 411.94 60.1103C388.15 60.1103 368.85 60.0003 368.85 59.8503C368.85 59.7003 388.13 59.5903 411.94 59.5903C435.75 59.5903 455.03 59.7103 455.03 59.8503Z" fill="white"/>
<path d="M211.728 117.026C219.018 117.976 220.098 125.446 222.798 131.716C225.498 137.986 230.668 143.566 234.648 149.176C236.748 152.176 239.648 154.806 240.368 158.326C241.158 162.006 239.478 165.816 238.688 169.566C237.898 173.316 238.458 177.906 242.058 179.566C241.653 180.038 241.145 180.41 240.572 180.651C239.999 180.892 239.378 180.997 238.758 180.956C238.758 182.686 237.088 184.176 235.268 184.676C233.434 185.041 231.544 185.021 229.718 184.616C230.208 185.766 229.168 187.156 227.878 187.616C226.568 187.974 225.187 187.974 223.878 187.616C222.578 187.247 221.217 187.148 219.878 187.326C216.878 187.976 215.128 191.326 212.128 191.746C208.008 192.346 205.048 187.076 200.978 187.996C199.068 188.426 197.798 190.096 196.228 191.236C194.658 192.376 192.008 192.086 191.228 190.446C189.048 193.196 185.678 195.866 182.128 196.596C182.381 195.995 182.451 195.332 182.329 194.691C182.206 194.051 181.896 193.461 181.438 192.996C179.491 194.585 177.153 195.622 174.668 195.996C175.414 195.31 176.003 194.47 176.394 193.534C176.784 192.599 176.966 191.589 176.928 190.576C176.091 191.233 175.116 191.69 174.077 191.914C173.037 192.137 171.96 192.121 170.928 191.866C174.588 189.776 174.928 184.916 173.648 181.266C172.368 177.616 169.868 174.346 169.388 170.496C168.858 166.306 173.778 161.006 172.818 156.896C171.338 150.556 171.448 146.696 171.708 140.776C171.878 136.906 173.588 133.466 175.288 129.856C177.278 125.384 180.687 121.694 184.988 119.356C188.858 117.176 194.438 115.176 198.868 115.076C206.768 114.906 209.978 114.656 216.228 118.836" fill="#0A1849"/>
<path d="M187.388 168.646C184.793 163.609 182.641 158.356 180.958 152.946C179.269 147.511 178.96 141.741 180.058 136.156C180.248 135.326 182.058 129.636 182.918 129.606C183.528 129.606 182.637 134.776 183.017 135.266C186.607 139.886 188.218 145.816 188.528 151.656C188.779 157.347 188.397 163.049 187.388 168.656" fill="#0A1849"/>
<path d="M221.927 216.546C213.197 217.546 192.197 208.366 191.027 199.666L183.947 147.306C181.607 133.306 187.797 120.306 201.867 118.306L203.177 118.196C209.539 117.685 215.859 119.589 220.88 123.529C225.9 127.469 229.252 133.155 230.267 139.456C232.267 151.606 234.267 165.046 234.697 171.616C235.617 185.206 222.207 188.406 222.207 188.406C222.207 188.406 222.547 191.546 223.037 195.516C224.147 204.436 222.727 214.216 221.927 216.516V216.546Z" fill="#FFBE9D"/>
<path d="M222.208 188.406C215.931 188.893 209.646 187.571 204.098 184.596C204.098 184.596 209.178 194.466 222.628 192.156L222.208 188.406Z" fill="#EB996E"/>
<path d="M225.208 151.276C225.253 151.78 225.099 152.282 224.78 152.674C224.46 153.066 224 153.318 223.498 153.376C223.252 153.417 223.001 153.408 222.759 153.35C222.517 153.291 222.289 153.185 222.09 153.036C221.89 152.888 221.722 152.701 221.596 152.486C221.47 152.271 221.389 152.033 221.358 151.786C221.313 151.282 221.466 150.781 221.786 150.388C222.105 149.996 222.565 149.744 223.068 149.686C223.314 149.644 223.565 149.651 223.808 149.709C224.05 149.767 224.279 149.874 224.479 150.022C224.679 150.171 224.847 150.359 224.972 150.574C225.097 150.79 225.178 151.029 225.208 151.276Z" fill="#0A1849"/>
<path d="M227.858 145.676C227.638 145.946 226.088 144.976 223.998 145.146C221.908 145.316 220.468 146.486 220.218 146.246C219.968 146.006 220.308 145.666 220.938 145.136C221.789 144.433 222.837 144.014 223.938 143.936C225.023 143.843 226.109 144.098 227.038 144.666C227.718 145.106 227.968 145.546 227.858 145.676Z" fill="#0A1849"/>
<path d="M205.588 152.806C205.621 153.308 205.463 153.805 205.146 154.196C204.829 154.587 204.376 154.844 203.878 154.916C203.632 154.956 203.382 154.946 203.14 154.887C202.899 154.828 202.671 154.721 202.472 154.573C202.273 154.425 202.105 154.238 201.979 154.024C201.853 153.81 201.771 153.572 201.738 153.326C201.705 152.824 201.863 152.327 202.18 151.936C202.497 151.545 202.949 151.288 203.448 151.216C203.693 151.178 203.943 151.189 204.184 151.248C204.425 151.308 204.652 151.415 204.851 151.563C205.05 151.711 205.218 151.897 205.344 152.11C205.471 152.324 205.553 152.56 205.588 152.806Z" fill="#0A1849"/>
<path d="M207.438 147.796C207.218 148.066 205.658 147.106 203.578 147.276C201.498 147.446 200.038 148.616 199.798 148.376C199.558 148.136 199.878 147.796 200.508 147.256C201.358 146.555 202.408 146.139 203.508 146.066C204.596 145.972 205.685 146.227 206.618 146.796C207.298 147.236 207.588 147.676 207.438 147.796Z" fill="#0A1849"/>
<path d="M216.217 163.236C217.288 162.8 218.411 162.504 219.557 162.356C220.087 162.256 220.557 162.106 220.637 161.736C220.642 161.182 220.474 160.64 220.157 160.186L218.257 156.256C215.607 150.656 213.637 146.026 213.867 145.926C214.097 145.826 216.427 150.276 219.077 155.876L220.917 159.876C221.303 160.493 221.459 161.226 221.357 161.946C221.296 162.14 221.191 162.317 221.05 162.464C220.91 162.612 220.738 162.725 220.547 162.796C220.256 162.897 219.954 162.964 219.647 162.996C218.519 163.22 217.366 163.301 216.217 163.236Z" fill="#0A1849"/>
<path d="M206.588 140.026C206.348 140.576 204.278 140.176 201.808 140.326C199.338 140.476 197.308 141.016 197.018 140.486C196.888 140.236 197.268 139.716 198.098 139.216C199.208 138.613 200.44 138.268 201.703 138.207C202.965 138.146 204.225 138.372 205.388 138.866C206.308 139.276 206.738 139.746 206.588 140.026Z" fill="#0A1849"/>
<path d="M226.978 140.836C226.588 141.346 224.848 141.016 222.798 141.186C220.748 141.356 219.058 141.866 218.618 141.406C218.418 141.186 218.618 140.686 219.358 140.166C220.35 139.525 221.489 139.146 222.667 139.064C223.846 138.982 225.026 139.199 226.098 139.696C226.858 140.116 227.148 140.586 226.978 140.836Z" fill="#0A1849"/>
<path d="M185.867 157.276C185.627 157.196 176.317 155.276 177.357 164.526C178.397 173.776 187.477 170.836 187.467 170.526C187.457 170.216 185.867 157.276 185.867 157.276Z" fill="#FFBE9D"/>
<path d="M184.248 167.376C184.248 167.376 184.098 167.506 183.838 167.666C183.472 167.868 183.043 167.925 182.638 167.826C181.638 167.576 180.638 166.116 180.378 164.446C180.268 163.654 180.337 162.848 180.578 162.086C180.63 161.787 180.755 161.506 180.942 161.267C181.128 161.028 181.371 160.839 181.648 160.716C181.827 160.647 182.024 160.642 182.207 160.702C182.389 160.762 182.545 160.884 182.648 161.046C182.808 161.296 182.768 161.486 182.818 161.496C182.868 161.506 182.998 161.316 182.878 160.946C182.803 160.72 182.65 160.529 182.448 160.406C182.171 160.24 181.841 160.19 181.528 160.266C181.157 160.386 180.823 160.599 180.557 160.884C180.291 161.17 180.102 161.518 180.008 161.896C179.707 162.741 179.614 163.647 179.738 164.536C180.008 166.396 181.158 168.036 182.538 168.276C182.794 168.322 183.059 168.309 183.31 168.238C183.561 168.167 183.793 168.04 183.988 167.866C184.248 167.606 184.278 167.386 184.248 167.376Z" fill="#EB996E"/>
<path d="M222.418 124.846C223.818 123.846 218.738 119.526 214.858 118.306C208.988 116.456 200.308 115.936 195.348 118.016C189.348 120.516 184.638 124.206 182.218 130.206C179.925 136.287 179.293 142.87 180.388 149.276C180.549 151.256 181.24 153.155 182.388 154.776C183.928 156.666 186.568 157.656 186.798 160.486C186.862 161.524 187.329 162.496 188.098 163.196C190.018 164.786 191.878 162.846 192.628 161.036C194.218 157.166 193.918 152.806 193.628 148.636C193.559 145.655 192.998 142.705 191.968 139.906C191.328 138.416 190.428 137.046 189.868 135.526C189.544 134.784 189.386 133.98 189.403 133.17C189.42 132.36 189.613 131.564 189.968 130.836C190.148 130.547 190.355 130.275 190.588 130.026C191.74 128.742 193.214 127.787 194.857 127.26C196.5 126.733 198.253 126.652 199.938 127.026C205.368 128.236 214.608 129.906 216.718 127.856C219.718 124.856 220.348 123.156 220.348 123.156L222.418 124.846Z" fill="#0A1849"/>
<path d="M210.638 165.026C210.518 165.026 210.498 165.576 210.778 166.356C211.163 167.382 211.863 168.261 212.778 168.866C213.657 169.451 214.637 169.868 215.668 170.096C216.438 170.276 216.938 170.296 216.978 170.176C217.018 170.056 216.598 169.786 215.898 169.446C215.01 169.05 214.154 168.585 213.338 168.056C211.478 166.866 210.928 164.946 210.638 165.026Z" fill="#0A1849"/>
<path d="M186.167 158.486C186.247 158.646 186.317 158.816 186.397 159.006C186.397 159.026 186.307 158.816 186.167 158.486Z" fill="#42E8E0"/>
<path d="M186.167 158.486C186.247 158.646 186.317 158.816 186.397 159.006C186.397 159.026 186.307 158.816 186.167 158.486Z" fill="url(#paint7_radial_98_121)"/>
<path d="M182.997 157.026C182.997 157.026 184.547 155.026 186.167 158.446C184.237 153.906 171.407 121.076 206.587 116.746C206.587 116.746 193.877 114.506 186.217 120.826C186.217 120.866 170.637 130.176 182.997 157.026Z" fill="#010101"/>
<path d="M250.268 322.806L168.498 323.916C168.498 323.916 145.628 314.346 139.348 314.086C133.068 313.826 120.588 314.626 114.818 323.916C108.818 333.516 108.028 350.446 126.398 362.746C144.298 374.746 226.128 385.806 237.398 384.746L258.018 357.026C258.018 357.026 258.238 334.276 258.018 333.186C257.798 332.096 254.338 322.356 254.338 322.356L250.268 322.806Z" fill="#0A1849"/>
<path d="M201.318 361.206L158.948 376.936L178.258 429.756C183.188 427.596 183.328 396.576 183.328 396.576L210.888 387.576L201.318 361.206Z" fill="#42E8E0"/>
<path d="M201.318 361.206L158.948 376.936L178.258 429.756C183.188 427.596 183.328 396.576 183.328 396.576L210.888 387.576L201.318 361.206Z" fill="url(#paint8_radial_98_121)"/>
<g opacity="0.6">
<path d="M179.648 379.406C179.308 378.956 178.814 378.646 178.261 378.537C177.707 378.428 177.133 378.528 176.648 378.816C176.177 379.139 175.849 379.633 175.736 380.193C175.622 380.753 175.73 381.335 176.038 381.816C176.399 382.295 176.926 382.623 177.515 382.736C178.105 382.848 178.715 382.738 179.228 382.426C179.675 382.039 179.955 381.494 180.009 380.905C180.063 380.316 179.887 379.728 179.518 379.266" fill="white"/>
</g>
<path d="M158.948 376.936L163.228 375.356L180.228 426.686C180.228 426.686 180.068 429.416 178.308 429.756L158.948 376.936Z" fill="#0A1849"/>
<path d="M183.908 397.336C183.648 397.416 183.068 396.166 181.768 395.206C180.468 394.246 179.148 393.956 179.158 393.686C179.168 393.416 180.808 393.246 182.348 394.446C183.888 395.646 184.168 397.296 183.908 397.336Z" fill="#0A1849"/>
<path d="M183.648 403.706C183.418 403.856 182.568 402.906 181.158 402.426C179.748 401.946 178.508 402.116 178.418 401.856C178.328 401.596 179.738 400.856 181.478 401.526C183.218 402.196 183.888 403.616 183.648 403.706Z" fill="#0A1849"/>
<path d="M178.168 409.276C178.028 409.066 179.168 408.276 180.838 408.376C182.508 408.476 183.498 409.526 183.318 409.716C183.138 409.906 182.118 409.436 180.758 409.336C179.398 409.236 178.288 409.526 178.168 409.276Z" fill="#0A1849"/>
<path d="M189.968 394.586C189.688 394.586 189.618 393.256 188.968 391.836C188.318 390.416 187.458 389.446 187.628 389.226C187.798 389.006 189.118 389.766 189.838 391.456C190.558 393.146 190.218 394.646 189.968 394.586Z" fill="#0A1849"/>
<path d="M195.777 391.026C195.667 391.026 195.137 390.106 194.777 388.376C194.601 387.359 194.548 386.325 194.617 385.296C194.66 384.684 194.743 384.076 194.867 383.476C194.927 383.128 195.038 382.791 195.197 382.476C195.318 382.239 195.514 382.049 195.755 381.937C195.997 381.824 196.268 381.796 196.527 381.856C196.754 381.919 196.962 382.034 197.136 382.192C197.309 382.35 197.444 382.547 197.527 382.766C197.649 383.087 197.727 383.424 197.757 383.766C197.951 385.423 197.72 387.102 197.087 388.646C196.397 390.286 195.587 391.056 195.507 390.986C195.427 390.916 195.967 389.986 196.447 388.416C196.725 387.493 196.883 386.539 196.917 385.576C196.931 385.011 196.901 384.446 196.827 383.886C196.767 383.276 196.597 382.796 196.297 382.746C196.187 382.746 196.147 382.746 196.017 382.906C195.907 383.149 195.826 383.404 195.777 383.666C195.653 384.22 195.559 384.781 195.497 385.346C195.409 386.317 195.409 387.295 195.497 388.266C195.652 389.179 195.746 390.101 195.777 391.026Z" fill="#0A1849"/>
<path d="M195.277 390.836C195.207 390.766 195.947 389.916 197.577 389.206C198.532 388.808 199.546 388.571 200.577 388.506C201.196 388.477 201.815 388.508 202.427 388.596C202.829 388.61 203.219 388.728 203.561 388.939C203.903 389.149 204.184 389.445 204.377 389.796C204.463 390.032 204.477 390.287 204.418 390.531C204.359 390.774 204.231 390.995 204.047 391.166C203.791 391.419 203.498 391.631 203.177 391.796C202.62 392.101 202.02 392.321 201.397 392.446C200.353 392.666 199.27 392.621 198.247 392.316C196.507 391.786 195.807 390.826 195.887 390.766C196.707 391.12 197.549 391.421 198.407 391.666C199.336 391.842 200.291 391.815 201.207 391.586C201.736 391.458 202.245 391.256 202.717 390.986C203.247 390.696 203.617 390.316 203.487 390.126C203.357 389.936 202.807 389.576 202.277 389.526C201.726 389.431 201.167 389.384 200.607 389.386C199.647 389.404 198.694 389.559 197.777 389.846C196.237 390.336 195.367 390.966 195.277 390.836Z" fill="#0A1849"/>
<path d="M236.267 354.676L277.267 373.676L253.867 424.806C249.117 422.276 251.417 391.336 251.417 391.336L224.647 380.226L236.267 354.676Z" fill="#42E8E0"/>
<path d="M236.267 354.676L277.267 373.676L253.867 424.806C249.117 422.276 251.417 391.336 251.417 391.336L224.647 380.226L236.267 354.676Z" fill="url(#paint9_radial_98_121)"/>
<g opacity="0.6">
<path d="M256.438 374.526C256.811 374.115 257.321 373.854 257.872 373.789C258.424 373.725 258.98 373.862 259.438 374.176C259.871 374.534 260.151 375.044 260.22 375.602C260.288 376.16 260.141 376.723 259.808 377.176C259.411 377.623 258.862 377.908 258.267 377.974C257.672 378.041 257.074 377.885 256.588 377.536C256.176 377.109 255.946 376.539 255.946 375.946C255.946 375.353 256.176 374.783 256.588 374.356" fill="white"/>
</g>
<path d="M277.267 373.696L273.127 371.776L252.197 421.616C252.197 421.616 252.147 424.356 253.867 424.826L277.267 373.696Z" fill="#0A1849"/>
<path d="M250.778 392.026C251.038 392.126 251.718 390.926 253.088 390.026C254.458 389.126 255.798 389.026 255.808 388.716C255.818 388.406 254.198 388.156 252.568 389.226C250.938 390.296 250.528 392.026 250.778 392.026Z" fill="#0A1849"/>
<path d="M250.588 398.436C250.798 398.606 251.718 397.716 253.168 397.356C254.618 396.996 255.838 397.256 255.938 397.006C256.038 396.756 254.708 395.946 252.938 396.436C251.168 396.926 250.308 398.326 250.588 398.436Z" fill="#0A1849"/>
<path d="M255.588 404.426C255.748 404.216 254.658 403.306 252.998 403.316C251.338 403.326 250.258 404.256 250.418 404.456C250.578 404.656 251.638 404.266 253.008 404.276C254.378 404.286 255.428 404.656 255.588 404.426Z" fill="#0A1849"/>
<path d="M244.957 388.856C245.237 388.856 245.417 387.546 246.157 386.186C246.897 384.826 247.847 383.916 247.697 383.686C247.547 383.456 246.167 384.116 245.317 385.686C244.467 387.256 244.707 388.886 244.957 388.856Z" fill="#0A1849"/>
<path d="M239.447 384.856C239.557 384.906 240.157 383.996 240.607 382.296C240.868 381.296 241.006 380.269 241.017 379.236C241.019 378.624 240.982 378.013 240.907 377.406C240.88 377.045 240.796 376.69 240.657 376.356C240.554 376.111 240.372 375.907 240.14 375.777C239.909 375.647 239.64 375.597 239.377 375.636C239.147 375.682 238.931 375.781 238.745 375.925C238.559 376.069 238.409 376.254 238.307 376.466C238.16 376.783 238.059 377.12 238.007 377.466C237.887 378.072 237.823 378.688 237.817 379.306C237.815 380.347 237.974 381.383 238.287 382.376C238.495 383.316 238.979 384.173 239.677 384.836C239.817 384.756 239.297 383.836 238.947 382.196C238.743 381.254 238.659 380.289 238.697 379.326C238.728 378.761 238.802 378.2 238.917 377.646C239.027 377.046 239.237 376.576 239.537 376.546C239.657 376.546 239.697 376.546 239.797 376.736C239.893 376.983 239.954 377.242 239.977 377.506C240.064 378.072 240.117 378.643 240.137 379.216C240.163 380.19 240.099 381.164 239.947 382.126C239.723 383.024 239.556 383.936 239.447 384.856Z" fill="#0A1849"/>
<path d="M239.957 384.696C240.037 384.626 239.367 383.696 237.797 382.886C236.858 382.406 235.843 382.092 234.797 381.956C234.184 381.875 233.565 381.855 232.947 381.896C232.557 381.883 232.17 381.967 231.82 382.142C231.471 382.316 231.171 382.576 230.947 382.896C230.848 383.126 230.817 383.38 230.855 383.628C230.894 383.876 231.003 384.107 231.167 384.296C231.405 384.566 231.681 384.799 231.987 384.986C232.519 385.339 233.103 385.605 233.717 385.776C234.738 386.076 235.817 386.117 236.857 385.896C238.647 385.506 239.417 384.596 239.337 384.536C238.489 384.82 237.624 385.05 236.747 385.226C235.814 385.334 234.868 385.235 233.977 384.936C233.46 384.766 232.968 384.523 232.517 384.216C232.007 383.886 231.667 383.476 231.817 383.306C231.967 383.136 232.537 382.806 233.057 382.786C233.616 382.736 234.179 382.736 234.737 382.786C235.695 382.874 236.635 383.1 237.527 383.456C239.047 384.126 239.857 384.816 239.957 384.696Z" fill="#0A1849"/>
<path d="M254.338 322.366C254.338 322.366 289.648 309.176 302.648 310.886C309.918 311.886 321.278 317.386 322.148 326.706C323.018 336.026 320.738 348.476 308.148 354.546C295.558 360.616 245.428 383.116 233.518 386.546C221.608 389.976 191.888 398.126 191.888 398.126L180.638 366.026C180.638 366.026 242.208 344.706 245.458 342.316C248.708 339.926 256.938 336.686 256.938 336.686L254.338 322.366Z" fill="#0A1849"/>
<path d="M131.587 326.746L131.837 326.676L132.547 326.466C133.167 326.276 134.087 326.006 135.297 325.716C136.752 325.36 138.228 325.103 139.717 324.946C141.693 324.766 143.682 324.766 145.657 324.946C148.055 325.145 150.425 325.597 152.727 326.296C154.008 326.677 155.256 327.162 156.457 327.746L160.297 329.626C165.587 332.146 171.477 334.736 177.767 337.216C190.347 342.216 202.427 344.656 211.037 346.606C215.357 347.606 218.857 348.346 221.257 348.926L224.037 349.576L224.757 349.746H225.007L224.767 349.666L224.047 349.466C223.427 349.296 222.497 349.036 221.297 348.736C218.897 348.126 215.417 347.296 211.097 346.306C202.497 344.306 190.447 341.846 177.907 336.826C171.627 334.346 165.737 331.776 160.447 329.266L156.587 327.456C155.366 326.871 154.098 326.386 152.797 326.006C150.475 325.313 148.084 324.87 145.667 324.686C143.672 324.503 141.663 324.503 139.667 324.686C138.169 324.861 136.686 325.141 135.227 325.526C134.027 325.836 133.107 326.126 132.497 326.336L131.797 326.596C131.722 326.638 131.651 326.688 131.587 326.746Z" fill="#010101"/>
<path d="M133.438 322.086C133.438 322.146 134.517 321.956 136.247 321.766C138.496 321.528 140.759 321.465 143.017 321.576C145.281 321.696 147.531 321.993 149.747 322.466C151.447 322.826 152.487 323.126 152.497 323.066C152.276 322.946 152.041 322.852 151.798 322.786C151.141 322.558 150.474 322.364 149.798 322.206C145.352 321.095 140.733 320.857 136.197 321.506C135.337 321.626 134.637 321.756 134.197 321.876C133.937 321.917 133.682 321.987 133.438 322.086Z" fill="#010101"/>
<path d="M269.198 331.706C269.198 331.766 270.198 331.006 271.908 329.956C276.325 327.22 281.282 325.47 286.438 324.826C288.438 324.586 289.658 324.556 289.648 324.486C289.359 324.456 289.067 324.456 288.778 324.486C287.986 324.482 287.195 324.519 286.408 324.596C281.176 325.101 276.147 326.875 271.758 329.766C270.928 330.326 270.268 330.766 269.838 331.166C269.605 331.322 269.39 331.503 269.198 331.706Z" fill="#010101"/>
<path d="M251.478 379.676L251.198 379.786L250.398 380.126C249.688 380.406 248.658 380.896 247.278 381.426C244.528 382.516 240.458 384.016 235.278 385.726C224.848 389.136 209.848 393.476 191.908 397.996L192.118 398.106C188.768 388.826 185.118 378.576 181.198 367.806L181.088 368.046L194.588 362.496L269.398 331.706C272.448 328.486 275.248 325.646 277.878 323.346C280.101 321.379 282.475 319.591 284.978 317.996C286.553 317.005 288.178 316.097 289.848 315.276L291.158 314.666L291.598 314.446L291.148 314.636L289.818 315.216C288.133 316.01 286.493 316.898 284.908 317.876C282.384 319.457 279.99 321.236 277.748 323.196C275.098 325.486 272.278 328.316 269.218 331.526C250.988 339.006 224.218 349.986 194.368 362.196L180.848 367.756L180.678 367.826L180.738 367.996C184.638 378.766 188.338 388.996 191.688 398.286L191.738 398.426H191.898C209.838 393.866 224.818 389.476 235.238 386.016C240.448 384.266 244.508 382.746 247.238 381.616C248.608 381.076 249.638 380.566 250.338 380.266L251.128 379.896L251.478 379.676Z" fill="#010101"/>
<path d="M164.188 209.826C164.188 209.826 154.028 215.686 151.968 222.566C150.708 226.746 141.228 280.196 139.728 290.736C138.228 301.276 141.388 309.086 145.888 312.586C150.388 316.086 164.008 320.736 164.008 320.736L183.178 326.946L188.668 312.946L170.428 286.736L172.188 269.076L164.188 209.826Z" fill="#42E8E0"/>
<path d="M164.188 209.826C164.188 209.826 154.028 215.686 151.968 222.566C150.708 226.746 141.228 280.196 139.728 290.736C138.228 301.276 141.388 309.086 145.888 312.586C150.388 316.086 164.008 320.736 164.008 320.736L183.178 326.946L188.668 312.946L170.428 286.736L172.188 269.076L164.188 209.826Z" fill="url(#paint10_radial_98_121)"/>
<path d="M184.177 200.596L190.517 195.916C190.517 195.916 198.777 204.366 208.267 203.366C217.757 202.366 223.378 195.106 223.378 195.106L251.677 200.876C253.577 201.256 257.038 202.456 260.348 207.186C264.048 212.466 281.557 235.866 281.557 235.866H293.818C295.476 235.867 297.103 236.32 298.523 237.176C299.943 238.032 301.103 239.26 301.878 240.726C303.967 244.726 306.477 250.046 306.237 252.256C305.817 255.986 306.538 266.256 301.538 269.436C299.948 270.436 294.257 273.496 289.857 273.296C283.347 272.986 275.787 269.596 271.438 266.556C267.747 263.976 259.178 255.066 255.878 251.556V251.606L253.758 325.846L179.587 323.766L164.188 209.826C164.188 209.826 183.427 200.596 184.177 200.596Z" fill="#42E8E0"/>
<path d="M184.177 200.596L190.517 195.916C190.517 195.916 198.777 204.366 208.267 203.366C217.757 202.366 223.378 195.106 223.378 195.106L251.677 200.876C253.577 201.256 257.038 202.456 260.348 207.186C264.048 212.466 281.557 235.866 281.557 235.866H293.818C295.476 235.867 297.103 236.32 298.523 237.176C299.943 238.032 301.103 239.26 301.878 240.726C303.967 244.726 306.477 250.046 306.237 252.256C305.817 255.986 306.538 266.256 301.538 269.436C299.948 270.436 294.257 273.496 289.857 273.296C283.347 272.986 275.787 269.596 271.438 266.556C267.747 263.976 259.178 255.066 255.878 251.556V251.606L253.758 325.846L179.587 323.766L164.188 209.826C164.188 209.826 183.427 200.596 184.177 200.596Z" fill="url(#paint11_radial_98_121)"/>
<path d="M256.137 220.486C256.037 220.486 255.847 229.686 255.707 241.036C255.567 252.386 255.548 261.586 255.658 261.586C255.768 261.586 255.957 252.396 256.087 241.036C256.217 229.676 256.247 220.486 256.137 220.486Z" fill="#0A1849"/>
<path d="M155.208 280.496C155.208 280.496 155.838 280.596 156.958 280.806C158.538 281.122 160.078 281.615 161.548 282.276C163.73 283.253 165.785 284.493 167.668 285.966C169.98 287.784 172.137 289.791 174.118 291.966C176.238 294.256 178.178 296.526 179.998 298.536C181.591 300.339 183.276 302.058 185.048 303.686C186.245 304.77 187.515 305.773 188.848 306.686C189.318 307.026 189.708 307.246 189.958 307.406C190.083 307.493 190.217 307.567 190.358 307.626C190.252 307.516 190.131 307.421 189.998 307.346C189.758 307.156 189.388 306.916 188.938 306.566C187.641 305.599 186.403 304.557 185.228 303.446C183.738 302.056 182.058 300.286 180.228 298.266C178.398 296.246 176.498 293.966 174.368 291.666C172.37 289.483 170.189 287.475 167.848 285.666C165.935 284.191 163.846 282.961 161.628 282.006C160.133 281.362 158.564 280.905 156.958 280.646C156.521 280.571 156.08 280.521 155.638 280.496C155.495 280.481 155.35 280.481 155.208 280.496Z" fill="#0A1849"/>
<path d="M153.528 275.466C153.528 275.536 154.648 275.696 156.418 276.186C161.052 277.461 165.256 279.962 168.588 283.426C169.868 284.746 170.588 285.666 170.588 285.626C170.476 285.381 170.331 285.152 170.158 284.946C169.735 284.347 169.274 283.775 168.778 283.236C165.511 279.621 161.232 277.074 156.498 275.926C155.788 275.744 155.066 275.61 154.338 275.526C154.071 275.478 153.799 275.458 153.528 275.466Z" fill="#0A1849"/>
<g opacity="0.3">
<path d="M291.588 262.436C287.658 263.506 282.938 257.856 279.368 254.316C277.518 252.476 275.588 250.516 274.908 247.996C274.417 245.876 274.631 243.653 275.518 241.666C276.182 239.874 277.058 238.169 278.128 236.586C277.808 239.636 277.048 244.316 278.078 248.146C278.938 251.336 280.958 253.886 283.078 256.296C285.198 258.706 288.078 261.526 291.558 262.436" fill="#010101"/>
</g>
<path d="M274.827 259.206C274.907 259.206 274.447 257.906 274.077 255.776C273.87 254.529 273.75 253.269 273.717 252.006C273.702 250.46 273.809 248.915 274.037 247.386C274.289 245.862 274.663 244.36 275.157 242.896C275.578 241.702 276.082 240.539 276.667 239.416C277.667 237.506 278.497 236.416 278.437 236.416C278.206 236.634 278.001 236.879 277.827 237.146C277.597 237.435 277.387 237.739 277.197 238.056C276.919 238.462 276.662 238.883 276.427 239.316C275.804 240.433 275.269 241.596 274.827 242.796C274.306 244.276 273.914 245.798 273.657 247.346C273.428 248.898 273.331 250.467 273.367 252.036C273.416 253.316 273.566 254.59 273.817 255.846C273.907 256.386 274.047 256.846 274.157 257.286C274.246 257.645 274.353 257.998 274.477 258.346C274.572 258.641 274.689 258.929 274.827 259.206Z" fill="#0A1849"/>
<path d="M220.288 198.026C220.288 198.126 221.108 198.636 222.018 199.446C222.928 200.256 223.588 201.026 223.588 200.956C223.268 200.252 222.807 199.622 222.232 199.106C221.657 198.59 220.981 198.198 220.248 197.956L220.288 198.026Z" fill="#0A1849"/>
<path d="M212.588 202.466C212.508 202.546 213.248 203.346 213.848 204.526C214.448 205.706 214.678 206.776 214.798 206.766C214.841 205.919 214.628 205.08 214.188 204.356C213.863 203.575 213.304 202.915 212.588 202.466Z" fill="#0A1849"/>
<path d="M199.348 207.116C199.697 206.406 199.981 205.666 200.198 204.906C200.528 204.185 200.779 203.43 200.948 202.656C200.012 203.966 199.458 205.51 199.348 207.116Z" fill="#0A1849"/>
<path d="M190.837 203.096C190.947 203.096 191.237 201.826 192.077 200.456C192.917 199.086 193.917 198.226 193.837 198.136C192.948 198.624 192.224 199.365 191.757 200.266C191.183 201.1 190.863 202.083 190.837 203.096Z" fill="#0A1849"/>
<path d="M166.407 227.136C166.307 227.136 167.557 237.296 169.217 249.786C170.877 262.276 172.287 272.396 172.397 272.386C172.507 272.376 171.247 262.226 169.587 249.736C167.927 237.246 166.517 227.126 166.407 227.136Z" fill="#0A1849"/>
<path d="M277.588 243.556C277.55 243.905 277.55 244.257 277.588 244.606C277.611 245.015 277.661 245.423 277.738 245.826C277.788 246.066 277.828 246.316 277.868 246.586C277.908 246.856 278.008 247.126 278.088 247.416C278.444 248.793 278.933 250.133 279.548 251.416C280.312 252.975 281.223 254.458 282.268 255.846C283.338 257.217 284.555 258.468 285.898 259.576C287.002 260.472 288.228 261.21 289.538 261.766C289.818 261.886 290.078 262.006 290.338 262.096L291.078 262.306L291.728 262.486C291.928 262.486 292.118 262.536 292.288 262.556C292.618 262.611 292.952 262.641 293.288 262.646C292.023 262.396 290.787 262.021 289.598 261.526C288.336 260.937 287.153 260.191 286.078 259.306C284.767 258.202 283.577 256.961 282.528 255.606C281.498 254.242 280.591 252.789 279.818 251.266C279.205 250.006 278.696 248.698 278.298 247.356C277.708 245.026 277.688 243.546 277.588 243.556Z" fill="#0A1849"/>
<g opacity="0.3">
<path d="M168.798 328.416C165.648 326.896 164.938 322.816 164.618 319.336C163.678 309.136 162.734 298.939 161.788 288.746C161.348 283.946 161.138 278.476 164.518 275.046C167.608 271.916 172.518 271.726 176.908 271.736C204.058 271.816 228.038 272.616 255.188 272.736L253.808 320.236L168.798 328.416Z" fill="#010101"/>
</g>
<path d="M266.888 280.026L263.998 335.116C263.941 336.138 263.495 337.1 262.751 337.803C262.007 338.507 261.022 338.898 259.998 338.896L172.258 339.056C171.231 339.057 170.242 338.664 169.498 337.956C168.753 337.249 168.309 336.282 168.258 335.256L164.908 281.096C164.798 278.856 166.398 275.856 168.678 275.816H262.848C263.394 275.81 263.937 275.916 264.441 276.127C264.945 276.339 265.401 276.652 265.779 277.046C266.158 277.441 266.452 277.909 266.642 278.421C266.833 278.934 266.916 279.48 266.888 280.026Z" fill="white"/>
<path d="M266.887 280.026C266.892 279.959 266.892 279.893 266.887 279.826C266.905 279.62 266.905 279.412 266.887 279.206C266.783 278.508 266.496 277.849 266.056 277.298C265.615 276.746 265.036 276.321 264.377 276.066C263.7 275.819 262.977 275.716 262.257 275.766H256.927L222.927 275.706L172.497 275.656H168.917C168.281 275.627 167.65 275.791 167.107 276.126C166.577 276.467 166.121 276.913 165.767 277.436C165.052 278.482 164.668 279.719 164.667 280.986C164.737 282.216 164.817 283.456 164.887 284.696C165.187 289.696 165.507 294.696 165.817 299.866C166.457 310.176 167.117 320.866 167.817 331.776L167.947 333.776C168.007 334.466 167.997 335.126 168.117 335.846C168.259 336.544 168.575 337.195 169.037 337.737C169.499 338.28 170.091 338.696 170.757 338.946C171.419 339.175 172.119 339.27 172.817 339.226H178.817H194.567L224.347 339.156L251.297 339.096H257.517H259.037C259.555 339.104 260.073 339.08 260.587 339.026C261.603 338.887 262.532 338.378 263.198 337.599C263.864 336.819 264.219 335.821 264.197 334.796C264.247 333.796 264.297 332.896 264.347 331.956C264.447 330.076 264.537 328.246 264.627 326.456C265.357 312.126 265.947 300.526 266.347 292.456C266.547 288.456 266.697 285.346 266.797 283.226C266.847 282.176 266.887 281.376 266.907 280.826C266.927 280.276 266.907 280.006 266.907 280.006L266.847 280.826C266.847 281.376 266.767 282.176 266.707 283.226C266.587 285.346 266.407 288.446 266.187 292.456C265.747 300.456 265.117 312.066 264.337 326.396C264.247 328.186 264.147 330.026 264.047 331.896C264.001 332.836 263.951 333.786 263.897 334.746C263.909 335.694 263.583 336.616 262.977 337.346C262.353 338.078 261.481 338.555 260.527 338.686C260.035 338.721 259.54 338.721 259.047 338.686H251.287H224.337H194.557H178.807H172.807C172.157 338.731 171.505 338.646 170.887 338.436C170.28 338.206 169.74 337.826 169.318 337.331C168.897 336.836 168.608 336.243 168.477 335.606C168.367 334.986 168.367 334.266 168.317 333.606L168.187 331.606C167.507 320.676 166.847 310.006 166.187 299.696C165.867 294.546 165.547 289.476 165.187 284.526C165.117 283.286 165.037 282.056 164.967 280.826C164.959 279.638 165.308 278.474 165.967 277.486C166.258 276.987 166.676 276.574 167.178 276.289C167.681 276.005 168.25 275.859 168.827 275.866H172.407H222.827L256.827 275.806H262.157C262.865 275.747 263.578 275.839 264.247 276.076C264.799 276.292 265.292 276.635 265.687 277.076C266.243 277.654 266.613 278.386 266.747 279.176C266.809 279.457 266.856 279.74 266.887 280.026Z" fill="#0A1849"/>
<path d="M210.038 306.916C210.038 307.939 210.341 308.938 210.909 309.788C211.477 310.639 212.284 311.301 213.229 311.693C214.174 312.084 215.213 312.186 216.216 311.987C217.219 311.787 218.14 311.295 218.863 310.572C219.586 309.849 220.079 308.928 220.278 307.925C220.478 306.922 220.375 305.882 219.984 304.938C219.593 303.993 218.93 303.185 218.08 302.617C217.23 302.049 216.23 301.746 215.208 301.746C213.837 301.749 212.524 302.294 211.555 303.263C210.586 304.232 210.04 305.546 210.038 306.916Z" fill="#42E8E0"/>
<path d="M210.038 306.916C210.038 307.939 210.341 308.938 210.909 309.788C211.477 310.639 212.284 311.301 213.229 311.693C214.174 312.084 215.213 312.186 216.216 311.987C217.219 311.787 218.14 311.295 218.863 310.572C219.586 309.849 220.079 308.928 220.278 307.925C220.478 306.922 220.375 305.882 219.984 304.938C219.593 303.993 218.93 303.185 218.08 302.617C217.23 302.049 216.23 301.746 215.208 301.746C213.837 301.749 212.524 302.294 211.555 303.263C210.586 304.232 210.04 305.546 210.038 306.916Z" fill="url(#paint12_radial_98_121)"/>
<path d="M210.038 306.916C210.088 306.916 210.038 306.456 210.278 305.676C210.582 304.571 211.248 303.599 212.168 302.916C212.911 302.359 213.794 302.019 214.719 301.936C215.644 301.853 216.573 302.028 217.404 302.444C218.234 302.859 218.933 303.497 219.421 304.287C219.909 305.077 220.168 305.987 220.168 306.916C220.168 307.649 220.007 308.373 219.697 309.037C219.386 309.701 218.933 310.288 218.37 310.758C217.807 311.227 217.148 311.567 216.439 311.753C215.73 311.94 214.989 311.968 214.268 311.836C213.499 311.699 212.773 311.384 212.148 310.916C211.228 310.232 210.562 309.261 210.258 308.156C210.048 307.376 210.068 306.916 210.018 306.916C210.003 307.025 210.003 307.136 210.018 307.246C210.02 307.566 210.057 307.884 210.128 308.196C210.391 309.36 211.053 310.396 211.998 311.126C212.651 311.631 213.416 311.974 214.228 312.126C215.163 312.308 216.13 312.236 217.028 311.916C218.028 311.565 218.897 310.916 219.518 310.056C220.156 309.194 220.52 308.16 220.56 307.088C220.6 306.016 220.316 304.958 219.744 304.05C219.172 303.143 218.339 302.43 217.355 302.005C216.371 301.579 215.281 301.461 214.228 301.666C213.416 301.817 212.651 302.16 211.998 302.666C211.052 303.399 210.391 304.438 210.128 305.606C210.056 305.917 210.019 306.236 210.018 306.556C210.006 306.676 210.013 306.798 210.038 306.916Z" fill="#0A1849"/>
<path d="M263.938 286.146C263.828 286.146 263.398 295.396 262.938 306.816C262.478 318.236 262.248 327.506 262.358 327.506C262.468 327.506 262.888 318.256 263.358 306.836C263.828 295.416 264.038 286.146 263.938 286.146Z" fill="#0A1849"/>
<path d="M290.308 214.276C290.818 213.836 288.578 205.186 288.578 205.186C288.578 205.186 294.528 195.476 294.688 192.346C294.848 189.216 292.338 182.786 292.338 182.786L275.258 178.396C275.258 178.396 269.778 188.586 268.678 192.186C267.578 195.786 270.588 208.026 270.588 208.026L273.478 214.296C273.478 214.296 282.178 221.166 290.308 214.276Z" fill="#FFBE9D"/>
<path d="M294.647 194.216C295.315 192.986 295.916 191.721 296.447 190.426C297.527 187.856 298.857 185.346 296.447 183.906C296.073 183.659 295.649 183.495 295.206 183.426C294.762 183.357 294.309 183.384 293.877 183.506C293.877 183.506 294.247 181.346 292.957 180.506C292.584 180.27 292.159 180.127 291.719 180.089C291.279 180.051 290.836 180.118 290.427 180.286C290.427 180.286 290.827 177.286 288.977 175.956C288.279 175.497 287.467 175.24 286.632 175.216C285.797 175.191 284.971 175.399 284.247 175.816C284.247 175.816 285.717 162.496 285.847 161.816C286.307 159.226 285.357 156.936 282.777 157.576C281.827 157.806 281.307 158.806 280.197 163.146C279.087 167.486 277.307 174.886 277.307 174.886C277.307 174.886 274.307 180.096 272.897 182.886C271.487 185.676 268.677 192.146 268.447 193.886C267.837 198.296 270.447 204.136 270.447 204.136L288.597 205.136C288.597 205.136 293.957 195.476 294.647 194.216Z" fill="#FFBE9D"/>
<path d="M293.518 184.076C293.003 184.708 292.535 185.376 292.118 186.076L290.678 188.266C290.378 188.695 290.117 189.151 289.898 189.626C289.642 190.165 289.568 190.772 289.688 191.356C289.74 191.662 289.873 191.949 290.073 192.187C290.274 192.424 290.534 192.603 290.828 192.706C291.377 192.842 291.957 192.771 292.458 192.506C292.882 192.292 293.287 192.041 293.668 191.756C294.028 191.496 294.358 191.256 294.668 191.016C295.258 190.556 295.718 190.166 296.018 189.886C296.318 189.606 296.488 189.436 296.468 189.416C296.448 189.396 295.718 189.946 294.468 190.806C293.782 191.324 293.057 191.785 292.298 192.186C291.874 192.4 291.389 192.457 290.928 192.346C290.697 192.265 290.492 192.122 290.335 191.934C290.179 191.745 290.076 191.518 290.038 191.276C289.941 190.77 290.004 190.245 290.218 189.776C290.426 189.316 290.674 188.874 290.958 188.456L292.318 186.226C292.778 185.545 293.179 184.825 293.518 184.076Z" fill="#EB996E"/>
<path d="M278.588 185.666C278.751 184.711 278.686 183.731 278.398 182.806C278.235 181.855 277.847 180.957 277.268 180.186C277.168 180.236 277.678 181.396 278.028 182.896C278.378 184.396 278.518 185.666 278.588 185.666Z" fill="#EB996E"/>
<path d="M271.438 189.556C273.11 187.932 275.219 186.831 277.508 186.386C279.788 185.949 282.121 185.862 284.427 186.126C286.267 186.286 288.427 186.766 289.217 188.416C290.007 190.066 289.048 192.316 287.408 193.286C285.685 194.144 283.737 194.441 281.837 194.136C279.954 193.825 278.04 193.748 276.137 193.906" fill="#FFBE9D"/>
<path d="M276.138 193.906C276.138 193.906 276.648 193.906 277.568 193.906C278.87 193.962 280.168 194.086 281.458 194.276C282.363 194.391 283.276 194.427 284.188 194.386C285.252 194.355 286.296 194.092 287.248 193.616C288.317 193.062 289.131 192.116 289.518 190.976C289.727 190.368 289.772 189.716 289.648 189.086C289.495 188.439 289.146 187.856 288.648 187.416C287.643 186.63 286.429 186.157 285.158 186.056C284.012 185.924 282.861 185.854 281.708 185.846C279.748 185.809 277.797 186.107 275.938 186.726C274.684 187.148 273.51 187.78 272.468 188.596C272.192 188.818 271.928 189.055 271.678 189.306C271.508 189.486 271.428 189.586 271.438 189.596C271.448 189.606 271.818 189.246 272.558 188.706C273.614 187.953 274.782 187.369 276.018 186.976C277.861 186.414 279.782 186.151 281.708 186.196C282.844 186.216 283.979 186.292 285.108 186.426C286.301 186.521 287.441 186.963 288.388 187.696C288.829 188.086 289.14 188.603 289.278 189.176C289.388 189.74 289.347 190.323 289.158 190.866C288.803 191.916 288.058 192.789 287.078 193.306C286.174 193.768 285.182 194.03 284.168 194.076C283.274 194.119 282.378 194.096 281.488 194.006C280.188 193.834 278.879 193.75 277.568 193.756C277.213 193.768 276.859 193.802 276.508 193.856C276.258 193.856 276.138 193.886 276.138 193.906Z" fill="#EB996E"/>
<path d="M293.388 184.286C291.478 187.186 289.788 190.376 288.178 193.456C287.795 194.395 287.166 195.214 286.358 195.826C285.668 196.246 283.958 195.476 283.198 195.216L288.438 183.286" fill="#FFBE9D"/>
<path d="M288.438 183.286C288.259 183.569 288.105 183.867 287.978 184.176L286.818 186.676C285.818 188.796 284.507 191.776 283.027 195.136L282.938 195.326L283.137 195.396C283.736 195.636 284.347 195.843 284.967 196.016C285.23 196.082 285.498 196.122 285.767 196.136C285.913 196.144 286.058 196.127 286.197 196.086C286.34 196.052 286.473 195.987 286.587 195.896C287.01 195.591 287.37 195.208 287.647 194.766C288.187 193.916 288.567 193.066 288.997 192.286C289.817 190.696 290.568 189.286 291.228 188.096C291.888 186.906 292.428 185.966 292.818 185.316C293.031 184.997 293.222 184.663 293.387 184.316C293.122 184.626 292.888 184.961 292.688 185.316C292.267 185.946 291.687 186.866 290.997 188.036C290.307 189.206 289.528 190.616 288.688 192.196C288.247 192.976 287.847 193.846 287.337 194.636C287.073 195.032 286.733 195.372 286.337 195.636C286.135 195.741 285.912 195.801 285.684 195.812C285.456 195.822 285.229 195.783 285.017 195.696C284.407 195.524 283.806 195.321 283.217 195.086L283.327 195.346C284.807 191.966 286.098 188.976 287.008 186.826L288.057 184.276C288.214 183.958 288.341 183.627 288.438 183.286Z" fill="#EB996E"/>
<path d="M289.858 179.736C288.171 183.963 286.484 188.189 284.798 192.416C284.488 193.335 284.028 194.197 283.438 194.966C283.134 195.343 282.743 195.641 282.299 195.834C281.855 196.028 281.371 196.111 280.888 196.076C280.241 195.907 279.67 195.527 279.264 194.996C278.858 194.465 278.641 193.814 278.648 193.146C278.688 191.811 279.008 190.499 279.588 189.296C281.106 185.444 282.319 181.478 283.218 177.436" fill="#FFBE9D"/>
<path d="M283.218 177.436C283.157 177.556 283.114 177.684 283.088 177.816L282.788 178.936C282.528 179.936 282.148 181.316 281.618 183.036C281.088 184.756 280.388 186.786 279.518 189.036C278.985 190.186 278.628 191.41 278.458 192.666C278.41 193.355 278.545 194.045 278.848 194.666C279.145 195.339 279.689 195.872 280.368 196.156C280.713 196.281 281.08 196.33 281.446 196.301C281.812 196.271 282.167 196.164 282.488 195.986C283.098 195.654 283.612 195.168 283.978 194.576C284.586 193.476 285.098 192.325 285.508 191.136C286.378 188.926 287.158 186.936 287.818 185.236L289.348 181.236C289.508 180.796 289.638 180.436 289.738 180.146C289.793 180.021 289.833 179.89 289.858 179.756C289.776 179.866 289.712 179.987 289.668 180.116C289.548 180.406 289.388 180.756 289.208 181.186L287.588 185.106C286.908 186.796 286.098 188.776 285.208 190.976C284.795 192.139 284.286 193.267 283.688 194.346C283.354 194.878 282.889 195.316 282.338 195.616C282.065 195.771 281.762 195.866 281.45 195.894C281.138 195.921 280.823 195.881 280.528 195.776C279.942 195.521 279.471 195.058 279.208 194.476C278.93 193.908 278.809 193.276 278.858 192.646C279.007 191.428 279.345 190.241 279.858 189.126C280.718 186.896 281.378 184.846 281.858 183.126C282.338 181.406 282.708 179.966 282.928 178.986C283.028 178.486 283.108 178.106 283.158 177.846C283.196 177.713 283.217 177.575 283.218 177.436Z" fill="#EB996E"/>
<path d="M301.488 245.276C301.028 243.596 289.488 209.466 289.488 209.466L270.408 207.186L278.208 236.586C278.208 236.586 276.998 244.056 278.208 248.476C279.418 252.896 289.208 264.926 294.208 262.036C299.208 259.146 301.938 246.956 301.488 245.276Z" fill="#FFBE9D"/>
<path d="M278.167 204.166C278.537 204.211 278.912 204.163 279.258 204.026C280.115 203.759 280.903 203.306 281.565 202.699C282.227 202.092 282.747 201.347 283.087 200.516C283.251 200.183 283.33 199.816 283.318 199.446C282.841 200.56 282.163 201.577 281.318 202.446C280.385 203.212 279.316 203.795 278.167 204.166Z" fill="#EB996E"/>
<defs>
<filter id="filter0_b_98_121" x="-256.13" y="-286.36" width="1183.7" height="982.21" filterUnits="userSpaceOnUse" color-interpolation-filters="sRGB">
<feFlood flood-opacity="0" result="BackgroundImageFix"/>
<feGaussianBlur in="BackgroundImageFix" stdDeviation="172.5"/>
<feComposite in2="SourceAlpha" operator="in" result="effect1_backgroundBlur_98_121"/>
<feBlend mode="normal" in="SourceGraphic" in2="effect1_backgroundBlur_98_121" result="shape"/>
</filter>
<radialGradient id="paint0_radial_98_121" cx="0" cy="0" r="1" gradientUnits="userSpaceOnUse" gradientTransform="translate(557.802 201.292) rotate(-149.734) scale(776.442 1253.72)">
<stop stop-color="#42E8E0"/>
<stop offset="0.02" stop-color="#43E0DE"/>
<stop offset="0.11" stop-color="#47BAD1"/>
<stop offset="0.21" stop-color="#4B9AC7"/>
<stop offset="0.32" stop-color="#4E7FBE"/>
<stop offset="0.44" stop-color="#506BB7"/>
<stop offset="0.58" stop-color="#525CB3"/>
<stop offset="0.74" stop-color="#5354B0"/>
<stop offset="1" stop-color="#5351AF"/>
</radialGradient>
<radialGradient id="paint1_radial_98_121" cx="0" cy="0" r="1" gradientUnits="userSpaceOnUse" gradientTransform="translate(459.858 199.198) rotate(-127.986) scale(122.827 221.005)">
<stop stop-color="#42E8E0"/>
<stop offset="0.02" stop-color="#43E0DE"/>
<stop offset="0.11" stop-color="#47BAD1"/>
<stop offset="0.21" stop-color="#4B9AC7"/>
<stop offset="0.32" stop-color="#4E7FBE"/>
<stop offset="0.44" stop-color="#506BB7"/>
<stop offset="0.58" stop-color="#525CB3"/>
<stop offset="0.74" stop-color="#5354B0"/>
<stop offset="1" stop-color="#5351AF"/>
</radialGradient>
<radialGradient id="paint2_radial_98_121" cx="0" cy="0" r="1" gradientUnits="userSpaceOnUse" gradientTransform="translate(508.167 199.251) rotate(-122.953) scale(115.541 195.615)">
<stop stop-color="#42E8E0"/>
<stop offset="0.02" stop-color="#43E0DE"/>
<stop offset="0.11" stop-color="#47BAD1"/>
<stop offset="0.21" stop-color="#4B9AC7"/>
<stop offset="0.32" stop-color="#4E7FBE"/>
<stop offset="0.44" stop-color="#506BB7"/>
<stop offset="0.58" stop-color="#525CB3"/>
<stop offset="0.74" stop-color="#5354B0"/>
<stop offset="1" stop-color="#5351AF"/>
</radialGradient>
<radialGradient id="paint3_radial_98_121" cx="0" cy="0" r="1" gradientUnits="userSpaceOnUse" gradientTransform="translate(523.737 120.141) rotate(-135.465) scale(247.018 458.065)">
<stop stop-color="#42E8E0"/>
<stop offset="0.02" stop-color="#43E0DE"/>
<stop offset="0.11" stop-color="#47BAD1"/>
<stop offset="0.21" stop-color="#4B9AC7"/>
<stop offset="0.32" stop-color="#4E7FBE"/>
<stop offset="0.44" stop-color="#506BB7"/>
<stop offset="0.58" stop-color="#525CB3"/>
<stop offset="0.74" stop-color="#5354B0"/>
<stop offset="1" stop-color="#5351AF"/>
</radialGradient>
<radialGradient id="paint4_radial_98_121" cx="0" cy="0" r="1" gradientUnits="userSpaceOnUse" gradientTransform="translate(487.374 119.351) rotate(-136.696) scale(89.3942 165.502)">
<stop stop-color="#42E8E0"/>
<stop offset="0.02" stop-color="#43E0DE"/>
<stop offset="0.11" stop-color="#47BAD1"/>
<stop offset="0.21" stop-color="#4B9AC7"/>
<stop offset="0.32" stop-color="#4E7FBE"/>
<stop offset="0.44" stop-color="#506BB7"/>
<stop offset="0.58" stop-color="#525CB3"/>
<stop offset="0.74" stop-color="#5354B0"/>
<stop offset="1" stop-color="#5351AF"/>
</radialGradient>
<radialGradient id="paint5_radial_98_121" cx="0" cy="0" r="1" gradientUnits="userSpaceOnUse" gradientTransform="translate(420.605 294.446) rotate(-135.298) scale(102.804 190.652)">
<stop stop-color="#42E8E0"/>
<stop offset="0.02" stop-color="#43E0DE"/>
<stop offset="0.11" stop-color="#47BAD1"/>
<stop offset="0.21" stop-color="#4B9AC7"/>
<stop offset="0.32" stop-color="#4E7FBE"/>
<stop offset="0.44" stop-color="#506BB7"/>
<stop offset="0.58" stop-color="#525CB3"/>
<stop offset="0.74" stop-color="#5354B0"/>
<stop offset="1" stop-color="#5351AF"/>
</radialGradient>
<radialGradient id="paint6_radial_98_121" cx="0" cy="0" r="1" gradientUnits="userSpaceOnUse" gradientTransform="translate(399.678 279.897) rotate(147.975) scale(65.6951 121.827)">
<stop stop-color="#42E8E0"/>
<stop offset="0.02" stop-color="#43E0DE"/>
<stop offset="0.11" stop-color="#47BAD1"/>
<stop offset="0.21" stop-color="#4B9AC7"/>
<stop offset="0.32" stop-color="#4E7FBE"/>
<stop offset="0.44" stop-color="#506BB7"/>
<stop offset="0.58" stop-color="#525CB3"/>
<stop offset="0.74" stop-color="#5354B0"/>
<stop offset="1" stop-color="#5351AF"/>
</radialGradient>
<radialGradient id="paint7_radial_98_121" cx="0" cy="0" r="1" gradientUnits="userSpaceOnUse" gradientTransform="translate(186.386 158.74) rotate(-114.108) scale(0.764864 1.05773)">
<stop stop-color="#42E8E0"/>
<stop offset="0.02" stop-color="#43E0DE"/>
<stop offset="0.11" stop-color="#47BAD1"/>
<stop offset="0.21" stop-color="#4B9AC7"/>
<stop offset="0.32" stop-color="#4E7FBE"/>
<stop offset="0.44" stop-color="#506BB7"/>
<stop offset="0.58" stop-color="#525CB3"/>
<stop offset="0.74" stop-color="#5354B0"/>
<stop offset="1" stop-color="#5351AF"/>
</radialGradient>
<radialGradient id="paint8_radial_98_121" cx="0" cy="0" r="1" gradientUnits="userSpaceOnUse" gradientTransform="translate(208.282 394.671) rotate(-127.542) scale(115.783 207.498)">
<stop stop-color="#42E8E0"/>
<stop offset="0.02" stop-color="#43E0DE"/>
<stop offset="0.11" stop-color="#47BAD1"/>
<stop offset="0.21" stop-color="#4B9AC7"/>
<stop offset="0.32" stop-color="#4E7FBE"/>
<stop offset="0.44" stop-color="#506BB7"/>
<stop offset="0.58" stop-color="#525CB3"/>
<stop offset="0.74" stop-color="#5354B0"/>
<stop offset="1" stop-color="#5351AF"/>
</radialGradient>
<radialGradient id="paint9_radial_98_121" cx="0" cy="0" r="1" gradientUnits="userSpaceOnUse" gradientTransform="translate(274.628 388.912) rotate(-127.272) scale(118.025 210.975)">
<stop stop-color="#42E8E0"/>
<stop offset="0.02" stop-color="#43E0DE"/>
<stop offset="0.11" stop-color="#47BAD1"/>
<stop offset="0.21" stop-color="#4B9AC7"/>
<stop offset="0.32" stop-color="#4E7FBE"/>
<stop offset="0.44" stop-color="#506BB7"/>
<stop offset="0.58" stop-color="#525CB3"/>
<stop offset="0.74" stop-color="#5354B0"/>
<stop offset="1" stop-color="#5351AF"/>
</radialGradient>
<radialGradient id="paint10_radial_98_121" cx="0" cy="0" r="1" gradientUnits="userSpaceOnUse" gradientTransform="translate(186.194 267.002) rotate(-113.127) scale(170.559 228.511)">
<stop stop-color="#42E8E0"/>
<stop offset="0.02" stop-color="#43E0DE"/>
<stop offset="0.11" stop-color="#47BAD1"/>
<stop offset="0.21" stop-color="#4B9AC7"/>
<stop offset="0.32" stop-color="#4E7FBE"/>
<stop offset="0.44" stop-color="#506BB7"/>
<stop offset="0.58" stop-color="#525CB3"/>
<stop offset="0.74" stop-color="#5354B0"/>
<stop offset="1" stop-color="#5351AF"/>
</radialGradient>
<radialGradient id="paint11_radial_98_121" cx="0" cy="0" r="1" gradientUnits="userSpaceOnUse" gradientTransform="translate(299.127 258.931) rotate(-137.781) scale(260.568 480.98)">
<stop stop-color="#42E8E0"/>
<stop offset="0.02" stop-color="#43E0DE"/>
<stop offset="0.11" stop-color="#47BAD1"/>
<stop offset="0.21" stop-color="#4B9AC7"/>
<stop offset="0.32" stop-color="#4E7FBE"/>
<stop offset="0.44" stop-color="#506BB7"/>
<stop offset="0.58" stop-color="#525CB3"/>
<stop offset="0.74" stop-color="#5354B0"/>
<stop offset="1" stop-color="#5351AF"/>
</radialGradient>
<radialGradient id="paint12_radial_98_121" cx="0" cy="0" r="1" gradientUnits="userSpaceOnUse" gradientTransform="translate(219.859 306.794) rotate(-135.405) scale(19.7238 36.5764)">
<stop stop-color="#42E8E0"/>
<stop offset="0.02" stop-color="#43E0DE"/>
<stop offset="0.11" stop-color="#47BAD1"/>
<stop offset="0.21" stop-color="#4B9AC7"/>
<stop offset="0.32" stop-color="#4E7FBE"/>
<stop offset="0.44" stop-color="#506BB7"/>
<stop offset="0.58" stop-color="#525CB3"/>
<stop offset="0.74" stop-color="#5354B0"/>
<stop offset="1" stop-color="#5351AF"/>
</radialGradient>
</defs>
</svg>
