<svg width="52" height="52" viewBox="0 0 52 52" fill="none" xmlns="http://www.w3.org/2000/svg">
<path fill-rule="evenodd" clip-rule="evenodd" d="M11.4329 5.04886C11.3379 5.10329 11.3292 5.2504 11.3292 6.80617C11.3292 8.07348 11.3104 8.52889 11.2552 8.60207C11.1876 8.69155 10.9128 8.70136 8.10014 8.71471L5.01917 8.72933L5.00341 25.2097C4.99269 36.3874 5.00714 41.7275 5.04838 41.8062C5.08648 41.8789 5.11444 42.864 5.12339 44.4465L5.13767 46.9708L26.0082 46.9854L46.8788 47V45.6169C46.8788 44.8562 46.8938 44.2191 46.912 44.2012C46.9561 44.1581 46.9445 8.90023 46.9004 8.78765C46.8705 8.7114 46.4721 8.70031 43.7668 8.70031C42.0621 8.70031 40.6252 8.68447 40.5736 8.66509C40.4911 8.6341 40.4798 8.42421 40.479 6.9097C40.4785 5.9272 40.454 5.15221 40.4219 5.10248C40.3722 5.02553 38.69 5.01393 25.9512 5.00244C16.2014 4.99362 11.5031 5.00865 11.4329 5.04886ZM37.4582 12.7334C37.4745 15.7335 37.4745 23.7764 37.4582 30.6065L37.4286 43.0248L25.9373 43.0395C19.0745 43.0482 14.4243 43.0328 14.392 43.0012C14.3264 42.9369 14.3069 7.4243 14.3724 7.32043C14.4077 7.26455 16.8868 7.25242 25.923 7.26391L37.4286 7.27859L37.4582 12.7334ZM17.0785 9.79905C16.9859 9.96855 16.9951 14.2264 17.0883 14.3176C17.193 14.4202 21.0839 14.4173 21.1236 14.3147C21.1711 14.1918 21.0916 9.95625 21.0391 9.81738L20.9898 9.68682H19.0648C17.2223 9.68682 17.1372 9.69163 17.0785 9.79905ZM23.6334 9.72552C23.6116 9.74676 23.5938 10.7774 23.5938 12.0156C23.5938 14.1822 23.5982 14.2694 23.7084 14.3272C23.8807 14.4174 27.5181 14.4085 27.6109 14.3176C27.713 14.2176 27.713 9.85644 27.6109 9.75645C27.5586 9.70515 27.0312 9.68682 25.6064 9.68682C24.5429 9.68682 23.655 9.70423 23.6334 9.72552ZM30.7156 9.75645C30.6135 9.85644 30.6135 14.2176 30.7156 14.3176C30.8173 14.4172 34.5007 14.4172 34.6024 14.3176C34.7045 14.2176 34.7045 9.85644 34.6024 9.75645C34.5007 9.65687 30.8173 9.65687 30.7156 9.75645ZM11.2679 10.9596C11.3344 11.0814 11.3596 42.7929 11.2933 42.962C11.2617 43.0426 11.0622 43.0538 9.6639 43.0538H8.07051V26.9893C8.07051 18.1538 8.08829 10.9074 8.11003 10.8861C8.13172 10.8648 8.83738 10.8474 9.678 10.8474C11.1286 10.8474 11.2097 10.8532 11.2679 10.9596ZM43.8499 10.926C43.899 10.9839 43.9126 15.2279 43.9017 27.0147L43.8867 43.0248H42.1981H40.5095L40.4946 26.9831C40.4827 14.1881 40.4947 10.9321 40.5538 10.8953C40.5947 10.8699 41.3379 10.8488 42.2057 10.8483C43.4614 10.8476 43.797 10.8634 43.8499 10.926ZM20.5129 21.2244V23.0714L20.6616 23.2083L20.8105 23.3452L21.0171 23.149L21.2239 22.9528V21.5715V20.1902H27.7117H34.1995V23.9621V27.734H27.7117H21.2239V27.0984V26.4629L20.8684 26.4725L20.5129 26.4821V27.4853V28.4884H27.7416H34.9704L34.9553 23.9476L34.9401 19.4068L27.7265 19.392L20.5129 19.3773V21.2244ZM17.3134 20.2548C16.7672 20.4659 16.4276 20.9137 16.3814 21.4836C16.3325 22.0867 16.442 22.3447 16.9486 22.8208L17.2059 23.0626L17.7485 23.0655C18.2609 23.0683 18.3009 23.0595 18.4688 22.9078C18.5665 22.8194 18.6914 22.7136 18.7462 22.6727C18.8011 22.6318 18.9144 22.4704 18.998 22.3141C19.308 21.7348 19.1403 20.8822 18.6436 20.5111C18.2379 20.208 17.7017 20.1047 17.3134 20.2548ZM31.2049 21.1912C31.1893 21.2311 31.1835 22.5433 31.192 24.1072L31.2074 26.9506L31.8443 26.9671L32.4812 26.9836V24.0511V21.1186H31.8573C31.4127 21.1186 31.2252 21.1395 31.2049 21.1912ZM27.3536 22.5841C27.3379 22.6242 27.3321 23.623 27.3406 24.8038L27.3562 26.9506H27.9783H28.6004L28.6169 24.8615C28.626 23.7126 28.6188 22.7138 28.601 22.6419C28.57 22.5173 28.5414 22.5114 27.9753 22.5114C27.5544 22.5114 27.3738 22.5325 27.3536 22.5841ZM15.5952 23.2303C15.4771 23.2725 15.3049 23.4104 15.1952 23.5507L15.0027 23.797V25.9296V28.0623L15.1854 28.3325C15.3222 28.5346 15.4266 28.6199 15.6002 28.6708L15.8322 28.7389V31.3139C15.8322 34.1607 15.8276 34.1225 16.2105 34.4519C16.392 34.6078 16.477 34.6395 16.7142 34.6395C17.0517 34.6395 17.3379 34.4755 17.5008 34.1888C17.5997 34.0144 17.6097 33.7865 17.6239 31.3743C17.639 28.7932 17.6412 28.7495 17.7578 28.7495C17.8741 28.7495 17.8768 28.7979 17.9059 31.3899C17.9388 34.3227 17.9314 34.2699 18.341 34.5178C18.5845 34.6653 18.9775 34.6774 19.207 34.5446C19.2973 34.4924 19.4413 34.3436 19.5272 34.2138L19.6834 33.978V29.5941V25.2102L20.0374 25.5712C20.4197 25.961 20.563 26.0248 20.946 25.9755C21.17 25.9468 21.2601 25.8768 21.8696 25.2575C22.6495 24.4653 22.7638 24.3049 22.7641 24.0027C22.7645 23.6212 22.5551 23.34 22.1783 23.2161C21.8616 23.1119 21.5855 23.2253 21.1914 23.6216C21.0052 23.8089 20.8303 23.9621 20.8028 23.9621C20.7753 23.9621 20.6041 23.8091 20.4224 23.6222C20.0451 23.2341 19.8356 23.1497 19.2493 23.1497C18.9236 23.1497 18.8384 23.1708 18.7377 23.2767C18.6713 23.3465 18.6169 23.4254 18.6169 23.452C18.6169 23.4786 18.5466 23.6045 18.4606 23.7317C18.2794 23.9999 18.2196 23.9798 18.0244 23.5849C17.8399 23.2116 17.7579 23.1651 17.6338 23.3634C17.5775 23.4533 17.4632 23.6278 17.3799 23.7512L17.2285 23.9756L17.1376 23.8396C17.0877 23.7648 16.9668 23.5855 16.869 23.4412L16.6913 23.1787L16.2469 23.1674C16.0025 23.1613 15.7092 23.1895 15.5952 23.2303ZM29.3232 23.1865C29.3004 23.2088 29.2818 24.0723 29.2818 25.1053V26.9836L29.9187 26.9671L30.5556 26.9506V25.0647V23.1787L29.9601 23.1623C29.6326 23.1533 29.346 23.1641 29.3232 23.1865ZM25.398 24.0357C25.3822 24.0762 25.3763 24.7486 25.3851 25.53L25.4009 26.9506L26.0379 26.9671L26.6748 26.9836V25.4728V23.9621H26.0508C25.6013 23.9621 25.4188 23.9827 25.398 24.0357ZM23.4433 24.7308C23.4268 24.7729 23.4206 25.2895 23.4295 25.8789L23.4457 26.9506L24.0839 26.9671L24.7221 26.9836L24.706 25.8355L24.69 24.6875L24.0816 24.6709C23.6207 24.6584 23.466 24.6729 23.4433 24.7308ZM24.5201 29.1866C24.4267 29.2139 24.2515 29.3034 24.1308 29.3853C23.6773 29.6931 23.504 30.0865 23.5492 30.7058C23.5832 31.17 23.7562 31.4596 24.1792 31.7596C24.4015 31.9174 24.4745 31.9366 24.8554 31.9376C25.4697 31.9392 25.8913 31.6694 26.1422 31.1139C26.6124 30.0729 25.5998 28.8698 24.5201 29.1866ZM30.2386 29.1846C29.9191 29.2585 29.5639 29.547 29.3744 29.8864C28.7886 30.9356 29.7647 32.2223 30.916 31.9187C31.9453 31.6472 32.2932 30.2909 31.5263 29.5398C31.1783 29.199 30.7211 29.0729 30.2386 29.1846ZM22.7247 32.1322C22.3951 32.3061 22.2608 32.5325 22.2608 32.914L22.2607 33.2515L22.5983 33.3865C22.9769 33.538 23.2677 33.7557 23.4494 34.024C23.7645 34.4893 23.8589 35.1371 23.6827 35.626C23.6338 35.7617 23.5938 35.8956 23.5938 35.9235C23.5938 35.9514 24.1832 35.9742 24.9037 35.9742C26.1278 35.9742 26.2107 35.9675 26.1711 35.8727C26.0458 35.5724 26.0117 35.3174 26.0392 34.8832C26.0664 34.4517 26.092 34.3685 26.284 34.0851C26.5343 33.716 26.8627 33.4651 27.2374 33.3567L27.5043 33.2795V32.9673C27.5043 32.5618 27.3771 32.3095 27.0942 32.1538C26.8727 32.0319 26.8085 32.0283 24.8893 32.0306C23.1409 32.0328 22.8908 32.0445 22.7247 32.1322ZM28.4123 32.1217C28.083 32.2807 28.0117 32.4051 27.9886 32.8602L27.9674 33.2758L28.263 33.3777C28.6536 33.5122 28.9878 33.7864 29.2203 34.1631C29.4633 34.5569 29.5297 35.1664 29.3789 35.6182C29.3254 35.7781 29.2818 35.9237 29.2818 35.9416C29.2818 35.9595 29.8683 35.9742 30.5853 35.9742C31.3022 35.9742 31.8887 35.9645 31.8887 35.9525C31.8887 35.9406 31.8488 35.8197 31.7999 35.6841C31.6826 35.3585 31.6909 34.7363 31.8172 34.3943C31.9613 34.0036 32.3105 33.6226 32.682 33.4505C32.8549 33.3704 33.0404 33.3048 33.0942 33.3048C33.1747 33.3048 33.1922 33.2415 33.1922 32.9511C33.1922 32.5216 33.0721 32.2931 32.765 32.1387C32.5617 32.0365 32.3975 32.0283 30.5728 32.0295C28.9041 32.0306 28.5714 32.0449 28.4123 32.1217ZM21.4927 33.7723C20.3906 34.3108 20.3902 35.8036 21.4919 36.3495C21.769 36.4868 21.8692 36.5074 22.1328 36.4807C23.2936 36.3634 23.8288 34.9253 23.0205 34.095C22.6015 33.6645 21.9815 33.5335 21.4927 33.7723ZM27.3858 33.6919C26.9404 33.8403 26.5603 34.1891 26.4333 34.5658C26.3963 34.6755 26.3764 34.9524 26.389 35.1811C26.4089 35.5442 26.4379 35.6328 26.6174 35.8786C26.7513 36.0621 26.9364 36.2201 27.1488 36.3321C27.4285 36.4796 27.5217 36.5002 27.8063 36.4775C28.5377 36.4192 29.0997 35.7958 29.1027 35.0399C29.1057 34.3027 28.4622 33.65 27.7413 33.6589C27.5946 33.6607 27.4347 33.6755 27.3858 33.6919ZM32.8678 33.7727C32.3301 34.0354 32.0653 34.4747 32.0678 35.0996C32.0701 35.6744 32.3303 36.0738 32.8845 36.3534C33.15 36.4874 33.2479 36.5071 33.5147 36.4801C33.825 36.4488 34.255 36.2395 34.4249 36.0372C34.621 35.8038 34.7908 35.3532 34.7914 35.0651C34.7933 34.0717 33.725 33.3539 32.8678 33.7727ZM19.8908 36.6099C19.7087 36.6836 19.509 36.9209 19.445 37.1396C19.3681 37.4023 19.3712 39.6586 19.4489 39.9326C19.4889 40.0737 19.5982 40.2189 19.7657 40.3533L20.0215 40.5585H22.0743C23.2033 40.5585 24.1271 40.5381 24.1271 40.5131C24.1271 40.488 24.2072 40.4211 24.3051 40.3645C24.6405 40.1705 24.6603 40.067 24.6603 38.5127V37.0993L24.5107 36.9007C24.4284 36.7915 24.3018 36.6698 24.2293 36.6304C24.0759 36.5469 20.0926 36.5281 19.8908 36.6099ZM25.6083 36.5956C25.4553 36.6508 25.3037 36.8075 25.1873 37.0309C25.0872 37.2229 25.0751 37.3847 25.0751 38.5236C25.0751 39.7052 25.0844 39.8197 25.1999 40.0492C25.2685 40.1857 25.417 40.3562 25.5298 40.428C25.7323 40.5567 25.762 40.5585 27.7171 40.5585H29.6991L29.9383 40.4035C30.3221 40.1547 30.3483 40.0345 30.3483 38.5186C30.3483 37.0323 30.3164 36.872 29.9815 36.6721C29.7944 36.5603 29.6915 36.5551 27.7413 36.5593C26.617 36.5617 25.6572 36.5781 25.6083 36.5956ZM31.2666 36.6099C31.0846 36.6836 30.8849 36.9209 30.8208 37.1396C30.7439 37.4023 30.7471 39.6586 30.8247 39.9326C30.8648 40.0737 30.9741 40.2189 31.1416 40.3533L31.3973 40.5585H33.4501C34.5792 40.5585 35.503 40.5381 35.503 40.5131C35.503 40.488 35.5831 40.4211 35.681 40.3645C36.0159 40.1707 36.0362 40.0657 36.0362 38.5275C36.0362 36.9785 36.0162 36.8792 35.663 36.6682C35.4842 36.5615 35.3558 36.5551 33.4292 36.5584C32.305 36.5603 31.3318 36.5835 31.2666 36.6099Z" fill="#E89800"/>
<path fill-rule="evenodd" clip-rule="evenodd" d="M11.4329 5.04886C11.3379 5.10329 11.3292 5.2504 11.3292 6.80617C11.3292 8.07348 11.3104 8.52889 11.2552 8.60207C11.1876 8.69155 10.9128 8.70136 8.10014 8.71471L5.01917 8.72933L5.00341 25.2097C4.99269 36.3874 5.00714 41.7275 5.04838 41.8062C5.08648 41.8789 5.11444 42.864 5.12339 44.4465L5.13767 46.9708L26.0082 46.9854L46.8788 47V45.6169C46.8788 44.8562 46.8938 44.2191 46.912 44.2012C46.9561 44.1581 46.9445 8.90023 46.9004 8.78765C46.8705 8.7114 46.4721 8.70031 43.7668 8.70031C42.0621 8.70031 40.6252 8.68447 40.5736 8.66509C40.4911 8.6341 40.4798 8.42421 40.479 6.9097C40.4785 5.9272 40.454 5.15221 40.4219 5.10248C40.3722 5.02553 38.69 5.01393 25.9512 5.00244C16.2014 4.99362 11.5031 5.00865 11.4329 5.04886ZM37.4582 12.7334C37.4745 15.7335 37.4745 23.7764 37.4582 30.6065L37.4286 43.0248L25.9373 43.0395C19.0745 43.0482 14.4243 43.0328 14.392 43.0012C14.3264 42.9369 14.3069 7.4243 14.3724 7.32043C14.4077 7.26455 16.8868 7.25242 25.923 7.26391L37.4286 7.27859L37.4582 12.7334ZM17.0785 9.79905C16.9859 9.96855 16.9951 14.2264 17.0883 14.3176C17.193 14.4202 21.0839 14.4173 21.1236 14.3147C21.1711 14.1918 21.0916 9.95625 21.0391 9.81738L20.9898 9.68682H19.0648C17.2223 9.68682 17.1372 9.69163 17.0785 9.79905ZM23.6334 9.72552C23.6116 9.74676 23.5938 10.7774 23.5938 12.0156C23.5938 14.1822 23.5982 14.2694 23.7084 14.3272C23.8807 14.4174 27.5181 14.4085 27.6109 14.3176C27.713 14.2176 27.713 9.85644 27.6109 9.75645C27.5586 9.70515 27.0312 9.68682 25.6064 9.68682C24.5429 9.68682 23.655 9.70423 23.6334 9.72552ZM30.7156 9.75645C30.6135 9.85644 30.6135 14.2176 30.7156 14.3176C30.8173 14.4172 34.5007 14.4172 34.6024 14.3176C34.7045 14.2176 34.7045 9.85644 34.6024 9.75645C34.5007 9.65687 30.8173 9.65687 30.7156 9.75645ZM11.2679 10.9596C11.3344 11.0814 11.3596 42.7929 11.2933 42.962C11.2617 43.0426 11.0622 43.0538 9.6639 43.0538H8.07051V26.9893C8.07051 18.1538 8.08829 10.9074 8.11003 10.8861C8.13172 10.8648 8.83738 10.8474 9.678 10.8474C11.1286 10.8474 11.2097 10.8532 11.2679 10.9596ZM43.8499 10.926C43.899 10.9839 43.9126 15.2279 43.9017 27.0147L43.8867 43.0248H42.1981H40.5095L40.4946 26.9831C40.4827 14.1881 40.4947 10.9321 40.5538 10.8953C40.5947 10.8699 41.3379 10.8488 42.2057 10.8483C43.4614 10.8476 43.797 10.8634 43.8499 10.926ZM20.5129 21.2244V23.0714L20.6616 23.2083L20.8105 23.3452L21.0171 23.149L21.2239 22.9528V21.5715V20.1902H27.7117H34.1995V23.9621V27.734H27.7117H21.2239V27.0984V26.4629L20.8684 26.4725L20.5129 26.4821V27.4853V28.4884H27.7416H34.9704L34.9553 23.9476L34.9401 19.4068L27.7265 19.392L20.5129 19.3773V21.2244ZM17.3134 20.2548C16.7672 20.4659 16.4276 20.9137 16.3814 21.4836C16.3325 22.0867 16.442 22.3447 16.9486 22.8208L17.2059 23.0626L17.7485 23.0655C18.2609 23.0683 18.3009 23.0595 18.4688 22.9078C18.5665 22.8194 18.6914 22.7136 18.7462 22.6727C18.8011 22.6318 18.9144 22.4704 18.998 22.3141C19.308 21.7348 19.1403 20.8822 18.6436 20.5111C18.2379 20.208 17.7017 20.1047 17.3134 20.2548ZM31.2049 21.1912C31.1893 21.2311 31.1835 22.5433 31.192 24.1072L31.2074 26.9506L31.8443 26.9671L32.4812 26.9836V24.0511V21.1186H31.8573C31.4127 21.1186 31.2252 21.1395 31.2049 21.1912ZM27.3536 22.5841C27.3379 22.6242 27.3321 23.623 27.3406 24.8038L27.3562 26.9506H27.9783H28.6004L28.6169 24.8615C28.626 23.7126 28.6188 22.7138 28.601 22.6419C28.57 22.5173 28.5414 22.5114 27.9753 22.5114C27.5544 22.5114 27.3738 22.5325 27.3536 22.5841ZM15.5952 23.2303C15.4771 23.2725 15.3049 23.4104 15.1952 23.5507L15.0027 23.797V25.9296V28.0623L15.1854 28.3325C15.3222 28.5346 15.4266 28.6199 15.6002 28.6708L15.8322 28.7389V31.3139C15.8322 34.1607 15.8276 34.1225 16.2105 34.4519C16.392 34.6078 16.477 34.6395 16.7142 34.6395C17.0517 34.6395 17.3379 34.4755 17.5008 34.1888C17.5997 34.0144 17.6097 33.7865 17.6239 31.3743C17.639 28.7932 17.6412 28.7495 17.7578 28.7495C17.8741 28.7495 17.8768 28.7979 17.9059 31.3899C17.9388 34.3227 17.9314 34.2699 18.341 34.5178C18.5845 34.6653 18.9775 34.6774 19.207 34.5446C19.2973 34.4924 19.4413 34.3436 19.5272 34.2138L19.6834 33.978V29.5941V25.2102L20.0374 25.5712C20.4197 25.961 20.563 26.0248 20.946 25.9755C21.17 25.9468 21.2601 25.8768 21.8696 25.2575C22.6495 24.4653 22.7638 24.3049 22.7641 24.0027C22.7645 23.6212 22.5551 23.34 22.1783 23.2161C21.8616 23.1119 21.5855 23.2253 21.1914 23.6216C21.0052 23.8089 20.8303 23.9621 20.8028 23.9621C20.7753 23.9621 20.6041 23.8091 20.4224 23.6222C20.0451 23.2341 19.8356 23.1497 19.2493 23.1497C18.9236 23.1497 18.8384 23.1708 18.7377 23.2767C18.6713 23.3465 18.6169 23.4254 18.6169 23.452C18.6169 23.4786 18.5466 23.6045 18.4606 23.7317C18.2794 23.9999 18.2196 23.9798 18.0244 23.5849C17.8399 23.2116 17.7579 23.1651 17.6338 23.3634C17.5775 23.4533 17.4632 23.6278 17.3799 23.7512L17.2285 23.9756L17.1376 23.8396C17.0877 23.7648 16.9668 23.5855 16.869 23.4412L16.6913 23.1787L16.2469 23.1674C16.0025 23.1613 15.7092 23.1895 15.5952 23.2303ZM29.3232 23.1865C29.3004 23.2088 29.2818 24.0723 29.2818 25.1053V26.9836L29.9187 26.9671L30.5556 26.9506V25.0647V23.1787L29.9601 23.1623C29.6326 23.1533 29.346 23.1641 29.3232 23.1865ZM25.398 24.0357C25.3822 24.0762 25.3763 24.7486 25.3851 25.53L25.4009 26.9506L26.0379 26.9671L26.6748 26.9836V25.4728V23.9621H26.0508C25.6013 23.9621 25.4188 23.9827 25.398 24.0357ZM23.4433 24.7308C23.4268 24.7729 23.4206 25.2895 23.4295 25.8789L23.4457 26.9506L24.0839 26.9671L24.7221 26.9836L24.706 25.8355L24.69 24.6875L24.0816 24.6709C23.6207 24.6584 23.466 24.6729 23.4433 24.7308ZM24.5201 29.1866C24.4267 29.2139 24.2515 29.3034 24.1308 29.3853C23.6773 29.6931 23.504 30.0865 23.5492 30.7058C23.5832 31.17 23.7562 31.4596 24.1792 31.7596C24.4015 31.9174 24.4745 31.9366 24.8554 31.9376C25.4697 31.9392 25.8913 31.6694 26.1422 31.1139C26.6124 30.0729 25.5998 28.8698 24.5201 29.1866ZM30.2386 29.1846C29.9191 29.2585 29.5639 29.547 29.3744 29.8864C28.7886 30.9356 29.7647 32.2223 30.916 31.9187C31.9453 31.6472 32.2932 30.2909 31.5263 29.5398C31.1783 29.199 30.7211 29.0729 30.2386 29.1846ZM22.7247 32.1322C22.3951 32.3061 22.2608 32.5325 22.2608 32.914L22.2607 33.2515L22.5983 33.3865C22.9769 33.538 23.2677 33.7557 23.4494 34.024C23.7645 34.4893 23.8589 35.1371 23.6827 35.626C23.6338 35.7617 23.5938 35.8956 23.5938 35.9235C23.5938 35.9514 24.1832 35.9742 24.9037 35.9742C26.1278 35.9742 26.2107 35.9675 26.1711 35.8727C26.0458 35.5724 26.0117 35.3174 26.0392 34.8832C26.0664 34.4517 26.092 34.3685 26.284 34.0851C26.5343 33.716 26.8627 33.4651 27.2374 33.3567L27.5043 33.2795V32.9673C27.5043 32.5618 27.3771 32.3095 27.0942 32.1538C26.8727 32.0319 26.8085 32.0283 24.8893 32.0306C23.1409 32.0328 22.8908 32.0445 22.7247 32.1322ZM28.4123 32.1217C28.083 32.2807 28.0117 32.4051 27.9886 32.8602L27.9674 33.2758L28.263 33.3777C28.6536 33.5122 28.9878 33.7864 29.2203 34.1631C29.4633 34.5569 29.5297 35.1664 29.3789 35.6182C29.3254 35.7781 29.2818 35.9237 29.2818 35.9416C29.2818 35.9595 29.8683 35.9742 30.5853 35.9742C31.3022 35.9742 31.8887 35.9645 31.8887 35.9525C31.8887 35.9406 31.8488 35.8197 31.7999 35.6841C31.6826 35.3585 31.6909 34.7363 31.8172 34.3943C31.9613 34.0036 32.3105 33.6226 32.682 33.4505C32.8549 33.3704 33.0404 33.3048 33.0942 33.3048C33.1747 33.3048 33.1922 33.2415 33.1922 32.9511C33.1922 32.5216 33.0721 32.2931 32.765 32.1387C32.5617 32.0365 32.3975 32.0283 30.5728 32.0295C28.9041 32.0306 28.5714 32.0449 28.4123 32.1217ZM21.4927 33.7723C20.3906 34.3108 20.3902 35.8036 21.4919 36.3495C21.769 36.4868 21.8692 36.5074 22.1328 36.4807C23.2936 36.3634 23.8288 34.9253 23.0205 34.095C22.6015 33.6645 21.9815 33.5335 21.4927 33.7723ZM27.3858 33.6919C26.9404 33.8403 26.5603 34.1891 26.4333 34.5658C26.3963 34.6755 26.3764 34.9524 26.389 35.1811C26.4089 35.5442 26.4379 35.6328 26.6174 35.8786C26.7513 36.0621 26.9364 36.2201 27.1488 36.3321C27.4285 36.4796 27.5217 36.5002 27.8063 36.4775C28.5377 36.4192 29.0997 35.7958 29.1027 35.0399C29.1057 34.3027 28.4622 33.65 27.7413 33.6589C27.5946 33.6607 27.4347 33.6755 27.3858 33.6919ZM32.8678 33.7727C32.3301 34.0354 32.0653 34.4747 32.0678 35.0996C32.0701 35.6744 32.3303 36.0738 32.8845 36.3534C33.15 36.4874 33.2479 36.5071 33.5147 36.4801C33.825 36.4488 34.255 36.2395 34.4249 36.0372C34.621 35.8038 34.7908 35.3532 34.7914 35.0651C34.7933 34.0717 33.725 33.3539 32.8678 33.7727ZM19.8908 36.6099C19.7087 36.6836 19.509 36.9209 19.445 37.1396C19.3681 37.4023 19.3712 39.6586 19.4489 39.9326C19.4889 40.0737 19.5982 40.2189 19.7657 40.3533L20.0215 40.5585H22.0743C23.2033 40.5585 24.1271 40.5381 24.1271 40.5131C24.1271 40.488 24.2072 40.4211 24.3051 40.3645C24.6405 40.1705 24.6603 40.067 24.6603 38.5127V37.0993L24.5107 36.9007C24.4284 36.7915 24.3018 36.6698 24.2293 36.6304C24.0759 36.5469 20.0926 36.5281 19.8908 36.6099ZM25.6083 36.5956C25.4553 36.6508 25.3037 36.8075 25.1873 37.0309C25.0872 37.2229 25.0751 37.3847 25.0751 38.5236C25.0751 39.7052 25.0844 39.8197 25.1999 40.0492C25.2685 40.1857 25.417 40.3562 25.5298 40.428C25.7323 40.5567 25.762 40.5585 27.7171 40.5585H29.6991L29.9383 40.4035C30.3221 40.1547 30.3483 40.0345 30.3483 38.5186C30.3483 37.0323 30.3164 36.872 29.9815 36.6721C29.7944 36.5603 29.6915 36.5551 27.7413 36.5593C26.617 36.5617 25.6572 36.5781 25.6083 36.5956ZM31.2666 36.6099C31.0846 36.6836 30.8849 36.9209 30.8208 37.1396C30.7439 37.4023 30.7471 39.6586 30.8247 39.9326C30.8648 40.0737 30.9741 40.2189 31.1416 40.3533L31.3973 40.5585H33.4501C34.5792 40.5585 35.503 40.5381 35.503 40.5131C35.503 40.488 35.5831 40.4211 35.681 40.3645C36.0159 40.1707 36.0362 40.0657 36.0362 38.5275C36.0362 36.9785 36.0162 36.8792 35.663 36.6682C35.4842 36.5615 35.3558 36.5551 33.4292 36.5584C32.305 36.5603 31.3318 36.5835 31.2666 36.6099Z" fill="url(#paint0_radial_313_15)"/>
<defs>
<radialGradient id="paint0_radial_313_15" cx="0" cy="0" r="1" gradientUnits="userSpaceOnUse" gradientTransform="translate(44.8359 25.5036) rotate(-135.364) scale(80.0577 148.465)">
<stop stop-color="#42E8E0"/>
<stop offset="0.02" stop-color="#43E0DE"/>
<stop offset="0.11" stop-color="#47BAD1"/>
<stop offset="0.21" stop-color="#4B9AC7"/>
<stop offset="0.32" stop-color="#4E7FBE"/>
<stop offset="0.44" stop-color="#506BB7"/>
<stop offset="0.58" stop-color="#525CB3"/>
<stop offset="0.74" stop-color="#5354B0"/>
<stop offset="1" stop-color="#5351AF"/>
</radialGradient>
</defs>
</svg>
