<svg width="43" height="43" viewBox="0 0 43 43" fill="none" xmlns="http://www.w3.org/2000/svg">
<path fill-rule="evenodd" clip-rule="evenodd" d="M7.19805 0.97684C7.10307 1.03127 7.09436 1.17838 7.09436 2.73415C7.09436 4.00146 7.07558 4.45687 7.0203 4.53005C6.9527 4.61953 6.67796 4.62934 3.86527 4.64268L0.784307 4.65731L0.768547 21.1377C0.757823 32.3154 0.77228 37.6555 0.813517 37.7342C0.851615 37.8069 0.87958 38.792 0.888527 40.3745L0.902806 42.8988L21.7734 42.9134L42.644 42.928V41.5448C42.644 40.7841 42.6589 40.1471 42.6771 40.1292C42.7212 40.0861 42.7096 4.8282 42.6655 4.71563C42.6356 4.63938 42.2372 4.62829 39.5319 4.62829C37.8272 4.62829 36.3903 4.61245 36.3388 4.59307C36.2562 4.56208 36.2449 4.35219 36.2441 2.83767C36.2436 1.85518 36.2191 1.08019 36.187 1.03046C36.1374 0.953512 34.4551 0.941907 21.7163 0.930417C11.9666 0.921596 7.2682 0.936626 7.19805 0.97684ZM33.2233 8.66135C33.2396 11.6615 33.2396 19.7044 33.2233 26.5345L33.1937 38.9528L21.7025 38.9675C14.8397 38.9762 10.1894 38.9608 10.1571 38.9292C10.0915 38.8649 10.0721 3.35228 10.1376 3.24841C10.1728 3.19253 12.6519 3.1804 21.6881 3.19189L33.1937 3.20657L33.2233 8.66135ZM12.8436 5.72702C12.751 5.89653 12.7603 10.1543 12.8534 10.2456C12.9581 10.3482 16.849 10.3453 16.8887 10.2427C16.9362 10.1197 16.8567 5.88423 16.8043 5.74536L16.755 5.6148H14.83C12.9874 5.6148 12.9023 5.61961 12.8436 5.72702ZM19.3985 5.6535C19.3767 5.67474 19.359 6.70534 19.359 7.94358C19.359 10.1102 19.3633 10.1973 19.4736 10.2551C19.6458 10.3454 23.2832 10.3365 23.3761 10.2456C23.4782 10.1456 23.4782 5.78442 23.3761 5.68443C23.3237 5.63313 22.7963 5.6148 21.3715 5.6148C20.308 5.6148 19.4202 5.6322 19.3985 5.6535ZM26.4807 5.68443C26.3787 5.78442 26.3787 10.1456 26.4807 10.2456C26.5824 10.3451 30.2658 10.3451 30.3675 10.2456C30.4696 10.1456 30.4696 5.78442 30.3675 5.68443C30.2658 5.58485 26.5824 5.58485 26.4807 5.68443ZM7.03304 6.88762C7.09952 7.00936 7.1247 38.7208 7.0584 38.89C7.02682 38.9705 6.82732 38.9818 5.42904 38.9818H3.83565V22.9173C3.83565 14.0818 3.85342 6.83533 3.87517 6.81409C3.89685 6.7928 4.60251 6.77539 5.44314 6.77539C6.89374 6.77539 6.9748 6.78113 7.03304 6.88762ZM39.6151 6.85402C39.6641 6.91187 39.6778 11.1559 39.6668 22.9427L39.6519 38.9528H37.9633H36.2747L36.2597 22.9111C36.2478 10.116 36.2598 6.86005 36.319 6.82326C36.3598 6.7979 37.1031 6.77678 37.9708 6.77626C39.2265 6.77556 39.5621 6.7914 39.6151 6.85402ZM16.278 17.1523V18.9994L16.4268 19.1363L16.5756 19.2732L16.7823 19.077L16.989 18.8808V17.4995V16.1181H23.4768H29.9646V19.8901V23.662H23.4768H16.989V23.0264V22.3909L16.6335 22.4005L16.278 22.4101V23.4133V24.4164H23.5068H30.7356L30.7204 19.8756L30.7052 15.3347L23.4916 15.32L16.278 15.3053V17.1523ZM13.0785 16.1828C12.5324 16.3939 12.1928 16.8417 12.1466 17.4116C12.0977 18.0147 12.2071 18.2727 12.7137 18.7488L12.9711 18.9906L13.5136 18.9935C14.0261 18.9962 14.0661 18.9875 14.2339 18.8357C14.3317 18.7474 14.4565 18.6416 14.5114 18.6007C14.5662 18.5598 14.6796 18.3984 14.7632 18.2421C15.0731 17.6628 14.9054 16.8102 14.4088 16.4391C14.003 16.136 13.4668 16.0327 13.0785 16.1828ZM26.97 17.1192C26.9544 17.1591 26.9486 18.4712 26.9571 20.0351L26.9725 22.8786L27.6094 22.8951L28.2464 22.9116V19.9791V17.0466H27.6224C27.1779 17.0466 26.9903 17.0675 26.97 17.1192ZM23.1187 18.5121C23.103 18.5521 23.0972 19.5509 23.1057 20.7317L23.1213 22.8786H23.7434H24.3655L24.3821 20.7895C24.3911 19.6405 24.384 18.6417 24.3661 18.5699C24.3351 18.4453 24.3065 18.4393 23.7405 18.4393C23.3195 18.4393 23.1389 18.4605 23.1187 18.5121ZM11.3603 19.1583C11.2422 19.2004 11.0701 19.3384 10.9604 19.4786L10.7678 19.725V21.8576V23.9903L10.9505 24.2605C11.0873 24.4626 11.1918 24.5479 11.3653 24.5988L11.5973 24.6669V27.2418C11.5973 30.0887 11.5927 30.0505 11.9757 30.3798C12.1571 30.5358 12.2421 30.5675 12.4794 30.5675C12.8168 30.5675 13.103 30.4035 13.2659 30.1167C13.3648 29.9424 13.3749 29.7145 13.389 27.3023C13.4042 24.7212 13.4064 24.6775 13.5229 24.6775C13.6392 24.6775 13.6419 24.7258 13.671 27.3179C13.7039 30.2507 13.6966 30.1979 14.1062 30.4458C14.3497 30.5933 14.7426 30.6054 14.9722 30.4726C15.0624 30.4204 15.2065 30.2716 15.2923 30.1418L15.4485 29.906V25.5221V21.1382L15.8025 21.4992C16.1848 21.889 16.3281 21.9528 16.7111 21.9035C16.9351 21.8747 17.0252 21.8048 17.6348 21.1855C18.4146 20.3933 18.5289 20.2329 18.5292 19.9307C18.5297 19.5491 18.3203 19.268 17.9434 19.144C17.6267 19.0399 17.3507 19.1533 16.9565 19.5496C16.7703 19.7369 16.5955 19.8901 16.568 19.8901C16.5405 19.8901 16.3693 19.7371 16.1875 19.5502C15.8102 19.162 15.6007 19.0777 15.0144 19.0777C14.6887 19.0777 14.6035 19.0988 14.5028 19.2047C14.4364 19.2745 14.382 19.3534 14.382 19.38C14.382 19.4066 14.3117 19.5324 14.2257 19.6596C14.0445 19.9278 13.9847 19.9078 13.7895 19.5129C13.605 19.1396 13.523 19.0931 13.3989 19.2914C13.3426 19.3813 13.2284 19.5558 13.1451 19.6792L12.9936 19.9036L12.9028 19.7676C12.8528 19.6928 12.7319 19.5135 12.6342 19.3691L12.4564 19.1067L12.0121 19.0954C11.7677 19.0893 11.4744 19.1175 11.3603 19.1583ZM25.0883 19.1144C25.0656 19.1368 25.0469 20.0003 25.0469 21.0333V22.9116L25.6838 22.8951L26.3208 22.8786V20.9926V19.1067L25.7253 19.0902C25.3978 19.0813 25.1111 19.0921 25.0883 19.1144ZM21.1631 19.9637C21.1473 20.0042 21.1414 20.6766 21.1502 21.458L21.1661 22.8786L21.803 22.8951L22.4399 22.9116V21.4008V19.8901H21.816C21.3665 19.8901 21.1839 19.9107 21.1631 19.9637ZM19.2084 20.6588C19.1919 20.7009 19.1857 21.2175 19.1947 21.8069L19.2109 22.8786L19.849 22.8951L20.4873 22.9116L20.4711 21.7635L20.4551 20.6154L19.8467 20.5989C19.3858 20.5864 19.2311 20.6009 19.2084 20.6588ZM20.2853 25.1145C20.1918 25.1419 20.0166 25.2313 19.896 25.3133C19.4424 25.6211 19.2692 26.0145 19.3144 26.6337C19.3483 27.098 19.5214 27.3875 19.9443 27.6876C20.1666 27.8453 20.2396 27.8646 20.6205 27.8656C21.2349 27.8672 21.6564 27.5974 21.9073 27.0419C22.3775 26.0009 21.3649 24.7977 20.2853 25.1145ZM26.0037 25.1126C25.6842 25.1865 25.329 25.475 25.1395 25.8144C24.5537 26.8636 25.5298 28.1503 26.6811 27.8467C27.7104 27.5752 28.0583 26.2189 27.2914 25.4678C26.9435 25.127 26.4863 25.0008 26.0037 25.1126ZM18.4898 28.0602C18.1602 28.2341 18.0259 28.4605 18.0259 28.842L18.0259 29.1794L18.3635 29.3145C18.7421 29.4659 19.0329 29.6837 19.2145 29.9519C19.5296 30.4173 19.624 31.0651 19.4478 31.554C19.399 31.6897 19.359 31.8236 19.359 31.8515C19.359 31.8794 19.9484 31.9022 20.6688 31.9022C21.8929 31.9022 21.9758 31.8955 21.9363 31.8006C21.8109 31.5003 21.7769 31.2453 21.8043 30.8112C21.8316 30.3797 21.8571 30.2965 22.0491 30.0131C22.2994 29.644 22.6278 29.393 23.0026 29.2846L23.2694 29.2075V28.8953C23.2694 28.4898 23.1422 28.2374 22.8593 28.0818C22.6378 27.9598 22.5737 27.9562 20.6544 27.9586C18.9061 27.9608 18.6559 27.9725 18.4898 28.0602ZM24.1774 28.0497C23.8482 28.2087 23.7768 28.3331 23.7537 28.7882L23.7326 29.2038L24.0282 29.3057C24.4188 29.4402 24.7529 29.7144 24.9854 30.0911C25.2284 30.4849 25.2949 31.0944 25.144 31.5462C25.0906 31.7061 25.0469 31.8516 25.0469 31.8696C25.0469 31.8875 25.6335 31.9022 26.3504 31.9022C27.0673 31.9022 27.6539 31.8924 27.6539 31.8805C27.6539 31.8685 27.6139 31.7477 27.565 31.612C27.4478 31.2865 27.456 30.6642 27.5823 30.3223C27.7265 29.9316 28.0756 29.5506 28.4471 29.3785C28.62 29.2983 28.8055 29.2328 28.8594 29.2328C28.9398 29.2328 28.9574 29.1695 28.9574 28.8791C28.9574 28.4496 28.8372 28.2211 28.5302 28.0667C28.3268 27.9645 28.1626 27.9563 26.338 27.9575C24.6693 27.9586 24.3366 27.9728 24.1774 28.0497ZM17.2578 29.7003C16.1558 30.2388 16.1554 31.7316 17.257 32.2775C17.5342 32.4148 17.6343 32.4354 17.8979 32.4087C19.0588 32.2913 19.5939 30.8533 18.7857 30.023C18.3666 29.5924 17.7467 29.4615 17.2578 29.7003ZM23.1509 29.6198C22.7055 29.7683 22.3254 30.1171 22.1984 30.4938C22.1615 30.6035 22.1415 30.8804 22.1541 31.1091C22.174 31.4722 22.2031 31.5607 22.3825 31.8066C22.5164 31.9901 22.7016 32.1481 22.9139 32.2601C23.1936 32.4076 23.2868 32.4282 23.5715 32.4055C24.3028 32.3472 24.8648 31.7238 24.8679 30.9679C24.8708 30.2306 24.2273 29.5779 23.5064 29.5869C23.3598 29.5887 23.1998 29.6035 23.1509 29.6198ZM28.6329 29.7007C28.0952 29.9634 27.8304 30.4026 27.8329 31.0276C27.8352 31.6023 28.0954 32.0018 28.6496 32.2814C28.9152 32.4154 29.0131 32.4351 29.2799 32.4081C29.5901 32.3768 30.0202 32.1674 30.19 31.9652C30.3861 31.7318 30.556 31.2812 30.5565 30.993C30.5585 29.9996 29.4901 29.2819 28.6329 29.7007ZM15.6559 32.5378C15.4738 32.6116 15.2741 32.8489 15.2101 33.0676C15.1332 33.3303 15.1363 35.5866 15.214 35.8606C15.2541 36.0017 15.3634 36.1469 15.5309 36.2813L15.7866 36.4865H17.8394C18.9685 36.4865 19.8922 36.466 19.8922 36.441C19.8922 36.416 19.9723 36.3491 20.0703 36.2925C20.4056 36.0985 20.4255 35.995 20.4255 34.4406V33.0273L20.2759 32.8287C20.1936 32.7195 20.0669 32.5978 19.9944 32.5583C19.8411 32.4749 15.8577 32.4561 15.6559 32.5378ZM21.3735 32.5236C21.2205 32.5788 21.0688 32.7355 20.9524 32.9589C20.8524 33.1509 20.8402 33.3127 20.8402 34.4516C20.8402 35.6332 20.8496 35.7476 20.965 35.9772C21.0336 36.1137 21.1821 36.2842 21.2949 36.356C21.4974 36.4847 21.5271 36.4865 23.4822 36.4865H25.4642L25.7034 36.3315C26.0873 36.0827 26.1134 35.9625 26.1134 34.4466C26.1134 32.9602 26.0816 32.8 25.7466 32.6001C25.5595 32.4883 25.4566 32.4831 23.5064 32.4873C22.3822 32.4897 21.4223 32.506 21.3735 32.5236ZM27.0318 32.5378C26.8497 32.6116 26.65 32.8489 26.586 33.0676C26.5091 33.3303 26.5122 35.5866 26.5899 35.8606C26.6299 36.0017 26.7393 36.1469 26.9067 36.2813L27.1625 36.4865H29.2153C30.3443 36.4865 31.2681 36.466 31.2681 36.441C31.2681 36.416 31.3482 36.3491 31.4461 36.2925C31.781 36.0987 31.8013 35.9937 31.8013 34.4555C31.8013 32.9065 31.7814 32.8072 31.4281 32.5962C31.2494 32.4894 31.1209 32.4831 29.1944 32.4864C28.0701 32.4883 27.0969 32.5114 27.0318 32.5378Z" fill="#E89800"/>
<path fill-rule="evenodd" clip-rule="evenodd" d="M7.19805 0.97684C7.10307 1.03127 7.09436 1.17838 7.09436 2.73415C7.09436 4.00146 7.07558 4.45687 7.0203 4.53005C6.9527 4.61953 6.67796 4.62934 3.86527 4.64268L0.784307 4.65731L0.768547 21.1377C0.757823 32.3154 0.77228 37.6555 0.813517 37.7342C0.851615 37.8069 0.87958 38.792 0.888527 40.3745L0.902806 42.8988L21.7734 42.9134L42.644 42.928V41.5448C42.644 40.7841 42.6589 40.1471 42.6771 40.1292C42.7212 40.0861 42.7096 4.8282 42.6655 4.71563C42.6356 4.63938 42.2372 4.62829 39.5319 4.62829C37.8272 4.62829 36.3903 4.61245 36.3388 4.59307C36.2562 4.56208 36.2449 4.35219 36.2441 2.83767C36.2436 1.85518 36.2191 1.08019 36.187 1.03046C36.1374 0.953512 34.4551 0.941907 21.7163 0.930417C11.9666 0.921596 7.2682 0.936626 7.19805 0.97684ZM33.2233 8.66135C33.2396 11.6615 33.2396 19.7044 33.2233 26.5345L33.1937 38.9528L21.7025 38.9675C14.8397 38.9762 10.1894 38.9608 10.1571 38.9292C10.0915 38.8649 10.0721 3.35228 10.1376 3.24841C10.1728 3.19253 12.6519 3.1804 21.6881 3.19189L33.1937 3.20657L33.2233 8.66135ZM12.8436 5.72702C12.751 5.89653 12.7603 10.1543 12.8534 10.2456C12.9581 10.3482 16.849 10.3453 16.8887 10.2427C16.9362 10.1197 16.8567 5.88423 16.8043 5.74536L16.755 5.6148H14.83C12.9874 5.6148 12.9023 5.61961 12.8436 5.72702ZM19.3985 5.6535C19.3767 5.67474 19.359 6.70534 19.359 7.94358C19.359 10.1102 19.3633 10.1973 19.4736 10.2551C19.6458 10.3454 23.2832 10.3365 23.3761 10.2456C23.4782 10.1456 23.4782 5.78442 23.3761 5.68443C23.3237 5.63313 22.7963 5.6148 21.3715 5.6148C20.308 5.6148 19.4202 5.6322 19.3985 5.6535ZM26.4807 5.68443C26.3787 5.78442 26.3787 10.1456 26.4807 10.2456C26.5824 10.3451 30.2658 10.3451 30.3675 10.2456C30.4696 10.1456 30.4696 5.78442 30.3675 5.68443C30.2658 5.58485 26.5824 5.58485 26.4807 5.68443ZM7.03304 6.88762C7.09952 7.00936 7.1247 38.7208 7.0584 38.89C7.02682 38.9705 6.82732 38.9818 5.42904 38.9818H3.83565V22.9173C3.83565 14.0818 3.85342 6.83533 3.87517 6.81409C3.89685 6.7928 4.60251 6.77539 5.44314 6.77539C6.89374 6.77539 6.9748 6.78113 7.03304 6.88762ZM39.6151 6.85402C39.6641 6.91187 39.6778 11.1559 39.6668 22.9427L39.6519 38.9528H37.9633H36.2747L36.2597 22.9111C36.2478 10.116 36.2598 6.86005 36.319 6.82326C36.3598 6.7979 37.1031 6.77678 37.9708 6.77626C39.2265 6.77556 39.5621 6.7914 39.6151 6.85402ZM16.278 17.1523V18.9994L16.4268 19.1363L16.5756 19.2732L16.7823 19.077L16.989 18.8808V17.4995V16.1181H23.4768H29.9646V19.8901V23.662H23.4768H16.989V23.0264V22.3909L16.6335 22.4005L16.278 22.4101V23.4133V24.4164H23.5068H30.7356L30.7204 19.8756L30.7052 15.3347L23.4916 15.32L16.278 15.3053V17.1523ZM13.0785 16.1828C12.5324 16.3939 12.1928 16.8417 12.1466 17.4116C12.0977 18.0147 12.2071 18.2727 12.7137 18.7488L12.9711 18.9906L13.5136 18.9935C14.0261 18.9962 14.0661 18.9875 14.2339 18.8357C14.3317 18.7474 14.4565 18.6416 14.5114 18.6007C14.5662 18.5598 14.6796 18.3984 14.7632 18.2421C15.0731 17.6628 14.9054 16.8102 14.4088 16.4391C14.003 16.136 13.4668 16.0327 13.0785 16.1828ZM26.97 17.1192C26.9544 17.1591 26.9486 18.4712 26.9571 20.0351L26.9725 22.8786L27.6094 22.8951L28.2464 22.9116V19.9791V17.0466H27.6224C27.1779 17.0466 26.9903 17.0675 26.97 17.1192ZM23.1187 18.5121C23.103 18.5521 23.0972 19.5509 23.1057 20.7317L23.1213 22.8786H23.7434H24.3655L24.3821 20.7895C24.3911 19.6405 24.384 18.6417 24.3661 18.5699C24.3351 18.4453 24.3065 18.4393 23.7405 18.4393C23.3195 18.4393 23.1389 18.4605 23.1187 18.5121ZM11.3603 19.1583C11.2422 19.2004 11.0701 19.3384 10.9604 19.4786L10.7678 19.725V21.8576V23.9903L10.9505 24.2605C11.0873 24.4626 11.1918 24.5479 11.3653 24.5988L11.5973 24.6669V27.2418C11.5973 30.0887 11.5927 30.0505 11.9757 30.3798C12.1571 30.5358 12.2421 30.5675 12.4794 30.5675C12.8168 30.5675 13.103 30.4035 13.2659 30.1167C13.3648 29.9424 13.3749 29.7145 13.389 27.3023C13.4042 24.7212 13.4064 24.6775 13.5229 24.6775C13.6392 24.6775 13.6419 24.7258 13.671 27.3179C13.7039 30.2507 13.6966 30.1979 14.1062 30.4458C14.3497 30.5933 14.7426 30.6054 14.9722 30.4726C15.0624 30.4204 15.2065 30.2716 15.2923 30.1418L15.4485 29.906V25.5221V21.1382L15.8025 21.4992C16.1848 21.889 16.3281 21.9528 16.7111 21.9035C16.9351 21.8747 17.0252 21.8048 17.6348 21.1855C18.4146 20.3933 18.5289 20.2329 18.5292 19.9307C18.5297 19.5491 18.3203 19.268 17.9434 19.144C17.6267 19.0399 17.3507 19.1533 16.9565 19.5496C16.7703 19.7369 16.5955 19.8901 16.568 19.8901C16.5405 19.8901 16.3693 19.7371 16.1875 19.5502C15.8102 19.162 15.6007 19.0777 15.0144 19.0777C14.6887 19.0777 14.6035 19.0988 14.5028 19.2047C14.4364 19.2745 14.382 19.3534 14.382 19.38C14.382 19.4066 14.3117 19.5324 14.2257 19.6596C14.0445 19.9278 13.9847 19.9078 13.7895 19.5129C13.605 19.1396 13.523 19.0931 13.3989 19.2914C13.3426 19.3813 13.2284 19.5558 13.1451 19.6792L12.9936 19.9036L12.9028 19.7676C12.8528 19.6928 12.7319 19.5135 12.6342 19.3691L12.4564 19.1067L12.0121 19.0954C11.7677 19.0893 11.4744 19.1175 11.3603 19.1583ZM25.0883 19.1144C25.0656 19.1368 25.0469 20.0003 25.0469 21.0333V22.9116L25.6838 22.8951L26.3208 22.8786V20.9926V19.1067L25.7253 19.0902C25.3978 19.0813 25.1111 19.0921 25.0883 19.1144ZM21.1631 19.9637C21.1473 20.0042 21.1414 20.6766 21.1502 21.458L21.1661 22.8786L21.803 22.8951L22.4399 22.9116V21.4008V19.8901H21.816C21.3665 19.8901 21.1839 19.9107 21.1631 19.9637ZM19.2084 20.6588C19.1919 20.7009 19.1857 21.2175 19.1947 21.8069L19.2109 22.8786L19.849 22.8951L20.4873 22.9116L20.4711 21.7635L20.4551 20.6154L19.8467 20.5989C19.3858 20.5864 19.2311 20.6009 19.2084 20.6588ZM20.2853 25.1145C20.1918 25.1419 20.0166 25.2313 19.896 25.3133C19.4424 25.6211 19.2692 26.0145 19.3144 26.6337C19.3483 27.098 19.5214 27.3875 19.9443 27.6876C20.1666 27.8453 20.2396 27.8646 20.6205 27.8656C21.2349 27.8672 21.6564 27.5974 21.9073 27.0419C22.3775 26.0009 21.3649 24.7977 20.2853 25.1145ZM26.0037 25.1126C25.6842 25.1865 25.329 25.475 25.1395 25.8144C24.5537 26.8636 25.5298 28.1503 26.6811 27.8467C27.7104 27.5752 28.0583 26.2189 27.2914 25.4678C26.9435 25.127 26.4863 25.0008 26.0037 25.1126ZM18.4898 28.0602C18.1602 28.2341 18.0259 28.4605 18.0259 28.842L18.0259 29.1794L18.3635 29.3145C18.7421 29.4659 19.0329 29.6837 19.2145 29.9519C19.5296 30.4173 19.624 31.0651 19.4478 31.554C19.399 31.6897 19.359 31.8236 19.359 31.8515C19.359 31.8794 19.9484 31.9022 20.6688 31.9022C21.8929 31.9022 21.9758 31.8955 21.9363 31.8006C21.8109 31.5003 21.7769 31.2453 21.8043 30.8112C21.8316 30.3797 21.8571 30.2965 22.0491 30.0131C22.2994 29.644 22.6278 29.393 23.0026 29.2846L23.2694 29.2075V28.8953C23.2694 28.4898 23.1422 28.2374 22.8593 28.0818C22.6378 27.9598 22.5737 27.9562 20.6544 27.9586C18.9061 27.9608 18.6559 27.9725 18.4898 28.0602ZM24.1774 28.0497C23.8482 28.2087 23.7768 28.3331 23.7537 28.7882L23.7326 29.2038L24.0282 29.3057C24.4188 29.4402 24.7529 29.7144 24.9854 30.0911C25.2284 30.4849 25.2949 31.0944 25.144 31.5462C25.0906 31.7061 25.0469 31.8516 25.0469 31.8696C25.0469 31.8875 25.6335 31.9022 26.3504 31.9022C27.0673 31.9022 27.6539 31.8924 27.6539 31.8805C27.6539 31.8685 27.6139 31.7477 27.565 31.612C27.4478 31.2865 27.456 30.6642 27.5823 30.3223C27.7265 29.9316 28.0756 29.5506 28.4471 29.3785C28.62 29.2983 28.8055 29.2328 28.8594 29.2328C28.9398 29.2328 28.9574 29.1695 28.9574 28.8791C28.9574 28.4496 28.8372 28.2211 28.5302 28.0667C28.3268 27.9645 28.1626 27.9563 26.338 27.9575C24.6693 27.9586 24.3366 27.9728 24.1774 28.0497ZM17.2578 29.7003C16.1558 30.2388 16.1554 31.7316 17.257 32.2775C17.5342 32.4148 17.6343 32.4354 17.8979 32.4087C19.0588 32.2913 19.5939 30.8533 18.7857 30.023C18.3666 29.5924 17.7467 29.4615 17.2578 29.7003ZM23.1509 29.6198C22.7055 29.7683 22.3254 30.1171 22.1984 30.4938C22.1615 30.6035 22.1415 30.8804 22.1541 31.1091C22.174 31.4722 22.2031 31.5607 22.3825 31.8066C22.5164 31.9901 22.7016 32.1481 22.9139 32.2601C23.1936 32.4076 23.2868 32.4282 23.5715 32.4055C24.3028 32.3472 24.8648 31.7238 24.8679 30.9679C24.8708 30.2306 24.2273 29.5779 23.5064 29.5869C23.3598 29.5887 23.1998 29.6035 23.1509 29.6198ZM28.6329 29.7007C28.0952 29.9634 27.8304 30.4026 27.8329 31.0276C27.8352 31.6023 28.0954 32.0018 28.6496 32.2814C28.9152 32.4154 29.0131 32.4351 29.2799 32.4081C29.5901 32.3768 30.0202 32.1674 30.19 31.9652C30.3861 31.7318 30.556 31.2812 30.5565 30.993C30.5585 29.9996 29.4901 29.2819 28.6329 29.7007ZM15.6559 32.5378C15.4738 32.6116 15.2741 32.8489 15.2101 33.0676C15.1332 33.3303 15.1363 35.5866 15.214 35.8606C15.2541 36.0017 15.3634 36.1469 15.5309 36.2813L15.7866 36.4865H17.8394C18.9685 36.4865 19.8922 36.466 19.8922 36.441C19.8922 36.416 19.9723 36.3491 20.0703 36.2925C20.4056 36.0985 20.4255 35.995 20.4255 34.4406V33.0273L20.2759 32.8287C20.1936 32.7195 20.0669 32.5978 19.9944 32.5583C19.8411 32.4749 15.8577 32.4561 15.6559 32.5378ZM21.3735 32.5236C21.2205 32.5788 21.0688 32.7355 20.9524 32.9589C20.8524 33.1509 20.8402 33.3127 20.8402 34.4516C20.8402 35.6332 20.8496 35.7476 20.965 35.9772C21.0336 36.1137 21.1821 36.2842 21.2949 36.356C21.4974 36.4847 21.5271 36.4865 23.4822 36.4865H25.4642L25.7034 36.3315C26.0873 36.0827 26.1134 35.9625 26.1134 34.4466C26.1134 32.9602 26.0816 32.8 25.7466 32.6001C25.5595 32.4883 25.4566 32.4831 23.5064 32.4873C22.3822 32.4897 21.4223 32.506 21.3735 32.5236ZM27.0318 32.5378C26.8497 32.6116 26.65 32.8489 26.586 33.0676C26.5091 33.3303 26.5122 35.5866 26.5899 35.8606C26.6299 36.0017 26.7393 36.1469 26.9067 36.2813L27.1625 36.4865H29.2153C30.3443 36.4865 31.2681 36.466 31.2681 36.441C31.2681 36.416 31.3482 36.3491 31.4461 36.2925C31.781 36.0987 31.8013 35.9937 31.8013 34.4555C31.8013 32.9065 31.7814 32.8072 31.4281 32.5962C31.2494 32.4894 31.1209 32.4831 29.1944 32.4864C28.0701 32.4883 27.0969 32.5114 27.0318 32.5378Z" fill="url(#paint0_radial_117_42)"/>
<defs>
<radialGradient id="paint0_radial_117_42" cx="0" cy="0" r="1" gradientUnits="userSpaceOnUse" gradientTransform="translate(40.601 21.4316) rotate(-135.364) scale(80.0577 148.465)">
<stop stop-color="#42E8E0"/>
<stop offset="0.02" stop-color="#43E0DE"/>
<stop offset="0.11" stop-color="#47BAD1"/>
<stop offset="0.21" stop-color="#4B9AC7"/>
<stop offset="0.32" stop-color="#4E7FBE"/>
<stop offset="0.44" stop-color="#506BB7"/>
<stop offset="0.58" stop-color="#525CB3"/>
<stop offset="0.74" stop-color="#5354B0"/>
<stop offset="1" stop-color="#5351AF"/>
</radialGradient>
</defs>
</svg>
