<svg width="31" height="31" viewBox="0 0 31 31" fill="none" xmlns="http://www.w3.org/2000/svg">
<circle cx="15.321" cy="15.5794" r="15.3123" fill="#42E8E0"/>
<circle cx="15.321" cy="15.5794" r="15.3123" fill="url(#paint0_radial_1_380)"/>
<path d="M13.6728 13.9311C14.1099 13.494 14.7027 13.2484 15.3209 13.2484C15.9391 13.2484 16.5319 13.494 16.969 13.9311C17.4061 14.3682 17.6517 14.9611 17.6517 15.5792C17.6517 16.1974 17.4061 16.7902 16.969 17.2273C16.5319 17.6644 15.9391 17.91 15.3209 17.91C14.7027 17.91 14.1099 17.6644 13.6728 17.2273C13.2357 16.7902 12.9901 16.1974 12.9901 15.5792C12.9901 14.9611 13.2357 14.3682 13.6728 13.9311Z" fill="white" stroke="white" stroke-width="0.0994187"/>
<path d="M18.6039 12.2468V12.2965H18.6536H19.6058H19.6555V12.2468V11.2946V11.2449H19.6058H18.6536H18.6039V11.2946V12.2468ZM9.4696 9.72815C10.2638 8.9339 11.3411 8.4877 12.4643 8.4877H18.1775C19.3007 8.4877 20.378 8.9339 21.1722 9.72815C21.9665 10.5224 22.4127 11.5996 22.4127 12.7229V18.4361C22.4127 19.5593 21.9665 20.6365 21.1722 21.4308C20.378 22.225 19.3007 22.6712 18.1775 22.6712H12.4643C11.3411 22.6712 10.2638 22.225 9.4696 21.4308C8.67535 20.6365 8.22915 19.5593 8.22915 18.4361V12.7229C8.22915 11.5996 8.67535 10.5224 9.4696 9.72815ZM12.9292 13.1877C12.2949 13.8221 11.9385 14.6824 11.9385 15.5795C11.9385 16.4765 12.2949 17.3369 12.9292 17.9712C13.5635 18.6055 14.4238 18.9619 15.3209 18.9619C16.218 18.9619 17.0783 18.6055 17.7126 17.9712C18.347 17.3369 18.7033 16.4765 18.7033 15.5795C18.7033 14.6824 18.347 13.8221 17.7126 13.1877C17.0783 12.5534 16.218 12.1971 15.3209 12.1971C14.4238 12.1971 13.5635 12.5534 12.9292 13.1877Z" fill="white" stroke="white" stroke-width="0.0994187"/>
<defs>
<radialGradient id="paint0_radial_1_380" cx="0" cy="0" r="1" gradientUnits="userSpaceOnUse" gradientTransform="translate(29.097 15.2175) rotate(-135.405) scale(58.4172 108.331)">
<stop stop-color="#42E8E0"/>
<stop offset="0.02" stop-color="#43E0DE"/>
<stop offset="0.11" stop-color="#47BAD1"/>
<stop offset="0.21" stop-color="#4B9AC7"/>
<stop offset="0.32" stop-color="#4E7FBE"/>
<stop offset="0.44" stop-color="#506BB7"/>
<stop offset="0.58" stop-color="#525CB3"/>
<stop offset="0.74" stop-color="#5354B0"/>
<stop offset="1" stop-color="#5351AF"/>
</radialGradient>
</defs>
</svg>
