<svg width="31" height="31" viewBox="0 0 31 31" fill="none" xmlns="http://www.w3.org/2000/svg">
<circle cx="15.3211" cy="15.5794" r="15.3123" fill="#42E8E0"/>
<circle cx="15.3211" cy="15.5794" r="15.3123" fill="url(#paint0_radial_98_413)"/>
<path d="M13.6728 13.9311C14.1099 13.494 14.7028 13.2484 15.3209 13.2484C15.9391 13.2484 16.5319 13.494 16.969 13.9311C17.4061 14.3682 17.6517 14.9611 17.6517 15.5792C17.6517 16.1974 17.4061 16.7902 16.969 17.2273C16.5319 17.6644 15.9391 17.91 15.3209 17.91C14.7028 17.91 14.1099 17.6644 13.6728 17.2273C13.2357 16.7902 12.9901 16.1974 12.9901 15.5792C12.9901 14.9611 13.2357 14.3682 13.6728 13.9311Z" fill="white" stroke="white" stroke-width="0.0994187"/>
<path d="M18.6041 12.2467V12.2964H18.6539H19.6061H19.6558V12.2467V11.2945V11.2447H19.6061H18.6539H18.6041V11.2945V12.2467ZM9.46985 9.72803C10.2641 8.93378 11.3413 8.48758 12.4646 8.48758H18.1778C19.301 8.48758 20.3782 8.93378 21.1725 9.72803C21.9667 10.5223 22.4129 11.5995 22.4129 12.7228V18.4359C22.4129 19.5592 21.9667 20.6364 21.1725 21.4307C20.3782 22.2249 19.301 22.6711 18.1778 22.6711H12.4646C11.3413 22.6711 10.2641 22.2249 9.46985 21.4307C8.6756 20.6364 8.2294 19.5592 8.2294 18.4359V12.7228C8.2294 11.5995 8.6756 10.5223 9.46985 9.72803ZM12.9294 13.1876C12.2951 13.8219 11.9388 14.6823 11.9388 15.5793C11.9388 16.4764 12.2951 17.3367 12.9294 17.9711C13.5638 18.6054 14.4241 18.9617 15.3212 18.9617C16.2182 18.9617 17.0786 18.6054 17.7129 17.9711C18.3472 17.3367 18.7036 16.4764 18.7036 15.5793C18.7036 14.6823 18.3472 13.8219 17.7129 13.1876C17.0786 12.5533 16.2182 12.1969 15.3212 12.1969C14.4241 12.1969 13.5638 12.5533 12.9294 13.1876Z" fill="white" stroke="white" stroke-width="0.0994187"/>
<defs>
<radialGradient id="paint0_radial_98_413" cx="0" cy="0" r="1" gradientUnits="userSpaceOnUse" gradientTransform="translate(29.0971 15.2175) rotate(-135.405) scale(58.4172 108.331)">
<stop stop-color="#42E8E0"/>
<stop offset="0.02" stop-color="#43E0DE"/>
<stop offset="0.11" stop-color="#47BAD1"/>
<stop offset="0.21" stop-color="#4B9AC7"/>
<stop offset="0.32" stop-color="#4E7FBE"/>
<stop offset="0.44" stop-color="#506BB7"/>
<stop offset="0.58" stop-color="#525CB3"/>
<stop offset="0.74" stop-color="#5354B0"/>
<stop offset="1" stop-color="#5351AF"/>
</radialGradient>
</defs>
</svg>
