<svg width="79" height="78" viewBox="0 0 79 78" fill="none" xmlns="http://www.w3.org/2000/svg">
<circle opacity="0.1" cx="39.3585" cy="39.2765" r="38.6886" fill="#42E8E0"/>
<path d="M35.9924 28.1077V21.3105H58.8244C60.6968 21.3105 62.1908 22.8045 62.1908 24.6769V28.0433H55.3936H54.7723L54.3329 28.4827L48.031 34.7847L47.5916 35.224V35.8453V44.9568L43.1646 49.3838L42.7252 49.8232V50.4445V57.2417H36.6553H35.9924V50.4445V49.8232L35.5531 49.3838L31.126 44.9568V33.5955L35.5531 29.1684L35.9924 28.7291V28.1077ZM62.1908 42.6425H55.458V38.4619L58.0101 35.9097H62.1908V42.6425ZM19.8932 21.3105H28.126V25.4912L25.5739 28.0433H16.5269V24.6769C16.5269 22.8045 18.0208 21.3105 19.8932 21.3105ZM23.2596 35.9097V42.6425H16.5269V35.9097H23.2596ZM28.126 57.2417H19.8932C18.0208 57.2417 16.5269 55.7477 16.5269 53.8753V50.5089H25.5739L28.126 53.061V57.2417ZM50.5916 57.2417V53.061L53.1437 50.5089H62.1908V53.8753C62.1908 55.7477 60.6968 57.2417 58.8244 57.2417H50.5916Z" stroke="#42E8E0" stroke-width="3"/>
<path d="M35.9924 28.1077V21.3105H58.8244C60.6968 21.3105 62.1908 22.8045 62.1908 24.6769V28.0433H55.3936H54.7723L54.3329 28.4827L48.031 34.7847L47.5916 35.224V35.8453V44.9568L43.1646 49.3838L42.7252 49.8232V50.4445V57.2417H36.6553H35.9924V50.4445V49.8232L35.5531 49.3838L31.126 44.9568V33.5955L35.5531 29.1684L35.9924 28.7291V28.1077ZM62.1908 42.6425H55.458V38.4619L58.0101 35.9097H62.1908V42.6425ZM19.8932 21.3105H28.126V25.4912L25.5739 28.0433H16.5269V24.6769C16.5269 22.8045 18.0208 21.3105 19.8932 21.3105ZM23.2596 35.9097V42.6425H16.5269V35.9097H23.2596ZM28.126 57.2417H19.8932C18.0208 57.2417 16.5269 55.7477 16.5269 53.8753V50.5089H25.5739L28.126 53.061V57.2417ZM50.5916 57.2417V53.061L53.1437 50.5089H62.1908V53.8753C62.1908 55.7477 60.6968 57.2417 58.8244 57.2417H50.5916Z" stroke="url(#paint0_radial_118_146)" stroke-width="3"/>
<defs>
<radialGradient id="paint0_radial_118_146" cx="0" cy="0" r="1" gradientUnits="userSpaceOnUse" gradientTransform="translate(61.2495 38.816) rotate(-141.735) scale(84.1893 151.844)">
<stop stop-color="#42E8E0"/>
<stop offset="0.02" stop-color="#43E0DE"/>
<stop offset="0.11" stop-color="#47BAD1"/>
<stop offset="0.21" stop-color="#4B9AC7"/>
<stop offset="0.32" stop-color="#4E7FBE"/>
<stop offset="0.44" stop-color="#506BB7"/>
<stop offset="0.58" stop-color="#525CB3"/>
<stop offset="0.74" stop-color="#5354B0"/>
<stop offset="1" stop-color="#5351AF"/>
</radialGradient>
</defs>
</svg>
