<svg width="217" height="41" viewBox="0 0 217 41" fill="none" xmlns="http://www.w3.org/2000/svg">
<path fill-rule="evenodd" clip-rule="evenodd" d="M0.00460948 2.52674V5.05338L1.07379 5.12267C2.25404 5.19916 4.50411 5.47398 4.7676 5.57388C4.9046 5.6259 4.93568 5.83164 4.93568 6.68575C4.93568 7.26219 4.9181 7.73385 4.89666 7.73385C4.87533 7.73385 4.5979 7.6848 4.28028 7.62473C3.59497 7.49527 0.887164 7.20413 0.36833 7.20413H0.00460948V9.52842V11.8526L0.460198 11.9068C0.710825 11.9366 1.42444 12.0146 2.04607 12.0801C2.6676 12.1456 3.56002 12.2791 4.02922 12.3769L4.88208 12.5545L4.91274 13.6536L4.94351 14.7528L4.69835 14.684C4.21253 14.5477 1.43591 14.1119 0.728191 14.061L0.00460948 14.0089V16.5923V19.1757H0.38055C1.202 19.1757 3.48005 19.5845 4.58729 19.9308L4.93568 20.0397V21.1553C4.93568 22.1745 4.9195 22.2645 4.74809 22.1984C3.87046 21.86 1.12471 21.2959 0.350642 21.295L0 21.2946L0.0290505 23.3295L0.0582081 25.3645L0.862187 25.4875C1.92676 25.6503 3.18655 25.9978 4.15121 26.3947L4.93568 26.7175V27.8842C4.93568 28.7778 4.90427 29.0376 4.80169 28.9936C4.72804 28.9619 4.28178 28.7687 3.81011 28.5642C3.00056 28.2132 1.55479 27.7605 0.780396 27.6155C0.443904 27.5524 0.433077 27.561 0.49761 27.8389C0.534485 27.9979 0.737517 28.6512 0.948803 29.2906C1.59938 31.2596 2.74436 33.2541 4.20342 34.9602L4.88208 35.7537L4.91038 32.497C4.92603 30.7058 4.96881 29.2403 5.00558 29.2403C5.04234 29.2403 5.44894 29.5082 5.90914 29.8357C7.34719 30.8589 8.77484 32.4649 9.61956 34.0094C10.4195 35.472 11.0431 37.6786 11.045 39.0521L11.0459 39.8058L11.5015 39.9715C12.7375 40.4208 13.1994 40.5201 13.3059 40.3594C13.5693 39.9618 13.1447 36.9183 12.6022 35.316C11.4131 31.8036 8.935 28.837 5.71276 27.0685L4.94061 26.6447L4.93815 24.4923L4.93568 22.3397L5.17688 22.4096C5.30948 22.4481 5.97282 22.7401 6.65084 23.0586C13.195 26.1328 17.3583 32.5774 17.3686 39.6492L17.3706 41L18.1477 40.9922C18.8243 40.9853 20.0842 40.838 19.7792 40.8014C19.7111 40.7932 19.6605 40.2668 19.6474 39.4273C19.563 34.0466 17.3663 28.924 13.5086 25.1114C11.4341 23.0612 9.06331 21.5484 6.11485 20.3934L4.98928 19.9525L4.96055 17.3835L4.93182 14.8143L5.28214 14.8876C5.47478 14.9277 6.18721 15.1433 6.86523 15.3664C15.6126 18.2461 22.1148 25.4149 24.1159 34.3859C24.4128 35.7164 24.66 37.6687 24.66 38.6819V39.5312L25.5979 39.0408C27.0706 38.2707 26.9573 38.4609 26.8107 37.0062C26.0346 29.3095 21.9721 22.1577 15.709 17.4623C13.3495 15.6934 10.4604 14.1939 7.70941 13.3105C6.68503 12.9815 5.64179 12.6631 5.39127 12.6028L4.93568 12.4931V10.1664C4.93568 8.35139 4.9657 7.83979 5.07236 7.83979C5.1475 7.83979 5.7939 7.98091 6.5088 8.15349C12.2754 9.54516 17.5452 12.481 21.8247 16.686C26.1801 20.9656 29.1012 26.0165 30.6153 31.8862C30.8179 32.6714 31.0143 33.5426 31.0518 33.822C31.0893 34.1016 31.1548 34.3516 31.1974 34.3776C31.2945 34.4368 31.7698 33.7859 32.4692 32.6363C32.8443 32.0194 32.983 31.6962 32.9225 31.5799C32.8745 31.4876 32.6792 30.8639 32.4885 30.1938C29.6625 20.2661 22.062 11.7721 12.3859 7.72813C10.8481 7.08548 8.10132 6.21611 6.54364 5.8791C5.80666 5.71966 5.14343 5.57272 5.06968 5.55248C4.96731 5.52441 4.93568 4.92689 4.93568 3.02266C4.93568 0.792561 4.95401 0.529716 5.10977 0.529716C5.20561 0.529716 5.87966 0.648902 6.60775 0.794574C18.3792 3.15022 28.3652 10.5018 34.1659 21.0827L34.9501 22.5129L34.9505 20.188L34.9509 17.8632L34.0444 16.533C28.9683 9.08452 22.106 3.68534 13.6232 0.46615L12.3949 0H6.19975H0.00460948V2.52674ZM23.7041 0.0436484C23.7288 0.0675916 24.2805 0.438181 24.9303 0.867039C26.4342 1.85962 27.4946 2.64625 29.108 3.96651C30.5013 5.10646 33.2241 7.74222 34.2886 8.98144L34.9509 9.75217V8.03144V6.31072L33.7449 5.14163C32.1023 3.5492 30.6524 2.28657 29.0397 1.04418L27.6843 0H25.6719C24.5651 0 23.6795 0.0195993 23.7041 0.0436484ZM69.5756 2.91344V5.19121H71.934H74.2923V2.91344V0.635659H71.934H69.5756V2.91344ZM45.885 16.0949V31.2532L50.7357 31.2511C57.0035 31.2485 58.1788 31.1106 60.1959 30.1413C61.8616 29.3407 62.9636 28.2343 63.7841 26.5388C64.757 24.5281 65.1249 22.6304 65.3072 18.6821C65.401 16.6493 65.4007 15.3804 65.3061 13.4304C65.121 9.62112 64.7413 7.62483 63.8499 5.7739C62.6177 3.21516 60.8549 1.89956 57.7839 1.24653C56.854 1.04873 56.2933 1.02595 51.3253 0.983258L45.885 0.936643V16.0949ZM99.698 16.1034V31.2532H102.003H104.308V16.1034V0.953488H102.003H99.698V16.1034ZM191.862 6.01227L191.834 11.0711L191.49 10.4714C190.807 9.27935 189.576 8.36019 188.185 8.00199C187.382 7.7953 185.613 7.79381 184.731 7.99934C182.102 8.61201 180.499 10.7845 179.839 14.631C179.466 16.8042 179.358 19.7527 179.562 22.1919C179.775 24.726 180.221 26.5543 181.025 28.1809C181.424 28.9885 181.683 29.3467 182.337 29.994C182.846 30.4985 183.392 30.92 183.794 31.1195C185.582 32.0059 188.338 32.0072 189.866 31.1225C190.552 30.7252 191.418 29.7686 191.783 29.0051L192.102 28.3398L192.102 29.7965L192.102 31.2532H194.3H196.497V16.1034V0.953488H194.193H191.89L191.862 6.01227ZM56.579 4.85728C58.4703 5.43902 59.4597 6.89891 60.0311 9.95071C60.59 12.9359 60.6131 18.7702 60.0784 21.9302C59.5258 25.1965 58.5189 26.725 56.5176 27.3359C55.9174 27.5191 55.5188 27.5452 53.324 27.5452H50.8161V16.1034V4.6615H53.3793C55.5713 4.6615 56.0347 4.68989 56.579 4.85728ZM87.1115 7.95167C85.7969 8.27734 84.4682 9.30933 83.6989 10.6025L83.2969 11.2781V9.82379V8.36951H81.0993H78.9018V23.5194V38.6693H81.2055H83.5092L83.537 33.6105L83.5649 28.5517L83.9124 29.1578C84.8876 30.8584 86.6184 31.785 88.8132 31.7814C91.4167 31.7772 93.2483 30.6292 94.4723 28.2346C95.4709 26.2807 95.8364 24.3828 95.9154 20.7395C95.994 17.1127 95.7535 14.9758 95.0241 12.8191C94.5169 11.3191 94.0192 10.4742 93.1142 9.57662C92.3375 8.80631 91.8522 8.50289 90.8058 8.13336C90.1183 7.89043 87.8156 7.77729 87.1115 7.95167ZM114.598 7.99436C113.046 8.3213 111.908 8.90452 110.954 9.86235C109.453 11.3685 108.655 13.3843 108.266 16.659C108.092 18.1215 108.193 22.7489 108.426 23.9961C109.114 27.6796 110.568 29.9524 112.937 31.0476C114.062 31.5679 115.176 31.7834 116.727 31.7811C121.243 31.7745 123.87 29.4362 124.879 24.5258C125.503 21.4881 125.405 16.7055 124.664 13.9854C124.141 12.071 123.317 10.5981 122.23 9.63712C121.551 9.03706 120.242 8.35605 119.262 8.09321C118.376 7.85568 115.542 7.79551 114.598 7.99436ZM137.485 8.04034C136.07 8.44844 134.672 9.43021 133.859 10.5863L133.519 11.0711L133.465 9.74677L133.412 8.42248L131.241 8.39377L129.07 8.36516V19.8091V31.2532H131.375H133.68L133.68 23.387C133.681 18.4312 133.723 15.2659 133.793 14.832C134.175 12.4859 136.184 11.0068 138.201 11.5864C139.123 11.8512 139.52 12.2655 139.936 13.3988C140.017 13.6177 140.072 16.4952 140.11 22.4599L140.165 31.2003H142.47H144.774L144.828 22.8307C144.888 13.5115 144.838 14.1217 145.641 12.962C146.468 11.7681 147.998 11.1981 149.341 11.5839C150.345 11.8724 150.938 12.716 151.149 14.1549C151.212 14.5888 151.256 18.205 151.258 23.0691L151.26 31.2532H153.565H155.869V22.0455C155.869 14.3457 155.843 12.7032 155.71 12.0162C155.292 9.85399 153.993 8.46486 151.946 7.99044C150.907 7.74964 148.994 7.82687 148.056 8.14745C146.812 8.57281 145.574 9.55491 144.798 10.7333L144.462 11.2431L144.155 10.6012C143.531 9.29598 142.323 8.34567 140.852 8.00295C139.926 7.78735 138.3 7.80547 137.485 8.04034ZM166 7.95728C164.301 8.19947 162.91 8.84255 161.963 9.82368C160.92 10.904 160.409 12.2543 160.297 14.2251L160.232 15.3662L162.419 15.3375L164.606 15.3088L164.632 14.7791C164.749 12.4055 165.606 11.253 167.422 11.0285C169.314 10.7945 170.543 11.3679 171.048 12.7205C171.323 13.4564 171.309 15.0735 171.022 15.691C170.597 16.6073 170.091 16.854 166.808 17.7444C163.539 18.6307 162.308 19.1735 161.297 20.1732C160.253 21.2051 159.765 22.5805 159.659 24.7907C159.514 27.8235 160.466 30.097 162.292 31.0792C163.521 31.7404 165.859 31.9874 167.428 31.6218C168.864 31.2872 170.103 30.4142 170.977 29.1191C171.398 28.4966 171.407 28.4908 171.468 28.7835C171.722 29.9896 172.221 30.6353 173.256 31.0959C173.831 31.3519 174.1 31.4023 175.058 31.4338C176.016 31.4652 176.287 31.4348 176.88 31.2296L177.577 30.9884L177.607 29.4914L177.636 27.9944L177.169 28.0464C176.558 28.1146 176.11 27.8832 175.849 27.3645C175.659 26.9854 175.644 26.5352 175.593 19.4406C175.534 11.3835 175.56 11.7624 175.004 10.7002C174.312 9.37766 172.449 8.2785 170.341 7.94997C169.52 7.82199 166.918 7.82644 166 7.95728ZM206.736 8.01555C204.549 8.47863 202.827 9.84095 201.802 11.9186C200.929 13.6867 200.508 15.6034 200.362 18.4709C200.162 22.3814 200.61 25.6665 201.634 27.8101C202.977 30.6223 205.051 31.7869 208.703 31.7806C213.531 31.7725 216.385 29.1922 216.815 24.4464L216.89 23.6253H214.691H212.491L212.415 24.3934C212.253 26.0231 211.569 27.4942 210.691 28.0993C210.048 28.5431 209.055 28.7547 208.263 28.6167C206.975 28.3924 206.221 27.7998 205.679 26.5836C205.212 25.5361 205.049 24.5574 204.992 22.4335L204.938 20.447H210.969H217L216.943 17.8779C216.88 15.0579 216.725 13.8742 216.225 12.4207C215.144 9.27469 212.801 7.82327 208.842 7.84848C208.077 7.85325 207.158 7.92624 206.736 8.01555ZM69.5756 19.8114V31.2574L71.9072 31.2289L74.2387 31.2003V19.8114V8.42248L71.9072 8.39388L69.5756 8.36538V19.8114ZM209.625 11.073C210.186 11.1643 210.563 11.3653 211.021 11.8181C211.84 12.6281 212.212 13.7984 212.324 15.918L212.395 17.2687H208.665H204.934L204.999 16.0239C205.092 14.2443 205.468 13.0635 206.258 12.0721C206.627 11.6096 207.487 11.1335 208.16 11.02C208.662 10.9356 208.814 10.9411 209.625 11.073ZM117.808 11.3968C118.518 11.6053 119.314 12.3144 119.687 13.0707C120.358 14.4309 120.62 16.359 120.616 19.9173C120.614 22.7734 120.483 24.4 120.166 25.5323C119.564 27.6764 118.518 28.4725 116.431 28.3734C115.671 28.3372 115.411 28.2763 114.946 28.0262C113.258 27.1173 112.672 24.5978 112.812 18.8579C112.865 16.6913 112.919 16.0585 113.135 15.03C113.566 12.9819 114.387 11.75 115.56 11.3927C116.216 11.1929 117.119 11.1946 117.808 11.3968ZM88.7274 11.8163C89.8495 12.3589 90.5098 13.612 90.8643 15.872C91.0869 17.2909 91.12 21.7954 90.9192 23.3433C90.6551 25.3791 90.2409 26.5092 89.4736 27.2868C88.856 27.9127 88.1749 28.1809 87.2024 28.1809C85.1574 28.1809 84.0015 26.8083 83.5446 23.8372C83.3184 22.3658 83.2881 17.4434 83.4964 15.9974C83.8722 13.3887 84.7357 12.0123 86.2632 11.5871C86.9955 11.3833 88.0311 11.4796 88.7274 11.8163ZM188.772 11.5465C191.248 12.0106 192.104 14.1722 192.101 19.955C192.1 23.1104 191.858 24.8358 191.229 26.1856C190.461 27.8323 188.925 28.5223 187.164 28.0123C186.709 27.8805 186.45 27.7111 185.98 27.2368C185.296 26.547 185.027 25.9561 184.672 24.3669C184.47 23.4608 184.447 23.0121 184.443 19.8643C184.438 16.1237 184.506 15.3655 184.988 13.8558C185.394 12.5809 186.05 11.8535 187.028 11.5938C187.671 11.423 188.058 11.4126 188.772 11.5465ZM171.282 21.8508C171.237 24.1012 171.2 24.53 170.985 25.3071C170.656 26.4941 170.06 27.3734 169.271 27.8385C168.516 28.2829 168.104 28.3915 167.173 28.3921C166.265 28.3929 165.48 28.0601 165.038 27.4871C163.901 26.0143 164.065 23.1606 165.359 21.8813C165.824 21.4226 166.28 21.2091 168.304 20.5025C169.1 20.2249 170.065 19.8389 170.448 19.6448C170.831 19.4508 171.188 19.2897 171.239 19.2868C171.293 19.2839 171.312 20.3987 171.282 21.8508ZM15.9502 40.9642C16.024 40.9936 16.1445 40.9936 16.2182 40.9642C16.2919 40.9348 16.2316 40.9108 16.0842 40.9108C15.9368 40.9108 15.8766 40.9348 15.9502 40.9642Z" fill="white"/>
</svg>
