<svg width="41" height="41" viewBox="0 0 41 41" fill="none" xmlns="http://www.w3.org/2000/svg">
<path fill-rule="evenodd" clip-rule="evenodd" d="M20.1792 0.293945C9.1335 0.293945 0.179199 9.24825 0.179199 20.2939C0.179199 31.3396 9.1335 40.2939 20.1792 40.2939C31.2249 40.2939 40.1792 31.3396 40.1792 20.2939C40.1792 9.24825 31.2249 0.293945 20.1792 0.293945ZM25.7868 27.9964L17.7762 20.2939L25.7868 12.5914L23.2916 9.99644L13.9316 18.9964L12.5822 20.2939L13.9316 21.5914L23.2916 30.5914L25.7868 27.9964Z" fill="#42E8E0"/>
<path fill-rule="evenodd" clip-rule="evenodd" d="M20.1792 0.293945C9.1335 0.293945 0.179199 9.24825 0.179199 20.2939C0.179199 31.3396 9.1335 40.2939 20.1792 40.2939C31.2249 40.2939 40.1792 31.3396 40.1792 20.2939C40.1792 9.24825 31.2249 0.293945 20.1792 0.293945ZM25.7868 27.9964L17.7762 20.2939L25.7868 12.5914L23.2916 9.99644L13.9316 18.9964L12.5822 20.2939L13.9316 21.5914L23.2916 30.5914L25.7868 27.9964Z" fill="url(#paint0_radial_118_154)"/>
<defs>
<radialGradient id="paint0_radial_118_154" cx="0" cy="0" r="1" gradientUnits="userSpaceOnUse" gradientTransform="translate(2.18585 20.7667) rotate(44.5946) scale(76.3009 141.495)">
<stop stop-color="#42E8E0"/>
<stop offset="0.02" stop-color="#43E0DE"/>
<stop offset="0.11" stop-color="#47BAD1"/>
<stop offset="0.21" stop-color="#4B9AC7"/>
<stop offset="0.32" stop-color="#4E7FBE"/>
<stop offset="0.44" stop-color="#506BB7"/>
<stop offset="0.58" stop-color="#525CB3"/>
<stop offset="0.74" stop-color="#5354B0"/>
<stop offset="1" stop-color="#5351AF"/>
</radialGradient>
</defs>
</svg>
