<svg width="52" height="44" viewBox="0 0 52 44" fill="none" xmlns="http://www.w3.org/2000/svg">
<path fill-rule="evenodd" clip-rule="evenodd" d="M25.6089 0.0469105C25.5232 0.0691178 25.3955 0.155453 25.3252 0.238731C25.2548 0.321928 25.1602 0.390079 25.1149 0.390079C25.0696 0.390079 25.0208 0.417677 25.0064 0.45139C24.9921 0.485104 24.76 0.65705 24.4908 0.833583C24.2215 1.01003 24.0009 1.18166 24.0005 1.21481C24.0001 1.24796 23.9553 1.27516 23.901 1.27516C23.8466 1.27516 23.7069 1.36568 23.5906 1.47631C23.4743 1.58694 23.3556 1.67746 23.3269 1.67746C23.2525 1.67746 22.2403 2.42037 22.2088 2.49809C22.1944 2.53358 22.1448 2.56254 22.0985 2.56254C22.0522 2.56254 21.8987 2.65306 21.7573 2.7637C21.6159 2.87433 21.4756 2.96485 21.4454 2.96485C21.4152 2.96485 21.3329 3.02817 21.2625 3.10566C21.1188 3.26376 20.9416 3.38574 20.5681 3.58368C20.4278 3.65802 20.3132 3.7483 20.3132 3.78435C20.3132 3.8204 20.268 3.84993 20.2128 3.84993C20.1576 3.84993 20.0616 3.92234 19.9994 4.01085C19.9372 4.09936 19.8565 4.17177 19.82 4.17177C19.7835 4.17177 19.638 4.26229 19.4965 4.37293C19.3551 4.48356 19.1986 4.57408 19.1488 4.57408C19.0989 4.57408 19.0581 4.60248 19.0581 4.63716C19.0581 4.67192 18.9435 4.76968 18.8032 4.85441C18.663 4.93921 18.4859 5.06795 18.4097 5.14053C18.3334 5.21311 18.1746 5.32358 18.0567 5.38594C17.9388 5.44837 17.7957 5.54469 17.7387 5.59996C17.6817 5.65524 17.6075 5.70054 17.5738 5.70054C17.5402 5.70054 17.4018 5.80917 17.2664 5.94193C17.131 6.07469 16.9669 6.18331 16.9018 6.18331C16.8367 6.18331 16.7834 6.21381 16.7834 6.25114C16.7834 6.28839 16.6599 6.38712 16.5089 6.47056C16.3579 6.554 16.2343 6.65015 16.2343 6.68435C16.2343 6.71854 16.1975 6.74654 16.1526 6.74654C16.1077 6.74654 15.9951 6.81896 15.9025 6.90746C15.8099 6.99597 15.6878 7.06839 15.6312 7.06839C15.5747 7.06839 15.5284 7.10218 15.5284 7.14346C15.5284 7.18474 15.4666 7.23881 15.3911 7.26375C15.3156 7.28861 15.1303 7.41767 14.9793 7.55059C14.8283 7.68344 14.6607 7.79222 14.6067 7.79238C14.5528 7.79246 14.5087 7.82054 14.5087 7.85474C14.5087 7.88894 14.3851 7.98509 14.2341 8.06853C14.0831 8.15196 13.9596 8.25069 13.9596 8.28794C13.9596 8.32528 13.9096 8.35577 13.8484 8.35577C13.7873 8.35577 13.7256 8.38595 13.7112 8.4228C13.6968 8.45965 13.4733 8.62741 13.2144 8.79558C12.9556 8.96374 12.7261 9.12539 12.7046 9.15484C12.683 9.18429 12.5507 9.29058 12.4104 9.39099L12.1555 9.57364V12.0082V14.4428L12.3577 14.6379C12.5493 14.8227 12.6191 14.8343 13.6912 14.859L14.8224 14.8851V15.4826V16.0801L9.07676 16.0813C2.97372 16.0825 3.02722 16.0792 2.86148 16.4637C2.81888 16.5625 2.75707 16.6433 2.72421 16.6433C2.69126 16.6433 2.66436 16.7338 2.66436 16.8445C2.66436 16.9551 2.62906 17.0456 2.58592 17.0456C2.54278 17.0456 2.50748 17.1159 2.50748 17.2018C2.50748 17.2877 2.47218 17.3803 2.42904 17.4077C2.3859 17.4351 2.35037 17.5187 2.35013 17.5935C2.34982 17.6683 2.29687 17.8333 2.23247 17.96C2.168 18.0868 2.11529 18.2587 2.11529 18.3422C2.11529 18.4256 2.07999 18.4939 2.03685 18.4939C1.9937 18.4939 1.95841 18.5663 1.95841 18.6549C1.95841 18.7434 1.92311 18.8158 1.87997 18.8158C1.83683 18.8158 1.80153 18.9041 1.80153 19.0122C1.80153 19.1202 1.77274 19.2269 1.7376 19.2491C1.70246 19.2714 1.60535 19.5089 1.52189 19.7769C1.43843 20.0448 1.34368 20.2641 1.31128 20.2641C1.27897 20.2641 1.25245 20.3546 1.25245 20.4652C1.25245 20.5759 1.21716 20.6664 1.17402 20.6664C1.13087 20.6664 1.09558 20.7212 1.09558 20.7882C1.09558 20.8552 1.06389 20.9729 1.02522 21.0497C0.986468 21.1266 0.894616 21.3523 0.82104 21.5515C0.747464 21.7506 0.655612 21.9764 0.616863 22.0532C0.578192 22.1301 0.546503 22.2478 0.546503 22.3147C0.546503 22.3818 0.511205 22.4365 0.468064 22.4365C0.424922 22.4365 0.389624 22.5029 0.389624 22.584C0.389624 22.6652 0.366798 22.755 0.338874 22.7837C0.247963 22.8768 0.00260555 23.6783 1.70614e-05 23.8905C-0.00147328 24.0068 0.0948499 24.2092 0.220117 24.3531L0.442806 24.609H1.55358H2.66436V34.023C2.66436 40.2453 2.69095 43.437 2.7428 43.437C2.78594 43.437 2.82124 43.4962 2.82124 43.5684C2.82124 43.6407 2.89724 43.7674 2.99012 43.85C3.15413 43.996 3.81271 44.0002 26 44.0002C48.1873 44.0002 48.8459 43.996 49.0099 43.85C49.1028 43.7674 49.1788 43.6407 49.1788 43.5684C49.1788 43.4962 49.2141 43.437 49.2572 43.437C49.3091 43.437 49.3356 40.2453 49.3356 34.023V24.609H50.4464H51.5572L51.7799 24.3531C51.9052 24.2092 52.0015 24.0068 52 23.8905C51.9974 23.6783 51.752 22.8768 51.6611 22.7837C51.6332 22.755 51.6104 22.6652 51.6104 22.584C51.6104 22.5029 51.5751 22.4365 51.5319 22.4365C51.4888 22.4365 51.4535 22.3818 51.4535 22.3147C51.4535 22.2478 51.4218 22.1301 51.3831 22.0532C51.3444 21.9764 51.2525 21.7506 51.179 21.5515C51.1054 21.3523 51.0135 21.1266 50.9748 21.0497C50.9361 20.9729 50.9044 20.8552 50.9044 20.7882C50.9044 20.7212 50.8691 20.6664 50.826 20.6664C50.7828 20.6664 50.7475 20.5759 50.7475 20.4652C50.7475 20.3546 50.721 20.2641 50.6887 20.2641C50.6563 20.2641 50.5616 20.0448 50.4781 19.7769C50.3946 19.5089 50.2975 19.2714 50.2624 19.2491C50.2273 19.2269 50.1985 19.1202 50.1985 19.0122C50.1985 18.9041 50.1632 18.8158 50.12 18.8158C50.0769 18.8158 50.0416 18.7434 50.0416 18.6549C50.0416 18.5663 50.0063 18.4939 49.9632 18.4939C49.92 18.4939 49.8847 18.4256 49.8847 18.3422C49.8847 18.2587 49.832 18.0868 49.7675 17.96C49.7031 17.8333 49.6502 17.6683 49.6499 17.5935C49.6496 17.5187 49.6141 17.4351 49.571 17.4077C49.5278 17.3803 49.4925 17.2877 49.4925 17.2018C49.4925 17.1159 49.4572 17.0456 49.4141 17.0456C49.3709 17.0456 49.3356 16.9551 49.3356 16.8445C49.3356 16.7338 49.3003 16.6433 49.2572 16.6433C49.2141 16.6433 49.1788 16.575 49.1788 16.4916C49.1788 16.3981 49.0763 16.2899 48.912 16.2099C48.674 16.0941 48.0256 16.0801 42.9114 16.0801H37.1776V15.4826V14.8851L38.3088 14.859C39.3809 14.8343 39.4507 14.8227 39.6423 14.6379L39.8445 14.4428V12.0082V9.57364L39.5896 9.38979C39.4493 9.28865 39.2938 9.16538 39.2438 9.11581C39.1938 9.06625 38.9643 8.90275 38.734 8.75253C38.5035 8.60231 38.3032 8.4516 38.2888 8.41757C38.2744 8.38361 38.2127 8.35577 38.1516 8.35577C38.0904 8.35577 38.0404 8.32528 38.0404 8.28794C38.0404 8.25069 37.9169 8.15196 37.7659 8.06853C37.6149 7.98509 37.4913 7.88894 37.4913 7.85474C37.4913 7.82054 37.4473 7.79246 37.3933 7.79238C37.3394 7.79222 37.1717 7.68344 37.0207 7.55059C36.8697 7.41767 36.6844 7.28861 36.6089 7.26375C36.5334 7.23881 36.4716 7.18474 36.4716 7.14346C36.4716 7.10218 36.4253 7.06839 36.3688 7.06839C36.3122 7.06839 36.1901 6.99597 36.0975 6.90746C36.0049 6.81896 35.8924 6.74654 35.8474 6.74654C35.8025 6.74654 35.7657 6.71854 35.7657 6.68435C35.7657 6.65015 35.6421 6.554 35.4911 6.47056C35.3401 6.38712 35.2166 6.28839 35.2166 6.25114C35.2166 6.21381 35.1633 6.18331 35.0982 6.18331C35.0331 6.18331 34.8701 6.07581 34.7361 5.94434C34.602 5.81295 34.4259 5.68381 34.3447 5.65733C34.2634 5.63086 34.1969 5.5755 34.1969 5.53423C34.1969 5.49295 34.1439 5.45916 34.0792 5.45916C34.0145 5.45916 33.9616 5.42295 33.9616 5.3787C33.9616 5.33444 33.9153 5.29823 33.8587 5.29823C33.8021 5.29823 33.6874 5.23306 33.6038 5.1534C33.5201 5.07375 33.337 4.93921 33.1968 4.85441C33.0565 4.76968 32.9419 4.67192 32.9419 4.63716C32.9419 4.60248 32.9011 4.57408 32.8512 4.57408C32.8014 4.57408 32.6449 4.48356 32.5035 4.37293C32.362 4.26229 32.2165 4.17177 32.18 4.17177C32.1435 4.17177 32.0628 4.09936 32.0006 4.01085C31.9384 3.92234 31.8424 3.84993 31.7872 3.84993C31.732 3.84993 31.6868 3.8204 31.6868 3.78435C31.6868 3.7483 31.5722 3.65802 31.4319 3.58368C31.0584 3.38574 30.8812 3.26376 30.7375 3.10566C30.6671 3.02817 30.5848 2.96485 30.5546 2.96485C30.5245 2.96485 30.3841 2.87433 30.2427 2.7637C30.1013 2.65306 29.9478 2.56254 29.9015 2.56254C29.8552 2.56254 29.8056 2.53358 29.7912 2.49809C29.7597 2.42037 28.7475 1.67746 28.6731 1.67746C28.6444 1.67746 28.5257 1.58694 28.4094 1.47631C28.2931 1.36568 28.1534 1.27516 28.099 1.27516C28.0447 1.27516 27.9999 1.24796 27.9995 1.21481C27.9991 1.18166 27.7785 1.01003 27.5092 0.833583C27.24 0.65705 27.0079 0.485104 26.9936 0.45139C26.9792 0.417677 26.9174 0.390079 26.8563 0.390079C26.7951 0.390079 26.7452 0.357975 26.7452 0.31879C26.7452 0.279605 26.6251 0.189086 26.4784 0.117636C26.217 -0.00957374 25.9196 -0.0337925 25.6089 0.0469105ZM26.2241 1.87862C26.2888 1.945 26.3665 1.99931 26.3968 1.99931C26.4271 1.99931 26.6238 2.12604 26.834 2.28093C27.0442 2.43581 27.2484 2.56254 27.2879 2.56254C27.3273 2.56254 27.3714 2.59296 27.3858 2.63021C27.4208 2.72081 28.2145 3.2867 28.3066 3.2867C28.3466 3.2867 28.3911 3.31695 28.4055 3.35396C28.4198 3.39089 28.6258 3.55375 28.863 3.71572C29.1003 3.87777 29.3371 4.04665 29.3892 4.09107C29.4413 4.1354 29.5047 4.17177 29.53 4.17177C29.5553 4.17177 29.6603 4.25819 29.7633 4.36375C29.8662 4.46932 30.0587 4.6049 30.1911 4.665C30.3235 4.72511 30.4318 4.80163 30.4318 4.8351C30.4318 4.86857 30.4848 4.89593 30.5495 4.89593C30.6142 4.89593 30.6671 4.92642 30.6671 4.96376C30.6671 5.00101 30.7907 5.09974 30.9417 5.18317C31.0927 5.26661 31.2162 5.36276 31.2162 5.39696C31.2162 5.43116 31.2691 5.45916 31.3339 5.45916C31.3986 5.45916 31.4515 5.49536 31.4515 5.53962C31.4515 5.58387 31.5045 5.62008 31.5692 5.62008C31.6339 5.62008 31.6868 5.65058 31.6868 5.68791C31.6868 5.72516 31.8104 5.82389 31.9614 5.90733C32.1124 5.99077 32.2359 6.08692 32.2359 6.12111C32.2359 6.15531 32.286 6.18331 32.3471 6.18331C32.4082 6.18331 32.4699 6.21051 32.4843 6.24366C32.4987 6.27681 32.7222 6.44883 32.9811 6.62585C33.2399 6.80287 33.4635 6.97489 33.4778 7.00804C33.4923 7.04119 33.554 7.06839 33.6151 7.06839C33.6762 7.06839 33.7263 7.09711 33.7263 7.13219C33.7263 7.16736 33.902 7.30309 34.1169 7.43393C34.3317 7.56476 34.5082 7.69905 34.5091 7.7322C34.5099 7.76535 34.5636 7.79254 34.6283 7.79254C34.693 7.79254 34.746 7.82054 34.746 7.85474C34.746 7.88894 34.8695 7.98509 35.0205 8.06853C35.1715 8.15196 35.295 8.25069 35.295 8.28794C35.295 8.32528 35.3413 8.35577 35.3979 8.35577C35.4545 8.35577 35.5766 8.42819 35.6692 8.5167C35.7618 8.6052 35.8582 8.67762 35.8833 8.67762C35.9086 8.67762 35.9819 8.72292 36.0463 8.7782C36.1106 8.83355 36.2062 8.91498 36.2587 8.95924C36.3111 9.00349 36.4504 9.09071 36.5683 9.15315C36.6862 9.21551 36.8451 9.32598 36.9213 9.39855C36.9976 9.47113 37.1746 9.59987 37.3148 9.68468C37.4551 9.7694 37.5698 9.86716 37.5698 9.90192C37.5698 9.9366 37.6161 9.965 37.6726 9.965C37.7292 9.965 37.8513 10.0374 37.9439 10.1259C38.0365 10.2144 38.1339 10.2869 38.1604 10.2869C38.1869 10.2869 38.2589 10.3386 38.3205 10.4018C38.4089 10.4924 38.4326 10.8072 38.4326 11.8904V13.2639H37.8051H37.1776V12.2297C37.1776 11.0852 37.143 10.9954 36.5674 10.6467C36.4285 10.5624 36.3147 10.4652 36.3147 10.4304C36.3147 10.3957 36.2769 10.3673 36.2307 10.3673C36.1845 10.3673 36.0975 10.3221 36.0373 10.2667C35.8419 10.087 35.7301 10.0072 35.5121 9.89178C35.3942 9.82943 35.2353 9.71895 35.1591 9.64638C35.0829 9.5738 34.9058 9.44506 34.7656 9.36026C34.6253 9.27553 34.5106 9.17777 34.5106 9.14301C34.5106 9.10833 34.4478 9.07993 34.3711 9.07993C34.2943 9.07993 34.1807 9.00751 34.1185 8.919C34.0562 8.8305 33.9687 8.75808 33.9238 8.75808C33.879 8.75808 33.7471 8.66756 33.6308 8.55693C33.5145 8.44629 33.3958 8.35577 33.3671 8.35577C33.2927 8.35577 32.2805 7.61287 32.249 7.53515C32.2346 7.49966 32.185 7.4707 32.1387 7.4707C32.0924 7.4707 31.9389 7.38018 31.7975 7.26954C31.6561 7.15891 31.5057 7.06839 31.4633 7.06839C31.4209 7.06839 31.3744 7.03814 31.36 7.00112C31.3456 6.96419 31.1397 6.80134 30.9024 6.63937C30.6652 6.47732 30.4284 6.30843 30.3763 6.26401C30.3242 6.21968 30.2477 6.18331 30.2064 6.18331C30.165 6.18331 30.1194 6.15555 30.105 6.1216C30.0645 6.02601 29.2836 5.45916 29.1924 5.45916C29.1478 5.45916 29.0997 5.43196 29.0852 5.39881C29.043 5.30113 28.4889 4.89593 28.3976 4.89593C28.3516 4.89593 28.314 4.85972 28.314 4.81546C28.314 4.77121 28.261 4.735 28.1963 4.735C28.1316 4.735 28.0786 4.6988 28.0786 4.65454C28.0786 4.61029 28.0418 4.57408 27.9967 4.57408C27.9517 4.57408 27.8197 4.48356 27.7035 4.37293C27.5871 4.26229 27.4474 4.17177 27.3931 4.17177C27.3387 4.17177 27.2942 4.13556 27.2942 4.09131C27.2942 4.04706 27.2413 4.01085 27.1766 4.01085C27.1119 4.01085 27.0589 3.97464 27.0589 3.93039C27.0589 3.88613 27.0221 3.84993 26.9772 3.84993C26.9323 3.84993 26.8176 3.77502 26.7223 3.68345C26.627 3.59197 26.452 3.49686 26.3334 3.47224C26.2148 3.44762 26.1177 3.3958 26.1177 3.3571C26.1177 3.3184 26.0647 3.2867 26 3.2867C25.9353 3.2867 25.8823 3.3229 25.8823 3.36716C25.8823 3.41141 25.8144 3.44762 25.7315 3.44762C25.6485 3.44762 25.4188 3.57435 25.2209 3.72923C25.0231 3.88412 24.8263 4.01085 24.7835 4.01085C24.7407 4.01085 24.7058 4.03885 24.7058 4.07305C24.7058 4.10724 24.5822 4.20339 24.4312 4.28683C24.2802 4.37027 24.1567 4.469 24.1567 4.50625C24.1567 4.54358 24.1037 4.57408 24.039 4.57408C23.9743 4.57408 23.9214 4.61029 23.9214 4.65454C23.9214 4.6988 23.8684 4.735 23.8037 4.735C23.739 4.735 23.686 4.77121 23.686 4.81546C23.686 4.85972 23.6484 4.89593 23.6024 4.89593C23.5111 4.89593 22.957 5.30113 22.9148 5.39881C22.9003 5.43196 22.8522 5.45916 22.8076 5.45916C22.7164 5.45916 21.9355 6.02601 21.895 6.1216C21.8806 6.15555 21.835 6.18331 21.7936 6.18331C21.7523 6.18331 21.6758 6.21968 21.6237 6.26401C21.5716 6.30843 21.3348 6.47732 21.0976 6.63937C20.8603 6.80134 20.6544 6.96419 20.64 7.00112C20.6256 7.03814 20.5792 7.06839 20.5367 7.06839C20.4943 7.06839 20.3439 7.15891 20.2025 7.26954C20.0611 7.38018 19.9076 7.4707 19.8613 7.4707C19.815 7.4707 19.7654 7.49966 19.751 7.53515C19.7195 7.61287 18.7073 8.35577 18.6329 8.35577C18.6042 8.35577 18.4855 8.44629 18.3692 8.55693C18.2529 8.66756 18.121 8.75808 18.0762 8.75808C18.0313 8.75808 17.9438 8.8305 17.8816 8.919C17.8193 9.00751 17.7057 9.07993 17.6289 9.07993C17.5522 9.07993 17.4894 9.10833 17.4894 9.14301C17.4894 9.17777 17.3747 9.27553 17.2344 9.36026C17.0942 9.44506 16.9171 9.5738 16.8409 9.64638C16.7647 9.71895 16.6058 9.82943 16.4879 9.89178C16.2699 10.0072 16.1581 10.087 15.9627 10.2667C15.9025 10.3221 15.8155 10.3673 15.7693 10.3673C15.7231 10.3673 15.6853 10.3974 15.6853 10.4342C15.6853 10.4709 15.5881 10.5517 15.4695 10.6135C15.3509 10.6754 15.1567 10.8329 15.0381 10.9635C14.826 11.1969 14.8224 11.2184 14.8224 12.2324V13.2639H14.1949H13.5674V11.8904C13.5674 10.8072 13.5911 10.4924 13.6795 10.4018C13.7411 10.3386 13.8131 10.2869 13.8396 10.2869C13.8661 10.2869 13.9635 10.2144 14.0561 10.1259C14.1487 10.0374 14.2708 9.965 14.3274 9.965C14.384 9.965 14.4302 9.9366 14.4302 9.90192C14.4302 9.86716 14.5449 9.7694 14.6852 9.68468C14.8254 9.59987 15.0085 9.46534 15.0922 9.38568C15.1758 9.30602 15.2905 9.24085 15.3471 9.24085C15.4037 9.24085 15.4499 9.20464 15.4499 9.16039C15.4499 9.11613 15.4877 9.07993 15.5339 9.07993C15.5802 9.07993 15.6672 9.03471 15.7274 8.97935C15.9869 8.74054 16.0756 8.67762 16.1526 8.67762C16.1975 8.67762 16.2346 8.6505 16.235 8.61727C16.2354 8.58404 16.456 8.4125 16.7253 8.23605C16.9945 8.05951 17.2266 7.88757 17.2409 7.85385C17.2554 7.82014 17.3171 7.79254 17.3782 7.79254C17.4394 7.79254 17.4901 7.76535 17.4909 7.7322C17.4918 7.69905 17.6683 7.56476 17.8831 7.43393C18.098 7.30309 18.2737 7.16736 18.2737 7.13219C18.2737 7.09711 18.3237 7.06839 18.3849 7.06839C18.446 7.06839 18.5077 7.0391 18.5222 7.00338C18.5365 6.96757 18.7601 6.79635 19.0189 6.62279C19.2778 6.44924 19.5013 6.2793 19.5157 6.24527C19.5301 6.21115 19.5918 6.18331 19.6529 6.18331C19.7141 6.18331 19.7641 6.15531 19.7641 6.12111C19.7641 6.08692 19.8876 5.99077 20.0386 5.90733C20.1896 5.82389 20.3132 5.72516 20.3132 5.68791C20.3132 5.65058 20.3661 5.62008 20.4308 5.62008C20.4955 5.62008 20.5485 5.58387 20.5485 5.53962C20.5485 5.49536 20.6014 5.45916 20.6661 5.45916C20.7309 5.45916 20.7838 5.43116 20.7838 5.39696C20.7838 5.36276 20.9073 5.26661 21.0583 5.18317C21.2093 5.09974 21.3329 5.00101 21.3329 4.96376C21.3329 4.92642 21.3858 4.89593 21.4505 4.89593C21.5152 4.89593 21.5682 4.86857 21.5682 4.8351C21.5682 4.80163 21.6765 4.72511 21.8089 4.665C21.9413 4.6049 22.1338 4.46932 22.2367 4.36375C22.3397 4.25819 22.4447 4.17177 22.47 4.17177C22.4953 4.17177 22.5587 4.1354 22.6108 4.09107C22.6629 4.04665 22.8997 3.87777 23.137 3.71572C23.3743 3.55375 23.5802 3.39089 23.5945 3.35396C23.6089 3.31695 23.6534 3.2867 23.6934 3.2867C23.7855 3.2867 24.5792 2.72081 24.6142 2.63021C24.6287 2.59296 24.6699 2.56254 24.706 2.56254C24.7422 2.56254 25.0278 2.3815 25.341 2.16023C25.9582 1.72405 26.0461 1.69605 26.2241 1.87862ZM26.353 5.33846C26.4067 5.40485 26.4829 5.45916 26.5222 5.45916C26.5616 5.45916 26.6721 5.53286 26.7676 5.62298C26.9752 5.81874 27.5129 6.18331 27.5942 6.18331C27.6259 6.18331 27.7027 6.25573 27.7649 6.34423C27.8271 6.43274 27.9054 6.50516 27.9389 6.50516C27.9724 6.50516 28.1718 6.63188 28.382 6.78677C28.5922 6.94166 28.791 7.06839 28.824 7.06839C28.8569 7.06839 28.9409 7.13228 29.0107 7.21032C29.17 7.38846 29.7739 7.79254 29.8811 7.79254C29.9251 7.79254 29.9612 7.82094 29.9612 7.85562C29.9612 7.89038 30.0759 7.98814 30.2161 8.07287C30.3564 8.15768 30.5394 8.29221 30.6231 8.37187C30.7067 8.45152 30.8214 8.5167 30.8781 8.5167C30.9346 8.5167 30.9809 8.5529 30.9809 8.59716C30.9809 8.64141 31.0177 8.67762 31.0626 8.67762C31.1396 8.67762 31.2283 8.74054 31.4878 8.97935C31.548 9.03471 31.6272 9.07993 31.6639 9.07993C31.7006 9.07993 31.7815 9.15234 31.8437 9.24085C31.9059 9.32936 31.9851 9.40177 32.0196 9.40177C32.1022 9.40177 32.7382 9.82693 32.7719 9.90466C32.7863 9.93789 32.8481 9.965 32.9092 9.965C32.9703 9.965 33.0203 9.99373 33.0203 10.0288C33.0203 10.064 33.1961 10.1997 33.4109 10.3305C33.6258 10.4614 33.8023 10.5956 33.8031 10.6288C33.804 10.662 33.8415 10.6892 33.8864 10.6892C33.9314 10.6892 34.0108 10.7248 34.0629 10.7684C34.4993 11.1334 34.6603 11.2524 34.718 11.2526C34.755 11.2527 34.9087 11.3615 35.0597 11.4943C35.2107 11.6273 35.3961 11.7563 35.4715 11.7812C35.6017 11.8241 35.6088 12.627 35.6088 27.1489V42.4715H34.3538H33.0987V36.5978C33.0987 32.7356 33.0719 30.7241 33.0203 30.7241C32.9772 30.7241 32.9419 30.674 32.9419 30.6126C32.9419 30.5513 32.8549 30.4427 32.7485 30.3713C32.5745 30.2543 31.9022 30.2413 26 30.2413C20.0978 30.2413 19.4255 30.2543 19.2515 30.3713C19.1451 30.4427 19.0581 30.5513 19.0581 30.6126C19.0581 30.674 19.0228 30.7241 18.9797 30.7241C18.9281 30.7241 18.9013 32.7356 18.9013 36.5978V42.4715H17.6462H16.3912V27.1489C16.3912 11.8971 16.3919 11.8262 16.5481 11.7754C16.6344 11.7473 16.705 11.6906 16.705 11.6493C16.705 11.608 16.7579 11.5742 16.8226 11.5742C16.8873 11.5742 16.9403 11.5441 16.9403 11.5074C16.9403 11.4706 17.0374 11.3901 17.156 11.3283C17.3449 11.2301 17.6259 11.0287 17.9371 10.7684C17.9892 10.7248 18.0686 10.6892 18.1136 10.6892C18.1585 10.6892 18.196 10.662 18.1969 10.6288C18.1977 10.5956 18.3742 10.4614 18.5891 10.3305C18.8039 10.1997 18.9797 10.064 18.9797 10.0288C18.9797 9.99373 19.0297 9.965 19.0908 9.965C19.152 9.965 19.2137 9.93741 19.2281 9.90369C19.2425 9.86998 19.4746 9.69803 19.7438 9.5215C20.0131 9.34505 20.2336 9.1735 20.234 9.14027C20.2344 9.10704 20.2725 9.07993 20.3187 9.07993C20.365 9.07993 20.452 9.03471 20.5122 8.97935C20.7717 8.74054 20.8604 8.67762 20.9374 8.67762C20.9823 8.67762 21.0191 8.64141 21.0191 8.59716C21.0191 8.5529 21.0654 8.5167 21.122 8.5167C21.1786 8.5167 21.2933 8.45152 21.3769 8.37187C21.4606 8.29221 21.6436 8.15768 21.7839 8.07287C21.9241 7.98814 22.0388 7.89038 22.0388 7.85562C22.0388 7.82094 22.0749 7.79254 22.1189 7.79254C22.2261 7.79254 22.83 7.38846 22.9893 7.21032C23.0591 7.13228 23.1561 7.06839 23.205 7.06839C23.2538 7.06839 23.2939 7.03886 23.2939 7.00281C23.2939 6.96676 23.4085 6.87649 23.5488 6.80214C23.9223 6.60421 24.0995 6.48223 24.2432 6.32412C24.3136 6.24663 24.3939 6.18331 24.4216 6.18331C24.4978 6.18331 25.2902 5.60439 25.3202 5.52683C25.3346 5.48957 25.392 5.45916 25.4479 5.45916C25.5037 5.45916 25.5933 5.40485 25.647 5.33846C25.7008 5.27208 25.8596 5.21777 26 5.21777C26.1404 5.21777 26.2992 5.27208 26.353 5.33846ZM25.098 8.83581C25.0332 8.88022 24.8853 8.91707 24.7692 8.9178C24.6531 8.91844 24.5363 8.95521 24.5097 8.99947C24.483 9.04372 24.3927 9.07993 24.3089 9.07993C24.2252 9.07993 24.1567 9.11613 24.1567 9.16039C24.1567 9.20464 24.1066 9.24085 24.0454 9.24085C23.9054 9.24085 23.4519 9.50187 23.4512 9.58281C23.451 9.61604 23.4157 9.64316 23.3729 9.64316C23.1875 9.64316 22.1957 10.6605 22.1957 10.8507C22.1957 10.8946 22.1604 10.9305 22.1173 10.9305C22.0741 10.9305 22.0388 11.003 22.0388 11.0915C22.0388 11.18 22.0122 11.2524 21.9795 11.2524C21.9139 11.2524 21.7931 11.5124 21.6102 12.047C21.4394 12.5464 21.4424 14.4177 21.6147 14.8917C21.9245 15.7434 22.2008 16.1833 22.8398 16.8421C23.1201 17.1311 23.3742 17.3675 23.4043 17.3675C23.4344 17.3675 23.5889 17.458 23.7476 17.5686C23.9064 17.6793 24.0986 17.7698 24.1749 17.7698C24.2511 17.7698 24.3136 17.806 24.3136 17.8502C24.3136 17.8945 24.4342 17.9307 24.5816 17.9307C24.729 17.9307 24.8637 17.9741 24.8809 18.0273C24.9254 18.1641 27.0746 18.1641 27.1191 18.0273C27.1363 17.9741 27.271 17.9307 27.4184 17.9307C27.5658 17.9307 27.6864 17.8945 27.6864 17.8502C27.6864 17.806 27.7489 17.7698 27.8251 17.7698C27.9014 17.7698 28.0936 17.6793 28.2524 17.5686C28.4111 17.458 28.5656 17.3675 28.5957 17.3675C28.6258 17.3675 28.8799 17.1311 29.1602 16.8421C29.7992 16.1833 30.0755 15.7434 30.3853 14.8917C30.5576 14.4177 30.5606 12.5464 30.3898 12.047C30.2069 11.5124 30.0861 11.2524 30.0205 11.2524C29.9878 11.2524 29.9612 11.18 29.9612 11.0915C29.9612 11.003 29.9259 10.9305 29.8827 10.9305C29.8396 10.9305 29.8043 10.8946 29.8043 10.8507C29.8043 10.6605 28.8125 9.64316 28.6271 9.64316C28.5843 9.64316 28.549 9.61604 28.5488 9.58281C28.5481 9.50187 28.0946 9.24085 27.9546 9.24085C27.8934 9.24085 27.8433 9.20464 27.8433 9.16039C27.8433 9.11613 27.7748 9.07993 27.6911 9.07993C27.6073 9.07993 27.5194 9.04774 27.4957 9.00832C27.391 8.83468 25.3173 8.68542 25.098 8.83581ZM27.1962 10.5769C27.3795 10.6596 27.5296 10.7548 27.5296 10.7886C27.5296 10.8224 27.5737 10.8503 27.6276 10.8506C27.8369 10.8515 28.482 11.5915 28.7 12.0806C29.0721 12.9155 29.2265 13.8169 29.0199 13.9479C28.9768 13.9752 28.9415 14.1019 28.9415 14.2295C28.9415 14.357 28.9089 14.482 28.8691 14.5072C28.8292 14.5325 28.7735 14.6614 28.7451 14.7936C28.7168 14.9259 28.6612 15.0341 28.6215 15.0341C28.5817 15.0341 28.5493 15.0701 28.5493 15.1139C28.5493 15.2824 27.9398 15.922 27.6169 16.0923C27.5042 16.1519 27.3943 16.2187 27.3727 16.241C27.3001 16.316 26.9431 16.4698 26.706 16.5283C26.0622 16.6872 24.9044 16.5271 24.6273 16.241C24.6057 16.2187 24.4959 16.1519 24.3831 16.0923C24.0602 15.922 23.4507 15.2824 23.4507 15.1139C23.4507 15.0701 23.4183 15.0341 23.3785 15.0341C23.3388 15.0341 23.2832 14.9259 23.2549 14.7936C23.2265 14.6614 23.1708 14.5325 23.1309 14.5072C23.0911 14.482 23.0585 14.357 23.0585 14.2295C23.0585 14.1019 23.0232 13.9752 22.9801 13.9479C22.7835 13.8232 22.9257 12.9271 23.2644 12.1554C23.3669 11.9218 23.4507 11.7101 23.4507 11.6849C23.4507 11.5978 24.2746 10.8529 24.3724 10.8515C24.4264 10.8507 24.4704 10.8227 24.4704 10.7893C24.4704 10.7177 24.8673 10.5291 25.21 10.4379C25.6259 10.3271 26.8286 10.4113 27.1962 10.5769ZM25.7647 11.0239C25.6784 11.0725 25.5284 11.1965 25.4313 11.2995C25.2649 11.476 25.2548 11.5531 25.2548 12.6418C25.2548 13.6815 25.2704 13.8139 25.4101 13.9677C25.6084 14.1861 26.0467 14.2525 27.0573 14.2172C27.8211 14.1905 27.8657 14.1791 28.0463 13.9635C28.3131 13.6452 28.2996 13.2508 28.0113 12.9414C27.8064 12.7214 27.7424 12.7007 27.2662 12.7007H26.7452V12.0981C26.7452 11.4449 26.6607 11.2619 26.2589 11.0449C26.0082 10.9096 25.9703 10.908 25.7647 11.0239ZM14.8224 20.3445V22.9998H8.39042C2.84242 22.9998 1.95841 22.9838 1.95841 22.8838C1.95841 22.82 1.9937 22.7455 2.03685 22.7182C2.07999 22.6908 2.11529 22.5801 2.11529 22.472C2.11529 22.364 2.15058 22.2756 2.19372 22.2756C2.23687 22.2756 2.27216 22.2208 2.27216 22.1538C2.27216 22.0869 2.30385 21.9691 2.34252 21.8923C2.38127 21.8155 2.47375 21.5897 2.54803 21.3905C2.75833 20.8269 2.83402 20.6373 2.90885 20.4865C2.94698 20.4096 2.97812 20.2919 2.97812 20.225C2.97812 20.158 3.00463 20.1032 3.03695 20.1032C3.06934 20.1032 3.16409 19.8839 3.24755 19.616C3.33101 19.3479 3.42812 19.1105 3.46326 19.0882C3.4984 19.0659 3.52719 18.9593 3.52719 18.8513C3.52719 18.7432 3.56249 18.6549 3.60563 18.6549C3.64877 18.6549 3.68407 18.6001 3.68407 18.533C3.68407 18.4661 3.7156 18.3484 3.75404 18.2715C3.79255 18.1947 3.86244 18.0322 3.90927 17.9106L3.99445 17.6893H9.40848H14.8224V20.3445ZM48.0765 17.9106C48.132 18.0322 48.2085 18.1947 48.2467 18.2715C48.2848 18.3484 48.3159 18.4661 48.3159 18.533C48.3159 18.6001 48.3512 18.6549 48.3944 18.6549C48.4375 18.6549 48.4728 18.7432 48.4728 18.8513C48.4728 18.9593 48.5016 19.0659 48.5367 19.0882C48.5719 19.1105 48.669 19.3479 48.7524 19.616C48.8359 19.8839 48.9307 20.1032 48.9631 20.1032C48.9954 20.1032 49.0219 20.158 49.0219 20.225C49.0219 20.2919 49.053 20.4096 49.0911 20.4865C49.166 20.6373 49.2417 20.8269 49.452 21.3905C49.5262 21.5897 49.6187 21.8155 49.6575 21.8923C49.6962 21.9691 49.7278 22.0869 49.7278 22.1538C49.7278 22.2208 49.7631 22.2756 49.8063 22.2756C49.8494 22.2756 49.8847 22.364 49.8847 22.472C49.8847 22.5801 49.92 22.6908 49.9632 22.7182C50.0063 22.7455 50.0416 22.82 50.0416 22.8838C50.0416 22.9838 49.1576 22.9998 43.6096 22.9998H37.1776V20.3445V17.6893H42.5766H47.9757L48.0765 17.9106ZM20.9832 20.6108C20.7533 20.7543 20.6269 20.8861 20.6269 20.9825C20.6269 21.0299 20.5916 21.0687 20.5485 21.0687C20.4238 21.0687 20.4429 27.2374 20.5681 27.3922C20.9513 27.8656 20.4748 27.8275 26.0022 27.8275H31.0341L31.282 27.548L31.53 27.2685V24.1686C31.53 22.1557 31.5024 21.0687 31.4515 21.0687C31.4084 21.0687 31.3731 21.0299 31.3731 20.9825C31.3731 20.8811 31.2389 20.7463 30.9985 20.606C30.7555 20.4643 21.2107 20.4688 20.9832 20.6108ZM25.2548 24.2067V26.2987H23.6468H22.0388V24.2067V22.1147H23.6468H25.2548V24.2067ZM29.9612 24.2067V26.2987H28.3532H26.7452V24.2067V22.1147H28.3532H29.9612V24.2067ZM14.8224 33.5402V42.4715H9.52778H4.23314V33.5402V24.609H9.52778H14.8224V33.5402ZM47.7669 33.5402V42.4715H42.4722H37.1776V33.5402V24.609H42.4722H47.7669V33.5402ZM7.05695 26.5401C7.05695 26.5843 6.9993 26.6205 6.92886 26.6205C6.85842 26.6205 6.73488 26.6985 6.65432 26.7938C6.51753 26.9556 6.50788 27.1476 6.50788 29.7128C6.50788 32.7194 6.48176 32.5434 6.96714 32.8098C7.20489 32.9404 11.9016 32.9278 12.1786 32.796C12.6145 32.5885 12.6365 32.424 12.6105 29.5612C12.5846 26.6896 12.6149 26.866 12.0938 26.5602C11.876 26.4324 7.05695 26.4132 7.05695 26.5401ZM39.888 26.5649C39.385 26.8809 39.4154 26.6982 39.3895 29.5612C39.3635 32.424 39.3855 32.5885 39.8214 32.796C40.0984 32.9278 44.7951 32.9404 45.0329 32.8098C45.5182 32.5434 45.4921 32.7194 45.4921 29.7128C45.4921 27.1476 45.4825 26.9556 45.3457 26.7938C45.2651 26.6985 45.1416 26.6205 45.0711 26.6205C45.0007 26.6205 44.9431 26.5843 44.9431 26.5401C44.9431 26.4174 40.0848 26.4413 39.888 26.5649ZM11.1358 29.6781V31.2873H9.567H7.99822V29.7318C7.99822 28.8761 8.02175 28.152 8.05054 28.1225C8.07925 28.093 8.7852 28.0689 9.61932 28.0689H11.1358V29.6781ZM43.9838 29.6982L44.0051 31.2873H42.4346H40.8642V29.6764V28.0655L42.4134 28.0873L43.9626 28.1091L43.9838 29.6982ZM25.2548 37.1622V42.4738L22.882 42.4526L20.5093 42.4312L20.4891 37.1409L20.4689 31.8505H22.8619H25.2548V37.1622ZM31.5109 37.1409L31.4907 42.4312L29.118 42.4526L26.7452 42.4738V37.1622V31.8505H29.1381H31.5311L31.5109 37.1409ZM6.81363 34.3681L6.5471 34.5524L6.52647 37.3478L6.50584 40.1433L6.69943 40.3418L6.89293 40.5404H9.51986H12.1467L12.3668 40.3463L12.5869 40.1522L12.6097 37.6143C12.6222 36.2183 12.6024 34.9569 12.5656 34.8111C12.5242 34.6473 12.3987 34.4769 12.2371 34.365C11.9796 34.1868 11.9363 34.1839 9.52778 34.1839C7.10692 34.1839 7.07727 34.1859 6.81363 34.3681ZM39.7629 34.365C39.6013 34.4769 39.4758 34.6473 39.4344 34.8111C39.3976 34.9569 39.3778 36.2183 39.3903 37.6143L39.4131 40.1522L39.6332 40.3463L39.8533 40.5404H42.4801H45.1071L45.3006 40.3418L45.4942 40.1433L45.4735 37.3478L45.4529 34.5524L45.1864 34.3681C44.9227 34.1859 44.8931 34.1839 42.4722 34.1839C40.0637 34.1839 40.0204 34.1868 39.7629 34.365ZM11.1358 37.3606C11.1358 38.9193 11.1348 38.9283 10.9593 38.9727C10.8622 38.9971 10.1651 39.007 9.41012 38.9943L8.03744 38.9714L8.01618 37.3823L7.99493 35.7932H9.56536H11.1358V37.3606ZM43.9838 37.3823L43.9626 38.9714L42.5899 38.9943C41.8349 39.007 41.1377 38.9971 41.0407 38.9727C40.8652 38.9283 40.8642 38.9193 40.8642 37.3606V35.7932H42.4346H44.0051L43.9838 37.3823Z" fill="#DD6799"/>
<path fill-rule="evenodd" clip-rule="evenodd" d="M25.6089 0.0469105C25.5232 0.0691178 25.3955 0.155453 25.3252 0.238731C25.2548 0.321928 25.1602 0.390079 25.1149 0.390079C25.0696 0.390079 25.0208 0.417677 25.0064 0.45139C24.9921 0.485104 24.76 0.65705 24.4908 0.833583C24.2215 1.01003 24.0009 1.18166 24.0005 1.21481C24.0001 1.24796 23.9553 1.27516 23.901 1.27516C23.8466 1.27516 23.7069 1.36568 23.5906 1.47631C23.4743 1.58694 23.3556 1.67746 23.3269 1.67746C23.2525 1.67746 22.2403 2.42037 22.2088 2.49809C22.1944 2.53358 22.1448 2.56254 22.0985 2.56254C22.0522 2.56254 21.8987 2.65306 21.7573 2.7637C21.6159 2.87433 21.4756 2.96485 21.4454 2.96485C21.4152 2.96485 21.3329 3.02817 21.2625 3.10566C21.1188 3.26376 20.9416 3.38574 20.5681 3.58368C20.4278 3.65802 20.3132 3.7483 20.3132 3.78435C20.3132 3.8204 20.268 3.84993 20.2128 3.84993C20.1576 3.84993 20.0616 3.92234 19.9994 4.01085C19.9372 4.09936 19.8565 4.17177 19.82 4.17177C19.7835 4.17177 19.638 4.26229 19.4965 4.37293C19.3551 4.48356 19.1986 4.57408 19.1488 4.57408C19.0989 4.57408 19.0581 4.60248 19.0581 4.63716C19.0581 4.67192 18.9435 4.76968 18.8032 4.85441C18.663 4.93921 18.4859 5.06795 18.4097 5.14053C18.3334 5.21311 18.1746 5.32358 18.0567 5.38594C17.9388 5.44837 17.7957 5.54469 17.7387 5.59996C17.6817 5.65524 17.6075 5.70054 17.5738 5.70054C17.5402 5.70054 17.4018 5.80917 17.2664 5.94193C17.131 6.07469 16.9669 6.18331 16.9018 6.18331C16.8367 6.18331 16.7834 6.21381 16.7834 6.25114C16.7834 6.28839 16.6599 6.38712 16.5089 6.47056C16.3579 6.554 16.2343 6.65015 16.2343 6.68435C16.2343 6.71854 16.1975 6.74654 16.1526 6.74654C16.1077 6.74654 15.9951 6.81896 15.9025 6.90746C15.8099 6.99597 15.6878 7.06839 15.6312 7.06839C15.5747 7.06839 15.5284 7.10218 15.5284 7.14346C15.5284 7.18474 15.4666 7.23881 15.3911 7.26375C15.3156 7.28861 15.1303 7.41767 14.9793 7.55059C14.8283 7.68344 14.6607 7.79222 14.6067 7.79238C14.5528 7.79246 14.5087 7.82054 14.5087 7.85474C14.5087 7.88894 14.3851 7.98509 14.2341 8.06853C14.0831 8.15196 13.9596 8.25069 13.9596 8.28794C13.9596 8.32528 13.9096 8.35577 13.8484 8.35577C13.7873 8.35577 13.7256 8.38595 13.7112 8.4228C13.6968 8.45965 13.4733 8.62741 13.2144 8.79558C12.9556 8.96374 12.7261 9.12539 12.7046 9.15484C12.683 9.18429 12.5507 9.29058 12.4104 9.39099L12.1555 9.57364V12.0082V14.4428L12.3577 14.6379C12.5493 14.8227 12.6191 14.8343 13.6912 14.859L14.8224 14.8851V15.4826V16.0801L9.07676 16.0813C2.97372 16.0825 3.02722 16.0792 2.86148 16.4637C2.81888 16.5625 2.75707 16.6433 2.72421 16.6433C2.69126 16.6433 2.66436 16.7338 2.66436 16.8445C2.66436 16.9551 2.62906 17.0456 2.58592 17.0456C2.54278 17.0456 2.50748 17.1159 2.50748 17.2018C2.50748 17.2877 2.47218 17.3803 2.42904 17.4077C2.3859 17.4351 2.35037 17.5187 2.35013 17.5935C2.34982 17.6683 2.29687 17.8333 2.23247 17.96C2.168 18.0868 2.11529 18.2587 2.11529 18.3422C2.11529 18.4256 2.07999 18.4939 2.03685 18.4939C1.9937 18.4939 1.95841 18.5663 1.95841 18.6549C1.95841 18.7434 1.92311 18.8158 1.87997 18.8158C1.83683 18.8158 1.80153 18.9041 1.80153 19.0122C1.80153 19.1202 1.77274 19.2269 1.7376 19.2491C1.70246 19.2714 1.60535 19.5089 1.52189 19.7769C1.43843 20.0448 1.34368 20.2641 1.31128 20.2641C1.27897 20.2641 1.25245 20.3546 1.25245 20.4652C1.25245 20.5759 1.21716 20.6664 1.17402 20.6664C1.13087 20.6664 1.09558 20.7212 1.09558 20.7882C1.09558 20.8552 1.06389 20.9729 1.02522 21.0497C0.986468 21.1266 0.894616 21.3523 0.82104 21.5515C0.747464 21.7506 0.655612 21.9764 0.616863 22.0532C0.578192 22.1301 0.546503 22.2478 0.546503 22.3147C0.546503 22.3818 0.511205 22.4365 0.468064 22.4365C0.424922 22.4365 0.389624 22.5029 0.389624 22.584C0.389624 22.6652 0.366798 22.755 0.338874 22.7837C0.247963 22.8768 0.00260555 23.6783 1.70614e-05 23.8905C-0.00147328 24.0068 0.0948499 24.2092 0.220117 24.3531L0.442806 24.609H1.55358H2.66436V34.023C2.66436 40.2453 2.69095 43.437 2.7428 43.437C2.78594 43.437 2.82124 43.4962 2.82124 43.5684C2.82124 43.6407 2.89724 43.7674 2.99012 43.85C3.15413 43.996 3.81271 44.0002 26 44.0002C48.1873 44.0002 48.8459 43.996 49.0099 43.85C49.1028 43.7674 49.1788 43.6407 49.1788 43.5684C49.1788 43.4962 49.2141 43.437 49.2572 43.437C49.3091 43.437 49.3356 40.2453 49.3356 34.023V24.609H50.4464H51.5572L51.7799 24.3531C51.9052 24.2092 52.0015 24.0068 52 23.8905C51.9974 23.6783 51.752 22.8768 51.6611 22.7837C51.6332 22.755 51.6104 22.6652 51.6104 22.584C51.6104 22.5029 51.5751 22.4365 51.5319 22.4365C51.4888 22.4365 51.4535 22.3818 51.4535 22.3147C51.4535 22.2478 51.4218 22.1301 51.3831 22.0532C51.3444 21.9764 51.2525 21.7506 51.179 21.5515C51.1054 21.3523 51.0135 21.1266 50.9748 21.0497C50.9361 20.9729 50.9044 20.8552 50.9044 20.7882C50.9044 20.7212 50.8691 20.6664 50.826 20.6664C50.7828 20.6664 50.7475 20.5759 50.7475 20.4652C50.7475 20.3546 50.721 20.2641 50.6887 20.2641C50.6563 20.2641 50.5616 20.0448 50.4781 19.7769C50.3946 19.5089 50.2975 19.2714 50.2624 19.2491C50.2273 19.2269 50.1985 19.1202 50.1985 19.0122C50.1985 18.9041 50.1632 18.8158 50.12 18.8158C50.0769 18.8158 50.0416 18.7434 50.0416 18.6549C50.0416 18.5663 50.0063 18.4939 49.9632 18.4939C49.92 18.4939 49.8847 18.4256 49.8847 18.3422C49.8847 18.2587 49.832 18.0868 49.7675 17.96C49.7031 17.8333 49.6502 17.6683 49.6499 17.5935C49.6496 17.5187 49.6141 17.4351 49.571 17.4077C49.5278 17.3803 49.4925 17.2877 49.4925 17.2018C49.4925 17.1159 49.4572 17.0456 49.4141 17.0456C49.3709 17.0456 49.3356 16.9551 49.3356 16.8445C49.3356 16.7338 49.3003 16.6433 49.2572 16.6433C49.2141 16.6433 49.1788 16.575 49.1788 16.4916C49.1788 16.3981 49.0763 16.2899 48.912 16.2099C48.674 16.0941 48.0256 16.0801 42.9114 16.0801H37.1776V15.4826V14.8851L38.3088 14.859C39.3809 14.8343 39.4507 14.8227 39.6423 14.6379L39.8445 14.4428V12.0082V9.57364L39.5896 9.38979C39.4493 9.28865 39.2938 9.16538 39.2438 9.11581C39.1938 9.06625 38.9643 8.90275 38.734 8.75253C38.5035 8.60231 38.3032 8.4516 38.2888 8.41757C38.2744 8.38361 38.2127 8.35577 38.1516 8.35577C38.0904 8.35577 38.0404 8.32528 38.0404 8.28794C38.0404 8.25069 37.9169 8.15196 37.7659 8.06853C37.6149 7.98509 37.4913 7.88894 37.4913 7.85474C37.4913 7.82054 37.4473 7.79246 37.3933 7.79238C37.3394 7.79222 37.1717 7.68344 37.0207 7.55059C36.8697 7.41767 36.6844 7.28861 36.6089 7.26375C36.5334 7.23881 36.4716 7.18474 36.4716 7.14346C36.4716 7.10218 36.4253 7.06839 36.3688 7.06839C36.3122 7.06839 36.1901 6.99597 36.0975 6.90746C36.0049 6.81896 35.8924 6.74654 35.8474 6.74654C35.8025 6.74654 35.7657 6.71854 35.7657 6.68435C35.7657 6.65015 35.6421 6.554 35.4911 6.47056C35.3401 6.38712 35.2166 6.28839 35.2166 6.25114C35.2166 6.21381 35.1633 6.18331 35.0982 6.18331C35.0331 6.18331 34.8701 6.07581 34.7361 5.94434C34.602 5.81295 34.4259 5.68381 34.3447 5.65733C34.2634 5.63086 34.1969 5.5755 34.1969 5.53423C34.1969 5.49295 34.1439 5.45916 34.0792 5.45916C34.0145 5.45916 33.9616 5.42295 33.9616 5.3787C33.9616 5.33444 33.9153 5.29823 33.8587 5.29823C33.8021 5.29823 33.6874 5.23306 33.6038 5.1534C33.5201 5.07375 33.337 4.93921 33.1968 4.85441C33.0565 4.76968 32.9419 4.67192 32.9419 4.63716C32.9419 4.60248 32.9011 4.57408 32.8512 4.57408C32.8014 4.57408 32.6449 4.48356 32.5035 4.37293C32.362 4.26229 32.2165 4.17177 32.18 4.17177C32.1435 4.17177 32.0628 4.09936 32.0006 4.01085C31.9384 3.92234 31.8424 3.84993 31.7872 3.84993C31.732 3.84993 31.6868 3.8204 31.6868 3.78435C31.6868 3.7483 31.5722 3.65802 31.4319 3.58368C31.0584 3.38574 30.8812 3.26376 30.7375 3.10566C30.6671 3.02817 30.5848 2.96485 30.5546 2.96485C30.5245 2.96485 30.3841 2.87433 30.2427 2.7637C30.1013 2.65306 29.9478 2.56254 29.9015 2.56254C29.8552 2.56254 29.8056 2.53358 29.7912 2.49809C29.7597 2.42037 28.7475 1.67746 28.6731 1.67746C28.6444 1.67746 28.5257 1.58694 28.4094 1.47631C28.2931 1.36568 28.1534 1.27516 28.099 1.27516C28.0447 1.27516 27.9999 1.24796 27.9995 1.21481C27.9991 1.18166 27.7785 1.01003 27.5092 0.833583C27.24 0.65705 27.0079 0.485104 26.9936 0.45139C26.9792 0.417677 26.9174 0.390079 26.8563 0.390079C26.7951 0.390079 26.7452 0.357975 26.7452 0.31879C26.7452 0.279605 26.6251 0.189086 26.4784 0.117636C26.217 -0.00957374 25.9196 -0.0337925 25.6089 0.0469105ZM26.2241 1.87862C26.2888 1.945 26.3665 1.99931 26.3968 1.99931C26.4271 1.99931 26.6238 2.12604 26.834 2.28093C27.0442 2.43581 27.2484 2.56254 27.2879 2.56254C27.3273 2.56254 27.3714 2.59296 27.3858 2.63021C27.4208 2.72081 28.2145 3.2867 28.3066 3.2867C28.3466 3.2867 28.3911 3.31695 28.4055 3.35396C28.4198 3.39089 28.6258 3.55375 28.863 3.71572C29.1003 3.87777 29.3371 4.04665 29.3892 4.09107C29.4413 4.1354 29.5047 4.17177 29.53 4.17177C29.5553 4.17177 29.6603 4.25819 29.7633 4.36375C29.8662 4.46932 30.0587 4.6049 30.1911 4.665C30.3235 4.72511 30.4318 4.80163 30.4318 4.8351C30.4318 4.86857 30.4848 4.89593 30.5495 4.89593C30.6142 4.89593 30.6671 4.92642 30.6671 4.96376C30.6671 5.00101 30.7907 5.09974 30.9417 5.18317C31.0927 5.26661 31.2162 5.36276 31.2162 5.39696C31.2162 5.43116 31.2691 5.45916 31.3339 5.45916C31.3986 5.45916 31.4515 5.49536 31.4515 5.53962C31.4515 5.58387 31.5045 5.62008 31.5692 5.62008C31.6339 5.62008 31.6868 5.65058 31.6868 5.68791C31.6868 5.72516 31.8104 5.82389 31.9614 5.90733C32.1124 5.99077 32.2359 6.08692 32.2359 6.12111C32.2359 6.15531 32.286 6.18331 32.3471 6.18331C32.4082 6.18331 32.4699 6.21051 32.4843 6.24366C32.4987 6.27681 32.7222 6.44883 32.9811 6.62585C33.2399 6.80287 33.4635 6.97489 33.4778 7.00804C33.4923 7.04119 33.554 7.06839 33.6151 7.06839C33.6762 7.06839 33.7263 7.09711 33.7263 7.13219C33.7263 7.16736 33.902 7.30309 34.1169 7.43393C34.3317 7.56476 34.5082 7.69905 34.5091 7.7322C34.5099 7.76535 34.5636 7.79254 34.6283 7.79254C34.693 7.79254 34.746 7.82054 34.746 7.85474C34.746 7.88894 34.8695 7.98509 35.0205 8.06853C35.1715 8.15196 35.295 8.25069 35.295 8.28794C35.295 8.32528 35.3413 8.35577 35.3979 8.35577C35.4545 8.35577 35.5766 8.42819 35.6692 8.5167C35.7618 8.6052 35.8582 8.67762 35.8833 8.67762C35.9086 8.67762 35.9819 8.72292 36.0463 8.7782C36.1106 8.83355 36.2062 8.91498 36.2587 8.95924C36.3111 9.00349 36.4504 9.09071 36.5683 9.15315C36.6862 9.21551 36.8451 9.32598 36.9213 9.39855C36.9976 9.47113 37.1746 9.59987 37.3148 9.68468C37.4551 9.7694 37.5698 9.86716 37.5698 9.90192C37.5698 9.9366 37.6161 9.965 37.6726 9.965C37.7292 9.965 37.8513 10.0374 37.9439 10.1259C38.0365 10.2144 38.1339 10.2869 38.1604 10.2869C38.1869 10.2869 38.2589 10.3386 38.3205 10.4018C38.4089 10.4924 38.4326 10.8072 38.4326 11.8904V13.2639H37.8051H37.1776V12.2297C37.1776 11.0852 37.143 10.9954 36.5674 10.6467C36.4285 10.5624 36.3147 10.4652 36.3147 10.4304C36.3147 10.3957 36.2769 10.3673 36.2307 10.3673C36.1845 10.3673 36.0975 10.3221 36.0373 10.2667C35.8419 10.087 35.7301 10.0072 35.5121 9.89178C35.3942 9.82943 35.2353 9.71895 35.1591 9.64638C35.0829 9.5738 34.9058 9.44506 34.7656 9.36026C34.6253 9.27553 34.5106 9.17777 34.5106 9.14301C34.5106 9.10833 34.4478 9.07993 34.3711 9.07993C34.2943 9.07993 34.1807 9.00751 34.1185 8.919C34.0562 8.8305 33.9687 8.75808 33.9238 8.75808C33.879 8.75808 33.7471 8.66756 33.6308 8.55693C33.5145 8.44629 33.3958 8.35577 33.3671 8.35577C33.2927 8.35577 32.2805 7.61287 32.249 7.53515C32.2346 7.49966 32.185 7.4707 32.1387 7.4707C32.0924 7.4707 31.9389 7.38018 31.7975 7.26954C31.6561 7.15891 31.5057 7.06839 31.4633 7.06839C31.4209 7.06839 31.3744 7.03814 31.36 7.00112C31.3456 6.96419 31.1397 6.80134 30.9024 6.63937C30.6652 6.47732 30.4284 6.30843 30.3763 6.26401C30.3242 6.21968 30.2477 6.18331 30.2064 6.18331C30.165 6.18331 30.1194 6.15555 30.105 6.1216C30.0645 6.02601 29.2836 5.45916 29.1924 5.45916C29.1478 5.45916 29.0997 5.43196 29.0852 5.39881C29.043 5.30113 28.4889 4.89593 28.3976 4.89593C28.3516 4.89593 28.314 4.85972 28.314 4.81546C28.314 4.77121 28.261 4.735 28.1963 4.735C28.1316 4.735 28.0786 4.6988 28.0786 4.65454C28.0786 4.61029 28.0418 4.57408 27.9967 4.57408C27.9517 4.57408 27.8197 4.48356 27.7035 4.37293C27.5871 4.26229 27.4474 4.17177 27.3931 4.17177C27.3387 4.17177 27.2942 4.13556 27.2942 4.09131C27.2942 4.04706 27.2413 4.01085 27.1766 4.01085C27.1119 4.01085 27.0589 3.97464 27.0589 3.93039C27.0589 3.88613 27.0221 3.84993 26.9772 3.84993C26.9323 3.84993 26.8176 3.77502 26.7223 3.68345C26.627 3.59197 26.452 3.49686 26.3334 3.47224C26.2148 3.44762 26.1177 3.3958 26.1177 3.3571C26.1177 3.3184 26.0647 3.2867 26 3.2867C25.9353 3.2867 25.8823 3.3229 25.8823 3.36716C25.8823 3.41141 25.8144 3.44762 25.7315 3.44762C25.6485 3.44762 25.4188 3.57435 25.2209 3.72923C25.0231 3.88412 24.8263 4.01085 24.7835 4.01085C24.7407 4.01085 24.7058 4.03885 24.7058 4.07305C24.7058 4.10724 24.5822 4.20339 24.4312 4.28683C24.2802 4.37027 24.1567 4.469 24.1567 4.50625C24.1567 4.54358 24.1037 4.57408 24.039 4.57408C23.9743 4.57408 23.9214 4.61029 23.9214 4.65454C23.9214 4.6988 23.8684 4.735 23.8037 4.735C23.739 4.735 23.686 4.77121 23.686 4.81546C23.686 4.85972 23.6484 4.89593 23.6024 4.89593C23.5111 4.89593 22.957 5.30113 22.9148 5.39881C22.9003 5.43196 22.8522 5.45916 22.8076 5.45916C22.7164 5.45916 21.9355 6.02601 21.895 6.1216C21.8806 6.15555 21.835 6.18331 21.7936 6.18331C21.7523 6.18331 21.6758 6.21968 21.6237 6.26401C21.5716 6.30843 21.3348 6.47732 21.0976 6.63937C20.8603 6.80134 20.6544 6.96419 20.64 7.00112C20.6256 7.03814 20.5792 7.06839 20.5367 7.06839C20.4943 7.06839 20.3439 7.15891 20.2025 7.26954C20.0611 7.38018 19.9076 7.4707 19.8613 7.4707C19.815 7.4707 19.7654 7.49966 19.751 7.53515C19.7195 7.61287 18.7073 8.35577 18.6329 8.35577C18.6042 8.35577 18.4855 8.44629 18.3692 8.55693C18.2529 8.66756 18.121 8.75808 18.0762 8.75808C18.0313 8.75808 17.9438 8.8305 17.8816 8.919C17.8193 9.00751 17.7057 9.07993 17.6289 9.07993C17.5522 9.07993 17.4894 9.10833 17.4894 9.14301C17.4894 9.17777 17.3747 9.27553 17.2344 9.36026C17.0942 9.44506 16.9171 9.5738 16.8409 9.64638C16.7647 9.71895 16.6058 9.82943 16.4879 9.89178C16.2699 10.0072 16.1581 10.087 15.9627 10.2667C15.9025 10.3221 15.8155 10.3673 15.7693 10.3673C15.7231 10.3673 15.6853 10.3974 15.6853 10.4342C15.6853 10.4709 15.5881 10.5517 15.4695 10.6135C15.3509 10.6754 15.1567 10.8329 15.0381 10.9635C14.826 11.1969 14.8224 11.2184 14.8224 12.2324V13.2639H14.1949H13.5674V11.8904C13.5674 10.8072 13.5911 10.4924 13.6795 10.4018C13.7411 10.3386 13.8131 10.2869 13.8396 10.2869C13.8661 10.2869 13.9635 10.2144 14.0561 10.1259C14.1487 10.0374 14.2708 9.965 14.3274 9.965C14.384 9.965 14.4302 9.9366 14.4302 9.90192C14.4302 9.86716 14.5449 9.7694 14.6852 9.68468C14.8254 9.59987 15.0085 9.46534 15.0922 9.38568C15.1758 9.30602 15.2905 9.24085 15.3471 9.24085C15.4037 9.24085 15.4499 9.20464 15.4499 9.16039C15.4499 9.11613 15.4877 9.07993 15.5339 9.07993C15.5802 9.07993 15.6672 9.03471 15.7274 8.97935C15.9869 8.74054 16.0756 8.67762 16.1526 8.67762C16.1975 8.67762 16.2346 8.6505 16.235 8.61727C16.2354 8.58404 16.456 8.4125 16.7253 8.23605C16.9945 8.05951 17.2266 7.88757 17.2409 7.85385C17.2554 7.82014 17.3171 7.79254 17.3782 7.79254C17.4394 7.79254 17.4901 7.76535 17.4909 7.7322C17.4918 7.69905 17.6683 7.56476 17.8831 7.43393C18.098 7.30309 18.2737 7.16736 18.2737 7.13219C18.2737 7.09711 18.3237 7.06839 18.3849 7.06839C18.446 7.06839 18.5077 7.0391 18.5222 7.00338C18.5365 6.96757 18.7601 6.79635 19.0189 6.62279C19.2778 6.44924 19.5013 6.2793 19.5157 6.24527C19.5301 6.21115 19.5918 6.18331 19.6529 6.18331C19.7141 6.18331 19.7641 6.15531 19.7641 6.12111C19.7641 6.08692 19.8876 5.99077 20.0386 5.90733C20.1896 5.82389 20.3132 5.72516 20.3132 5.68791C20.3132 5.65058 20.3661 5.62008 20.4308 5.62008C20.4955 5.62008 20.5485 5.58387 20.5485 5.53962C20.5485 5.49536 20.6014 5.45916 20.6661 5.45916C20.7309 5.45916 20.7838 5.43116 20.7838 5.39696C20.7838 5.36276 20.9073 5.26661 21.0583 5.18317C21.2093 5.09974 21.3329 5.00101 21.3329 4.96376C21.3329 4.92642 21.3858 4.89593 21.4505 4.89593C21.5152 4.89593 21.5682 4.86857 21.5682 4.8351C21.5682 4.80163 21.6765 4.72511 21.8089 4.665C21.9413 4.6049 22.1338 4.46932 22.2367 4.36375C22.3397 4.25819 22.4447 4.17177 22.47 4.17177C22.4953 4.17177 22.5587 4.1354 22.6108 4.09107C22.6629 4.04665 22.8997 3.87777 23.137 3.71572C23.3743 3.55375 23.5802 3.39089 23.5945 3.35396C23.6089 3.31695 23.6534 3.2867 23.6934 3.2867C23.7855 3.2867 24.5792 2.72081 24.6142 2.63021C24.6287 2.59296 24.6699 2.56254 24.706 2.56254C24.7422 2.56254 25.0278 2.3815 25.341 2.16023C25.9582 1.72405 26.0461 1.69605 26.2241 1.87862ZM26.353 5.33846C26.4067 5.40485 26.4829 5.45916 26.5222 5.45916C26.5616 5.45916 26.6721 5.53286 26.7676 5.62298C26.9752 5.81874 27.5129 6.18331 27.5942 6.18331C27.6259 6.18331 27.7027 6.25573 27.7649 6.34423C27.8271 6.43274 27.9054 6.50516 27.9389 6.50516C27.9724 6.50516 28.1718 6.63188 28.382 6.78677C28.5922 6.94166 28.791 7.06839 28.824 7.06839C28.8569 7.06839 28.9409 7.13228 29.0107 7.21032C29.17 7.38846 29.7739 7.79254 29.8811 7.79254C29.9251 7.79254 29.9612 7.82094 29.9612 7.85562C29.9612 7.89038 30.0759 7.98814 30.2161 8.07287C30.3564 8.15768 30.5394 8.29221 30.6231 8.37187C30.7067 8.45152 30.8214 8.5167 30.8781 8.5167C30.9346 8.5167 30.9809 8.5529 30.9809 8.59716C30.9809 8.64141 31.0177 8.67762 31.0626 8.67762C31.1396 8.67762 31.2283 8.74054 31.4878 8.97935C31.548 9.03471 31.6272 9.07993 31.6639 9.07993C31.7006 9.07993 31.7815 9.15234 31.8437 9.24085C31.9059 9.32936 31.9851 9.40177 32.0196 9.40177C32.1022 9.40177 32.7382 9.82693 32.7719 9.90466C32.7863 9.93789 32.8481 9.965 32.9092 9.965C32.9703 9.965 33.0203 9.99373 33.0203 10.0288C33.0203 10.064 33.1961 10.1997 33.4109 10.3305C33.6258 10.4614 33.8023 10.5956 33.8031 10.6288C33.804 10.662 33.8415 10.6892 33.8864 10.6892C33.9314 10.6892 34.0108 10.7248 34.0629 10.7684C34.4993 11.1334 34.6603 11.2524 34.718 11.2526C34.755 11.2527 34.9087 11.3615 35.0597 11.4943C35.2107 11.6273 35.3961 11.7563 35.4715 11.7812C35.6017 11.8241 35.6088 12.627 35.6088 27.1489V42.4715H34.3538H33.0987V36.5978C33.0987 32.7356 33.0719 30.7241 33.0203 30.7241C32.9772 30.7241 32.9419 30.674 32.9419 30.6126C32.9419 30.5513 32.8549 30.4427 32.7485 30.3713C32.5745 30.2543 31.9022 30.2413 26 30.2413C20.0978 30.2413 19.4255 30.2543 19.2515 30.3713C19.1451 30.4427 19.0581 30.5513 19.0581 30.6126C19.0581 30.674 19.0228 30.7241 18.9797 30.7241C18.9281 30.7241 18.9013 32.7356 18.9013 36.5978V42.4715H17.6462H16.3912V27.1489C16.3912 11.8971 16.3919 11.8262 16.5481 11.7754C16.6344 11.7473 16.705 11.6906 16.705 11.6493C16.705 11.608 16.7579 11.5742 16.8226 11.5742C16.8873 11.5742 16.9403 11.5441 16.9403 11.5074C16.9403 11.4706 17.0374 11.3901 17.156 11.3283C17.3449 11.2301 17.6259 11.0287 17.9371 10.7684C17.9892 10.7248 18.0686 10.6892 18.1136 10.6892C18.1585 10.6892 18.196 10.662 18.1969 10.6288C18.1977 10.5956 18.3742 10.4614 18.5891 10.3305C18.8039 10.1997 18.9797 10.064 18.9797 10.0288C18.9797 9.99373 19.0297 9.965 19.0908 9.965C19.152 9.965 19.2137 9.93741 19.2281 9.90369C19.2425 9.86998 19.4746 9.69803 19.7438 9.5215C20.0131 9.34505 20.2336 9.1735 20.234 9.14027C20.2344 9.10704 20.2725 9.07993 20.3187 9.07993C20.365 9.07993 20.452 9.03471 20.5122 8.97935C20.7717 8.74054 20.8604 8.67762 20.9374 8.67762C20.9823 8.67762 21.0191 8.64141 21.0191 8.59716C21.0191 8.5529 21.0654 8.5167 21.122 8.5167C21.1786 8.5167 21.2933 8.45152 21.3769 8.37187C21.4606 8.29221 21.6436 8.15768 21.7839 8.07287C21.9241 7.98814 22.0388 7.89038 22.0388 7.85562C22.0388 7.82094 22.0749 7.79254 22.1189 7.79254C22.2261 7.79254 22.83 7.38846 22.9893 7.21032C23.0591 7.13228 23.1561 7.06839 23.205 7.06839C23.2538 7.06839 23.2939 7.03886 23.2939 7.00281C23.2939 6.96676 23.4085 6.87649 23.5488 6.80214C23.9223 6.60421 24.0995 6.48223 24.2432 6.32412C24.3136 6.24663 24.3939 6.18331 24.4216 6.18331C24.4978 6.18331 25.2902 5.60439 25.3202 5.52683C25.3346 5.48957 25.392 5.45916 25.4479 5.45916C25.5037 5.45916 25.5933 5.40485 25.647 5.33846C25.7008 5.27208 25.8596 5.21777 26 5.21777C26.1404 5.21777 26.2992 5.27208 26.353 5.33846ZM25.098 8.83581C25.0332 8.88022 24.8853 8.91707 24.7692 8.9178C24.6531 8.91844 24.5363 8.95521 24.5097 8.99947C24.483 9.04372 24.3927 9.07993 24.3089 9.07993C24.2252 9.07993 24.1567 9.11613 24.1567 9.16039C24.1567 9.20464 24.1066 9.24085 24.0454 9.24085C23.9054 9.24085 23.4519 9.50187 23.4512 9.58281C23.451 9.61604 23.4157 9.64316 23.3729 9.64316C23.1875 9.64316 22.1957 10.6605 22.1957 10.8507C22.1957 10.8946 22.1604 10.9305 22.1173 10.9305C22.0741 10.9305 22.0388 11.003 22.0388 11.0915C22.0388 11.18 22.0122 11.2524 21.9795 11.2524C21.9139 11.2524 21.7931 11.5124 21.6102 12.047C21.4394 12.5464 21.4424 14.4177 21.6147 14.8917C21.9245 15.7434 22.2008 16.1833 22.8398 16.8421C23.1201 17.1311 23.3742 17.3675 23.4043 17.3675C23.4344 17.3675 23.5889 17.458 23.7476 17.5686C23.9064 17.6793 24.0986 17.7698 24.1749 17.7698C24.2511 17.7698 24.3136 17.806 24.3136 17.8502C24.3136 17.8945 24.4342 17.9307 24.5816 17.9307C24.729 17.9307 24.8637 17.9741 24.8809 18.0273C24.9254 18.1641 27.0746 18.1641 27.1191 18.0273C27.1363 17.9741 27.271 17.9307 27.4184 17.9307C27.5658 17.9307 27.6864 17.8945 27.6864 17.8502C27.6864 17.806 27.7489 17.7698 27.8251 17.7698C27.9014 17.7698 28.0936 17.6793 28.2524 17.5686C28.4111 17.458 28.5656 17.3675 28.5957 17.3675C28.6258 17.3675 28.8799 17.1311 29.1602 16.8421C29.7992 16.1833 30.0755 15.7434 30.3853 14.8917C30.5576 14.4177 30.5606 12.5464 30.3898 12.047C30.2069 11.5124 30.0861 11.2524 30.0205 11.2524C29.9878 11.2524 29.9612 11.18 29.9612 11.0915C29.9612 11.003 29.9259 10.9305 29.8827 10.9305C29.8396 10.9305 29.8043 10.8946 29.8043 10.8507C29.8043 10.6605 28.8125 9.64316 28.6271 9.64316C28.5843 9.64316 28.549 9.61604 28.5488 9.58281C28.5481 9.50187 28.0946 9.24085 27.9546 9.24085C27.8934 9.24085 27.8433 9.20464 27.8433 9.16039C27.8433 9.11613 27.7748 9.07993 27.6911 9.07993C27.6073 9.07993 27.5194 9.04774 27.4957 9.00832C27.391 8.83468 25.3173 8.68542 25.098 8.83581ZM27.1962 10.5769C27.3795 10.6596 27.5296 10.7548 27.5296 10.7886C27.5296 10.8224 27.5737 10.8503 27.6276 10.8506C27.8369 10.8515 28.482 11.5915 28.7 12.0806C29.0721 12.9155 29.2265 13.8169 29.0199 13.9479C28.9768 13.9752 28.9415 14.1019 28.9415 14.2295C28.9415 14.357 28.9089 14.482 28.8691 14.5072C28.8292 14.5325 28.7735 14.6614 28.7451 14.7936C28.7168 14.9259 28.6612 15.0341 28.6215 15.0341C28.5817 15.0341 28.5493 15.0701 28.5493 15.1139C28.5493 15.2824 27.9398 15.922 27.6169 16.0923C27.5042 16.1519 27.3943 16.2187 27.3727 16.241C27.3001 16.316 26.9431 16.4698 26.706 16.5283C26.0622 16.6872 24.9044 16.5271 24.6273 16.241C24.6057 16.2187 24.4959 16.1519 24.3831 16.0923C24.0602 15.922 23.4507 15.2824 23.4507 15.1139C23.4507 15.0701 23.4183 15.0341 23.3785 15.0341C23.3388 15.0341 23.2832 14.9259 23.2549 14.7936C23.2265 14.6614 23.1708 14.5325 23.1309 14.5072C23.0911 14.482 23.0585 14.357 23.0585 14.2295C23.0585 14.1019 23.0232 13.9752 22.9801 13.9479C22.7835 13.8232 22.9257 12.9271 23.2644 12.1554C23.3669 11.9218 23.4507 11.7101 23.4507 11.6849C23.4507 11.5978 24.2746 10.8529 24.3724 10.8515C24.4264 10.8507 24.4704 10.8227 24.4704 10.7893C24.4704 10.7177 24.8673 10.5291 25.21 10.4379C25.6259 10.3271 26.8286 10.4113 27.1962 10.5769ZM25.7647 11.0239C25.6784 11.0725 25.5284 11.1965 25.4313 11.2995C25.2649 11.476 25.2548 11.5531 25.2548 12.6418C25.2548 13.6815 25.2704 13.8139 25.4101 13.9677C25.6084 14.1861 26.0467 14.2525 27.0573 14.2172C27.8211 14.1905 27.8657 14.1791 28.0463 13.9635C28.3131 13.6452 28.2996 13.2508 28.0113 12.9414C27.8064 12.7214 27.7424 12.7007 27.2662 12.7007H26.7452V12.0981C26.7452 11.4449 26.6607 11.2619 26.2589 11.0449C26.0082 10.9096 25.9703 10.908 25.7647 11.0239ZM14.8224 20.3445V22.9998H8.39042C2.84242 22.9998 1.95841 22.9838 1.95841 22.8838C1.95841 22.82 1.9937 22.7455 2.03685 22.7182C2.07999 22.6908 2.11529 22.5801 2.11529 22.472C2.11529 22.364 2.15058 22.2756 2.19372 22.2756C2.23687 22.2756 2.27216 22.2208 2.27216 22.1538C2.27216 22.0869 2.30385 21.9691 2.34252 21.8923C2.38127 21.8155 2.47375 21.5897 2.54803 21.3905C2.75833 20.8269 2.83402 20.6373 2.90885 20.4865C2.94698 20.4096 2.97812 20.2919 2.97812 20.225C2.97812 20.158 3.00463 20.1032 3.03695 20.1032C3.06934 20.1032 3.16409 19.8839 3.24755 19.616C3.33101 19.3479 3.42812 19.1105 3.46326 19.0882C3.4984 19.0659 3.52719 18.9593 3.52719 18.8513C3.52719 18.7432 3.56249 18.6549 3.60563 18.6549C3.64877 18.6549 3.68407 18.6001 3.68407 18.533C3.68407 18.4661 3.7156 18.3484 3.75404 18.2715C3.79255 18.1947 3.86244 18.0322 3.90927 17.9106L3.99445 17.6893H9.40848H14.8224V20.3445ZM48.0765 17.9106C48.132 18.0322 48.2085 18.1947 48.2467 18.2715C48.2848 18.3484 48.3159 18.4661 48.3159 18.533C48.3159 18.6001 48.3512 18.6549 48.3944 18.6549C48.4375 18.6549 48.4728 18.7432 48.4728 18.8513C48.4728 18.9593 48.5016 19.0659 48.5367 19.0882C48.5719 19.1105 48.669 19.3479 48.7524 19.616C48.8359 19.8839 48.9307 20.1032 48.9631 20.1032C48.9954 20.1032 49.0219 20.158 49.0219 20.225C49.0219 20.2919 49.053 20.4096 49.0911 20.4865C49.166 20.6373 49.2417 20.8269 49.452 21.3905C49.5262 21.5897 49.6187 21.8155 49.6575 21.8923C49.6962 21.9691 49.7278 22.0869 49.7278 22.1538C49.7278 22.2208 49.7631 22.2756 49.8063 22.2756C49.8494 22.2756 49.8847 22.364 49.8847 22.472C49.8847 22.5801 49.92 22.6908 49.9632 22.7182C50.0063 22.7455 50.0416 22.82 50.0416 22.8838C50.0416 22.9838 49.1576 22.9998 43.6096 22.9998H37.1776V20.3445V17.6893H42.5766H47.9757L48.0765 17.9106ZM20.9832 20.6108C20.7533 20.7543 20.6269 20.8861 20.6269 20.9825C20.6269 21.0299 20.5916 21.0687 20.5485 21.0687C20.4238 21.0687 20.4429 27.2374 20.5681 27.3922C20.9513 27.8656 20.4748 27.8275 26.0022 27.8275H31.0341L31.282 27.548L31.53 27.2685V24.1686C31.53 22.1557 31.5024 21.0687 31.4515 21.0687C31.4084 21.0687 31.3731 21.0299 31.3731 20.9825C31.3731 20.8811 31.2389 20.7463 30.9985 20.606C30.7555 20.4643 21.2107 20.4688 20.9832 20.6108ZM25.2548 24.2067V26.2987H23.6468H22.0388V24.2067V22.1147H23.6468H25.2548V24.2067ZM29.9612 24.2067V26.2987H28.3532H26.7452V24.2067V22.1147H28.3532H29.9612V24.2067ZM14.8224 33.5402V42.4715H9.52778H4.23314V33.5402V24.609H9.52778H14.8224V33.5402ZM47.7669 33.5402V42.4715H42.4722H37.1776V33.5402V24.609H42.4722H47.7669V33.5402ZM7.05695 26.5401C7.05695 26.5843 6.9993 26.6205 6.92886 26.6205C6.85842 26.6205 6.73488 26.6985 6.65432 26.7938C6.51753 26.9556 6.50788 27.1476 6.50788 29.7128C6.50788 32.7194 6.48176 32.5434 6.96714 32.8098C7.20489 32.9404 11.9016 32.9278 12.1786 32.796C12.6145 32.5885 12.6365 32.424 12.6105 29.5612C12.5846 26.6896 12.6149 26.866 12.0938 26.5602C11.876 26.4324 7.05695 26.4132 7.05695 26.5401ZM39.888 26.5649C39.385 26.8809 39.4154 26.6982 39.3895 29.5612C39.3635 32.424 39.3855 32.5885 39.8214 32.796C40.0984 32.9278 44.7951 32.9404 45.0329 32.8098C45.5182 32.5434 45.4921 32.7194 45.4921 29.7128C45.4921 27.1476 45.4825 26.9556 45.3457 26.7938C45.2651 26.6985 45.1416 26.6205 45.0711 26.6205C45.0007 26.6205 44.9431 26.5843 44.9431 26.5401C44.9431 26.4174 40.0848 26.4413 39.888 26.5649ZM11.1358 29.6781V31.2873H9.567H7.99822V29.7318C7.99822 28.8761 8.02175 28.152 8.05054 28.1225C8.07925 28.093 8.7852 28.0689 9.61932 28.0689H11.1358V29.6781ZM43.9838 29.6982L44.0051 31.2873H42.4346H40.8642V29.6764V28.0655L42.4134 28.0873L43.9626 28.1091L43.9838 29.6982ZM25.2548 37.1622V42.4738L22.882 42.4526L20.5093 42.4312L20.4891 37.1409L20.4689 31.8505H22.8619H25.2548V37.1622ZM31.5109 37.1409L31.4907 42.4312L29.118 42.4526L26.7452 42.4738V37.1622V31.8505H29.1381H31.5311L31.5109 37.1409ZM6.81363 34.3681L6.5471 34.5524L6.52647 37.3478L6.50584 40.1433L6.69943 40.3418L6.89293 40.5404H9.51986H12.1467L12.3668 40.3463L12.5869 40.1522L12.6097 37.6143C12.6222 36.2183 12.6024 34.9569 12.5656 34.8111C12.5242 34.6473 12.3987 34.4769 12.2371 34.365C11.9796 34.1868 11.9363 34.1839 9.52778 34.1839C7.10692 34.1839 7.07727 34.1859 6.81363 34.3681ZM39.7629 34.365C39.6013 34.4769 39.4758 34.6473 39.4344 34.8111C39.3976 34.9569 39.3778 36.2183 39.3903 37.6143L39.4131 40.1522L39.6332 40.3463L39.8533 40.5404H42.4801H45.1071L45.3006 40.3418L45.4942 40.1433L45.4735 37.3478L45.4529 34.5524L45.1864 34.3681C44.9227 34.1859 44.8931 34.1839 42.4722 34.1839C40.0637 34.1839 40.0204 34.1868 39.7629 34.365ZM11.1358 37.3606C11.1358 38.9193 11.1348 38.9283 10.9593 38.9727C10.8622 38.9971 10.1651 39.007 9.41012 38.9943L8.03744 38.9714L8.01618 37.3823L7.99493 35.7932H9.56536H11.1358V37.3606ZM43.9838 37.3823L43.9626 38.9714L42.5899 38.9943C41.8349 39.007 41.1377 38.9971 41.0407 38.9727C40.8652 38.9283 40.8642 38.9193 40.8642 37.3606V35.7932H42.4346H44.0051L43.9838 37.3823Z" fill="url(#paint0_radial_117_16)"/>
<defs>
<radialGradient id="paint0_radial_117_16" cx="0" cy="0" r="1" gradientUnits="userSpaceOnUse" gradientTransform="translate(49.3913 21.4802) rotate(-140.163) scale(91.9859 167.836)">
<stop stop-color="#42E8E0"/>
<stop offset="0.02" stop-color="#43E0DE"/>
<stop offset="0.11" stop-color="#47BAD1"/>
<stop offset="0.21" stop-color="#4B9AC7"/>
<stop offset="0.32" stop-color="#4E7FBE"/>
<stop offset="0.44" stop-color="#506BB7"/>
<stop offset="0.58" stop-color="#525CB3"/>
<stop offset="0.74" stop-color="#5354B0"/>
<stop offset="1" stop-color="#5351AF"/>
</radialGradient>
</defs>
</svg>
