<svg width="52" height="52" viewBox="0 0 52 52" fill="none" xmlns="http://www.w3.org/2000/svg">
<path fill-rule="evenodd" clip-rule="evenodd" d="M25.6089 4.04667C25.5232 4.06887 25.3955 4.15521 25.3252 4.23849C25.2548 4.32168 25.1602 4.38983 25.1149 4.38983C25.0696 4.38983 25.0208 4.41743 25.0064 4.45115C24.9921 4.48486 24.76 4.65681 24.4908 4.83334C24.2215 5.00979 24.0009 5.18142 24.0005 5.21457C24.0001 5.24772 23.9553 5.27491 23.901 5.27491C23.8466 5.27491 23.7069 5.36543 23.5906 5.47607C23.4743 5.5867 23.3556 5.67722 23.3269 5.67722C23.2525 5.67722 22.2403 6.42012 22.2088 6.49785C22.1944 6.53333 22.1448 6.5623 22.0985 6.5623C22.0522 6.5623 21.8987 6.65282 21.7573 6.76345C21.6159 6.87409 21.4756 6.9646 21.4454 6.9646C21.4152 6.9646 21.3329 7.02793 21.2625 7.10541C21.1188 7.26352 20.9416 7.3855 20.5681 7.58343C20.4278 7.65778 20.3132 7.74806 20.3132 7.78411C20.3132 7.82015 20.268 7.84968 20.2128 7.84968C20.1576 7.84968 20.0616 7.9221 19.9994 8.01061C19.9372 8.09911 19.8565 8.17153 19.82 8.17153C19.7835 8.17153 19.638 8.26205 19.4965 8.37268C19.3551 8.48332 19.1986 8.57384 19.1488 8.57384C19.0989 8.57384 19.0581 8.60224 19.0581 8.63692C19.0581 8.67168 18.9435 8.76944 18.8032 8.85416C18.663 8.93897 18.4859 9.06771 18.4097 9.14028C18.3334 9.21286 18.1746 9.32333 18.0567 9.38569C17.9388 9.44813 17.7957 9.54444 17.7387 9.59972C17.6817 9.655 17.6075 9.7003 17.5738 9.7003C17.5402 9.7003 17.4018 9.80892 17.2664 9.94168C17.131 10.0744 16.9669 10.1831 16.9018 10.1831C16.8367 10.1831 16.7834 10.2136 16.7834 10.2509C16.7834 10.2881 16.6599 10.3869 16.5089 10.4703C16.3579 10.5538 16.2343 10.6499 16.2343 10.6841C16.2343 10.7183 16.1975 10.7463 16.1526 10.7463C16.1077 10.7463 15.9951 10.8187 15.9025 10.9072C15.8099 10.9957 15.6878 11.0681 15.6312 11.0681C15.5747 11.0681 15.5284 11.1019 15.5284 11.1432C15.5284 11.1845 15.4666 11.2386 15.3911 11.2635C15.3157 11.2884 15.1303 11.4174 14.9793 11.5503C14.8283 11.6832 14.6607 11.792 14.6067 11.7921C14.5528 11.7922 14.5087 11.8203 14.5087 11.8545C14.5087 11.8887 14.3851 11.9848 14.2341 12.0683C14.0831 12.1517 13.9596 12.2504 13.9596 12.2877C13.9596 12.325 13.9096 12.3555 13.8484 12.3555C13.7873 12.3555 13.7256 12.3857 13.7112 12.4226C13.6968 12.4594 13.4733 12.6272 13.2144 12.7953C12.9556 12.9635 12.7261 13.1251 12.7046 13.1546C12.683 13.184 12.5507 13.2903 12.4104 13.3907L12.1555 13.5734V16.008V18.4425L12.3577 18.6376C12.5493 18.8225 12.6191 18.8341 13.6912 18.8588L14.8224 18.8848V19.4823V20.0798L9.07676 20.081C2.97372 20.0823 3.02722 20.079 2.86148 20.4635C2.81888 20.5622 2.75707 20.6431 2.72421 20.6431C2.69126 20.6431 2.66436 20.7336 2.66436 20.8442C2.66436 20.9549 2.62906 21.0454 2.58592 21.0454C2.54278 21.0454 2.50748 21.1156 2.50748 21.2016C2.50748 21.2875 2.47218 21.3801 2.42904 21.4075C2.3859 21.4348 2.35037 21.5184 2.35013 21.5932C2.34982 21.6681 2.29687 21.833 2.23247 21.9597C2.168 22.0866 2.11529 22.2585 2.11529 22.3419C2.11529 22.4254 2.07999 22.4937 2.03685 22.4937C1.9937 22.4937 1.95841 22.5661 1.95841 22.6546C1.95841 22.7431 1.92311 22.8155 1.87997 22.8155C1.83683 22.8155 1.80153 22.9039 1.80153 23.0119C1.80153 23.12 1.77274 23.2266 1.7376 23.2489C1.70246 23.2712 1.60535 23.5086 1.52189 23.7766C1.43843 24.0446 1.34368 24.2638 1.31128 24.2638C1.27897 24.2638 1.25245 24.3544 1.25245 24.465C1.25245 24.5756 1.21716 24.6661 1.17402 24.6661C1.13087 24.6661 1.09558 24.7209 1.09558 24.788C1.09558 24.8549 1.06389 24.9726 1.02522 25.0495C0.986468 25.1263 0.894616 25.3521 0.82104 25.5512C0.747464 25.7504 0.655612 25.9761 0.616863 26.053C0.578192 26.1298 0.546503 26.2475 0.546503 26.3145C0.546503 26.3815 0.511205 26.4363 0.468064 26.4363C0.424922 26.4363 0.389624 26.5027 0.389624 26.5838C0.389624 26.665 0.366798 26.7548 0.338874 26.7834C0.247963 26.8766 0.00260555 27.6781 1.70614e-05 27.8902C-0.00147328 28.0065 0.0948499 28.209 0.220117 28.3529L0.442806 28.6088H1.55358H2.66436V38.0228C2.66436 44.2451 2.69095 47.4368 2.7428 47.4368C2.78594 47.4368 2.82124 47.4959 2.82124 47.5682C2.82124 47.6404 2.89725 47.7671 2.99012 47.8498C3.15413 47.9957 3.81271 48 26 48C48.1873 48 48.8459 47.9957 49.0099 47.8498C49.1028 47.7671 49.1788 47.6404 49.1788 47.5682C49.1788 47.4959 49.2141 47.4368 49.2572 47.4368C49.3091 47.4368 49.3356 44.2451 49.3356 38.0228V28.6088H50.4464H51.5572L51.7799 28.3529C51.9052 28.209 52.0015 28.0065 52 27.8902C51.9974 27.6781 51.752 26.8766 51.6611 26.7834C51.6332 26.7548 51.6104 26.665 51.6104 26.5838C51.6104 26.5027 51.5751 26.4363 51.5319 26.4363C51.4888 26.4363 51.4535 26.3815 51.4535 26.3145C51.4535 26.2475 51.4218 26.1298 51.3831 26.053C51.3444 25.9761 51.2525 25.7504 51.179 25.5512C51.1054 25.3521 51.0135 25.1263 50.9748 25.0495C50.9361 24.9726 50.9044 24.8549 50.9044 24.788C50.9044 24.7209 50.8691 24.6661 50.826 24.6661C50.7828 24.6661 50.7475 24.5756 50.7475 24.465C50.7475 24.3544 50.721 24.2638 50.6887 24.2638C50.6563 24.2638 50.5616 24.0446 50.4781 23.7766C50.3946 23.5086 50.2975 23.2712 50.2624 23.2489C50.2273 23.2266 50.1985 23.12 50.1985 23.0119C50.1985 22.9039 50.1632 22.8155 50.12 22.8155C50.0769 22.8155 50.0416 22.7431 50.0416 22.6546C50.0416 22.5661 50.0063 22.4937 49.9632 22.4937C49.92 22.4937 49.8847 22.4254 49.8847 22.3419C49.8847 22.2585 49.832 22.0866 49.7675 21.9597C49.7031 21.833 49.6502 21.6681 49.6499 21.5932C49.6496 21.5184 49.6141 21.4348 49.571 21.4075C49.5278 21.3801 49.4925 21.2875 49.4925 21.2016C49.4925 21.1156 49.4572 21.0454 49.4141 21.0454C49.3709 21.0454 49.3356 20.9549 49.3356 20.8442C49.3356 20.7336 49.3003 20.6431 49.2572 20.6431C49.2141 20.6431 49.1788 20.5748 49.1788 20.4913C49.1788 20.3978 49.0763 20.2897 48.912 20.2097C48.674 20.0938 48.0256 20.0798 42.9114 20.0798H37.1776V19.4823V18.8848L38.3088 18.8588C39.3809 18.8341 39.4507 18.8225 39.6423 18.6376L39.8445 18.4425V16.008V13.5734L39.5896 13.3895C39.4493 13.2884 39.2938 13.1651 39.2438 13.1156C39.1938 13.066 38.9643 12.9025 38.734 12.7523C38.5035 12.6021 38.3032 12.4514 38.2888 12.4173C38.2744 12.3834 38.2127 12.3555 38.1516 12.3555C38.0904 12.3555 38.0404 12.325 38.0404 12.2877C38.0404 12.2504 37.9169 12.1517 37.7659 12.0683C37.6149 11.9848 37.4913 11.8887 37.4913 11.8545C37.4913 11.8203 37.4473 11.7922 37.3933 11.7921C37.3394 11.792 37.1717 11.6832 37.0207 11.5503C36.8697 11.4174 36.6844 11.2884 36.6089 11.2635C36.5334 11.2386 36.4716 11.1845 36.4716 11.1432C36.4716 11.1019 36.4253 11.0681 36.3688 11.0681C36.3122 11.0681 36.1901 10.9957 36.0975 10.9072C36.0049 10.8187 35.8924 10.7463 35.8474 10.7463C35.8025 10.7463 35.7657 10.7183 35.7657 10.6841C35.7657 10.6499 35.6421 10.5538 35.4911 10.4703C35.3401 10.3869 35.2166 10.2881 35.2166 10.2509C35.2166 10.2136 35.1633 10.1831 35.0982 10.1831C35.0331 10.1831 34.8701 10.0756 34.7361 9.9441C34.602 9.8127 34.4259 9.68356 34.3447 9.65709C34.2634 9.63062 34.1969 9.57526 34.1969 9.53398C34.1969 9.49271 34.1439 9.45891 34.0792 9.45891C34.0145 9.45891 33.9616 9.42271 33.9616 9.37845C33.9616 9.3342 33.9153 9.29799 33.8587 9.29799C33.8021 9.29799 33.6874 9.23282 33.6038 9.15316C33.5201 9.0735 33.337 8.93897 33.1968 8.85416C33.0565 8.76944 32.9419 8.67168 32.9419 8.63692C32.9419 8.60224 32.9011 8.57384 32.8512 8.57384C32.8014 8.57384 32.6449 8.48332 32.5035 8.37268C32.362 8.26205 32.2165 8.17153 32.18 8.17153C32.1435 8.17153 32.0628 8.09911 32.0006 8.01061C31.9384 7.9221 31.8424 7.84968 31.7872 7.84968C31.732 7.84968 31.6868 7.82015 31.6868 7.78411C31.6868 7.74806 31.5722 7.65778 31.4319 7.58343C31.0584 7.3855 30.8812 7.26352 30.7375 7.10541C30.6671 7.02793 30.5848 6.9646 30.5546 6.9646C30.5244 6.9646 30.3841 6.87409 30.2427 6.76345C30.1013 6.65282 29.9478 6.5623 29.9015 6.5623C29.8552 6.5623 29.8056 6.53333 29.7912 6.49785C29.7597 6.42012 28.7475 5.67722 28.6731 5.67722C28.6444 5.67722 28.5257 5.5867 28.4094 5.47607C28.2931 5.36543 28.1534 5.27491 28.099 5.27491C28.0447 5.27491 27.9999 5.24772 27.9995 5.21457C27.9991 5.18142 27.7785 5.00979 27.5092 4.83334C27.24 4.65681 27.0079 4.48486 26.9936 4.45115C26.9792 4.41743 26.9174 4.38983 26.8563 4.38983C26.7951 4.38983 26.7452 4.35773 26.7452 4.31855C26.7452 4.27936 26.6251 4.18884 26.4784 4.11739C26.217 3.99018 25.9196 3.96596 25.6089 4.04667ZM26.2241 5.87837C26.2888 5.94475 26.3665 5.99907 26.3968 5.99907C26.4271 5.99907 26.6238 6.12579 26.834 6.28068C27.0442 6.43557 27.2484 6.5623 27.2879 6.5623C27.3273 6.5623 27.3714 6.59271 27.3858 6.62997C27.4208 6.72057 28.2145 7.28645 28.3066 7.28645C28.3466 7.28645 28.3911 7.3167 28.4055 7.35372C28.4198 7.39065 28.6258 7.5535 28.863 7.71547C29.1003 7.87752 29.3371 8.04641 29.3892 8.09082C29.4413 8.13516 29.5047 8.17153 29.53 8.17153C29.5553 8.17153 29.6603 8.25794 29.7633 8.36351C29.8662 8.46908 30.0587 8.60465 30.1911 8.66476C30.3235 8.72486 30.4318 8.80138 30.4318 8.83485C30.4318 8.86833 30.4848 8.89568 30.5495 8.89568C30.6142 8.89568 30.6671 8.92618 30.6671 8.96351C30.6671 9.00077 30.7907 9.09949 30.9417 9.18293C31.0927 9.26637 31.2162 9.36252 31.2162 9.39672C31.2162 9.43091 31.2691 9.45891 31.3339 9.45891C31.3986 9.45891 31.4515 9.49512 31.4515 9.53937C31.4515 9.58363 31.5045 9.61984 31.5692 9.61984C31.6339 9.61984 31.6868 9.65033 31.6868 9.68767C31.6868 9.72492 31.8104 9.82365 31.9614 9.90708C32.1124 9.99052 32.2359 10.0867 32.2359 10.1209C32.2359 10.1551 32.286 10.1831 32.3471 10.1831C32.4082 10.1831 32.4699 10.2103 32.4843 10.2434C32.4987 10.2766 32.7222 10.4486 32.9811 10.6256C33.2399 10.8026 33.4635 10.9746 33.4778 11.0078C33.4923 11.0409 33.554 11.0681 33.6151 11.0681C33.6762 11.0681 33.7263 11.0969 33.7263 11.132C33.7263 11.1671 33.902 11.3029 34.1169 11.4337C34.3317 11.5645 34.5082 11.6988 34.5091 11.732C34.5099 11.7651 34.5636 11.7923 34.6283 11.7923C34.693 11.7923 34.746 11.8203 34.746 11.8545C34.746 11.8887 34.8695 11.9848 35.0205 12.0683C35.1715 12.1517 35.295 12.2504 35.295 12.2877C35.295 12.325 35.3413 12.3555 35.3979 12.3555C35.4545 12.3555 35.5766 12.4279 35.6692 12.5165C35.7618 12.605 35.8582 12.6774 35.8833 12.6774C35.9086 12.6774 35.9819 12.7227 36.0463 12.778C36.1107 12.8333 36.2062 12.9147 36.2587 12.959C36.3111 13.0032 36.4504 13.0905 36.5683 13.1529C36.6862 13.2153 36.8451 13.3257 36.9213 13.3983C36.9976 13.4709 37.1746 13.5996 37.3148 13.6844C37.4551 13.7692 37.5698 13.8669 37.5698 13.9017C37.5698 13.9364 37.6161 13.9648 37.6726 13.9648C37.7292 13.9648 37.8513 14.0372 37.9439 14.1257C38.0365 14.2142 38.1339 14.2866 38.1604 14.2866C38.1869 14.2866 38.2589 14.3383 38.3205 14.4016C38.4089 14.4922 38.4326 14.807 38.4326 15.8901V17.2637H37.8051H37.1776V16.2294C37.1776 15.0849 37.143 14.9952 36.5674 14.6464C36.4285 14.5622 36.3147 14.4649 36.3147 14.4302C36.3147 14.3955 36.2769 14.3671 36.2307 14.3671C36.1845 14.3671 36.0975 14.3218 36.0373 14.2665C35.8419 14.0867 35.7301 14.0069 35.5121 13.8915C35.3942 13.8292 35.2353 13.7187 35.1591 13.6461C35.0829 13.5736 34.9058 13.4448 34.7656 13.36C34.6253 13.2753 34.5106 13.1775 34.5106 13.1428C34.5106 13.1081 34.4478 13.0797 34.3711 13.0797C34.2943 13.0797 34.1807 13.0073 34.1185 12.9188C34.0562 12.8303 33.9687 12.7578 33.9238 12.7578C33.879 12.7578 33.7471 12.6673 33.6308 12.5567C33.5145 12.446 33.3958 12.3555 33.3671 12.3555C33.2927 12.3555 32.2805 11.6126 32.249 11.5349C32.2346 11.4994 32.185 11.4705 32.1387 11.4705C32.0924 11.4705 31.9389 11.3799 31.7975 11.2693C31.6561 11.1587 31.5057 11.0681 31.4633 11.0681C31.4209 11.0681 31.3744 11.0379 31.36 11.0009C31.3456 10.9639 31.1397 10.8011 30.9024 10.6391C30.6652 10.4771 30.4284 10.3082 30.3763 10.2638C30.3242 10.2194 30.2477 10.1831 30.2064 10.1831C30.165 10.1831 30.1194 10.1553 30.105 10.1214C30.0645 10.0258 29.2836 9.45891 29.1924 9.45891C29.1478 9.45891 29.0997 9.43172 29.0852 9.39857C29.043 9.30089 28.4889 8.89568 28.3976 8.89568C28.3516 8.89568 28.314 8.85947 28.314 8.81522C28.314 8.77097 28.261 8.73476 28.1963 8.73476C28.1316 8.73476 28.0786 8.69855 28.0786 8.6543C28.0786 8.61004 28.0418 8.57384 27.9967 8.57384C27.9517 8.57384 27.8197 8.48332 27.7035 8.37268C27.5871 8.26205 27.4474 8.17153 27.3931 8.17153C27.3387 8.17153 27.2942 8.13532 27.2942 8.09107C27.2942 8.04681 27.2413 8.01061 27.1766 8.01061C27.1119 8.01061 27.0589 7.9744 27.0589 7.93014C27.0589 7.88589 27.0221 7.84968 26.9772 7.84968C26.9323 7.84968 26.8176 7.77477 26.7223 7.68321C26.627 7.59172 26.452 7.49662 26.3334 7.472C26.2148 7.44737 26.1177 7.39556 26.1177 7.35685C26.1177 7.31815 26.0647 7.28645 26 7.28645C25.9353 7.28645 25.8823 7.32266 25.8823 7.36691C25.8823 7.41117 25.8144 7.44737 25.7315 7.44737C25.6485 7.44737 25.4188 7.5741 25.2209 7.72899C25.0231 7.88388 24.8263 8.01061 24.7835 8.01061C24.7407 8.01061 24.7058 8.03861 24.7058 8.0728C24.7058 8.107 24.5822 8.20315 24.4312 8.28659C24.2802 8.37003 24.1567 8.46875 24.1567 8.50601C24.1567 8.54334 24.1037 8.57384 24.039 8.57384C23.9743 8.57384 23.9214 8.61004 23.9214 8.6543C23.9214 8.69855 23.8684 8.73476 23.8037 8.73476C23.739 8.73476 23.686 8.77097 23.686 8.81522C23.686 8.85947 23.6484 8.89568 23.6024 8.89568C23.5111 8.89568 22.957 9.30089 22.9148 9.39857C22.9003 9.43172 22.8522 9.45891 22.8076 9.45891C22.7164 9.45891 21.9355 10.0258 21.895 10.1214C21.8806 10.1553 21.835 10.1831 21.7936 10.1831C21.7523 10.1831 21.6758 10.2194 21.6237 10.2638C21.5716 10.3082 21.3348 10.4771 21.0976 10.6391C20.8603 10.8011 20.6544 10.9639 20.64 11.0009C20.6256 11.0379 20.5792 11.0681 20.5367 11.0681C20.4943 11.0681 20.3439 11.1587 20.2025 11.2693C20.0611 11.3799 19.9076 11.4705 19.8613 11.4705C19.815 11.4705 19.7654 11.4994 19.751 11.5349C19.7195 11.6126 18.7073 12.3555 18.6329 12.3555C18.6042 12.3555 18.4855 12.446 18.3692 12.5567C18.2529 12.6673 18.121 12.7578 18.0762 12.7578C18.0313 12.7578 17.9438 12.8303 17.8816 12.9188C17.8193 13.0073 17.7057 13.0797 17.6289 13.0797C17.5522 13.0797 17.4894 13.1081 17.4894 13.1428C17.4894 13.1775 17.3747 13.2753 17.2344 13.36C17.0942 13.4448 16.9171 13.5736 16.8409 13.6461C16.7647 13.7187 16.6058 13.8292 16.4879 13.8915C16.2699 14.0069 16.1581 14.0867 15.9627 14.2665C15.9025 14.3218 15.8155 14.3671 15.7693 14.3671C15.7231 14.3671 15.6853 14.3972 15.6853 14.4339C15.6853 14.4707 15.5881 14.5514 15.4695 14.6133C15.3509 14.6752 15.1567 14.8326 15.0381 14.9632C14.826 15.1966 14.8224 15.2181 14.8224 16.2322V17.2637H14.1949H13.5674V15.8901C13.5674 14.807 13.5911 14.4922 13.6795 14.4016C13.7411 14.3383 13.8131 14.2866 13.8396 14.2866C13.8661 14.2866 13.9635 14.2142 14.0561 14.1257C14.1487 14.0372 14.2708 13.9648 14.3274 13.9648C14.3839 13.9648 14.4302 13.9364 14.4302 13.9017C14.4302 13.8669 14.5449 13.7692 14.6852 13.6844C14.8254 13.5996 15.0085 13.4651 15.0922 13.3854C15.1758 13.3058 15.2905 13.2406 15.3471 13.2406C15.4037 13.2406 15.4499 13.2044 15.4499 13.1601C15.4499 13.1159 15.4877 13.0797 15.5339 13.0797C15.5802 13.0797 15.6672 13.0345 15.7274 12.9791C15.9869 12.7403 16.0756 12.6774 16.1526 12.6774C16.1975 12.6774 16.2346 12.6503 16.235 12.617C16.2354 12.5838 16.456 12.4123 16.7253 12.2358C16.9945 12.0593 17.2266 11.8873 17.2409 11.8536C17.2554 11.8199 17.3171 11.7923 17.3782 11.7923C17.4394 11.7923 17.4901 11.7651 17.4909 11.732C17.4918 11.6988 17.6683 11.5645 17.8831 11.4337C18.098 11.3029 18.2737 11.1671 18.2737 11.132C18.2737 11.0969 18.3237 11.0681 18.3849 11.0681C18.446 11.0681 18.5077 11.0389 18.5222 11.0031C18.5365 10.9673 18.7601 10.7961 19.0189 10.6225C19.2778 10.449 19.5013 10.2791 19.5157 10.245C19.5301 10.2109 19.5918 10.1831 19.6529 10.1831C19.7141 10.1831 19.7641 10.1551 19.7641 10.1209C19.7641 10.0867 19.8876 9.99052 20.0386 9.90708C20.1896 9.82365 20.3132 9.72492 20.3132 9.68767C20.3132 9.65033 20.3661 9.61984 20.4308 9.61984C20.4955 9.61984 20.5485 9.58363 20.5485 9.53937C20.5485 9.49512 20.6014 9.45891 20.6661 9.45891C20.7309 9.45891 20.7838 9.43091 20.7838 9.39672C20.7838 9.36252 20.9073 9.26637 21.0583 9.18293C21.2093 9.09949 21.3329 9.00077 21.3329 8.96351C21.3329 8.92618 21.3858 8.89568 21.4505 8.89568C21.5152 8.89568 21.5682 8.86833 21.5682 8.83485C21.5682 8.80138 21.6765 8.72486 21.8089 8.66476C21.9413 8.60465 22.1338 8.46908 22.2367 8.36351C22.3397 8.25794 22.4447 8.17153 22.47 8.17153C22.4953 8.17153 22.5587 8.13516 22.6108 8.09082C22.6629 8.04641 22.8997 7.87752 23.137 7.71547C23.3743 7.5535 23.5802 7.39065 23.5945 7.35372C23.6089 7.3167 23.6534 7.28645 23.6934 7.28645C23.7855 7.28645 24.5792 6.72057 24.6142 6.62997C24.6287 6.59271 24.6699 6.5623 24.706 6.5623C24.7422 6.5623 25.0278 6.38126 25.341 6.15999C25.9582 5.72381 26.0461 5.69581 26.2241 5.87837ZM26.353 9.33822C26.4067 9.4046 26.4829 9.45891 26.5222 9.45891C26.5616 9.45891 26.6721 9.53262 26.7676 9.62273C26.9752 9.8185 27.5129 10.1831 27.5942 10.1831C27.6259 10.1831 27.7027 10.2555 27.7649 10.344C27.8271 10.4325 27.9054 10.5049 27.9389 10.5049C27.9724 10.5049 28.1718 10.6316 28.382 10.7865C28.5922 10.9414 28.791 11.0681 28.824 11.0681C28.8569 11.0681 28.9409 11.132 29.0107 11.2101C29.17 11.3882 29.7739 11.7923 29.8811 11.7923C29.9251 11.7923 29.9612 11.8207 29.9612 11.8554C29.9612 11.8901 30.0759 11.9879 30.2161 12.0726C30.3564 12.1574 30.5394 12.292 30.6231 12.3716C30.7067 12.4513 30.8214 12.5165 30.8781 12.5165C30.9346 12.5165 30.9809 12.5527 30.9809 12.5969C30.9809 12.6412 31.0177 12.6774 31.0626 12.6774C31.1396 12.6774 31.2283 12.7403 31.4878 12.9791C31.548 13.0345 31.6272 13.0797 31.6639 13.0797C31.7006 13.0797 31.7815 13.1521 31.8437 13.2406C31.9059 13.3291 31.9851 13.4015 32.0196 13.4015C32.1022 13.4015 32.7382 13.8267 32.7719 13.9044C32.7863 13.9376 32.8481 13.9648 32.9092 13.9648C32.9703 13.9648 33.0203 13.9935 33.0203 14.0286C33.0203 14.0637 33.1961 14.1995 33.4109 14.3303C33.6258 14.4611 33.8023 14.5953 33.8031 14.6286C33.804 14.6618 33.8415 14.6889 33.8864 14.6889C33.9314 14.6889 34.0108 14.7246 34.0629 14.7682C34.4993 15.1331 34.6603 15.2521 34.718 15.2523C34.755 15.2525 34.9087 15.3613 35.0597 15.4941C35.2107 15.627 35.3961 15.7561 35.4715 15.7809C35.6017 15.8238 35.6088 16.6267 35.6088 31.1487V46.4712H34.3538H33.0987V40.5975C33.0987 36.7354 33.0719 34.7238 33.0203 34.7238C32.9772 34.7238 32.9419 34.6737 32.9419 34.6124C32.9419 34.5511 32.8549 34.4425 32.7485 34.371C32.5745 34.254 31.9022 34.2411 26 34.2411C20.0978 34.2411 19.4255 34.254 19.2515 34.371C19.1451 34.4425 19.0581 34.5511 19.0581 34.6124C19.0581 34.6737 19.0228 34.7238 18.9797 34.7238C18.9281 34.7238 18.9013 36.7354 18.9013 40.5975V46.4712H17.6462H16.3912V31.1487C16.3912 15.8969 16.3919 15.826 16.5481 15.7751C16.6344 15.7471 16.705 15.6903 16.705 15.6491C16.705 15.6078 16.7579 15.574 16.8226 15.574C16.8873 15.574 16.9403 15.5439 16.9403 15.5071C16.9403 15.4704 17.0374 15.3898 17.156 15.3281C17.3449 15.2299 17.6259 15.0285 17.9371 14.7682C17.9892 14.7246 18.0686 14.6889 18.1136 14.6889C18.1585 14.6889 18.196 14.6618 18.1969 14.6286C18.1977 14.5953 18.3742 14.4611 18.5891 14.3303C18.8039 14.1995 18.9797 14.0637 18.9797 14.0286C18.9797 13.9935 19.0297 13.9648 19.0908 13.9648C19.152 13.9648 19.2137 13.9372 19.2281 13.9034C19.2425 13.8697 19.4746 13.6978 19.7438 13.5213C20.0131 13.3448 20.2336 13.1733 20.234 13.14C20.2344 13.1068 20.2725 13.0797 20.3187 13.0797C20.365 13.0797 20.452 13.0345 20.5122 12.9791C20.7717 12.7403 20.8604 12.6774 20.9374 12.6774C20.9823 12.6774 21.0191 12.6412 21.0191 12.5969C21.0191 12.5527 21.0654 12.5165 21.122 12.5165C21.1786 12.5165 21.2933 12.4513 21.3769 12.3716C21.4606 12.292 21.6436 12.1574 21.7839 12.0726C21.9241 11.9879 22.0388 11.8901 22.0388 11.8554C22.0388 11.8207 22.0749 11.7923 22.1189 11.7923C22.2261 11.7923 22.83 11.3882 22.9893 11.2101C23.0591 11.132 23.1561 11.0681 23.205 11.0681C23.2538 11.0681 23.2939 11.0386 23.2939 11.0026C23.2939 10.9665 23.4085 10.8762 23.5488 10.8019C23.9223 10.604 24.0995 10.482 24.2432 10.3239C24.3136 10.2464 24.3939 10.1831 24.4216 10.1831C24.4978 10.1831 25.2902 9.60415 25.3202 9.52658C25.3346 9.48933 25.392 9.45891 25.4479 9.45891C25.5037 9.45891 25.5933 9.4046 25.647 9.33822C25.7008 9.27184 25.8596 9.21753 26 9.21753C26.1404 9.21753 26.2992 9.27184 26.353 9.33822ZM25.098 12.8356C25.0332 12.88 24.8853 12.9168 24.7692 12.9176C24.6531 12.9182 24.5363 12.955 24.5097 12.9992C24.483 13.0435 24.3927 13.0797 24.3089 13.0797C24.2252 13.0797 24.1567 13.1159 24.1567 13.1601C24.1567 13.2044 24.1066 13.2406 24.0454 13.2406C23.9054 13.2406 23.4519 13.5016 23.4512 13.5826C23.451 13.6158 23.4157 13.6429 23.3729 13.6429C23.1875 13.6429 22.1957 14.6603 22.1957 14.8505C22.1957 14.8943 22.1604 14.9303 22.1173 14.9303C22.0741 14.9303 22.0388 15.0027 22.0388 15.0912C22.0388 15.1797 22.0122 15.2521 21.9795 15.2521C21.9139 15.2521 21.7931 15.5122 21.6102 16.0468C21.4394 16.5461 21.4424 18.4174 21.6147 18.8914C21.9245 19.7432 22.2008 20.1831 22.8398 20.8418C23.1201 21.1308 23.3742 21.3672 23.4043 21.3672C23.4344 21.3672 23.5889 21.4577 23.7476 21.5684C23.9064 21.679 24.0986 21.7695 24.1749 21.7695C24.2511 21.7695 24.3136 21.8057 24.3136 21.85C24.3136 21.8942 24.4342 21.9305 24.5816 21.9305C24.729 21.9305 24.8637 21.9739 24.8809 22.027C24.9254 22.1639 27.0746 22.1639 27.1191 22.027C27.1363 21.9739 27.271 21.9305 27.4184 21.9305C27.5658 21.9305 27.6864 21.8942 27.6864 21.85C27.6864 21.8057 27.7489 21.7695 27.8251 21.7695C27.9014 21.7695 28.0936 21.679 28.2524 21.5684C28.4111 21.4577 28.5656 21.3672 28.5957 21.3672C28.6258 21.3672 28.8799 21.1308 29.1602 20.8418C29.7992 20.1831 30.0755 19.7432 30.3853 18.8914C30.5576 18.4174 30.5606 16.5461 30.3898 16.0468C30.2069 15.5122 30.0861 15.2521 30.0205 15.2521C29.9878 15.2521 29.9612 15.1797 29.9612 15.0912C29.9612 15.0027 29.9259 14.9303 29.8827 14.9303C29.8396 14.9303 29.8043 14.8943 29.8043 14.8505C29.8043 14.6603 28.8125 13.6429 28.6271 13.6429C28.5843 13.6429 28.549 13.6158 28.5488 13.5826C28.5481 13.5016 28.0946 13.2406 27.9546 13.2406C27.8934 13.2406 27.8433 13.2044 27.8433 13.1601C27.8433 13.1159 27.7748 13.0797 27.6911 13.0797C27.6073 13.0797 27.5194 13.0475 27.4957 13.0081C27.391 12.8344 25.3173 12.6852 25.098 12.8356ZM27.1962 14.5767C27.3795 14.6593 27.5296 14.7546 27.5296 14.7884C27.5296 14.8222 27.5737 14.8501 27.6276 14.8503C27.8369 14.8513 28.4821 15.5913 28.7 16.0803C29.0721 16.9153 29.2265 17.8166 29.0199 17.9476C28.9768 17.975 28.9415 18.1017 28.9415 18.2292C28.9415 18.3568 28.9089 18.4818 28.8691 18.507C28.8292 18.5322 28.7735 18.6611 28.7451 18.7933C28.7168 18.9256 28.6612 19.0338 28.6215 19.0338C28.5817 19.0338 28.5493 19.0698 28.5493 19.1137C28.5493 19.2821 27.9398 19.9217 27.6169 20.0921C27.5042 20.1516 27.3943 20.2185 27.3727 20.2408C27.3001 20.3158 26.9431 20.4696 26.706 20.5281C26.0622 20.6869 24.9044 20.5269 24.6273 20.2408C24.6057 20.2185 24.4959 20.1516 24.3831 20.0921C24.0602 19.9217 23.4507 19.2821 23.4507 19.1137C23.4507 19.0698 23.4183 19.0338 23.3785 19.0338C23.3388 19.0338 23.2832 18.9256 23.2549 18.7933C23.2265 18.6611 23.1708 18.5322 23.1309 18.507C23.0911 18.4818 23.0585 18.3568 23.0585 18.2292C23.0585 18.1017 23.0232 17.975 22.9801 17.9476C22.7835 17.823 22.9257 16.9269 23.2644 16.1552C23.3669 15.9216 23.4507 15.7099 23.4507 15.6846C23.4507 15.5976 24.2746 14.8527 24.3724 14.8513C24.4264 14.8505 24.4704 14.8225 24.4704 14.789C24.4704 14.7175 24.8673 14.5289 25.21 14.4376C25.6259 14.3268 26.8286 14.4111 27.1962 14.5767ZM25.7647 15.0236C25.6784 15.0722 25.5284 15.1963 25.4313 15.2993C25.2649 15.4757 25.2548 15.5528 25.2548 16.6416C25.2548 17.6813 25.2704 17.8136 25.4101 17.9675C25.6084 18.1859 26.0467 18.2522 27.0573 18.2169C27.8211 18.1903 27.8657 18.1789 28.0463 17.9632C28.3131 17.6449 28.2996 17.2506 28.0113 16.9411C27.8064 16.7211 27.7424 16.7005 27.2662 16.7005H26.7452V16.0979C26.7452 15.4446 26.6607 15.2616 26.2588 15.0446C26.0082 14.9094 25.9703 14.9078 25.7647 15.0236ZM14.8224 24.3443V26.9995H8.39042C2.84242 26.9995 1.95841 26.9836 1.95841 26.8836C1.95841 26.8198 1.9937 26.7453 2.03685 26.7179C2.07999 26.6906 2.11529 26.5798 2.11529 26.4718C2.11529 26.3637 2.15058 26.2754 2.19372 26.2754C2.23687 26.2754 2.27216 26.2206 2.27216 26.1536C2.27216 26.0866 2.30385 25.9689 2.34252 25.8921C2.38127 25.8152 2.47375 25.5894 2.54803 25.3903C2.75833 24.8267 2.83402 24.6371 2.90885 24.4862C2.94698 24.4094 2.97812 24.2917 2.97812 24.2247C2.97812 24.1577 3.00463 24.1029 3.03695 24.1029C3.06934 24.1029 3.16409 23.8837 3.24755 23.6157C3.33101 23.3477 3.42812 23.1103 3.46326 23.088C3.4984 23.0657 3.52719 22.9591 3.52719 22.851C3.52719 22.743 3.56249 22.6546 3.60563 22.6546C3.64877 22.6546 3.68407 22.5998 3.68407 22.5328C3.68407 22.4658 3.7156 22.3481 3.75404 22.2713C3.79255 22.1944 3.86244 22.032 3.90927 21.9103L3.99445 21.6891H9.40848H14.8224V24.3443ZM48.0765 21.9103C48.132 22.032 48.2086 22.1944 48.2467 22.2713C48.2848 22.3481 48.3159 22.4658 48.3159 22.5328C48.3159 22.5998 48.3512 22.6546 48.3944 22.6546C48.4375 22.6546 48.4728 22.743 48.4728 22.851C48.4728 22.9591 48.5016 23.0657 48.5367 23.088C48.5719 23.1103 48.669 23.3477 48.7524 23.6157C48.8359 23.8837 48.9307 24.1029 48.9631 24.1029C48.9954 24.1029 49.0219 24.1577 49.0219 24.2247C49.0219 24.2917 49.053 24.4094 49.0911 24.4862C49.166 24.6371 49.2417 24.8267 49.452 25.3903C49.5262 25.5894 49.6187 25.8152 49.6575 25.8921C49.6962 25.9689 49.7278 26.0866 49.7278 26.1536C49.7278 26.2206 49.7631 26.2754 49.8063 26.2754C49.8494 26.2754 49.8847 26.3637 49.8847 26.4718C49.8847 26.5798 49.92 26.6906 49.9632 26.7179C50.0063 26.7453 50.0416 26.8198 50.0416 26.8836C50.0416 26.9836 49.1576 26.9995 43.6096 26.9995H37.1776V24.3443V21.6891H42.5766H47.9757L48.0765 21.9103ZM20.9832 24.6105C20.7533 24.754 20.6269 24.8859 20.6269 24.9823C20.6269 25.0297 20.5916 25.0685 20.5485 25.0685C20.4238 25.0685 20.4429 31.2372 20.5681 31.3919C20.9513 31.8654 20.4747 31.8272 26.0022 31.8272H31.0341L31.282 31.5478L31.53 31.2683V28.1684C31.53 26.1554 31.5024 25.0685 31.4515 25.0685C31.4084 25.0685 31.3731 25.0297 31.3731 24.9823C31.3731 24.8809 31.2389 24.746 30.9985 24.6058C30.7555 24.464 21.2107 24.4685 20.9832 24.6105ZM25.2548 28.2065V30.2985H23.6468H22.0388V28.2065V26.1145H23.6468H25.2548V28.2065ZM29.9612 28.2065V30.2985H28.3532H26.7452V28.2065V26.1145H28.3532H29.9612V28.2065ZM14.8224 37.54V46.4712H9.52778H4.23314V37.54V28.6088H9.52778H14.8224V37.54ZM47.7669 37.54V46.4712H42.4722H37.1776V37.54V28.6088H42.4722H47.7669V37.54ZM7.05695 30.5398C7.05695 30.5841 6.9993 30.6203 6.92886 30.6203C6.85842 30.6203 6.73488 30.6983 6.65432 30.7935C6.51753 30.9553 6.50788 31.1473 6.50788 33.7125C6.50788 36.7191 6.48176 36.5432 6.96714 36.8096C7.20489 36.9402 11.9016 36.9276 12.1786 36.7957C12.6145 36.5883 12.6365 36.4238 12.6105 33.5609C12.5846 30.6893 12.6149 30.8657 12.0938 30.56C11.876 30.4322 7.05695 30.413 7.05695 30.5398ZM39.888 30.5647C39.385 30.8807 39.4154 30.6979 39.3895 33.5609C39.3635 36.4238 39.3855 36.5883 39.8214 36.7957C40.0984 36.9276 44.7951 36.9402 45.0329 36.8096C45.5182 36.5432 45.4921 36.7191 45.4921 33.7125C45.4921 31.1473 45.4825 30.9553 45.3457 30.7935C45.2651 30.6983 45.1416 30.6203 45.0711 30.6203C45.0007 30.6203 44.9431 30.5841 44.9431 30.5398C44.9431 30.4171 40.0848 30.441 39.888 30.5647ZM11.1358 33.6778V35.2871H9.567H7.99822V33.7315C7.99822 32.8759 8.02175 32.1517 8.05054 32.1223C8.07925 32.0927 8.7852 32.0686 9.61932 32.0686H11.1358V33.6778ZM43.9838 33.698L44.0051 35.2871H42.4346H40.8642V33.6762V32.0652L42.4134 32.087L43.9626 32.1088L43.9838 33.698ZM25.2548 41.162V46.4736L22.882 46.4523L20.5093 46.431L20.4891 41.1407L20.4689 35.8503H22.8619H25.2548V41.162ZM31.5109 41.1407L31.4907 46.431L29.118 46.4523L26.7452 46.4736V41.162V35.8503H29.1381H31.5311L31.5109 41.1407ZM6.81363 38.3679L6.5471 38.5521L6.52647 41.3476L6.50584 44.1431L6.69943 44.3416L6.89293 44.5402H9.51986H12.1467L12.3668 44.3461L12.5869 44.1519L12.6097 41.614C12.6222 40.2181 12.6024 38.9567 12.5656 38.8109C12.5242 38.6471 12.3987 38.4767 12.2371 38.3647C11.9796 38.1866 11.9363 38.1837 9.52778 38.1837C7.10692 38.1837 7.07727 38.1857 6.81363 38.3679ZM39.7629 38.3647C39.6013 38.4767 39.4758 38.6471 39.4344 38.8109C39.3976 38.9567 39.3778 40.2181 39.3903 41.614L39.4131 44.1519L39.6332 44.3461L39.8533 44.5402H42.4801H45.1071L45.3006 44.3416L45.4942 44.1431L45.4735 41.3476L45.4529 38.5521L45.1864 38.3679C44.9227 38.1857 44.8931 38.1837 42.4722 38.1837C40.0637 38.1837 40.0204 38.1866 39.7629 38.3647ZM11.1358 41.3604C11.1358 42.9191 11.1348 42.9281 10.9593 42.9724C10.8622 42.9969 10.1651 43.0067 9.41012 42.9941L8.03744 42.9712L8.01618 41.382L7.99493 39.7929H9.56536H11.1358V41.3604ZM43.9838 41.382L43.9626 42.9712L42.5899 42.9941C41.8349 43.0067 41.1377 42.9969 41.0407 42.9724C40.8652 42.9281 40.8642 42.9191 40.8642 41.3604V39.7929H42.4346H44.0051L43.9838 41.382Z" fill="#DD6799"/>
<path fill-rule="evenodd" clip-rule="evenodd" d="M25.6089 4.04667C25.5232 4.06887 25.3955 4.15521 25.3252 4.23849C25.2548 4.32168 25.1602 4.38983 25.1149 4.38983C25.0696 4.38983 25.0208 4.41743 25.0064 4.45115C24.9921 4.48486 24.76 4.65681 24.4908 4.83334C24.2215 5.00979 24.0009 5.18142 24.0005 5.21457C24.0001 5.24772 23.9553 5.27491 23.901 5.27491C23.8466 5.27491 23.7069 5.36543 23.5906 5.47607C23.4743 5.5867 23.3556 5.67722 23.3269 5.67722C23.2525 5.67722 22.2403 6.42012 22.2088 6.49785C22.1944 6.53333 22.1448 6.5623 22.0985 6.5623C22.0522 6.5623 21.8987 6.65282 21.7573 6.76345C21.6159 6.87409 21.4756 6.9646 21.4454 6.9646C21.4152 6.9646 21.3329 7.02793 21.2625 7.10541C21.1188 7.26352 20.9416 7.3855 20.5681 7.58343C20.4278 7.65778 20.3132 7.74806 20.3132 7.78411C20.3132 7.82015 20.268 7.84968 20.2128 7.84968C20.1576 7.84968 20.0616 7.9221 19.9994 8.01061C19.9372 8.09911 19.8565 8.17153 19.82 8.17153C19.7835 8.17153 19.638 8.26205 19.4965 8.37268C19.3551 8.48332 19.1986 8.57384 19.1488 8.57384C19.0989 8.57384 19.0581 8.60224 19.0581 8.63692C19.0581 8.67168 18.9435 8.76944 18.8032 8.85416C18.663 8.93897 18.4859 9.06771 18.4097 9.14028C18.3334 9.21286 18.1746 9.32333 18.0567 9.38569C17.9388 9.44813 17.7957 9.54444 17.7387 9.59972C17.6817 9.655 17.6075 9.7003 17.5738 9.7003C17.5402 9.7003 17.4018 9.80892 17.2664 9.94168C17.131 10.0744 16.9669 10.1831 16.9018 10.1831C16.8367 10.1831 16.7834 10.2136 16.7834 10.2509C16.7834 10.2881 16.6599 10.3869 16.5089 10.4703C16.3579 10.5538 16.2343 10.6499 16.2343 10.6841C16.2343 10.7183 16.1975 10.7463 16.1526 10.7463C16.1077 10.7463 15.9951 10.8187 15.9025 10.9072C15.8099 10.9957 15.6878 11.0681 15.6312 11.0681C15.5747 11.0681 15.5284 11.1019 15.5284 11.1432C15.5284 11.1845 15.4666 11.2386 15.3911 11.2635C15.3157 11.2884 15.1303 11.4174 14.9793 11.5503C14.8283 11.6832 14.6607 11.792 14.6067 11.7921C14.5528 11.7922 14.5087 11.8203 14.5087 11.8545C14.5087 11.8887 14.3851 11.9848 14.2341 12.0683C14.0831 12.1517 13.9596 12.2504 13.9596 12.2877C13.9596 12.325 13.9096 12.3555 13.8484 12.3555C13.7873 12.3555 13.7256 12.3857 13.7112 12.4226C13.6968 12.4594 13.4733 12.6272 13.2144 12.7953C12.9556 12.9635 12.7261 13.1251 12.7046 13.1546C12.683 13.184 12.5507 13.2903 12.4104 13.3907L12.1555 13.5734V16.008V18.4425L12.3577 18.6376C12.5493 18.8225 12.6191 18.8341 13.6912 18.8588L14.8224 18.8848V19.4823V20.0798L9.07676 20.081C2.97372 20.0823 3.02722 20.079 2.86148 20.4635C2.81888 20.5622 2.75707 20.6431 2.72421 20.6431C2.69126 20.6431 2.66436 20.7336 2.66436 20.8442C2.66436 20.9549 2.62906 21.0454 2.58592 21.0454C2.54278 21.0454 2.50748 21.1156 2.50748 21.2016C2.50748 21.2875 2.47218 21.3801 2.42904 21.4075C2.3859 21.4348 2.35037 21.5184 2.35013 21.5932C2.34982 21.6681 2.29687 21.833 2.23247 21.9597C2.168 22.0866 2.11529 22.2585 2.11529 22.3419C2.11529 22.4254 2.07999 22.4937 2.03685 22.4937C1.9937 22.4937 1.95841 22.5661 1.95841 22.6546C1.95841 22.7431 1.92311 22.8155 1.87997 22.8155C1.83683 22.8155 1.80153 22.9039 1.80153 23.0119C1.80153 23.12 1.77274 23.2266 1.7376 23.2489C1.70246 23.2712 1.60535 23.5086 1.52189 23.7766C1.43843 24.0446 1.34368 24.2638 1.31128 24.2638C1.27897 24.2638 1.25245 24.3544 1.25245 24.465C1.25245 24.5756 1.21716 24.6661 1.17402 24.6661C1.13087 24.6661 1.09558 24.7209 1.09558 24.788C1.09558 24.8549 1.06389 24.9726 1.02522 25.0495C0.986468 25.1263 0.894616 25.3521 0.82104 25.5512C0.747464 25.7504 0.655612 25.9761 0.616863 26.053C0.578192 26.1298 0.546503 26.2475 0.546503 26.3145C0.546503 26.3815 0.511205 26.4363 0.468064 26.4363C0.424922 26.4363 0.389624 26.5027 0.389624 26.5838C0.389624 26.665 0.366798 26.7548 0.338874 26.7834C0.247963 26.8766 0.00260555 27.6781 1.70614e-05 27.8902C-0.00147328 28.0065 0.0948499 28.209 0.220117 28.3529L0.442806 28.6088H1.55358H2.66436V38.0228C2.66436 44.2451 2.69095 47.4368 2.7428 47.4368C2.78594 47.4368 2.82124 47.4959 2.82124 47.5682C2.82124 47.6404 2.89725 47.7671 2.99012 47.8498C3.15413 47.9957 3.81271 48 26 48C48.1873 48 48.8459 47.9957 49.0099 47.8498C49.1028 47.7671 49.1788 47.6404 49.1788 47.5682C49.1788 47.4959 49.2141 47.4368 49.2572 47.4368C49.3091 47.4368 49.3356 44.2451 49.3356 38.0228V28.6088H50.4464H51.5572L51.7799 28.3529C51.9052 28.209 52.0015 28.0065 52 27.8902C51.9974 27.6781 51.752 26.8766 51.6611 26.7834C51.6332 26.7548 51.6104 26.665 51.6104 26.5838C51.6104 26.5027 51.5751 26.4363 51.5319 26.4363C51.4888 26.4363 51.4535 26.3815 51.4535 26.3145C51.4535 26.2475 51.4218 26.1298 51.3831 26.053C51.3444 25.9761 51.2525 25.7504 51.179 25.5512C51.1054 25.3521 51.0135 25.1263 50.9748 25.0495C50.9361 24.9726 50.9044 24.8549 50.9044 24.788C50.9044 24.7209 50.8691 24.6661 50.826 24.6661C50.7828 24.6661 50.7475 24.5756 50.7475 24.465C50.7475 24.3544 50.721 24.2638 50.6887 24.2638C50.6563 24.2638 50.5616 24.0446 50.4781 23.7766C50.3946 23.5086 50.2975 23.2712 50.2624 23.2489C50.2273 23.2266 50.1985 23.12 50.1985 23.0119C50.1985 22.9039 50.1632 22.8155 50.12 22.8155C50.0769 22.8155 50.0416 22.7431 50.0416 22.6546C50.0416 22.5661 50.0063 22.4937 49.9632 22.4937C49.92 22.4937 49.8847 22.4254 49.8847 22.3419C49.8847 22.2585 49.832 22.0866 49.7675 21.9597C49.7031 21.833 49.6502 21.6681 49.6499 21.5932C49.6496 21.5184 49.6141 21.4348 49.571 21.4075C49.5278 21.3801 49.4925 21.2875 49.4925 21.2016C49.4925 21.1156 49.4572 21.0454 49.4141 21.0454C49.3709 21.0454 49.3356 20.9549 49.3356 20.8442C49.3356 20.7336 49.3003 20.6431 49.2572 20.6431C49.2141 20.6431 49.1788 20.5748 49.1788 20.4913C49.1788 20.3978 49.0763 20.2897 48.912 20.2097C48.674 20.0938 48.0256 20.0798 42.9114 20.0798H37.1776V19.4823V18.8848L38.3088 18.8588C39.3809 18.8341 39.4507 18.8225 39.6423 18.6376L39.8445 18.4425V16.008V13.5734L39.5896 13.3895C39.4493 13.2884 39.2938 13.1651 39.2438 13.1156C39.1938 13.066 38.9643 12.9025 38.734 12.7523C38.5035 12.6021 38.3032 12.4514 38.2888 12.4173C38.2744 12.3834 38.2127 12.3555 38.1516 12.3555C38.0904 12.3555 38.0404 12.325 38.0404 12.2877C38.0404 12.2504 37.9169 12.1517 37.7659 12.0683C37.6149 11.9848 37.4913 11.8887 37.4913 11.8545C37.4913 11.8203 37.4473 11.7922 37.3933 11.7921C37.3394 11.792 37.1717 11.6832 37.0207 11.5503C36.8697 11.4174 36.6844 11.2884 36.6089 11.2635C36.5334 11.2386 36.4716 11.1845 36.4716 11.1432C36.4716 11.1019 36.4253 11.0681 36.3688 11.0681C36.3122 11.0681 36.1901 10.9957 36.0975 10.9072C36.0049 10.8187 35.8924 10.7463 35.8474 10.7463C35.8025 10.7463 35.7657 10.7183 35.7657 10.6841C35.7657 10.6499 35.6421 10.5538 35.4911 10.4703C35.3401 10.3869 35.2166 10.2881 35.2166 10.2509C35.2166 10.2136 35.1633 10.1831 35.0982 10.1831C35.0331 10.1831 34.8701 10.0756 34.7361 9.9441C34.602 9.8127 34.4259 9.68356 34.3447 9.65709C34.2634 9.63062 34.1969 9.57526 34.1969 9.53398C34.1969 9.49271 34.1439 9.45891 34.0792 9.45891C34.0145 9.45891 33.9616 9.42271 33.9616 9.37845C33.9616 9.3342 33.9153 9.29799 33.8587 9.29799C33.8021 9.29799 33.6874 9.23282 33.6038 9.15316C33.5201 9.0735 33.337 8.93897 33.1968 8.85416C33.0565 8.76944 32.9419 8.67168 32.9419 8.63692C32.9419 8.60224 32.9011 8.57384 32.8512 8.57384C32.8014 8.57384 32.6449 8.48332 32.5035 8.37268C32.362 8.26205 32.2165 8.17153 32.18 8.17153C32.1435 8.17153 32.0628 8.09911 32.0006 8.01061C31.9384 7.9221 31.8424 7.84968 31.7872 7.84968C31.732 7.84968 31.6868 7.82015 31.6868 7.78411C31.6868 7.74806 31.5722 7.65778 31.4319 7.58343C31.0584 7.3855 30.8812 7.26352 30.7375 7.10541C30.6671 7.02793 30.5848 6.9646 30.5546 6.9646C30.5244 6.9646 30.3841 6.87409 30.2427 6.76345C30.1013 6.65282 29.9478 6.5623 29.9015 6.5623C29.8552 6.5623 29.8056 6.53333 29.7912 6.49785C29.7597 6.42012 28.7475 5.67722 28.6731 5.67722C28.6444 5.67722 28.5257 5.5867 28.4094 5.47607C28.2931 5.36543 28.1534 5.27491 28.099 5.27491C28.0447 5.27491 27.9999 5.24772 27.9995 5.21457C27.9991 5.18142 27.7785 5.00979 27.5092 4.83334C27.24 4.65681 27.0079 4.48486 26.9936 4.45115C26.9792 4.41743 26.9174 4.38983 26.8563 4.38983C26.7951 4.38983 26.7452 4.35773 26.7452 4.31855C26.7452 4.27936 26.6251 4.18884 26.4784 4.11739C26.217 3.99018 25.9196 3.96596 25.6089 4.04667ZM26.2241 5.87837C26.2888 5.94475 26.3665 5.99907 26.3968 5.99907C26.4271 5.99907 26.6238 6.12579 26.834 6.28068C27.0442 6.43557 27.2484 6.5623 27.2879 6.5623C27.3273 6.5623 27.3714 6.59271 27.3858 6.62997C27.4208 6.72057 28.2145 7.28645 28.3066 7.28645C28.3466 7.28645 28.3911 7.3167 28.4055 7.35372C28.4198 7.39065 28.6258 7.5535 28.863 7.71547C29.1003 7.87752 29.3371 8.04641 29.3892 8.09082C29.4413 8.13516 29.5047 8.17153 29.53 8.17153C29.5553 8.17153 29.6603 8.25794 29.7633 8.36351C29.8662 8.46908 30.0587 8.60465 30.1911 8.66476C30.3235 8.72486 30.4318 8.80138 30.4318 8.83485C30.4318 8.86833 30.4848 8.89568 30.5495 8.89568C30.6142 8.89568 30.6671 8.92618 30.6671 8.96351C30.6671 9.00077 30.7907 9.09949 30.9417 9.18293C31.0927 9.26637 31.2162 9.36252 31.2162 9.39672C31.2162 9.43091 31.2691 9.45891 31.3339 9.45891C31.3986 9.45891 31.4515 9.49512 31.4515 9.53937C31.4515 9.58363 31.5045 9.61984 31.5692 9.61984C31.6339 9.61984 31.6868 9.65033 31.6868 9.68767C31.6868 9.72492 31.8104 9.82365 31.9614 9.90708C32.1124 9.99052 32.2359 10.0867 32.2359 10.1209C32.2359 10.1551 32.286 10.1831 32.3471 10.1831C32.4082 10.1831 32.4699 10.2103 32.4843 10.2434C32.4987 10.2766 32.7222 10.4486 32.9811 10.6256C33.2399 10.8026 33.4635 10.9746 33.4778 11.0078C33.4923 11.0409 33.554 11.0681 33.6151 11.0681C33.6762 11.0681 33.7263 11.0969 33.7263 11.132C33.7263 11.1671 33.902 11.3029 34.1169 11.4337C34.3317 11.5645 34.5082 11.6988 34.5091 11.732C34.5099 11.7651 34.5636 11.7923 34.6283 11.7923C34.693 11.7923 34.746 11.8203 34.746 11.8545C34.746 11.8887 34.8695 11.9848 35.0205 12.0683C35.1715 12.1517 35.295 12.2504 35.295 12.2877C35.295 12.325 35.3413 12.3555 35.3979 12.3555C35.4545 12.3555 35.5766 12.4279 35.6692 12.5165C35.7618 12.605 35.8582 12.6774 35.8833 12.6774C35.9086 12.6774 35.9819 12.7227 36.0463 12.778C36.1107 12.8333 36.2062 12.9147 36.2587 12.959C36.3111 13.0032 36.4504 13.0905 36.5683 13.1529C36.6862 13.2153 36.8451 13.3257 36.9213 13.3983C36.9976 13.4709 37.1746 13.5996 37.3148 13.6844C37.4551 13.7692 37.5698 13.8669 37.5698 13.9017C37.5698 13.9364 37.6161 13.9648 37.6726 13.9648C37.7292 13.9648 37.8513 14.0372 37.9439 14.1257C38.0365 14.2142 38.1339 14.2866 38.1604 14.2866C38.1869 14.2866 38.2589 14.3383 38.3205 14.4016C38.4089 14.4922 38.4326 14.807 38.4326 15.8901V17.2637H37.8051H37.1776V16.2294C37.1776 15.0849 37.143 14.9952 36.5674 14.6464C36.4285 14.5622 36.3147 14.4649 36.3147 14.4302C36.3147 14.3955 36.2769 14.3671 36.2307 14.3671C36.1845 14.3671 36.0975 14.3218 36.0373 14.2665C35.8419 14.0867 35.7301 14.0069 35.5121 13.8915C35.3942 13.8292 35.2353 13.7187 35.1591 13.6461C35.0829 13.5736 34.9058 13.4448 34.7656 13.36C34.6253 13.2753 34.5106 13.1775 34.5106 13.1428C34.5106 13.1081 34.4478 13.0797 34.3711 13.0797C34.2943 13.0797 34.1807 13.0073 34.1185 12.9188C34.0562 12.8303 33.9687 12.7578 33.9238 12.7578C33.879 12.7578 33.7471 12.6673 33.6308 12.5567C33.5145 12.446 33.3958 12.3555 33.3671 12.3555C33.2927 12.3555 32.2805 11.6126 32.249 11.5349C32.2346 11.4994 32.185 11.4705 32.1387 11.4705C32.0924 11.4705 31.9389 11.3799 31.7975 11.2693C31.6561 11.1587 31.5057 11.0681 31.4633 11.0681C31.4209 11.0681 31.3744 11.0379 31.36 11.0009C31.3456 10.9639 31.1397 10.8011 30.9024 10.6391C30.6652 10.4771 30.4284 10.3082 30.3763 10.2638C30.3242 10.2194 30.2477 10.1831 30.2064 10.1831C30.165 10.1831 30.1194 10.1553 30.105 10.1214C30.0645 10.0258 29.2836 9.45891 29.1924 9.45891C29.1478 9.45891 29.0997 9.43172 29.0852 9.39857C29.043 9.30089 28.4889 8.89568 28.3976 8.89568C28.3516 8.89568 28.314 8.85947 28.314 8.81522C28.314 8.77097 28.261 8.73476 28.1963 8.73476C28.1316 8.73476 28.0786 8.69855 28.0786 8.6543C28.0786 8.61004 28.0418 8.57384 27.9967 8.57384C27.9517 8.57384 27.8197 8.48332 27.7035 8.37268C27.5871 8.26205 27.4474 8.17153 27.3931 8.17153C27.3387 8.17153 27.2942 8.13532 27.2942 8.09107C27.2942 8.04681 27.2413 8.01061 27.1766 8.01061C27.1119 8.01061 27.0589 7.9744 27.0589 7.93014C27.0589 7.88589 27.0221 7.84968 26.9772 7.84968C26.9323 7.84968 26.8176 7.77477 26.7223 7.68321C26.627 7.59172 26.452 7.49662 26.3334 7.472C26.2148 7.44737 26.1177 7.39556 26.1177 7.35685C26.1177 7.31815 26.0647 7.28645 26 7.28645C25.9353 7.28645 25.8823 7.32266 25.8823 7.36691C25.8823 7.41117 25.8144 7.44737 25.7315 7.44737C25.6485 7.44737 25.4188 7.5741 25.2209 7.72899C25.0231 7.88388 24.8263 8.01061 24.7835 8.01061C24.7407 8.01061 24.7058 8.03861 24.7058 8.0728C24.7058 8.107 24.5822 8.20315 24.4312 8.28659C24.2802 8.37003 24.1567 8.46875 24.1567 8.50601C24.1567 8.54334 24.1037 8.57384 24.039 8.57384C23.9743 8.57384 23.9214 8.61004 23.9214 8.6543C23.9214 8.69855 23.8684 8.73476 23.8037 8.73476C23.739 8.73476 23.686 8.77097 23.686 8.81522C23.686 8.85947 23.6484 8.89568 23.6024 8.89568C23.5111 8.89568 22.957 9.30089 22.9148 9.39857C22.9003 9.43172 22.8522 9.45891 22.8076 9.45891C22.7164 9.45891 21.9355 10.0258 21.895 10.1214C21.8806 10.1553 21.835 10.1831 21.7936 10.1831C21.7523 10.1831 21.6758 10.2194 21.6237 10.2638C21.5716 10.3082 21.3348 10.4771 21.0976 10.6391C20.8603 10.8011 20.6544 10.9639 20.64 11.0009C20.6256 11.0379 20.5792 11.0681 20.5367 11.0681C20.4943 11.0681 20.3439 11.1587 20.2025 11.2693C20.0611 11.3799 19.9076 11.4705 19.8613 11.4705C19.815 11.4705 19.7654 11.4994 19.751 11.5349C19.7195 11.6126 18.7073 12.3555 18.6329 12.3555C18.6042 12.3555 18.4855 12.446 18.3692 12.5567C18.2529 12.6673 18.121 12.7578 18.0762 12.7578C18.0313 12.7578 17.9438 12.8303 17.8816 12.9188C17.8193 13.0073 17.7057 13.0797 17.6289 13.0797C17.5522 13.0797 17.4894 13.1081 17.4894 13.1428C17.4894 13.1775 17.3747 13.2753 17.2344 13.36C17.0942 13.4448 16.9171 13.5736 16.8409 13.6461C16.7647 13.7187 16.6058 13.8292 16.4879 13.8915C16.2699 14.0069 16.1581 14.0867 15.9627 14.2665C15.9025 14.3218 15.8155 14.3671 15.7693 14.3671C15.7231 14.3671 15.6853 14.3972 15.6853 14.4339C15.6853 14.4707 15.5881 14.5514 15.4695 14.6133C15.3509 14.6752 15.1567 14.8326 15.0381 14.9632C14.826 15.1966 14.8224 15.2181 14.8224 16.2322V17.2637H14.1949H13.5674V15.8901C13.5674 14.807 13.5911 14.4922 13.6795 14.4016C13.7411 14.3383 13.8131 14.2866 13.8396 14.2866C13.8661 14.2866 13.9635 14.2142 14.0561 14.1257C14.1487 14.0372 14.2708 13.9648 14.3274 13.9648C14.3839 13.9648 14.4302 13.9364 14.4302 13.9017C14.4302 13.8669 14.5449 13.7692 14.6852 13.6844C14.8254 13.5996 15.0085 13.4651 15.0922 13.3854C15.1758 13.3058 15.2905 13.2406 15.3471 13.2406C15.4037 13.2406 15.4499 13.2044 15.4499 13.1601C15.4499 13.1159 15.4877 13.0797 15.5339 13.0797C15.5802 13.0797 15.6672 13.0345 15.7274 12.9791C15.9869 12.7403 16.0756 12.6774 16.1526 12.6774C16.1975 12.6774 16.2346 12.6503 16.235 12.617C16.2354 12.5838 16.456 12.4123 16.7253 12.2358C16.9945 12.0593 17.2266 11.8873 17.2409 11.8536C17.2554 11.8199 17.3171 11.7923 17.3782 11.7923C17.4394 11.7923 17.4901 11.7651 17.4909 11.732C17.4918 11.6988 17.6683 11.5645 17.8831 11.4337C18.098 11.3029 18.2737 11.1671 18.2737 11.132C18.2737 11.0969 18.3237 11.0681 18.3849 11.0681C18.446 11.0681 18.5077 11.0389 18.5222 11.0031C18.5365 10.9673 18.7601 10.7961 19.0189 10.6225C19.2778 10.449 19.5013 10.2791 19.5157 10.245C19.5301 10.2109 19.5918 10.1831 19.6529 10.1831C19.7141 10.1831 19.7641 10.1551 19.7641 10.1209C19.7641 10.0867 19.8876 9.99052 20.0386 9.90708C20.1896 9.82365 20.3132 9.72492 20.3132 9.68767C20.3132 9.65033 20.3661 9.61984 20.4308 9.61984C20.4955 9.61984 20.5485 9.58363 20.5485 9.53937C20.5485 9.49512 20.6014 9.45891 20.6661 9.45891C20.7309 9.45891 20.7838 9.43091 20.7838 9.39672C20.7838 9.36252 20.9073 9.26637 21.0583 9.18293C21.2093 9.09949 21.3329 9.00077 21.3329 8.96351C21.3329 8.92618 21.3858 8.89568 21.4505 8.89568C21.5152 8.89568 21.5682 8.86833 21.5682 8.83485C21.5682 8.80138 21.6765 8.72486 21.8089 8.66476C21.9413 8.60465 22.1338 8.46908 22.2367 8.36351C22.3397 8.25794 22.4447 8.17153 22.47 8.17153C22.4953 8.17153 22.5587 8.13516 22.6108 8.09082C22.6629 8.04641 22.8997 7.87752 23.137 7.71547C23.3743 7.5535 23.5802 7.39065 23.5945 7.35372C23.6089 7.3167 23.6534 7.28645 23.6934 7.28645C23.7855 7.28645 24.5792 6.72057 24.6142 6.62997C24.6287 6.59271 24.6699 6.5623 24.706 6.5623C24.7422 6.5623 25.0278 6.38126 25.341 6.15999C25.9582 5.72381 26.0461 5.69581 26.2241 5.87837ZM26.353 9.33822C26.4067 9.4046 26.4829 9.45891 26.5222 9.45891C26.5616 9.45891 26.6721 9.53262 26.7676 9.62273C26.9752 9.8185 27.5129 10.1831 27.5942 10.1831C27.6259 10.1831 27.7027 10.2555 27.7649 10.344C27.8271 10.4325 27.9054 10.5049 27.9389 10.5049C27.9724 10.5049 28.1718 10.6316 28.382 10.7865C28.5922 10.9414 28.791 11.0681 28.824 11.0681C28.8569 11.0681 28.9409 11.132 29.0107 11.2101C29.17 11.3882 29.7739 11.7923 29.8811 11.7923C29.9251 11.7923 29.9612 11.8207 29.9612 11.8554C29.9612 11.8901 30.0759 11.9879 30.2161 12.0726C30.3564 12.1574 30.5394 12.292 30.6231 12.3716C30.7067 12.4513 30.8214 12.5165 30.8781 12.5165C30.9346 12.5165 30.9809 12.5527 30.9809 12.5969C30.9809 12.6412 31.0177 12.6774 31.0626 12.6774C31.1396 12.6774 31.2283 12.7403 31.4878 12.9791C31.548 13.0345 31.6272 13.0797 31.6639 13.0797C31.7006 13.0797 31.7815 13.1521 31.8437 13.2406C31.9059 13.3291 31.9851 13.4015 32.0196 13.4015C32.1022 13.4015 32.7382 13.8267 32.7719 13.9044C32.7863 13.9376 32.8481 13.9648 32.9092 13.9648C32.9703 13.9648 33.0203 13.9935 33.0203 14.0286C33.0203 14.0637 33.1961 14.1995 33.4109 14.3303C33.6258 14.4611 33.8023 14.5953 33.8031 14.6286C33.804 14.6618 33.8415 14.6889 33.8864 14.6889C33.9314 14.6889 34.0108 14.7246 34.0629 14.7682C34.4993 15.1331 34.6603 15.2521 34.718 15.2523C34.755 15.2525 34.9087 15.3613 35.0597 15.4941C35.2107 15.627 35.3961 15.7561 35.4715 15.7809C35.6017 15.8238 35.6088 16.6267 35.6088 31.1487V46.4712H34.3538H33.0987V40.5975C33.0987 36.7354 33.0719 34.7238 33.0203 34.7238C32.9772 34.7238 32.9419 34.6737 32.9419 34.6124C32.9419 34.5511 32.8549 34.4425 32.7485 34.371C32.5745 34.254 31.9022 34.2411 26 34.2411C20.0978 34.2411 19.4255 34.254 19.2515 34.371C19.1451 34.4425 19.0581 34.5511 19.0581 34.6124C19.0581 34.6737 19.0228 34.7238 18.9797 34.7238C18.9281 34.7238 18.9013 36.7354 18.9013 40.5975V46.4712H17.6462H16.3912V31.1487C16.3912 15.8969 16.3919 15.826 16.5481 15.7751C16.6344 15.7471 16.705 15.6903 16.705 15.6491C16.705 15.6078 16.7579 15.574 16.8226 15.574C16.8873 15.574 16.9403 15.5439 16.9403 15.5071C16.9403 15.4704 17.0374 15.3898 17.156 15.3281C17.3449 15.2299 17.6259 15.0285 17.9371 14.7682C17.9892 14.7246 18.0686 14.6889 18.1136 14.6889C18.1585 14.6889 18.196 14.6618 18.1969 14.6286C18.1977 14.5953 18.3742 14.4611 18.5891 14.3303C18.8039 14.1995 18.9797 14.0637 18.9797 14.0286C18.9797 13.9935 19.0297 13.9648 19.0908 13.9648C19.152 13.9648 19.2137 13.9372 19.2281 13.9034C19.2425 13.8697 19.4746 13.6978 19.7438 13.5213C20.0131 13.3448 20.2336 13.1733 20.234 13.14C20.2344 13.1068 20.2725 13.0797 20.3187 13.0797C20.365 13.0797 20.452 13.0345 20.5122 12.9791C20.7717 12.7403 20.8604 12.6774 20.9374 12.6774C20.9823 12.6774 21.0191 12.6412 21.0191 12.5969C21.0191 12.5527 21.0654 12.5165 21.122 12.5165C21.1786 12.5165 21.2933 12.4513 21.3769 12.3716C21.4606 12.292 21.6436 12.1574 21.7839 12.0726C21.9241 11.9879 22.0388 11.8901 22.0388 11.8554C22.0388 11.8207 22.0749 11.7923 22.1189 11.7923C22.2261 11.7923 22.83 11.3882 22.9893 11.2101C23.0591 11.132 23.1561 11.0681 23.205 11.0681C23.2538 11.0681 23.2939 11.0386 23.2939 11.0026C23.2939 10.9665 23.4085 10.8762 23.5488 10.8019C23.9223 10.604 24.0995 10.482 24.2432 10.3239C24.3136 10.2464 24.3939 10.1831 24.4216 10.1831C24.4978 10.1831 25.2902 9.60415 25.3202 9.52658C25.3346 9.48933 25.392 9.45891 25.4479 9.45891C25.5037 9.45891 25.5933 9.4046 25.647 9.33822C25.7008 9.27184 25.8596 9.21753 26 9.21753C26.1404 9.21753 26.2992 9.27184 26.353 9.33822ZM25.098 12.8356C25.0332 12.88 24.8853 12.9168 24.7692 12.9176C24.6531 12.9182 24.5363 12.955 24.5097 12.9992C24.483 13.0435 24.3927 13.0797 24.3089 13.0797C24.2252 13.0797 24.1567 13.1159 24.1567 13.1601C24.1567 13.2044 24.1066 13.2406 24.0454 13.2406C23.9054 13.2406 23.4519 13.5016 23.4512 13.5826C23.451 13.6158 23.4157 13.6429 23.3729 13.6429C23.1875 13.6429 22.1957 14.6603 22.1957 14.8505C22.1957 14.8943 22.1604 14.9303 22.1173 14.9303C22.0741 14.9303 22.0388 15.0027 22.0388 15.0912C22.0388 15.1797 22.0122 15.2521 21.9795 15.2521C21.9139 15.2521 21.7931 15.5122 21.6102 16.0468C21.4394 16.5461 21.4424 18.4174 21.6147 18.8914C21.9245 19.7432 22.2008 20.1831 22.8398 20.8418C23.1201 21.1308 23.3742 21.3672 23.4043 21.3672C23.4344 21.3672 23.5889 21.4577 23.7476 21.5684C23.9064 21.679 24.0986 21.7695 24.1749 21.7695C24.2511 21.7695 24.3136 21.8057 24.3136 21.85C24.3136 21.8942 24.4342 21.9305 24.5816 21.9305C24.729 21.9305 24.8637 21.9739 24.8809 22.027C24.9254 22.1639 27.0746 22.1639 27.1191 22.027C27.1363 21.9739 27.271 21.9305 27.4184 21.9305C27.5658 21.9305 27.6864 21.8942 27.6864 21.85C27.6864 21.8057 27.7489 21.7695 27.8251 21.7695C27.9014 21.7695 28.0936 21.679 28.2524 21.5684C28.4111 21.4577 28.5656 21.3672 28.5957 21.3672C28.6258 21.3672 28.8799 21.1308 29.1602 20.8418C29.7992 20.1831 30.0755 19.7432 30.3853 18.8914C30.5576 18.4174 30.5606 16.5461 30.3898 16.0468C30.2069 15.5122 30.0861 15.2521 30.0205 15.2521C29.9878 15.2521 29.9612 15.1797 29.9612 15.0912C29.9612 15.0027 29.9259 14.9303 29.8827 14.9303C29.8396 14.9303 29.8043 14.8943 29.8043 14.8505C29.8043 14.6603 28.8125 13.6429 28.6271 13.6429C28.5843 13.6429 28.549 13.6158 28.5488 13.5826C28.5481 13.5016 28.0946 13.2406 27.9546 13.2406C27.8934 13.2406 27.8433 13.2044 27.8433 13.1601C27.8433 13.1159 27.7748 13.0797 27.6911 13.0797C27.6073 13.0797 27.5194 13.0475 27.4957 13.0081C27.391 12.8344 25.3173 12.6852 25.098 12.8356ZM27.1962 14.5767C27.3795 14.6593 27.5296 14.7546 27.5296 14.7884C27.5296 14.8222 27.5737 14.8501 27.6276 14.8503C27.8369 14.8513 28.4821 15.5913 28.7 16.0803C29.0721 16.9153 29.2265 17.8166 29.0199 17.9476C28.9768 17.975 28.9415 18.1017 28.9415 18.2292C28.9415 18.3568 28.9089 18.4818 28.8691 18.507C28.8292 18.5322 28.7735 18.6611 28.7451 18.7933C28.7168 18.9256 28.6612 19.0338 28.6215 19.0338C28.5817 19.0338 28.5493 19.0698 28.5493 19.1137C28.5493 19.2821 27.9398 19.9217 27.6169 20.0921C27.5042 20.1516 27.3943 20.2185 27.3727 20.2408C27.3001 20.3158 26.9431 20.4696 26.706 20.5281C26.0622 20.6869 24.9044 20.5269 24.6273 20.2408C24.6057 20.2185 24.4959 20.1516 24.3831 20.0921C24.0602 19.9217 23.4507 19.2821 23.4507 19.1137C23.4507 19.0698 23.4183 19.0338 23.3785 19.0338C23.3388 19.0338 23.2832 18.9256 23.2549 18.7933C23.2265 18.6611 23.1708 18.5322 23.1309 18.507C23.0911 18.4818 23.0585 18.3568 23.0585 18.2292C23.0585 18.1017 23.0232 17.975 22.9801 17.9476C22.7835 17.823 22.9257 16.9269 23.2644 16.1552C23.3669 15.9216 23.4507 15.7099 23.4507 15.6846C23.4507 15.5976 24.2746 14.8527 24.3724 14.8513C24.4264 14.8505 24.4704 14.8225 24.4704 14.789C24.4704 14.7175 24.8673 14.5289 25.21 14.4376C25.6259 14.3268 26.8286 14.4111 27.1962 14.5767ZM25.7647 15.0236C25.6784 15.0722 25.5284 15.1963 25.4313 15.2993C25.2649 15.4757 25.2548 15.5528 25.2548 16.6416C25.2548 17.6813 25.2704 17.8136 25.4101 17.9675C25.6084 18.1859 26.0467 18.2522 27.0573 18.2169C27.8211 18.1903 27.8657 18.1789 28.0463 17.9632C28.3131 17.6449 28.2996 17.2506 28.0113 16.9411C27.8064 16.7211 27.7424 16.7005 27.2662 16.7005H26.7452V16.0979C26.7452 15.4446 26.6607 15.2616 26.2588 15.0446C26.0082 14.9094 25.9703 14.9078 25.7647 15.0236ZM14.8224 24.3443V26.9995H8.39042C2.84242 26.9995 1.95841 26.9836 1.95841 26.8836C1.95841 26.8198 1.9937 26.7453 2.03685 26.7179C2.07999 26.6906 2.11529 26.5798 2.11529 26.4718C2.11529 26.3637 2.15058 26.2754 2.19372 26.2754C2.23687 26.2754 2.27216 26.2206 2.27216 26.1536C2.27216 26.0866 2.30385 25.9689 2.34252 25.8921C2.38127 25.8152 2.47375 25.5894 2.54803 25.3903C2.75833 24.8267 2.83402 24.6371 2.90885 24.4862C2.94698 24.4094 2.97812 24.2917 2.97812 24.2247C2.97812 24.1577 3.00463 24.1029 3.03695 24.1029C3.06934 24.1029 3.16409 23.8837 3.24755 23.6157C3.33101 23.3477 3.42812 23.1103 3.46326 23.088C3.4984 23.0657 3.52719 22.9591 3.52719 22.851C3.52719 22.743 3.56249 22.6546 3.60563 22.6546C3.64877 22.6546 3.68407 22.5998 3.68407 22.5328C3.68407 22.4658 3.7156 22.3481 3.75404 22.2713C3.79255 22.1944 3.86244 22.032 3.90927 21.9103L3.99445 21.6891H9.40848H14.8224V24.3443ZM48.0765 21.9103C48.132 22.032 48.2086 22.1944 48.2467 22.2713C48.2848 22.3481 48.3159 22.4658 48.3159 22.5328C48.3159 22.5998 48.3512 22.6546 48.3944 22.6546C48.4375 22.6546 48.4728 22.743 48.4728 22.851C48.4728 22.9591 48.5016 23.0657 48.5367 23.088C48.5719 23.1103 48.669 23.3477 48.7524 23.6157C48.8359 23.8837 48.9307 24.1029 48.9631 24.1029C48.9954 24.1029 49.0219 24.1577 49.0219 24.2247C49.0219 24.2917 49.053 24.4094 49.0911 24.4862C49.166 24.6371 49.2417 24.8267 49.452 25.3903C49.5262 25.5894 49.6187 25.8152 49.6575 25.8921C49.6962 25.9689 49.7278 26.0866 49.7278 26.1536C49.7278 26.2206 49.7631 26.2754 49.8063 26.2754C49.8494 26.2754 49.8847 26.3637 49.8847 26.4718C49.8847 26.5798 49.92 26.6906 49.9632 26.7179C50.0063 26.7453 50.0416 26.8198 50.0416 26.8836C50.0416 26.9836 49.1576 26.9995 43.6096 26.9995H37.1776V24.3443V21.6891H42.5766H47.9757L48.0765 21.9103ZM20.9832 24.6105C20.7533 24.754 20.6269 24.8859 20.6269 24.9823C20.6269 25.0297 20.5916 25.0685 20.5485 25.0685C20.4238 25.0685 20.4429 31.2372 20.5681 31.3919C20.9513 31.8654 20.4747 31.8272 26.0022 31.8272H31.0341L31.282 31.5478L31.53 31.2683V28.1684C31.53 26.1554 31.5024 25.0685 31.4515 25.0685C31.4084 25.0685 31.3731 25.0297 31.3731 24.9823C31.3731 24.8809 31.2389 24.746 30.9985 24.6058C30.7555 24.464 21.2107 24.4685 20.9832 24.6105ZM25.2548 28.2065V30.2985H23.6468H22.0388V28.2065V26.1145H23.6468H25.2548V28.2065ZM29.9612 28.2065V30.2985H28.3532H26.7452V28.2065V26.1145H28.3532H29.9612V28.2065ZM14.8224 37.54V46.4712H9.52778H4.23314V37.54V28.6088H9.52778H14.8224V37.54ZM47.7669 37.54V46.4712H42.4722H37.1776V37.54V28.6088H42.4722H47.7669V37.54ZM7.05695 30.5398C7.05695 30.5841 6.9993 30.6203 6.92886 30.6203C6.85842 30.6203 6.73488 30.6983 6.65432 30.7935C6.51753 30.9553 6.50788 31.1473 6.50788 33.7125C6.50788 36.7191 6.48176 36.5432 6.96714 36.8096C7.20489 36.9402 11.9016 36.9276 12.1786 36.7957C12.6145 36.5883 12.6365 36.4238 12.6105 33.5609C12.5846 30.6893 12.6149 30.8657 12.0938 30.56C11.876 30.4322 7.05695 30.413 7.05695 30.5398ZM39.888 30.5647C39.385 30.8807 39.4154 30.6979 39.3895 33.5609C39.3635 36.4238 39.3855 36.5883 39.8214 36.7957C40.0984 36.9276 44.7951 36.9402 45.0329 36.8096C45.5182 36.5432 45.4921 36.7191 45.4921 33.7125C45.4921 31.1473 45.4825 30.9553 45.3457 30.7935C45.2651 30.6983 45.1416 30.6203 45.0711 30.6203C45.0007 30.6203 44.9431 30.5841 44.9431 30.5398C44.9431 30.4171 40.0848 30.441 39.888 30.5647ZM11.1358 33.6778V35.2871H9.567H7.99822V33.7315C7.99822 32.8759 8.02175 32.1517 8.05054 32.1223C8.07925 32.0927 8.7852 32.0686 9.61932 32.0686H11.1358V33.6778ZM43.9838 33.698L44.0051 35.2871H42.4346H40.8642V33.6762V32.0652L42.4134 32.087L43.9626 32.1088L43.9838 33.698ZM25.2548 41.162V46.4736L22.882 46.4523L20.5093 46.431L20.4891 41.1407L20.4689 35.8503H22.8619H25.2548V41.162ZM31.5109 41.1407L31.4907 46.431L29.118 46.4523L26.7452 46.4736V41.162V35.8503H29.1381H31.5311L31.5109 41.1407ZM6.81363 38.3679L6.5471 38.5521L6.52647 41.3476L6.50584 44.1431L6.69943 44.3416L6.89293 44.5402H9.51986H12.1467L12.3668 44.3461L12.5869 44.1519L12.6097 41.614C12.6222 40.2181 12.6024 38.9567 12.5656 38.8109C12.5242 38.6471 12.3987 38.4767 12.2371 38.3647C11.9796 38.1866 11.9363 38.1837 9.52778 38.1837C7.10692 38.1837 7.07727 38.1857 6.81363 38.3679ZM39.7629 38.3647C39.6013 38.4767 39.4758 38.6471 39.4344 38.8109C39.3976 38.9567 39.3778 40.2181 39.3903 41.614L39.4131 44.1519L39.6332 44.3461L39.8533 44.5402H42.4801H45.1071L45.3006 44.3416L45.4942 44.1431L45.4735 41.3476L45.4529 38.5521L45.1864 38.3679C44.9227 38.1857 44.8931 38.1837 42.4722 38.1837C40.0637 38.1837 40.0204 38.1866 39.7629 38.3647ZM11.1358 41.3604C11.1358 42.9191 11.1348 42.9281 10.9593 42.9724C10.8622 42.9969 10.1651 43.0067 9.41012 42.9941L8.03744 42.9712L8.01618 41.382L7.99493 39.7929H9.56536H11.1358V41.3604ZM43.9838 41.382L43.9626 42.9712L42.5899 42.9941C41.8349 43.0067 41.1377 42.9969 41.0407 42.9724C40.8652 42.9281 40.8642 42.9191 40.8642 41.3604V39.7929H42.4346H44.0051L43.9838 41.382Z" fill="url(#paint0_radial_313_8)"/>
<defs>
<radialGradient id="paint0_radial_313_8" cx="0" cy="0" r="1" gradientUnits="userSpaceOnUse" gradientTransform="translate(49.3913 25.48) rotate(-140.163) scale(91.9859 167.836)">
<stop stop-color="#42E8E0"/>
<stop offset="0.02" stop-color="#43E0DE"/>
<stop offset="0.11" stop-color="#47BAD1"/>
<stop offset="0.21" stop-color="#4B9AC7"/>
<stop offset="0.32" stop-color="#4E7FBE"/>
<stop offset="0.44" stop-color="#506BB7"/>
<stop offset="0.58" stop-color="#525CB3"/>
<stop offset="0.74" stop-color="#5354B0"/>
<stop offset="1" stop-color="#5351AF"/>
</radialGradient>
</defs>
</svg>
