<svg width="43" height="42" viewBox="0 0 43 42" fill="none" xmlns="http://www.w3.org/2000/svg">
<path d="M26.75 27.3C27.905 27.3 28.8941 26.8884 29.7173 26.0652C30.5391 25.2434 30.95 24.255 30.95 23.1C30.95 21.945 30.5391 20.9559 29.7173 20.1327C28.8941 19.3109 27.905 18.9 26.75 18.9C26.225 18.9 25.7266 18.9959 25.2548 19.1877C24.7816 19.3809 24.3525 19.635 23.9675 19.95L18.35 17.115V16.485L23.9675 13.65C24.3525 13.965 24.7816 14.2191 25.2548 14.4123C25.7266 14.6041 26.225 14.7 26.75 14.7C27.905 14.7 28.8941 14.2884 29.7173 13.4652C30.5391 12.6434 30.95 11.655 30.95 10.5C30.95 9.345 30.5391 8.3566 29.7173 7.5348C28.8941 6.7116 27.905 6.3 26.75 6.3C25.595 6.3 24.6066 6.7116 23.7848 7.5348C22.9616 8.3566 22.55 9.345 22.55 10.5V10.815L16.9325 13.65C16.5475 13.335 16.1191 13.0809 15.6473 12.8877C15.1741 12.6959 14.675 12.6 14.15 12.6C12.995 12.6 12.0066 13.0109 11.1848 13.8327C10.3616 14.6559 9.95 15.645 9.95 16.8C9.95 17.955 10.3616 18.9434 11.1848 19.7652C12.0066 20.5884 12.995 21 14.15 21C14.675 21 15.1741 20.9041 15.6473 20.7123C16.1191 20.5191 16.5475 20.265 16.9325 19.95L22.55 22.785V23.1C22.55 24.255 22.9616 25.2434 23.7848 26.0652C24.6066 26.8884 25.595 27.3 26.75 27.3ZM0.5 42V0H42.5V33.6H8.9L0.5 42ZM4.7 31.8675L7.1675 29.4H38.3V4.2H4.7V31.8675ZM4.7 31.8675V4.2V29.4V31.8675Z" fill="#42E8E0"/>
<path d="M26.75 27.3C27.905 27.3 28.8941 26.8884 29.7173 26.0652C30.5391 25.2434 30.95 24.255 30.95 23.1C30.95 21.945 30.5391 20.9559 29.7173 20.1327C28.8941 19.3109 27.905 18.9 26.75 18.9C26.225 18.9 25.7266 18.9959 25.2548 19.1877C24.7816 19.3809 24.3525 19.635 23.9675 19.95L18.35 17.115V16.485L23.9675 13.65C24.3525 13.965 24.7816 14.2191 25.2548 14.4123C25.7266 14.6041 26.225 14.7 26.75 14.7C27.905 14.7 28.8941 14.2884 29.7173 13.4652C30.5391 12.6434 30.95 11.655 30.95 10.5C30.95 9.345 30.5391 8.3566 29.7173 7.5348C28.8941 6.7116 27.905 6.3 26.75 6.3C25.595 6.3 24.6066 6.7116 23.7848 7.5348C22.9616 8.3566 22.55 9.345 22.55 10.5V10.815L16.9325 13.65C16.5475 13.335 16.1191 13.0809 15.6473 12.8877C15.1741 12.6959 14.675 12.6 14.15 12.6C12.995 12.6 12.0066 13.0109 11.1848 13.8327C10.3616 14.6559 9.95 15.645 9.95 16.8C9.95 17.955 10.3616 18.9434 11.1848 19.7652C12.0066 20.5884 12.995 21 14.15 21C14.675 21 15.1741 20.9041 15.6473 20.7123C16.1191 20.5191 16.5475 20.265 16.9325 19.95L22.55 22.785V23.1C22.55 24.255 22.9616 25.2434 23.7848 26.0652C24.6066 26.8884 25.595 27.3 26.75 27.3ZM0.5 42V0H42.5V33.6H8.9L0.5 42ZM4.7 31.8675L7.1675 29.4H38.3V4.2H4.7V31.8675ZM4.7 31.8675V4.2V29.4V31.8675Z" fill="url(#paint0_radial_98_814)"/>
<defs>
<radialGradient id="paint0_radial_98_814" cx="0" cy="0" r="1" gradientUnits="userSpaceOnUse" gradientTransform="translate(40.393 20.5036) rotate(-135.405) scale(80.1159 148.57)">
<stop stop-color="#42E8E0"/>
<stop offset="0.02" stop-color="#43E0DE"/>
<stop offset="0.11" stop-color="#47BAD1"/>
<stop offset="0.21" stop-color="#4B9AC7"/>
<stop offset="0.32" stop-color="#4E7FBE"/>
<stop offset="0.44" stop-color="#506BB7"/>
<stop offset="0.58" stop-color="#525CB3"/>
<stop offset="0.74" stop-color="#5354B0"/>
<stop offset="1" stop-color="#5351AF"/>
</radialGradient>
</defs>
</svg>
