<svg width="46" height="46" viewBox="0 0 46 46" fill="none" xmlns="http://www.w3.org/2000/svg">
<path fill-rule="evenodd" clip-rule="evenodd" d="M21.319 1.02385C21.1199 1.0751 20.9387 1.13523 20.9163 1.15761C20.894 1.17993 20.8285 1.19824 20.7708 1.19824C20.7131 1.19824 20.5767 1.23768 20.4676 1.28594C20.3586 1.33416 20.1839 1.41092 20.0794 1.45653C19.4717 1.72166 18.4422 2.57 17.9604 3.20264C17.8583 3.33671 17.7619 3.4586 17.7462 3.4735C17.6979 3.51928 17.4759 3.92064 17.3566 4.17775C17.139 4.64651 17.0932 4.76357 17.0932 4.85031C17.0932 4.89836 17.0699 4.97999 17.0414 5.03173C16.7492 5.56257 16.7491 7.72537 17.0412 8.2535C17.0698 8.30524 17.0932 8.38688 17.0932 8.43493C17.0932 8.63098 17.5499 9.51703 17.8963 9.99294C18.0992 10.2718 18.0904 10.313 17.8126 10.3869C17.7454 10.4048 17.6905 10.4411 17.6905 10.4677C17.6905 10.4943 17.6621 10.516 17.6274 10.516C17.5542 10.516 17.0206 10.8459 16.9937 10.9078C16.9837 10.9306 16.9515 10.9494 16.9219 10.9494C16.8924 10.9494 16.8377 10.9799 16.8004 11.0171C16.763 11.0543 16.6151 11.1823 16.4718 11.3015C16.0844 11.6235 16.0549 11.6528 15.7617 12.0057C15.6131 12.1845 15.4733 12.3389 15.4508 12.3488C15.4284 12.3588 15.4101 12.3994 15.4101 12.4391C15.4101 12.4788 15.3913 12.5195 15.3684 12.5294C15.3064 12.5562 14.9758 13.0887 14.9758 13.1617C14.9758 13.1963 14.9513 13.2246 14.9215 13.2246C14.8916 13.2246 14.8672 13.2484 14.8672 13.2773C14.8672 13.3063 14.8085 13.4587 14.7369 13.6159C14.6651 13.7731 14.5641 14.0359 14.5123 14.1997C14.4604 14.3636 14.3968 14.5464 14.3709 14.606C14.2812 14.8122 14.2019 15.4214 14.1786 16.0822L14.1552 16.7459H11.1428C8.23445 16.7459 8.12299 16.7496 7.91689 16.8545C7.64536 16.9927 7.32031 17.2761 7.32031 17.3745C7.32031 17.4161 7.29587 17.4501 7.26601 17.4501C7.23615 17.4501 7.21172 17.5111 7.21172 17.5855C7.21172 17.66 7.18729 17.721 7.15742 17.721C7.1268 17.721 7.10313 17.8744 7.10313 18.0731C7.10313 18.2718 7.1268 18.4252 7.15742 18.4252C7.18729 18.4252 7.21172 18.4862 7.21172 18.5607C7.21172 18.6351 7.23615 18.6961 7.26601 18.6961C7.29587 18.6961 7.32031 18.7301 7.32031 18.7717C7.32031 18.8701 7.64536 19.1535 7.91689 19.2917C8.07076 19.37 8.23717 19.4003 8.5126 19.4003H8.89483V23.4331V27.4659L8.22973 27.4886C7.56734 27.5112 6.99818 27.593 6.81885 27.6913C6.767 27.7197 6.68523 27.743 6.63718 27.743C6.58913 27.743 6.48494 27.7774 6.40567 27.8194C6.3264 27.8614 6.16384 27.9383 6.0444 27.9904C5.92495 28.0424 5.72949 28.1464 5.61005 28.2216C5.4906 28.2968 5.33478 28.3887 5.26376 28.4257C5.00809 28.559 4.42459 29.0847 4.01608 29.5498C3.4606 30.1822 2.95871 31.2217 2.80001 32.0684C2.67448 32.7385 2.76206 34.6432 2.92613 34.8098C2.95398 34.8381 2.97679 34.9055 2.97679 34.9596C2.97679 35.0136 3.00003 35.1001 3.02848 35.1519C3.05687 35.2036 3.12045 35.3434 3.16975 35.4626C3.32335 35.8341 3.37579 35.9301 3.66904 36.3759C3.9638 36.8241 3.99578 36.8982 3.89441 36.8982C3.82177 36.8982 3.44893 37.068 3.41114 37.1183C3.39621 37.1382 3.32905 37.1715 3.26183 37.1925C3.19467 37.2134 3.13967 37.2532 3.13967 37.281C3.13967 37.3088 3.11263 37.3316 3.07962 37.3316C2.94106 37.3316 1.67373 38.4425 1.67373 38.564C1.67373 38.5871 1.61265 38.6518 1.538 38.7077C1.46334 38.7636 1.40226 38.8321 1.40226 38.8599C1.40226 38.8876 1.37175 38.9443 1.3344 38.9859C1.17325 39.1651 1.13079 39.2264 1.13079 39.2795C1.13079 39.3106 1.10799 39.336 1.08014 39.336C1.05228 39.336 1.01238 39.3908 0.99142 39.4579C0.970408 39.5249 0.938266 39.5919 0.919861 39.6069C0.858508 39.6567 0.696441 39.9938 0.696441 40.0717C0.696441 40.1139 0.677764 40.1486 0.654906 40.1486C0.606639 40.1486 0.424971 40.6359 0.424971 40.7653C0.424971 40.8134 0.404611 40.8528 0.379744 40.8528C0.336363 40.8528 0.264967 41.1357 0.147203 41.7738C0.0560434 42.2678 0.0229783 44.6248 0.102573 44.9564C0.140145 45.1129 0.191398 45.2408 0.216482 45.2408C0.241566 45.2408 0.262089 45.2728 0.262089 45.3118C0.262089 45.4238 0.553376 45.692 0.818765 45.8242L1.06124 45.9451H22.5498H44.0383L44.2808 45.8242C44.5462 45.692 44.8374 45.4238 44.8374 45.3118C44.8374 45.2728 44.8568 45.2408 44.8805 45.2408C45.1114 45.2408 45.1189 42.0401 44.8894 41.4758C44.8651 41.4162 44.8296 41.273 44.8105 41.1576C44.7914 41.0423 44.7554 40.9082 44.7305 40.8597C44.7057 40.8112 44.6412 40.6314 44.5873 40.4601C44.5333 40.2888 44.4698 40.1486 44.4461 40.1486C44.4225 40.1486 44.4031 40.1139 44.4031 40.0717C44.4031 40.0007 44.2482 39.6691 44.1859 39.6069C44.1467 39.5676 44.0285 39.3765 43.985 39.2818C43.9645 39.2371 43.9219 39.1709 43.8903 39.1347C43.7319 38.9527 43.6973 38.9032 43.6973 38.8583C43.6973 38.8314 43.6362 38.7636 43.5615 38.7077C43.4869 38.6518 43.4258 38.5871 43.4258 38.564C43.4258 38.444 42.1545 37.3316 42.0174 37.3316C41.9857 37.3316 41.9599 37.3088 41.9599 37.281C41.9599 37.2532 41.9049 37.2134 41.8377 37.1925C41.7705 37.1715 41.7033 37.1382 41.6884 37.1183C41.6506 37.068 41.2778 36.8982 41.2051 36.8982C41.1038 36.8982 41.1357 36.8241 41.4305 36.3759C41.5873 36.1375 41.7436 35.8833 41.7779 35.8109C41.9005 35.552 42.0028 35.2966 42.0692 35.0834C42.1062 34.9642 42.1608 34.8058 42.1903 34.7313C42.3524 34.323 42.4176 32.7688 42.2995 32.131C42.2125 31.6613 42.1008 31.2642 42.0556 31.2642C42.0328 31.2642 42.0142 31.2235 42.0142 31.1737C42.0142 30.9487 41.4556 29.9738 41.0835 29.5494C40.6885 29.0988 40.0403 28.5088 39.8783 28.4523C39.8436 28.4402 39.742 28.3773 39.6524 28.3125C39.5628 28.2477 39.3429 28.1268 39.1637 28.044C38.9846 27.9611 38.7893 27.8678 38.7298 27.8366C38.4197 27.6739 37.5651 27.5137 36.8698 27.4879L36.2047 27.4633V23.4318V19.4003H36.5869C36.8624 19.4003 37.0288 19.37 37.1826 19.2917C37.4542 19.1535 37.7792 18.8701 37.7792 18.7717C37.7792 18.7301 37.8037 18.6961 37.8335 18.6961C37.8634 18.6961 37.8878 18.6351 37.8878 18.5607C37.8878 18.4862 37.9122 18.4252 37.9421 18.4252C37.9727 18.4252 37.9964 18.2718 37.9964 18.0731C37.9964 17.8744 37.9727 17.721 37.9421 17.721C37.9122 17.721 37.8878 17.66 37.8878 17.5855C37.8878 17.5111 37.8634 17.4501 37.8335 17.4501C37.8037 17.4501 37.7792 17.4161 37.7792 17.3745C37.7792 17.2761 37.4542 16.9927 37.1826 16.8545C36.997 16.76 36.8629 16.7459 36.1526 16.7459H35.336V14.611V12.4762L35.1969 12.2087C35.0096 11.8485 33.1244 9.97772 32.7875 9.8178C32.3138 9.59287 31.6904 9.70826 31.2749 10.0978C31.0959 10.2656 30.8839 10.7575 30.8839 11.0053C30.8839 11.2119 31.0025 11.6536 31.058 11.6536C31.0817 11.6536 31.1011 11.6881 31.1011 11.7304C31.1011 11.7726 31.4553 12.1626 31.8883 12.597L32.6756 13.387V15.0664V16.7459H31.8114H30.9473L30.9231 16.1093C30.8987 15.4625 30.8131 14.8024 30.7283 14.606C30.7026 14.5464 30.6391 14.3636 30.5873 14.1997C30.5354 14.0359 30.4344 13.7731 30.3627 13.6159C30.291 13.4587 30.2324 13.3063 30.2324 13.2773C30.2324 13.2484 30.2079 13.2246 30.1781 13.2246C30.1482 13.2246 30.1238 13.1963 30.1238 13.1617C30.1238 13.0887 29.7931 12.5562 29.7311 12.5294C29.7082 12.5195 29.6894 12.4788 29.6894 12.4391C29.6894 12.3994 29.6711 12.3588 29.6487 12.3488C29.6263 12.3389 29.4861 12.1845 29.3371 12.0057C29.0059 11.6083 29.029 11.6313 28.6307 11.3009C28.4515 11.1522 28.2968 11.0123 28.2868 10.99C28.2769 10.9676 28.2361 10.9494 28.1963 10.9494C28.1565 10.9494 28.1158 10.9306 28.1058 10.9078C28.079 10.8459 27.5454 10.516 27.4722 10.516C27.4375 10.516 27.4091 10.4943 27.4091 10.4677C27.4091 10.4411 27.3541 10.4048 27.2869 10.3869C27.0068 10.3124 26.9999 10.2721 27.2168 9.97734C27.4822 9.61666 28.0063 8.58667 28.0063 8.42593C28.0063 8.35741 28.0267 8.28871 28.0516 8.27333C28.0766 8.25794 28.1406 8.01384 28.1941 7.73084C28.3461 6.92464 28.2527 5.21814 28.0451 5.01104C28.0238 4.98969 28.0063 4.92517 28.0063 4.86759C28.0063 4.66319 27.6014 3.85206 27.2564 3.36515C26.9776 2.9718 26.3692 2.34215 25.9974 2.06219C25.8631 1.96099 25.7409 1.86538 25.7259 1.84972C25.6736 1.79484 25.0034 1.44927 24.6319 1.28556C24.5229 1.23757 24.3864 1.19824 24.3288 1.19824C24.271 1.19824 24.2064 1.18079 24.185 1.1595C24.0654 1.04016 23.5558 0.970765 22.6584 0.951642C21.861 0.934632 21.6144 0.947904 21.319 1.02385ZM23.5948 3.77681C23.8263 3.85813 24.0279 3.94139 24.0429 3.96187C24.0578 3.98229 24.1677 4.06149 24.2872 4.13788C24.5099 4.28024 24.6925 4.44298 24.8853 4.67116C25.0333 4.84613 25.3459 5.35807 25.3459 5.4253C25.3459 5.45504 25.3692 5.52172 25.3977 5.57346C25.4877 5.7369 25.6174 6.36818 25.6174 6.64262C25.6174 6.91706 25.4877 7.54833 25.3977 7.71177C25.3692 7.76351 25.3459 7.83019 25.3459 7.85994C25.3459 7.99661 24.8931 8.64333 24.6464 8.85894C24.5753 8.92113 24.4897 8.9973 24.4564 9.02812C24.3549 9.12195 23.8277 9.43252 23.7698 9.43252C23.74 9.43252 23.6732 9.45576 23.6213 9.4842C23.4586 9.57337 22.8256 9.70339 22.5541 9.70339C21.8239 9.70339 20.7973 9.26274 20.3454 8.75536C20.108 8.48888 20.0251 8.38417 20.0251 8.35101C20.0251 8.33135 19.9806 8.2677 19.9263 8.20946C19.7433 8.01346 19.4834 7.0935 19.4836 6.64262C19.4838 6.24656 19.7391 5.24913 19.8649 5.15286C19.8844 5.13796 19.9618 5.02826 20.037 4.90908C20.2009 4.64927 20.7367 4.12357 20.8376 4.12357C20.8573 4.12357 20.9211 4.07921 20.9794 4.02498C21.0905 3.92173 21.7815 3.66088 22.0611 3.61668C22.4551 3.55443 23.176 3.62968 23.5948 3.77681ZM25.0738 12.4554C25.3722 12.518 25.5501 12.5763 25.8699 12.7163C25.964 12.7575 26.0679 12.7912 26.1006 12.7912C26.1335 12.7912 26.1603 12.8128 26.1603 12.8391C26.1603 12.8654 26.2031 12.9013 26.2553 12.9188C26.3498 12.9505 26.4568 13.0152 26.6711 13.1705C26.8163 13.2756 27.358 13.8161 27.4634 13.9609C27.619 14.1748 27.6839 14.2815 27.7156 14.3758C27.7332 14.428 27.7691 14.4706 27.7955 14.4706C27.8218 14.4706 27.8434 14.4974 27.8434 14.5301C27.8434 14.5629 27.8772 14.6665 27.9185 14.7604C28.1414 15.2672 28.2245 15.6407 28.261 16.2989L28.2858 16.7459H22.5498H16.8138L16.8385 16.2989C16.875 15.6407 16.9581 15.2672 17.181 14.7604C17.2223 14.6665 17.2561 14.5629 17.2561 14.5301C17.2561 14.4974 17.2777 14.4706 17.304 14.4706C17.3304 14.4706 17.3664 14.428 17.3839 14.3758C17.4157 14.2815 17.4806 14.1748 17.6362 13.9609C17.7415 13.8161 18.2832 13.2756 18.4284 13.1705C18.6428 13.0152 18.7497 12.9505 18.8442 12.9188C18.8964 12.9013 18.9392 12.8654 18.9392 12.8391C18.9392 12.8128 18.966 12.7912 18.9989 12.7912C19.0317 12.7912 19.1355 12.7563 19.2296 12.7136C19.5167 12.5834 19.9122 12.4663 20.0677 12.4654C20.1488 12.4649 20.2518 12.4406 20.2966 12.4114C20.4131 12.3353 24.689 12.3747 25.0738 12.4554ZM33.5443 23.8922V28.3842L33.3407 28.5084C33.2287 28.5766 33.0714 28.6945 32.9911 28.7701C32.9108 28.8458 32.7642 28.983 32.6653 29.0751C32.3251 29.392 31.8069 30.0205 31.8069 30.1163C31.8069 30.1468 31.7883 30.1798 31.7657 30.1898C31.6491 30.2409 31.1011 31.5002 31.1011 31.717C31.1011 31.7858 31.0828 31.8603 31.0605 31.8825C31.0002 31.9427 30.8889 32.7568 30.8858 33.1603C30.8829 33.5455 30.9773 34.3156 31.0484 34.4875C31.0731 34.5471 31.1089 34.6903 31.128 34.8057C31.1472 34.921 31.1834 35.0551 31.2087 35.1036C31.234 35.1521 31.3182 35.338 31.3959 35.5168C31.4735 35.6956 31.5619 35.8784 31.5922 35.9231C31.6224 35.9678 31.6615 36.047 31.6791 36.0991C31.6966 36.1513 31.7326 36.1939 31.7589 36.1939C31.7853 36.1939 31.8069 36.2288 31.8069 36.2714C31.8069 36.3139 31.8384 36.3809 31.877 36.4203C31.9977 36.5437 32.1327 36.757 32.1327 36.8247C32.1327 36.8604 32.0594 36.9057 31.9698 36.9253C31.8802 36.9449 31.8066 36.9773 31.8063 36.9973C31.8059 37.0173 31.7082 37.0802 31.5891 37.1371C31.47 37.1941 31.3725 37.2611 31.3725 37.2861C31.3725 37.3111 31.3397 37.3316 31.2996 37.3316C31.2594 37.3316 31.1556 37.3925 31.0688 37.467C30.982 37.5414 30.8963 37.6023 30.8782 37.6024C30.8096 37.6025 30.1787 38.1949 29.8719 38.5473C29.6957 38.7497 29.6231 38.7977 29.5353 38.7699C29.4738 38.7505 29.4095 38.6907 29.3925 38.6371C29.3593 38.5327 28.728 37.8897 28.5748 37.8042C28.5242 37.7759 28.4409 37.7128 28.3897 37.664C28.2044 37.4873 27.9812 37.3316 27.9131 37.3316C27.8748 37.3316 27.8434 37.3088 27.8434 37.281C27.8434 37.2532 27.7885 37.2134 27.7213 37.1925C27.6541 37.1715 27.5869 37.1378 27.572 37.1174C27.557 37.097 27.4288 37.025 27.2869 36.9573C27.0595 36.8489 26.9495 36.7357 27.0716 36.7357C27.095 36.7357 27.1604 36.6565 27.2168 36.5596C27.2733 36.4627 27.3335 36.3714 27.3507 36.3565C27.3997 36.314 27.6238 35.9157 27.7164 35.7064C27.7626 35.6021 27.8467 35.4145 27.9034 35.2895C27.96 35.1645 28.0063 35.024 28.0063 34.9773C28.0063 34.9306 28.0297 34.85 28.0583 34.7982C28.0869 34.7465 28.148 34.5287 28.1941 34.3143C28.354 33.5695 28.2745 31.9673 28.0583 31.5765C28.0297 31.5247 28.0063 31.4431 28.0063 31.395C28.0063 31.1919 27.545 30.3042 27.1783 29.8015C26.8665 29.3741 26.1925 28.7296 25.7517 28.4372C25.3386 28.1632 24.4732 27.743 24.322 27.743C24.27 27.743 24.2042 27.7214 24.1759 27.6951C23.9007 27.4398 21.1988 27.4398 20.9237 27.6951C20.8953 27.7214 20.8288 27.743 20.7758 27.743C20.6846 27.743 20.2436 27.9246 19.8894 28.1081C18.9398 28.6 17.958 29.5754 17.5004 30.4812C17.4108 30.6586 17.3192 30.8119 17.2968 30.8218C17.2744 30.8317 17.2561 30.8716 17.2561 30.9104C17.2561 30.9492 17.2196 31.0508 17.175 31.1361C17.1304 31.2215 17.0938 31.3413 17.0935 31.4023C17.0934 31.4635 17.0721 31.5366 17.0463 31.5649C17.0205 31.5932 16.9563 31.8258 16.9038 32.0819C16.7502 32.8307 16.8482 34.6133 17.0544 34.8189C17.0757 34.8403 17.0932 34.9048 17.0932 34.9624C17.0932 35.0656 17.1342 35.173 17.3566 35.6522C17.4818 35.9221 17.7003 36.3144 17.7488 36.3565C17.766 36.3714 17.8262 36.4627 17.8827 36.5596C17.9392 36.6565 18.0045 36.7357 18.0279 36.7357C18.15 36.7357 18.0401 36.8489 17.8126 36.9573C17.6707 37.025 17.5425 37.097 17.5276 37.1174C17.5126 37.1378 17.4455 37.1715 17.3783 37.1925C17.3111 37.2134 17.2561 37.2532 17.2561 37.281C17.2561 37.3088 17.2248 37.3316 17.1864 37.3316C17.1183 37.3316 16.8951 37.4873 16.7098 37.664C16.6587 37.7128 16.5754 37.7759 16.5247 37.8042C16.3715 37.8897 15.7402 38.5327 15.707 38.6371C15.69 38.6907 15.6257 38.7505 15.5642 38.7699C15.4765 38.7977 15.4039 38.7497 15.2276 38.547C14.8487 38.1112 14.487 37.7754 14.184 37.5776C14.0969 37.5207 13.9933 37.4421 13.9539 37.4029C13.9144 37.3636 13.8472 37.3316 13.8046 37.3316C13.7619 37.3316 13.727 37.3111 13.727 37.2861C13.727 37.2611 13.6295 37.1941 13.5104 37.1371C13.3913 37.0802 13.2936 37.0173 13.2932 36.9973C13.2929 36.9773 13.2193 36.9449 13.1298 36.9253C13.0402 36.9057 12.9669 36.8604 12.9669 36.8247C12.9669 36.757 13.1018 36.5437 13.2226 36.4203C13.2611 36.3809 13.2926 36.3139 13.2926 36.2714C13.2926 36.2288 13.3143 36.1939 13.3406 36.1939C13.367 36.1939 13.4029 36.1513 13.4205 36.0991C13.438 36.047 13.4771 35.9678 13.5074 35.9231C13.5543 35.8538 13.7265 35.4783 13.8923 35.0834C13.9425 34.9638 14.0297 34.593 14.1152 34.1354C14.1811 33.783 14.1432 32.1232 14.064 31.8872C14.034 31.7978 13.968 31.5906 13.9174 31.4267C13.8116 31.0842 13.4051 30.2167 13.3379 30.1898C13.313 30.1798 13.2926 30.1468 13.2926 30.1163C13.2926 30.0205 12.7745 29.392 12.4342 29.0751C12.3353 28.983 12.1887 28.8458 12.1084 28.7701C12.0281 28.6945 11.8708 28.5766 11.7588 28.5084L11.5552 28.3842V23.8922V19.4003H22.5498H33.5443V23.8922ZM9.1663 30.2348C9.33054 30.2693 9.48816 30.3199 9.5165 30.3474C9.54489 30.375 9.59946 30.3974 9.63784 30.3974C9.71852 30.3974 10.2704 30.7243 10.2974 30.7881C10.3074 30.8116 10.3371 30.8308 10.3634 30.8308C10.4386 30.8308 10.6975 31.1029 10.9046 31.3996C11.0087 31.5486 11.1121 31.6786 11.1345 31.6885C11.1568 31.6985 11.1752 31.7384 11.1752 31.7772C11.1752 31.816 11.2117 31.9175 11.2563 32.0029C11.3009 32.0882 11.3375 32.1958 11.3377 32.242C11.3379 32.2882 11.3678 32.3557 11.4041 32.3919C11.449 32.4367 11.4704 32.6787 11.4707 33.1476C11.4712 33.7807 11.4583 33.8708 11.3134 34.2437C11.2265 34.4672 11.1233 34.6822 11.0839 34.7216C11.0445 34.761 11.0123 34.8156 11.0123 34.8431C11.0123 34.958 10.4916 35.4927 10.1891 35.6884C10.0595 35.7722 9.94135 35.854 9.92642 35.8702C9.91149 35.8863 9.71603 35.9706 9.49207 36.0575C9.13291 36.1969 9.01439 36.2159 8.48763 36.2183C7.8589 36.2212 7.53265 36.1502 7.05937 35.9075C6.80614 35.7777 6.07665 35.2176 6.0735 35.1506C6.07241 35.128 5.99825 35.0086 5.90866 34.8852C5.81908 34.7618 5.74578 34.6279 5.74578 34.5877C5.74578 34.5475 5.72135 34.5146 5.69149 34.5146C5.66163 34.5146 5.63719 34.4707 5.63719 34.4171C5.63719 34.3634 5.61548 34.2964 5.58893 34.2681C5.4286 34.0971 5.35226 33.0278 5.46541 32.5373C5.53246 32.2465 5.54658 32.2097 5.76913 31.7447C5.90269 31.4655 6.42684 30.8308 6.52381 30.8308C6.54635 30.8308 6.61867 30.7806 6.68463 30.7193C6.8537 30.562 7.39735 30.3132 7.7818 30.2173C8.13879 30.1281 8.69074 30.1351 9.1663 30.2348ZM23.147 30.2127C23.7088 30.3403 23.9489 30.4497 24.4261 30.7954C24.9412 31.1686 25.3538 31.8302 25.5316 32.5678C25.6981 33.2582 25.6024 33.8985 25.2181 34.6655C25.0355 35.0298 24.5891 35.5218 24.2602 35.7209C24.1556 35.7842 24.0578 35.8508 24.0429 35.8689C24.0279 35.8868 23.8935 35.9449 23.7442 35.9978C23.5949 36.0507 23.4141 36.1226 23.3424 36.1575C23.1741 36.2394 21.933 36.242 21.7571 36.1608C21.4056 35.9985 21.2087 35.9231 21.1363 35.9231C21.0925 35.9231 21.0567 35.9042 21.0567 35.8812C21.0567 35.8582 20.9773 35.7964 20.8802 35.744C20.6691 35.6299 20.188 35.1906 20.188 35.1119C20.188 35.0813 20.1688 35.0563 20.1454 35.0563C20.122 35.0563 20.0566 34.9771 20.0002 34.8802C19.9437 34.7834 19.8822 34.692 19.8635 34.6771C19.738 34.5772 19.4838 33.5804 19.4836 33.1873C19.4834 32.9022 19.6353 32.2165 19.7596 31.9414C19.8834 31.6673 20.1277 31.3014 20.3272 31.0912C20.5287 30.8788 21.2195 30.3974 21.3226 30.3974C21.3563 30.3974 21.4264 30.3746 21.4782 30.3466C21.6365 30.2614 22.2083 30.1417 22.4955 30.1338C22.6448 30.1297 22.938 30.1651 23.147 30.2127ZM37.2634 30.2125C37.6782 30.3066 38.1334 30.504 38.4308 30.7187C38.6878 30.9043 39.028 31.2389 39.028 31.3062C39.028 31.3363 39.0606 31.3734 39.1003 31.3886C39.1617 31.4122 39.3325 31.7225 39.524 32.1581C39.6233 32.3839 39.6966 32.8218 39.6963 33.1873C39.6961 33.5825 39.5989 34.1252 39.5125 34.2139C39.4849 34.2422 39.4623 34.3215 39.4623 34.39C39.4623 34.4585 39.4406 34.5146 39.4139 34.5146C39.3873 34.5146 39.3502 34.5755 39.3314 34.65C39.3127 34.7245 39.2734 34.7854 39.2441 34.7854C39.2148 34.7854 39.1907 34.8159 39.1905 34.8532C39.1894 35.0771 38.3346 35.7999 37.8335 36.0007C37.6991 36.0545 37.5305 36.1261 37.4588 36.1598C37.3836 36.1951 37.0504 36.2204 36.6716 36.2194C36.0755 36.218 35.977 36.2031 35.6075 36.0587C35.3835 35.9712 35.188 35.8863 35.1731 35.8702C35.1582 35.854 35.0482 35.7765 34.9288 35.6979C34.5962 35.4792 34.0872 34.962 34.0872 34.8429C34.0872 34.8156 34.055 34.761 34.0156 34.7216C33.9763 34.6822 33.8732 34.4672 33.7866 34.2437C33.6445 33.8771 33.6289 33.7734 33.6274 33.182C33.6264 32.7983 33.6515 32.4726 33.6879 32.3965C33.7221 32.325 33.7931 32.1445 33.8458 31.9955C33.8985 31.8466 33.9562 31.7125 33.9742 31.6976C33.9921 31.6827 34.0705 31.5723 34.1484 31.4524C34.3125 31.1994 34.6594 30.8308 34.7333 30.8308C34.7612 30.8308 34.7921 30.8116 34.8021 30.7881C34.8305 30.721 35.3831 30.3974 35.4693 30.3974C35.5119 30.3974 35.561 30.3745 35.5784 30.3464C35.5958 30.3183 35.7255 30.2784 35.8666 30.2576C36.0078 30.2369 36.1721 30.2005 36.2318 30.1767C36.4111 30.1053 36.8596 30.1209 37.2634 30.2125ZM10.8766 38.9962C11.2258 39.0655 11.6832 39.1907 11.7181 39.2267C11.733 39.2421 11.9102 39.3393 12.1117 39.4426C12.3133 39.5459 12.4782 39.6479 12.4782 39.6692C12.4782 39.6905 12.5223 39.7218 12.5762 39.7389C12.8044 39.8112 13.4033 40.5016 13.6835 41.0153C13.951 41.5058 14.1613 42.3393 14.1613 42.909V43.2906H8.43333H2.70532L2.70727 43.1416C2.71254 42.7386 2.91869 41.6154 3.02576 41.4062C3.05193 41.3551 3.11882 41.2158 3.17436 41.0966C3.22996 40.9774 3.28784 40.8677 3.30304 40.8528C3.3183 40.8379 3.39496 40.7282 3.47347 40.609C3.68913 40.2817 4.37605 39.6068 4.49354 39.6068C4.52107 39.6068 4.57585 39.5754 4.61533 39.5371C4.69997 39.4547 5.05755 39.2818 5.14317 39.2818C5.17602 39.2818 5.20284 39.2632 5.20284 39.2405C5.20284 39.1922 5.64713 39.0727 6.06302 39.0091C6.22259 38.9847 6.36821 38.9497 6.38661 38.9313C6.44069 38.8774 10.5789 38.9372 10.8766 38.9962ZM24.993 38.9985C25.4663 39.0812 26.0338 39.3023 26.4546 39.568C26.9157 39.8592 27.6085 40.6023 27.7156 40.9205C27.7332 40.9726 27.7691 41.0153 27.7955 41.0153C27.8218 41.0153 27.8434 41.0421 27.8434 41.0749C27.8434 41.1076 27.8767 41.2112 27.9172 41.3051C28.0889 41.7022 28.1161 41.7924 28.1495 42.0753C28.1688 42.2388 28.2055 42.3856 28.2311 42.4015C28.2568 42.4173 28.2778 42.6238 28.2778 42.8604V43.2906H22.5498H16.8218V42.8604C16.8218 42.6238 16.8428 42.4173 16.8684 42.4015C16.894 42.3856 16.9308 42.2388 16.9501 42.0753C16.9834 41.7924 17.0106 41.7022 17.1823 41.3051C17.2229 41.2112 17.2561 41.1076 17.2561 41.0749C17.2561 41.0421 17.2777 41.0153 17.304 41.0153C17.3304 41.0153 17.3664 40.9726 17.3839 40.9205C17.489 40.6083 18.4239 39.6068 18.6102 39.6068C18.6376 39.6068 18.6923 39.5756 18.7318 39.5375C18.9262 39.3495 19.6205 39.0922 20.2694 38.9678C20.6268 38.8992 24.5716 38.9249 24.993 38.9985ZM39.0551 38.997C39.5547 39.0998 39.8967 39.1987 39.8967 39.2405C39.8967 39.2632 39.9314 39.2818 39.9737 39.2818C40.062 39.2818 40.3716 39.4386 40.4818 39.5391C40.5226 39.5764 40.5785 39.6068 40.606 39.6068C40.7237 39.6068 41.4182 40.2858 41.6228 40.6009C41.7031 40.7245 41.7812 40.8379 41.7965 40.8528C41.8242 40.88 41.9489 41.1403 42.056 41.3945C42.2142 41.7703 42.2971 42.1735 42.3252 42.7044L42.3562 43.2906H36.6472H30.9382L30.9414 42.8978C30.9432 42.6819 30.9663 42.3954 30.9928 42.2613C31.1152 41.6411 31.0986 41.6926 31.3512 41.1563C31.6059 40.6156 32.1103 39.993 32.4611 39.7863C32.5492 39.7343 32.6213 39.678 32.6213 39.6612C32.6213 39.6443 32.7862 39.5459 32.9878 39.4426C33.1893 39.3393 33.3665 39.2421 33.3814 39.2267C33.4272 39.1794 33.8784 39.0657 34.2468 39.0085C34.4391 38.9787 34.6089 38.9419 34.6242 38.9266C34.6755 38.8754 38.7809 38.9406 39.0551 38.997Z" fill="#49A999"/>
<path fill-rule="evenodd" clip-rule="evenodd" d="M21.319 1.02385C21.1199 1.0751 20.9387 1.13523 20.9163 1.15761C20.894 1.17993 20.8285 1.19824 20.7708 1.19824C20.7131 1.19824 20.5767 1.23768 20.4676 1.28594C20.3586 1.33416 20.1839 1.41092 20.0794 1.45653C19.4717 1.72166 18.4422 2.57 17.9604 3.20264C17.8583 3.33671 17.7619 3.4586 17.7462 3.4735C17.6979 3.51928 17.4759 3.92064 17.3566 4.17775C17.139 4.64651 17.0932 4.76357 17.0932 4.85031C17.0932 4.89836 17.0699 4.97999 17.0414 5.03173C16.7492 5.56257 16.7491 7.72537 17.0412 8.2535C17.0698 8.30524 17.0932 8.38688 17.0932 8.43493C17.0932 8.63098 17.5499 9.51703 17.8963 9.99294C18.0992 10.2718 18.0904 10.313 17.8126 10.3869C17.7454 10.4048 17.6905 10.4411 17.6905 10.4677C17.6905 10.4943 17.6621 10.516 17.6274 10.516C17.5542 10.516 17.0206 10.8459 16.9937 10.9078C16.9837 10.9306 16.9515 10.9494 16.9219 10.9494C16.8924 10.9494 16.8377 10.9799 16.8004 11.0171C16.763 11.0543 16.6151 11.1823 16.4718 11.3015C16.0844 11.6235 16.0549 11.6528 15.7617 12.0057C15.6131 12.1845 15.4733 12.3389 15.4508 12.3488C15.4284 12.3588 15.4101 12.3994 15.4101 12.4391C15.4101 12.4788 15.3913 12.5195 15.3684 12.5294C15.3064 12.5562 14.9758 13.0887 14.9758 13.1617C14.9758 13.1963 14.9513 13.2246 14.9215 13.2246C14.8916 13.2246 14.8672 13.2484 14.8672 13.2773C14.8672 13.3063 14.8085 13.4587 14.7369 13.6159C14.6651 13.7731 14.5641 14.0359 14.5123 14.1997C14.4604 14.3636 14.3968 14.5464 14.3709 14.606C14.2812 14.8122 14.2019 15.4214 14.1786 16.0822L14.1552 16.7459H11.1428C8.23445 16.7459 8.12299 16.7496 7.91689 16.8545C7.64536 16.9927 7.32031 17.2761 7.32031 17.3745C7.32031 17.4161 7.29587 17.4501 7.26601 17.4501C7.23615 17.4501 7.21172 17.5111 7.21172 17.5855C7.21172 17.66 7.18729 17.721 7.15742 17.721C7.1268 17.721 7.10313 17.8744 7.10313 18.0731C7.10313 18.2718 7.1268 18.4252 7.15742 18.4252C7.18729 18.4252 7.21172 18.4862 7.21172 18.5607C7.21172 18.6351 7.23615 18.6961 7.26601 18.6961C7.29587 18.6961 7.32031 18.7301 7.32031 18.7717C7.32031 18.8701 7.64536 19.1535 7.91689 19.2917C8.07076 19.37 8.23717 19.4003 8.5126 19.4003H8.89483V23.4331V27.4659L8.22973 27.4886C7.56734 27.5112 6.99818 27.593 6.81885 27.6913C6.767 27.7197 6.68523 27.743 6.63718 27.743C6.58913 27.743 6.48494 27.7774 6.40567 27.8194C6.3264 27.8614 6.16384 27.9383 6.0444 27.9904C5.92495 28.0424 5.72949 28.1464 5.61005 28.2216C5.4906 28.2968 5.33478 28.3887 5.26376 28.4257C5.00809 28.559 4.42459 29.0847 4.01608 29.5498C3.4606 30.1822 2.95871 31.2217 2.80001 32.0684C2.67448 32.7385 2.76206 34.6432 2.92613 34.8098C2.95398 34.8381 2.97679 34.9055 2.97679 34.9596C2.97679 35.0136 3.00003 35.1001 3.02848 35.1519C3.05687 35.2036 3.12045 35.3434 3.16975 35.4626C3.32335 35.8341 3.37579 35.9301 3.66904 36.3759C3.9638 36.8241 3.99578 36.8982 3.89441 36.8982C3.82177 36.8982 3.44893 37.068 3.41114 37.1183C3.39621 37.1382 3.32905 37.1715 3.26183 37.1925C3.19467 37.2134 3.13967 37.2532 3.13967 37.281C3.13967 37.3088 3.11263 37.3316 3.07962 37.3316C2.94106 37.3316 1.67373 38.4425 1.67373 38.564C1.67373 38.5871 1.61265 38.6518 1.538 38.7077C1.46334 38.7636 1.40226 38.8321 1.40226 38.8599C1.40226 38.8876 1.37175 38.9443 1.3344 38.9859C1.17325 39.1651 1.13079 39.2264 1.13079 39.2795C1.13079 39.3106 1.10799 39.336 1.08014 39.336C1.05228 39.336 1.01238 39.3908 0.99142 39.4579C0.970408 39.5249 0.938266 39.5919 0.919861 39.6069C0.858508 39.6567 0.696441 39.9938 0.696441 40.0717C0.696441 40.1139 0.677764 40.1486 0.654906 40.1486C0.606639 40.1486 0.424971 40.6359 0.424971 40.7653C0.424971 40.8134 0.404611 40.8528 0.379744 40.8528C0.336363 40.8528 0.264967 41.1357 0.147203 41.7738C0.0560434 42.2678 0.0229783 44.6248 0.102573 44.9564C0.140145 45.1129 0.191398 45.2408 0.216482 45.2408C0.241566 45.2408 0.262089 45.2728 0.262089 45.3118C0.262089 45.4238 0.553376 45.692 0.818765 45.8242L1.06124 45.9451H22.5498H44.0383L44.2808 45.8242C44.5462 45.692 44.8374 45.4238 44.8374 45.3118C44.8374 45.2728 44.8568 45.2408 44.8805 45.2408C45.1114 45.2408 45.1189 42.0401 44.8894 41.4758C44.8651 41.4162 44.8296 41.273 44.8105 41.1576C44.7914 41.0423 44.7554 40.9082 44.7305 40.8597C44.7057 40.8112 44.6412 40.6314 44.5873 40.4601C44.5333 40.2888 44.4698 40.1486 44.4461 40.1486C44.4225 40.1486 44.4031 40.1139 44.4031 40.0717C44.4031 40.0007 44.2482 39.6691 44.1859 39.6069C44.1467 39.5676 44.0285 39.3765 43.985 39.2818C43.9645 39.2371 43.9219 39.1709 43.8903 39.1347C43.7319 38.9527 43.6973 38.9032 43.6973 38.8583C43.6973 38.8314 43.6362 38.7636 43.5615 38.7077C43.4869 38.6518 43.4258 38.5871 43.4258 38.564C43.4258 38.444 42.1545 37.3316 42.0174 37.3316C41.9857 37.3316 41.9599 37.3088 41.9599 37.281C41.9599 37.2532 41.9049 37.2134 41.8377 37.1925C41.7705 37.1715 41.7033 37.1382 41.6884 37.1183C41.6506 37.068 41.2778 36.8982 41.2051 36.8982C41.1038 36.8982 41.1357 36.8241 41.4305 36.3759C41.5873 36.1375 41.7436 35.8833 41.7779 35.8109C41.9005 35.552 42.0028 35.2966 42.0692 35.0834C42.1062 34.9642 42.1608 34.8058 42.1903 34.7313C42.3524 34.323 42.4176 32.7688 42.2995 32.131C42.2125 31.6613 42.1008 31.2642 42.0556 31.2642C42.0328 31.2642 42.0142 31.2235 42.0142 31.1737C42.0142 30.9487 41.4556 29.9738 41.0835 29.5494C40.6885 29.0988 40.0403 28.5088 39.8783 28.4523C39.8436 28.4402 39.742 28.3773 39.6524 28.3125C39.5628 28.2477 39.3429 28.1268 39.1637 28.044C38.9846 27.9611 38.7893 27.8678 38.7298 27.8366C38.4197 27.6739 37.5651 27.5137 36.8698 27.4879L36.2047 27.4633V23.4318V19.4003H36.5869C36.8624 19.4003 37.0288 19.37 37.1826 19.2917C37.4542 19.1535 37.7792 18.8701 37.7792 18.7717C37.7792 18.7301 37.8037 18.6961 37.8335 18.6961C37.8634 18.6961 37.8878 18.6351 37.8878 18.5607C37.8878 18.4862 37.9122 18.4252 37.9421 18.4252C37.9727 18.4252 37.9964 18.2718 37.9964 18.0731C37.9964 17.8744 37.9727 17.721 37.9421 17.721C37.9122 17.721 37.8878 17.66 37.8878 17.5855C37.8878 17.5111 37.8634 17.4501 37.8335 17.4501C37.8037 17.4501 37.7792 17.4161 37.7792 17.3745C37.7792 17.2761 37.4542 16.9927 37.1826 16.8545C36.997 16.76 36.8629 16.7459 36.1526 16.7459H35.336V14.611V12.4762L35.1969 12.2087C35.0096 11.8485 33.1244 9.97772 32.7875 9.8178C32.3138 9.59287 31.6904 9.70826 31.2749 10.0978C31.0959 10.2656 30.8839 10.7575 30.8839 11.0053C30.8839 11.2119 31.0025 11.6536 31.058 11.6536C31.0817 11.6536 31.1011 11.6881 31.1011 11.7304C31.1011 11.7726 31.4553 12.1626 31.8883 12.597L32.6756 13.387V15.0664V16.7459H31.8114H30.9473L30.9231 16.1093C30.8987 15.4625 30.8131 14.8024 30.7283 14.606C30.7026 14.5464 30.6391 14.3636 30.5873 14.1997C30.5354 14.0359 30.4344 13.7731 30.3627 13.6159C30.291 13.4587 30.2324 13.3063 30.2324 13.2773C30.2324 13.2484 30.2079 13.2246 30.1781 13.2246C30.1482 13.2246 30.1238 13.1963 30.1238 13.1617C30.1238 13.0887 29.7931 12.5562 29.7311 12.5294C29.7082 12.5195 29.6894 12.4788 29.6894 12.4391C29.6894 12.3994 29.6711 12.3588 29.6487 12.3488C29.6263 12.3389 29.4861 12.1845 29.3371 12.0057C29.0059 11.6083 29.029 11.6313 28.6307 11.3009C28.4515 11.1522 28.2968 11.0123 28.2868 10.99C28.2769 10.9676 28.2361 10.9494 28.1963 10.9494C28.1565 10.9494 28.1158 10.9306 28.1058 10.9078C28.079 10.8459 27.5454 10.516 27.4722 10.516C27.4375 10.516 27.4091 10.4943 27.4091 10.4677C27.4091 10.4411 27.3541 10.4048 27.2869 10.3869C27.0068 10.3124 26.9999 10.2721 27.2168 9.97734C27.4822 9.61666 28.0063 8.58667 28.0063 8.42593C28.0063 8.35741 28.0267 8.28871 28.0516 8.27333C28.0766 8.25794 28.1406 8.01384 28.1941 7.73084C28.3461 6.92464 28.2527 5.21814 28.0451 5.01104C28.0238 4.98969 28.0063 4.92517 28.0063 4.86759C28.0063 4.66319 27.6014 3.85206 27.2564 3.36515C26.9776 2.9718 26.3692 2.34215 25.9974 2.06219C25.8631 1.96099 25.7409 1.86538 25.7259 1.84972C25.6736 1.79484 25.0034 1.44927 24.6319 1.28556C24.5229 1.23757 24.3864 1.19824 24.3288 1.19824C24.271 1.19824 24.2064 1.18079 24.185 1.1595C24.0654 1.04016 23.5558 0.970765 22.6584 0.951642C21.861 0.934632 21.6144 0.947904 21.319 1.02385ZM23.5948 3.77681C23.8263 3.85813 24.0279 3.94139 24.0429 3.96187C24.0578 3.98229 24.1677 4.06149 24.2872 4.13788C24.5099 4.28024 24.6925 4.44298 24.8853 4.67116C25.0333 4.84613 25.3459 5.35807 25.3459 5.4253C25.3459 5.45504 25.3692 5.52172 25.3977 5.57346C25.4877 5.7369 25.6174 6.36818 25.6174 6.64262C25.6174 6.91706 25.4877 7.54833 25.3977 7.71177C25.3692 7.76351 25.3459 7.83019 25.3459 7.85994C25.3459 7.99661 24.8931 8.64333 24.6464 8.85894C24.5753 8.92113 24.4897 8.9973 24.4564 9.02812C24.3549 9.12195 23.8277 9.43252 23.7698 9.43252C23.74 9.43252 23.6732 9.45576 23.6213 9.4842C23.4586 9.57337 22.8256 9.70339 22.5541 9.70339C21.8239 9.70339 20.7973 9.26274 20.3454 8.75536C20.108 8.48888 20.0251 8.38417 20.0251 8.35101C20.0251 8.33135 19.9806 8.2677 19.9263 8.20946C19.7433 8.01346 19.4834 7.0935 19.4836 6.64262C19.4838 6.24656 19.7391 5.24913 19.8649 5.15286C19.8844 5.13796 19.9618 5.02826 20.037 4.90908C20.2009 4.64927 20.7367 4.12357 20.8376 4.12357C20.8573 4.12357 20.9211 4.07921 20.9794 4.02498C21.0905 3.92173 21.7815 3.66088 22.0611 3.61668C22.4551 3.55443 23.176 3.62968 23.5948 3.77681ZM25.0738 12.4554C25.3722 12.518 25.5501 12.5763 25.8699 12.7163C25.964 12.7575 26.0679 12.7912 26.1006 12.7912C26.1335 12.7912 26.1603 12.8128 26.1603 12.8391C26.1603 12.8654 26.2031 12.9013 26.2553 12.9188C26.3498 12.9505 26.4568 13.0152 26.6711 13.1705C26.8163 13.2756 27.358 13.8161 27.4634 13.9609C27.619 14.1748 27.6839 14.2815 27.7156 14.3758C27.7332 14.428 27.7691 14.4706 27.7955 14.4706C27.8218 14.4706 27.8434 14.4974 27.8434 14.5301C27.8434 14.5629 27.8772 14.6665 27.9185 14.7604C28.1414 15.2672 28.2245 15.6407 28.261 16.2989L28.2858 16.7459H22.5498H16.8138L16.8385 16.2989C16.875 15.6407 16.9581 15.2672 17.181 14.7604C17.2223 14.6665 17.2561 14.5629 17.2561 14.5301C17.2561 14.4974 17.2777 14.4706 17.304 14.4706C17.3304 14.4706 17.3664 14.428 17.3839 14.3758C17.4157 14.2815 17.4806 14.1748 17.6362 13.9609C17.7415 13.8161 18.2832 13.2756 18.4284 13.1705C18.6428 13.0152 18.7497 12.9505 18.8442 12.9188C18.8964 12.9013 18.9392 12.8654 18.9392 12.8391C18.9392 12.8128 18.966 12.7912 18.9989 12.7912C19.0317 12.7912 19.1355 12.7563 19.2296 12.7136C19.5167 12.5834 19.9122 12.4663 20.0677 12.4654C20.1488 12.4649 20.2518 12.4406 20.2966 12.4114C20.4131 12.3353 24.689 12.3747 25.0738 12.4554ZM33.5443 23.8922V28.3842L33.3407 28.5084C33.2287 28.5766 33.0714 28.6945 32.9911 28.7701C32.9108 28.8458 32.7642 28.983 32.6653 29.0751C32.3251 29.392 31.8069 30.0205 31.8069 30.1163C31.8069 30.1468 31.7883 30.1798 31.7657 30.1898C31.6491 30.2409 31.1011 31.5002 31.1011 31.717C31.1011 31.7858 31.0828 31.8603 31.0605 31.8825C31.0002 31.9427 30.8889 32.7568 30.8858 33.1603C30.8829 33.5455 30.9773 34.3156 31.0484 34.4875C31.0731 34.5471 31.1089 34.6903 31.128 34.8057C31.1472 34.921 31.1834 35.0551 31.2087 35.1036C31.234 35.1521 31.3182 35.338 31.3959 35.5168C31.4735 35.6956 31.5619 35.8784 31.5922 35.9231C31.6224 35.9678 31.6615 36.047 31.6791 36.0991C31.6966 36.1513 31.7326 36.1939 31.7589 36.1939C31.7853 36.1939 31.8069 36.2288 31.8069 36.2714C31.8069 36.3139 31.8384 36.3809 31.877 36.4203C31.9977 36.5437 32.1327 36.757 32.1327 36.8247C32.1327 36.8604 32.0594 36.9057 31.9698 36.9253C31.8802 36.9449 31.8066 36.9773 31.8063 36.9973C31.8059 37.0173 31.7082 37.0802 31.5891 37.1371C31.47 37.1941 31.3725 37.2611 31.3725 37.2861C31.3725 37.3111 31.3397 37.3316 31.2996 37.3316C31.2594 37.3316 31.1556 37.3925 31.0688 37.467C30.982 37.5414 30.8963 37.6023 30.8782 37.6024C30.8096 37.6025 30.1787 38.1949 29.8719 38.5473C29.6957 38.7497 29.6231 38.7977 29.5353 38.7699C29.4738 38.7505 29.4095 38.6907 29.3925 38.6371C29.3593 38.5327 28.728 37.8897 28.5748 37.8042C28.5242 37.7759 28.4409 37.7128 28.3897 37.664C28.2044 37.4873 27.9812 37.3316 27.9131 37.3316C27.8748 37.3316 27.8434 37.3088 27.8434 37.281C27.8434 37.2532 27.7885 37.2134 27.7213 37.1925C27.6541 37.1715 27.5869 37.1378 27.572 37.1174C27.557 37.097 27.4288 37.025 27.2869 36.9573C27.0595 36.8489 26.9495 36.7357 27.0716 36.7357C27.095 36.7357 27.1604 36.6565 27.2168 36.5596C27.2733 36.4627 27.3335 36.3714 27.3507 36.3565C27.3997 36.314 27.6238 35.9157 27.7164 35.7064C27.7626 35.6021 27.8467 35.4145 27.9034 35.2895C27.96 35.1645 28.0063 35.024 28.0063 34.9773C28.0063 34.9306 28.0297 34.85 28.0583 34.7982C28.0869 34.7465 28.148 34.5287 28.1941 34.3143C28.354 33.5695 28.2745 31.9673 28.0583 31.5765C28.0297 31.5247 28.0063 31.4431 28.0063 31.395C28.0063 31.1919 27.545 30.3042 27.1783 29.8015C26.8665 29.3741 26.1925 28.7296 25.7517 28.4372C25.3386 28.1632 24.4732 27.743 24.322 27.743C24.27 27.743 24.2042 27.7214 24.1759 27.6951C23.9007 27.4398 21.1988 27.4398 20.9237 27.6951C20.8953 27.7214 20.8288 27.743 20.7758 27.743C20.6846 27.743 20.2436 27.9246 19.8894 28.1081C18.9398 28.6 17.958 29.5754 17.5004 30.4812C17.4108 30.6586 17.3192 30.8119 17.2968 30.8218C17.2744 30.8317 17.2561 30.8716 17.2561 30.9104C17.2561 30.9492 17.2196 31.0508 17.175 31.1361C17.1304 31.2215 17.0938 31.3413 17.0935 31.4023C17.0934 31.4635 17.0721 31.5366 17.0463 31.5649C17.0205 31.5932 16.9563 31.8258 16.9038 32.0819C16.7502 32.8307 16.8482 34.6133 17.0544 34.8189C17.0757 34.8403 17.0932 34.9048 17.0932 34.9624C17.0932 35.0656 17.1342 35.173 17.3566 35.6522C17.4818 35.9221 17.7003 36.3144 17.7488 36.3565C17.766 36.3714 17.8262 36.4627 17.8827 36.5596C17.9392 36.6565 18.0045 36.7357 18.0279 36.7357C18.15 36.7357 18.0401 36.8489 17.8126 36.9573C17.6707 37.025 17.5425 37.097 17.5276 37.1174C17.5126 37.1378 17.4455 37.1715 17.3783 37.1925C17.3111 37.2134 17.2561 37.2532 17.2561 37.281C17.2561 37.3088 17.2248 37.3316 17.1864 37.3316C17.1183 37.3316 16.8951 37.4873 16.7098 37.664C16.6587 37.7128 16.5754 37.7759 16.5247 37.8042C16.3715 37.8897 15.7402 38.5327 15.707 38.6371C15.69 38.6907 15.6257 38.7505 15.5642 38.7699C15.4765 38.7977 15.4039 38.7497 15.2276 38.547C14.8487 38.1112 14.487 37.7754 14.184 37.5776C14.0969 37.5207 13.9933 37.4421 13.9539 37.4029C13.9144 37.3636 13.8472 37.3316 13.8046 37.3316C13.7619 37.3316 13.727 37.3111 13.727 37.2861C13.727 37.2611 13.6295 37.1941 13.5104 37.1371C13.3913 37.0802 13.2936 37.0173 13.2932 36.9973C13.2929 36.9773 13.2193 36.9449 13.1298 36.9253C13.0402 36.9057 12.9669 36.8604 12.9669 36.8247C12.9669 36.757 13.1018 36.5437 13.2226 36.4203C13.2611 36.3809 13.2926 36.3139 13.2926 36.2714C13.2926 36.2288 13.3143 36.1939 13.3406 36.1939C13.367 36.1939 13.4029 36.1513 13.4205 36.0991C13.438 36.047 13.4771 35.9678 13.5074 35.9231C13.5543 35.8538 13.7265 35.4783 13.8923 35.0834C13.9425 34.9638 14.0297 34.593 14.1152 34.1354C14.1811 33.783 14.1432 32.1232 14.064 31.8872C14.034 31.7978 13.968 31.5906 13.9174 31.4267C13.8116 31.0842 13.4051 30.2167 13.3379 30.1898C13.313 30.1798 13.2926 30.1468 13.2926 30.1163C13.2926 30.0205 12.7745 29.392 12.4342 29.0751C12.3353 28.983 12.1887 28.8458 12.1084 28.7701C12.0281 28.6945 11.8708 28.5766 11.7588 28.5084L11.5552 28.3842V23.8922V19.4003H22.5498H33.5443V23.8922ZM9.1663 30.2348C9.33054 30.2693 9.48816 30.3199 9.5165 30.3474C9.54489 30.375 9.59946 30.3974 9.63784 30.3974C9.71852 30.3974 10.2704 30.7243 10.2974 30.7881C10.3074 30.8116 10.3371 30.8308 10.3634 30.8308C10.4386 30.8308 10.6975 31.1029 10.9046 31.3996C11.0087 31.5486 11.1121 31.6786 11.1345 31.6885C11.1568 31.6985 11.1752 31.7384 11.1752 31.7772C11.1752 31.816 11.2117 31.9175 11.2563 32.0029C11.3009 32.0882 11.3375 32.1958 11.3377 32.242C11.3379 32.2882 11.3678 32.3557 11.4041 32.3919C11.449 32.4367 11.4704 32.6787 11.4707 33.1476C11.4712 33.7807 11.4583 33.8708 11.3134 34.2437C11.2265 34.4672 11.1233 34.6822 11.0839 34.7216C11.0445 34.761 11.0123 34.8156 11.0123 34.8431C11.0123 34.958 10.4916 35.4927 10.1891 35.6884C10.0595 35.7722 9.94135 35.854 9.92642 35.8702C9.91149 35.8863 9.71603 35.9706 9.49207 36.0575C9.13291 36.1969 9.01439 36.2159 8.48763 36.2183C7.8589 36.2212 7.53265 36.1502 7.05937 35.9075C6.80614 35.7777 6.07665 35.2176 6.0735 35.1506C6.07241 35.128 5.99825 35.0086 5.90866 34.8852C5.81908 34.7618 5.74578 34.6279 5.74578 34.5877C5.74578 34.5475 5.72135 34.5146 5.69149 34.5146C5.66163 34.5146 5.63719 34.4707 5.63719 34.4171C5.63719 34.3634 5.61548 34.2964 5.58893 34.2681C5.4286 34.0971 5.35226 33.0278 5.46541 32.5373C5.53246 32.2465 5.54658 32.2097 5.76913 31.7447C5.90269 31.4655 6.42684 30.8308 6.52381 30.8308C6.54635 30.8308 6.61867 30.7806 6.68463 30.7193C6.8537 30.562 7.39735 30.3132 7.7818 30.2173C8.13879 30.1281 8.69074 30.1351 9.1663 30.2348ZM23.147 30.2127C23.7088 30.3403 23.9489 30.4497 24.4261 30.7954C24.9412 31.1686 25.3538 31.8302 25.5316 32.5678C25.6981 33.2582 25.6024 33.8985 25.2181 34.6655C25.0355 35.0298 24.5891 35.5218 24.2602 35.7209C24.1556 35.7842 24.0578 35.8508 24.0429 35.8689C24.0279 35.8868 23.8935 35.9449 23.7442 35.9978C23.5949 36.0507 23.4141 36.1226 23.3424 36.1575C23.1741 36.2394 21.933 36.242 21.7571 36.1608C21.4056 35.9985 21.2087 35.9231 21.1363 35.9231C21.0925 35.9231 21.0567 35.9042 21.0567 35.8812C21.0567 35.8582 20.9773 35.7964 20.8802 35.744C20.6691 35.6299 20.188 35.1906 20.188 35.1119C20.188 35.0813 20.1688 35.0563 20.1454 35.0563C20.122 35.0563 20.0566 34.9771 20.0002 34.8802C19.9437 34.7834 19.8822 34.692 19.8635 34.6771C19.738 34.5772 19.4838 33.5804 19.4836 33.1873C19.4834 32.9022 19.6353 32.2165 19.7596 31.9414C19.8834 31.6673 20.1277 31.3014 20.3272 31.0912C20.5287 30.8788 21.2195 30.3974 21.3226 30.3974C21.3563 30.3974 21.4264 30.3746 21.4782 30.3466C21.6365 30.2614 22.2083 30.1417 22.4955 30.1338C22.6448 30.1297 22.938 30.1651 23.147 30.2127ZM37.2634 30.2125C37.6782 30.3066 38.1334 30.504 38.4308 30.7187C38.6878 30.9043 39.028 31.2389 39.028 31.3062C39.028 31.3363 39.0606 31.3734 39.1003 31.3886C39.1617 31.4122 39.3325 31.7225 39.524 32.1581C39.6233 32.3839 39.6966 32.8218 39.6963 33.1873C39.6961 33.5825 39.5989 34.1252 39.5125 34.2139C39.4849 34.2422 39.4623 34.3215 39.4623 34.39C39.4623 34.4585 39.4406 34.5146 39.4139 34.5146C39.3873 34.5146 39.3502 34.5755 39.3314 34.65C39.3127 34.7245 39.2734 34.7854 39.2441 34.7854C39.2148 34.7854 39.1907 34.8159 39.1905 34.8532C39.1894 35.0771 38.3346 35.7999 37.8335 36.0007C37.6991 36.0545 37.5305 36.1261 37.4588 36.1598C37.3836 36.1951 37.0504 36.2204 36.6716 36.2194C36.0755 36.218 35.977 36.2031 35.6075 36.0587C35.3835 35.9712 35.188 35.8863 35.1731 35.8702C35.1582 35.854 35.0482 35.7765 34.9288 35.6979C34.5962 35.4792 34.0872 34.962 34.0872 34.8429C34.0872 34.8156 34.055 34.761 34.0156 34.7216C33.9763 34.6822 33.8732 34.4672 33.7866 34.2437C33.6445 33.8771 33.6289 33.7734 33.6274 33.182C33.6264 32.7983 33.6515 32.4726 33.6879 32.3965C33.7221 32.325 33.7931 32.1445 33.8458 31.9955C33.8985 31.8466 33.9562 31.7125 33.9742 31.6976C33.9921 31.6827 34.0705 31.5723 34.1484 31.4524C34.3125 31.1994 34.6594 30.8308 34.7333 30.8308C34.7612 30.8308 34.7921 30.8116 34.8021 30.7881C34.8305 30.721 35.3831 30.3974 35.4693 30.3974C35.5119 30.3974 35.561 30.3745 35.5784 30.3464C35.5958 30.3183 35.7255 30.2784 35.8666 30.2576C36.0078 30.2369 36.1721 30.2005 36.2318 30.1767C36.4111 30.1053 36.8596 30.1209 37.2634 30.2125ZM10.8766 38.9962C11.2258 39.0655 11.6832 39.1907 11.7181 39.2267C11.733 39.2421 11.9102 39.3393 12.1117 39.4426C12.3133 39.5459 12.4782 39.6479 12.4782 39.6692C12.4782 39.6905 12.5223 39.7218 12.5762 39.7389C12.8044 39.8112 13.4033 40.5016 13.6835 41.0153C13.951 41.5058 14.1613 42.3393 14.1613 42.909V43.2906H8.43333H2.70532L2.70727 43.1416C2.71254 42.7386 2.91869 41.6154 3.02576 41.4062C3.05193 41.3551 3.11882 41.2158 3.17436 41.0966C3.22996 40.9774 3.28784 40.8677 3.30304 40.8528C3.3183 40.8379 3.39496 40.7282 3.47347 40.609C3.68913 40.2817 4.37605 39.6068 4.49354 39.6068C4.52107 39.6068 4.57585 39.5754 4.61533 39.5371C4.69997 39.4547 5.05755 39.2818 5.14317 39.2818C5.17602 39.2818 5.20284 39.2632 5.20284 39.2405C5.20284 39.1922 5.64713 39.0727 6.06302 39.0091C6.22259 38.9847 6.36821 38.9497 6.38661 38.9313C6.44069 38.8774 10.5789 38.9372 10.8766 38.9962ZM24.993 38.9985C25.4663 39.0812 26.0338 39.3023 26.4546 39.568C26.9157 39.8592 27.6085 40.6023 27.7156 40.9205C27.7332 40.9726 27.7691 41.0153 27.7955 41.0153C27.8218 41.0153 27.8434 41.0421 27.8434 41.0749C27.8434 41.1076 27.8767 41.2112 27.9172 41.3051C28.0889 41.7022 28.1161 41.7924 28.1495 42.0753C28.1688 42.2388 28.2055 42.3856 28.2311 42.4015C28.2568 42.4173 28.2778 42.6238 28.2778 42.8604V43.2906H22.5498H16.8218V42.8604C16.8218 42.6238 16.8428 42.4173 16.8684 42.4015C16.894 42.3856 16.9308 42.2388 16.9501 42.0753C16.9834 41.7924 17.0106 41.7022 17.1823 41.3051C17.2229 41.2112 17.2561 41.1076 17.2561 41.0749C17.2561 41.0421 17.2777 41.0153 17.304 41.0153C17.3304 41.0153 17.3664 40.9726 17.3839 40.9205C17.489 40.6083 18.4239 39.6068 18.6102 39.6068C18.6376 39.6068 18.6923 39.5756 18.7318 39.5375C18.9262 39.3495 19.6205 39.0922 20.2694 38.9678C20.6268 38.8992 24.5716 38.9249 24.993 38.9985ZM39.0551 38.997C39.5547 39.0998 39.8967 39.1987 39.8967 39.2405C39.8967 39.2632 39.9314 39.2818 39.9737 39.2818C40.062 39.2818 40.3716 39.4386 40.4818 39.5391C40.5226 39.5764 40.5785 39.6068 40.606 39.6068C40.7237 39.6068 41.4182 40.2858 41.6228 40.6009C41.7031 40.7245 41.7812 40.8379 41.7965 40.8528C41.8242 40.88 41.9489 41.1403 42.056 41.3945C42.2142 41.7703 42.2971 42.1735 42.3252 42.7044L42.3562 43.2906H36.6472H30.9382L30.9414 42.8978C30.9432 42.6819 30.9663 42.3954 30.9928 42.2613C31.1152 41.6411 31.0986 41.6926 31.3512 41.1563C31.6059 40.6156 32.1103 39.993 32.4611 39.7863C32.5492 39.7343 32.6213 39.678 32.6213 39.6612C32.6213 39.6443 32.7862 39.5459 32.9878 39.4426C33.1893 39.3393 33.3665 39.2421 33.3814 39.2267C33.4272 39.1794 33.8784 39.0657 34.2468 39.0085C34.4391 38.9787 34.6089 38.9419 34.6242 38.9266C34.6755 38.8754 38.7809 38.9406 39.0551 38.997Z" fill="url(#paint0_radial_117_59)"/>
<defs>
<radialGradient id="paint0_radial_117_59" cx="0" cy="0" r="1" gradientUnits="userSpaceOnUse" gradientTransform="translate(42.8001 22.9132) rotate(-135.405) scale(85.8385 159.182)">
<stop stop-color="#42E8E0"/>
<stop offset="0.02" stop-color="#43E0DE"/>
<stop offset="0.11" stop-color="#47BAD1"/>
<stop offset="0.21" stop-color="#4B9AC7"/>
<stop offset="0.32" stop-color="#4E7FBE"/>
<stop offset="0.44" stop-color="#506BB7"/>
<stop offset="0.58" stop-color="#525CB3"/>
<stop offset="0.74" stop-color="#5354B0"/>
<stop offset="1" stop-color="#5351AF"/>
</radialGradient>
</defs>
</svg>
