<svg width="101" height="17" viewBox="0 0 101 17" fill="none" xmlns="http://www.w3.org/2000/svg">
<path d="M9.5 0.26709L11.6329 5.79495H18.535L12.9511 9.21136L15.084 14.7392L9.5 11.3228L3.91604 14.7392L6.04892 9.21136L0.464963 5.79495H7.36712L9.5 0.26709Z" fill="#FF8A00"/>
<path d="M29.7954 0.26709L31.9283 5.79495H38.8304L33.2465 9.21136L35.3794 14.7392L29.7954 11.3228L24.2115 14.7392L26.3443 9.21136L20.7604 5.79495H27.6625L29.7954 0.26709Z" fill="#FF8A00"/>
<path d="M50.0908 0.26709L52.2237 5.79495H59.1259L53.5419 9.21136L55.6748 14.7392L50.0908 11.3228L44.5069 14.7392L46.6397 9.21136L41.0558 5.79495H47.9579L50.0908 0.26709Z" fill="#FF8A00"/>
<path d="M70.3857 0.26709L72.5186 5.79495H79.4208L73.8368 9.21136L75.9697 14.7392L70.3857 11.3228L64.8018 14.7392L66.9347 9.21136L61.3507 5.79495H68.2529L70.3857 0.26709Z" fill="#FF8A00"/>
<path d="M90.6821 0.26709L92.815 5.79495H99.7172L94.1332 9.21136L96.2661 14.7392L90.6821 11.3228L85.0982 14.7392L87.2311 9.21136L81.6471 5.79495H88.5492L90.6821 0.26709Z" fill="#FF8A00"/>
</svg>
