<svg width="31" height="31" viewBox="0 0 31 31" fill="none" xmlns="http://www.w3.org/2000/svg">
<circle cx="15.4432" cy="15.5794" r="15.3123" fill="#42E8E0"/>
<circle cx="15.4432" cy="15.5794" r="15.3123" fill="url(#paint0_radial_98_418)"/>
<path d="M21.75 11.0474L21.7213 10.9649C22.3724 10.5728 22.8825 9.96242 23.1446 9.22775C22.5137 9.5919 21.8203 9.84899 21.0917 9.99921L21.067 10.0043L21.0499 9.98569C20.4362 9.31765 19.5739 8.92891 18.5937 8.92891C16.7675 8.92891 15.275 10.4211 15.275 12.2634C15.275 12.5277 15.3061 12.7843 15.3606 13.0254L15.3735 13.0828L15.3148 13.0798C12.5207 12.9386 10.0302 11.6062 8.3606 9.58485C8.09305 10.062 7.94188 10.6165 7.94188 11.2C7.94188 12.3584 8.52491 13.3841 9.42592 13.9666L9.55292 14.0487H9.40168C8.86061 14.0487 8.35666 13.9035 7.91073 13.683C7.93376 15.278 9.07625 16.6062 10.584 16.9062L10.5871 16.993C10.1092 17.1238 9.60871 17.1474 9.12121 17.0627C9.33868 17.6956 9.74224 18.2488 10.2798 18.6493C10.8375 19.0648 11.5113 19.295 12.2066 19.3077L12.3312 19.31L12.2335 19.3873C11.0311 20.3391 9.54077 20.8536 8.0073 20.8463M21.75 11.0474L8.00752 20.8016M21.75 11.0474C22.3786 10.967 22.9873 10.8056 23.5573 10.5632M21.75 11.0474L23.605 10.494C23.5892 10.5172 23.5733 10.5402 23.5573 10.5632M8.0073 20.8463L8.00752 20.8016M8.0073 20.8463C8.00737 20.8463 8.00745 20.8463 8.00752 20.8463V20.8016M8.0073 20.8463C7.80158 20.8462 7.59587 20.837 7.39017 20.8185M8.00752 20.8016C7.77328 20.8016 7.53904 20.7896 7.3048 20.7655C7.33315 20.7833 7.36161 20.801 7.39017 20.8185M7.39017 20.8185C7.35673 20.8155 7.32329 20.8123 7.28986 20.8088C7.26117 20.7908 7.23258 20.7726 7.2041 20.7544L21.9964 12.2161C22.6354 11.7597 23.1862 11.1857 23.6347 10.5297C23.609 10.541 23.5832 10.5522 23.5573 10.5632M7.39017 20.8185C8.84555 21.7126 10.5579 22.2299 12.3869 22.2299C18.564 22.2299 21.9597 17.104 21.9597 12.6572C21.9597 12.5074 21.9596 12.3667 21.9518 12.2184L21.9506 12.194L21.9705 12.1798C22.5858 11.7403 23.1191 11.1908 23.5573 10.5632M12.2058 19.3523L12.2049 19.3969C12.1868 19.3966 12.1687 19.3961 12.1506 19.3955C12.1691 19.3812 12.1874 19.3668 12.2058 19.3523ZM12.2058 19.3523L12.1781 19.3173C12.1641 19.3284 12.1501 19.3394 12.136 19.3503C12.1592 19.3512 12.1825 19.3519 12.2058 19.3523ZM9.05511 17.0051C9.06028 17.0213 9.06557 17.0375 9.07098 17.0536L9.10506 17.0145C9.08839 17.0115 9.07174 17.0084 9.05511 17.0051Z" fill="white" stroke="white" stroke-width="0.0892685"/>
<defs>
<radialGradient id="paint0_radial_98_418" cx="0" cy="0" r="1" gradientUnits="userSpaceOnUse" gradientTransform="translate(29.2192 15.2175) rotate(-135.405) scale(58.4172 108.331)">
<stop stop-color="#42E8E0"/>
<stop offset="0.02" stop-color="#43E0DE"/>
<stop offset="0.11" stop-color="#47BAD1"/>
<stop offset="0.21" stop-color="#4B9AC7"/>
<stop offset="0.32" stop-color="#4E7FBE"/>
<stop offset="0.44" stop-color="#506BB7"/>
<stop offset="0.58" stop-color="#525CB3"/>
<stop offset="0.74" stop-color="#5354B0"/>
<stop offset="1" stop-color="#5351AF"/>
</radialGradient>
</defs>
</svg>
