<svg width="31" height="31" viewBox="0 0 31 31" fill="none" xmlns="http://www.w3.org/2000/svg">
<circle cx="15.4432" cy="15.5794" r="15.3123" fill="#42E8E0"/>
<circle cx="15.4432" cy="15.5794" r="15.3123" fill="url(#paint0_radial_1_385)"/>
<path d="M21.7502 11.0474L21.7216 10.9649C22.3726 10.5728 22.8827 9.96242 23.1449 9.22775C22.5139 9.5919 21.8205 9.84899 21.092 9.99921L21.0672 10.0043L21.0501 9.98569C20.4364 9.31765 19.5741 8.92891 18.5939 8.92891C16.7677 8.92891 15.2752 10.4211 15.2752 12.2634C15.2752 12.5277 15.3063 12.7843 15.3608 13.0254L15.3737 13.0828L15.315 13.0798C12.5209 12.9386 10.0304 11.6062 8.36082 9.58485C8.09327 10.062 7.9421 10.6165 7.9421 11.2C7.9421 12.3584 8.52513 13.3841 9.42614 13.9666L9.55314 14.0487H9.4019C8.86083 14.0487 8.35688 13.9035 7.91095 13.683C7.93398 15.278 9.07647 16.6062 10.5842 16.9062L10.5873 16.993C10.1094 17.1238 9.60893 17.1474 9.12143 17.0627C9.3389 17.6956 9.74246 18.2488 10.28 18.6493C10.8377 19.0648 11.5115 19.295 12.2068 19.3077L12.3314 19.31L12.2337 19.3873C11.0314 20.3391 9.54099 20.8536 8.00752 20.8463M21.7502 11.0474L8.00774 20.8016M21.7502 11.0474C22.3789 10.967 22.9875 10.8056 23.5575 10.5632M21.7502 11.0474L23.6053 10.494C23.5895 10.5172 23.5735 10.5402 23.5575 10.5632M8.00752 20.8463L8.00774 20.8016M8.00752 20.8463C8.0076 20.8463 8.00767 20.8463 8.00774 20.8463V20.8016M8.00752 20.8463C7.8018 20.8462 7.59609 20.837 7.39039 20.8185M8.00774 20.8016C7.7735 20.8016 7.53926 20.7896 7.30502 20.7655C7.33338 20.7833 7.36183 20.801 7.39039 20.8185M7.39039 20.8185C7.35695 20.8155 7.32352 20.8123 7.29008 20.8088C7.26139 20.7908 7.23281 20.7726 7.20432 20.7544L21.9966 12.2161C22.6356 11.7597 23.1864 11.1857 23.6349 10.5297C23.6092 10.541 23.5834 10.5522 23.5575 10.5632M7.39039 20.8185C8.84578 21.7126 10.5581 22.2299 12.3871 22.2299C18.5642 22.2299 21.9599 17.104 21.9599 12.6572C21.9599 12.5074 21.9599 12.3667 21.9521 12.2184L21.9508 12.194L21.9707 12.1798C22.586 11.7403 23.1193 11.1908 23.5575 10.5632M12.206 19.3523L12.2052 19.3969C12.187 19.3966 12.1689 19.3961 12.1508 19.3955C12.1693 19.3812 12.1877 19.3668 12.206 19.3523ZM12.206 19.3523L12.1783 19.3173C12.1643 19.3284 12.1503 19.3394 12.1362 19.3503C12.1595 19.3512 12.1827 19.3519 12.206 19.3523ZM9.05533 17.0051C9.0605 17.0213 9.06579 17.0375 9.0712 17.0536L9.10528 17.0145C9.08861 17.0115 9.07196 17.0084 9.05533 17.0051Z" fill="white" stroke="white" stroke-width="0.0892685"/>
<defs>
<radialGradient id="paint0_radial_1_385" cx="0" cy="0" r="1" gradientUnits="userSpaceOnUse" gradientTransform="translate(29.2192 15.2175) rotate(-135.405) scale(58.4172 108.331)">
<stop stop-color="#42E8E0"/>
<stop offset="0.02" stop-color="#43E0DE"/>
<stop offset="0.11" stop-color="#47BAD1"/>
<stop offset="0.21" stop-color="#4B9AC7"/>
<stop offset="0.32" stop-color="#4E7FBE"/>
<stop offset="0.44" stop-color="#506BB7"/>
<stop offset="0.58" stop-color="#525CB3"/>
<stop offset="0.74" stop-color="#5354B0"/>
<stop offset="1" stop-color="#5351AF"/>
</radialGradient>
</defs>
</svg>
