<svg width="78" height="78" viewBox="0 0 78 78" fill="none" xmlns="http://www.w3.org/2000/svg">
<circle opacity="0.1" cx="38.8585" cy="39.2765" r="38.6886" fill="#42E8E0"/>
<path d="M27.386 51.2978L23.0043 55.6794C22.401 56.2827 21.7101 56.4173 20.9315 56.0833C20.1543 55.7506 19.7656 55.1555 19.7656 54.2983V24.6266C19.7656 23.5788 20.139 22.6815 20.8858 21.9347C21.6313 21.1892 22.528 20.8164 23.5758 20.8164H54.0571C55.1049 20.8164 56.0022 21.1892 56.749 21.9347C57.4945 22.6815 57.8673 23.5788 57.8673 24.6266V36.0571H54.0571V24.6266H23.5758V47.4876H44.5317V51.2978H27.386ZM23.5758 47.4876V24.6266V47.4876ZM52.1521 51.2978H50.247C49.7072 51.2978 49.2551 51.1149 48.8906 50.7491C48.5248 50.3846 48.3419 49.9324 48.3419 49.3927V41.7723C48.3419 41.2326 48.5248 40.7798 48.8906 40.414C49.2551 40.0495 49.7072 39.8672 50.247 39.8672H55.0097C55.7082 39.8672 56.2321 40.153 56.5814 40.7245C56.9306 41.2961 56.9783 41.8993 56.7243 42.5344L54.6287 47.4876H56.4861C57.0259 47.4876 57.4387 47.7098 57.7244 48.1544C58.0102 48.5989 58.0261 49.0593 57.7721 49.5356L53.9619 57.2035C53.7396 57.648 53.3827 57.8144 52.8912 57.7026C52.3984 57.5921 52.1521 57.2829 52.1521 56.7749V51.2978Z" fill="#42E8E0"/>
<path d="M27.386 51.2978L23.0043 55.6794C22.401 56.2827 21.7101 56.4173 20.9315 56.0833C20.1543 55.7506 19.7656 55.1555 19.7656 54.2983V24.6266C19.7656 23.5788 20.139 22.6815 20.8858 21.9347C21.6313 21.1892 22.528 20.8164 23.5758 20.8164H54.0571C55.1049 20.8164 56.0022 21.1892 56.749 21.9347C57.4945 22.6815 57.8673 23.5788 57.8673 24.6266V36.0571H54.0571V24.6266H23.5758V47.4876H44.5317V51.2978H27.386ZM23.5758 47.4876V24.6266V47.4876ZM52.1521 51.2978H50.247C49.7072 51.2978 49.2551 51.1149 48.8906 50.7491C48.5248 50.3846 48.3419 49.9324 48.3419 49.3927V41.7723C48.3419 41.2326 48.5248 40.7798 48.8906 40.414C49.2551 40.0495 49.7072 39.8672 50.247 39.8672H55.0097C55.7082 39.8672 56.2321 40.153 56.5814 40.7245C56.9306 41.2961 56.9783 41.8993 56.7243 42.5344L54.6287 47.4876H56.4861C57.0259 47.4876 57.4387 47.7098 57.7244 48.1544C58.0102 48.5989 58.0261 49.0593 57.7721 49.5356L53.9619 57.2035C53.7396 57.648 53.3827 57.8144 52.8912 57.7026C52.3984 57.5921 52.1521 57.2829 52.1521 56.7749V51.2978Z" fill="url(#paint0_radial_118_125)"/>
<defs>
<radialGradient id="paint0_radial_118_125" cx="0" cy="0" r="1" gradientUnits="userSpaceOnUse" gradientTransform="translate(56.0357 38.84) rotate(-136.371) scale(71.6601 132.75)">
<stop stop-color="#42E8E0"/>
<stop offset="0.02" stop-color="#43E0DE"/>
<stop offset="0.11" stop-color="#47BAD1"/>
<stop offset="0.21" stop-color="#4B9AC7"/>
<stop offset="0.32" stop-color="#4E7FBE"/>
<stop offset="0.44" stop-color="#506BB7"/>
<stop offset="0.58" stop-color="#525CB3"/>
<stop offset="0.74" stop-color="#5354B0"/>
<stop offset="1" stop-color="#5351AF"/>
</radialGradient>
</defs>
</svg>
