<svg width="51" height="52" viewBox="0 0 51 52" fill="none" xmlns="http://www.w3.org/2000/svg">
<path fill-rule="evenodd" clip-rule="evenodd" d="M23.0675 4.21003C22.6945 4.46113 22.568 4.82882 22.5618 5.6805L22.557 6.35224H20.8848C19.0896 6.35224 18.6969 6.41621 17.8467 6.84742C17.0579 7.24735 16.2997 8.17461 15.9488 9.16844C15.8944 9.32264 15.8374 10.6695 15.8094 12.4629L15.762 15.4966L15.3725 15.5215C14.9267 15.55 3.71155 19.2303 3.51376 19.4129C3.40833 19.5103 3.37579 19.9024 3.34064 21.4977L3.29736 23.4627L2.9584 23.6401C2.25172 24.0099 1.90522 24.847 2.1565 25.5773C2.28011 25.9364 2.27405 25.9794 1.97023 26.9003C1.62823 27.9369 1.6426 28.1272 2.06683 28.1782C2.33153 28.21 2.40476 28.0969 2.65872 27.264C2.86967 26.5724 2.89503 26.538 3.14736 26.6041C3.33303 26.6527 3.34064 26.6934 3.34064 27.6383C3.34064 28.5439 3.35484 28.6295 3.51956 28.7179C3.65875 28.7924 3.74531 28.783 3.90908 28.6756C4.11086 28.5432 4.11968 28.4979 4.11968 27.5918C4.11968 26.7109 4.13198 26.6423 4.2993 26.5891C4.39815 26.5577 4.48627 26.5453 4.49518 26.5616C4.5041 26.5778 4.62779 26.9422 4.77001 27.3713C5.01619 28.114 5.04051 28.1513 5.27881 28.1513C5.71923 28.1513 5.7419 27.9624 5.42605 26.9242C5.15858 26.0455 5.14741 25.9583 5.24756 25.5402C5.43695 24.7496 5.18108 24.1124 4.51076 23.7051L4.12514 23.4708L4.12245 22.0623C4.1209 21.2877 4.14487 20.6538 4.1756 20.6538C4.20642 20.6538 5.00493 20.9121 5.95008 21.2279L7.66864 21.802V24.1648V26.5275L7.19975 26.7572C6.84347 26.9317 6.6616 27.0949 6.44235 27.437L6.15384 27.887L6.12796 30.8545C6.11195 32.6929 6.13584 33.947 6.19081 34.1504C6.30757 34.5832 6.73293 35.088 7.17932 35.3236C7.50712 35.4967 7.68388 35.5155 9.18327 35.5366L10.8277 35.5597L10.895 35.8199C10.932 35.963 11.0762 36.249 11.2153 36.4554C11.9689 37.5734 12.3403 38.681 12.3403 39.8093C12.3403 40.9534 12.0468 41.8439 11.2336 43.1665C10.9019 43.7059 10.8554 43.838 10.9003 44.1147C10.9289 44.2915 11.0326 44.5164 11.1307 44.6147L11.3089 44.7932L27.5149 44.8169C42.3837 44.8385 43.752 44.8287 44.0978 44.6979C44.5779 44.5162 45.0205 44.1274 45.2624 43.6746C45.4486 43.3261 45.4521 43.256 45.4521 39.8093C45.4521 36.3553 45.449 36.2932 45.2611 35.9415C45.0382 35.5242 44.6409 35.1663 44.1537 34.9439C43.8693 34.8142 43.5791 34.7856 42.5307 34.784C41.8285 34.783 41.2539 34.7479 41.2539 34.706C41.2539 34.6641 41.3123 34.4899 41.3838 34.3187C41.4907 34.0623 41.5133 33.4845 41.5117 31.0361C41.51 28.3188 41.4959 28.0341 41.3476 27.707C41.2584 27.5103 41.1423 27.3227 41.0898 27.2901C40.9312 27.192 40.9811 27.0896 41.2323 26.9975C42.0675 26.6911 42.9045 25.8685 43.3657 24.901L43.6343 24.3376V16.8834C43.6343 9.77882 43.6266 9.40853 43.4702 8.98659C43.0809 7.93677 42.1543 6.98775 41.1403 6.60022C40.6488 6.41239 40.4534 6.39341 38.7653 6.36914L36.9259 6.3427V5.65129C36.9259 4.50915 36.5715 4.01198 35.7574 4.01198C34.9487 4.01198 34.5888 4.5225 34.5888 5.6694V6.35224H33.7665H32.9442V5.69939C32.9442 4.93681 32.8144 4.57026 32.4299 4.24626C31.918 3.81488 31.0958 3.96933 30.758 4.56047C30.6988 4.66396 30.6308 5.09977 30.607 5.52881L30.5638 6.3089H29.7414H28.9191L28.8758 5.45679L28.8326 4.60467L28.5093 4.30832C28.239 4.0606 28.1203 4.01198 27.7868 4.01198C26.9593 4.01198 26.638 4.42213 26.5635 5.57354L26.5131 6.35224H25.7036H24.8941V5.65605C24.8941 4.84667 24.7615 4.46113 24.3928 4.19824C24.035 3.94307 23.4563 3.94818 23.0675 4.21003ZM23.9226 4.84034C24.1105 4.97209 24.115 5.01595 24.115 6.69894C24.115 8.37752 24.11 8.42614 23.9243 8.55642C23.7617 8.67048 23.7074 8.67282 23.5564 8.57254C23.3893 8.46151 23.378 8.35793 23.3557 6.74072C23.3351 5.23715 23.3501 5.00685 23.4774 4.866C23.6535 4.67106 23.6792 4.66959 23.9226 4.84034ZM28.0535 6.70891V8.56249L27.7981 8.59161C27.3554 8.64205 27.3178 8.49228 27.3178 6.68239C27.3178 5.17413 27.3306 5.03927 27.4888 4.88082C27.6172 4.75228 27.7091 4.72766 27.8567 4.78236C28.053 4.85508 28.0535 4.86011 28.0535 6.70891ZM31.9727 4.84034C32.1605 4.972 32.1651 5.01621 32.1651 6.69322C32.1651 8.56994 32.1457 8.64474 31.6726 8.5904L31.4294 8.56249L31.406 6.77184C31.3858 5.22926 31.4017 4.96221 31.5203 4.84329C31.6912 4.67228 31.7328 4.67202 31.9727 4.84034ZM35.9886 4.84884C36.1317 4.97859 36.1468 5.15437 36.1456 6.69071C36.1448 7.62482 36.1156 8.431 36.0807 8.48214C35.9648 8.6515 35.7365 8.68123 35.5509 8.55104C35.3749 8.42762 35.3678 8.35559 35.3678 6.69894C35.3678 5.01595 35.3724 4.97209 35.5603 4.84034C35.7978 4.67375 35.7953 4.67366 35.9886 4.84884ZM22.5575 7.71739C22.5584 8.90399 22.8943 9.38591 23.7205 9.38591C24.5455 9.38591 24.8941 8.91049 24.8941 7.78517V7.13233H25.7042H26.5143L26.5592 7.85287C26.6291 8.9742 26.9501 9.38591 27.7545 9.38591C28.5473 9.38591 28.8758 8.93927 28.8758 7.86205V7.13233H29.733H30.5903L30.6203 7.96251L30.6503 8.7927L30.9736 9.08931C31.243 9.33642 31.363 9.38591 31.6921 9.38591C32.5521 9.38591 32.8749 8.99561 32.9285 7.89074L32.9654 7.13233H33.777H34.5888L34.5936 7.76073C34.6 8.56977 34.7312 8.94005 35.0993 9.18786C35.4948 9.45413 36.1175 9.45881 36.4486 9.198C36.7923 8.92731 36.9259 8.52998 36.9259 7.77902V7.12002L38.7653 7.14784L40.6047 7.17566L41.1317 7.45155C42.2619 8.04312 42.8986 9.08653 42.8986 10.3471V11.0328H29.7329H16.5671L16.5987 10.2743C16.6239 9.67116 16.6797 9.40949 16.8714 8.99587C17.2688 8.13855 17.9476 7.54933 18.8782 7.25385C19.1048 7.1819 19.7999 7.14195 20.8907 7.13813L22.557 7.13233L22.5575 7.71739ZM42.9418 17.8369C42.9418 23.4111 42.931 23.8505 42.7825 24.3032C42.4649 25.2713 41.5212 26.163 40.5364 26.4255C40.1667 26.5241 38.5819 26.5459 31.754 26.5468L23.4226 26.5478V24.1714V21.795L25.415 21.13C26.5108 20.7643 27.4651 20.4072 27.5355 20.3367C27.7611 20.1108 27.7884 19.7925 27.6035 19.5446C27.4579 19.3492 26.6706 19.0634 22.0308 17.5216L16.6276 15.7261L16.6043 13.7692L16.581 11.8123L29.7614 11.8343L42.9418 11.8562V17.8369ZM20.7825 13.7996C20.6873 13.8406 20.5133 13.9777 20.3959 14.1041C20.2049 14.31 20.1787 14.4254 20.1476 15.2007C20.118 15.94 20.1354 16.092 20.2663 16.2369C20.3507 16.3302 20.4838 16.4067 20.5622 16.4067C20.8384 16.4067 20.9123 16.2125 20.9123 15.4864C20.9123 15.0946 20.936 14.7123 20.9649 14.6369C21.0097 14.5198 21.2185 14.4998 22.3931 14.4998H23.7688V15.7623C23.7688 17.1043 23.8289 17.3601 24.144 17.3601C24.5161 17.3601 24.5478 17.2327 24.5478 15.7407V14.3292L24.2954 14.0462L24.0431 13.7631L22.4993 13.7441C21.6502 13.7337 20.8777 13.7586 20.7825 13.7996ZM28.0434 13.8541C27.895 13.929 27.7294 14.0872 27.6755 14.2058C27.5542 14.4724 27.5415 17.341 27.6603 17.6537C27.817 18.0665 28.1253 18.1402 29.6966 18.1402C31.2256 18.1402 31.6303 18.0598 31.812 17.7198C31.8694 17.6123 31.9054 16.915 31.9054 15.9086V14.2722L31.6403 14.0176L31.3752 13.7631L29.8442 13.7404C28.5921 13.722 28.264 13.7427 28.0434 13.8541ZM35.4977 13.8016C35.4025 13.8407 35.2467 13.9592 35.1514 14.065C34.9936 14.2406 34.976 14.401 34.9515 15.8884L34.9247 17.5192L35.1823 17.808L35.4398 18.0969L36.9991 18.1239C39.3176 18.1642 39.3496 18.1342 39.3496 15.9242C39.3496 13.7789 39.2855 13.7167 37.086 13.7252C36.3076 13.7282 35.5929 13.7626 35.4977 13.8016ZM31.1697 15.93V17.3168L29.7737 17.3405C28.4966 17.3623 28.3748 17.3512 28.343 17.2105C28.3238 17.1259 28.3228 16.4805 28.3406 15.7762L28.3728 14.4956L29.7712 14.5194L31.1697 14.5432V15.93ZM38.5273 15.93V17.3168L37.1207 17.3406L35.7141 17.3645V15.93V14.4955L37.1207 14.5193L38.5273 14.5432V15.93ZM21.2372 18.0634C24.1292 19.0223 26.524 19.8329 26.5589 19.8648C26.5938 19.8967 24.2177 20.7203 21.2787 21.6952C16.7221 23.2065 15.865 23.4657 15.459 23.455C15.092 23.4452 13.7638 23.0351 9.65952 21.664C6.73163 20.6858 4.39451 19.8659 4.46592 19.8417C4.53734 19.8175 6.91341 19.0315 9.74608 18.0951C12.5788 17.1585 14.9354 16.3791 14.983 16.363C15.0306 16.3469 15.2741 16.3306 15.5242 16.3269C15.8944 16.3213 16.9565 16.6441 21.2372 18.0634ZM14.9669 18.9976C14.8151 19.093 14.6482 19.2512 14.596 19.349C14.5025 19.5239 14.4414 19.527 11.1386 19.527C7.48133 19.527 7.4976 19.5249 7.61731 20.0026L7.67193 20.2205H11.0324H14.3928L14.746 20.5672C15.0429 20.8586 15.1563 20.9139 15.4565 20.9139C16.1437 20.9139 16.5843 20.4918 16.5843 19.8334C16.5843 19.0957 15.6107 18.5927 14.9669 18.9976ZM15.762 19.8738C15.762 20.0431 15.7124 20.0962 15.535 20.1168C15.273 20.1472 15.1369 19.9236 15.2985 19.7286C15.4645 19.5283 15.762 19.6214 15.762 19.8738ZM27.8463 20.2986L27.5774 20.55V22.1937C27.5774 23.7205 27.5901 23.8536 27.7552 24.0638C28.0327 24.417 28.4288 24.4867 29.973 24.4539C31.22 24.4274 31.3885 24.406 31.5583 24.2519C31.9342 23.911 31.9345 23.9077 31.9083 20.8855C31.9061 20.6369 31.8422 20.4905 31.6524 20.3005L31.3994 20.0471H29.7573H28.1152L27.8463 20.2986ZM35.3581 20.1771C34.9722 20.3871 34.9214 20.6615 34.9511 22.3738L34.9783 23.9441L35.2182 24.1842L35.458 24.4243L36.9647 24.4529C39.2844 24.4972 39.3496 24.4373 39.3496 22.2632C39.3496 20.0564 39.3389 20.0457 37.1447 20.0506C35.9661 20.0532 35.5289 20.0841 35.3581 20.1771ZM31.1946 22.084C31.2083 22.7514 31.1978 23.3852 31.1712 23.4925C31.1239 23.6842 31.1006 23.6875 29.7861 23.6875C28.5988 23.6875 28.4409 23.6705 28.375 23.5358C28.3153 23.4137 28.3085 22.5937 28.3535 20.9334C28.3558 20.8475 28.6697 20.8282 29.7631 20.8467L31.1697 20.8705L31.1946 22.084ZM38.5273 22.2574V23.6442H37.1423H35.7574L35.7336 22.2335L35.7098 20.8229L37.1185 20.8467L38.5273 20.8705V22.2574ZM12.408 23.3757C14.6215 24.1029 15.0155 24.2076 15.5395 24.2076C16.073 24.2076 16.4708 24.0971 19.1533 23.2042C20.811 22.6523 22.2746 22.1676 22.4055 22.1268L22.6435 22.0528L22.6419 24.3653L22.6401 26.6778L21.3218 27.189C20.5967 27.4702 19.7697 27.789 19.4841 27.8976C18.8917 28.1228 18.4881 28.2794 17.147 28.8042C16.3414 29.1193 16.0948 29.1779 15.5456 29.1841C14.9299 29.1911 14.8004 29.154 13.0354 28.4663C12.0118 28.0675 10.5706 27.5073 9.83264 27.2212C9.09472 26.9352 8.46231 26.657 8.42734 26.6029C8.35152 26.4855 8.33801 22.1793 8.41323 22.104C8.44197 22.0753 8.78276 22.1625 9.17063 22.2979C9.55859 22.4332 11.0154 22.9183 12.408 23.3757ZM4.31444 24.5554C5.00779 25.3174 3.9689 26.3863 3.18051 25.7221C2.70417 25.3207 2.74667 24.7061 3.27356 24.3776C3.64023 24.149 4.00066 24.2106 4.31444 24.5554ZM8.49408 27.5281L9.01032 27.7284V31.2336V34.7387L8.49451 34.7653C7.8248 34.7998 7.27886 34.5968 7.05571 34.2304C6.90155 33.9772 6.89021 33.7613 6.88995 31.0723C6.8896 27.8835 6.89843 27.8253 7.43484 27.4978C7.78697 27.2828 7.86739 27.2851 8.49408 27.5281ZM40.1368 27.4622C40.2793 27.5359 40.472 27.7213 40.5649 27.8739C40.7237 28.1345 40.734 28.3276 40.734 31.055C40.734 33.7614 40.7227 33.9771 40.5684 34.2304C40.2078 34.8227 41.1529 34.7882 26.0194 34.7622L12.3862 34.7387L12.3633 31.9707C12.3507 30.4483 12.3701 29.1748 12.4066 29.1408C12.4429 29.1068 12.9986 29.2772 13.6413 29.5194C14.711 29.9226 14.8721 29.9598 15.5456 29.9598C16.2321 29.9597 16.3654 29.9272 17.5365 29.4739C20.2792 28.4122 22.019 27.7367 22.5137 27.5414L23.033 27.3364L31.4553 27.3322C38.8953 27.3284 39.9078 27.3436 40.1368 27.4622ZM10.7415 28.4035L11.5206 28.6977L11.5433 31.7399L11.5661 34.7821H10.6994H9.83264V31.445C9.83264 29.6097 9.86181 28.1083 9.89756 28.1086C9.93331 28.109 10.3131 28.2417 10.7415 28.4035ZM34.6754 28.5414C34.5108 28.7062 34.5022 28.8303 34.5022 31.0488C34.5022 33.0551 34.5214 33.402 34.6382 33.5191C34.7833 33.6643 34.9236 33.6875 35.1443 33.6027C35.2648 33.5564 35.2813 33.2496 35.2813 31.0488C35.2813 28.6646 35.2734 28.5433 35.1139 28.4577C34.8905 28.338 34.8756 28.3409 34.6754 28.5414ZM36.9741 28.5607C36.8604 28.7232 36.8394 29.1103 36.8394 31.0366C36.8394 32.4449 36.8737 33.3843 36.9289 33.4877C37.0291 33.6751 37.3555 33.7105 37.5145 33.5513C37.5904 33.4753 37.6184 32.7873 37.6184 30.9974C37.6184 28.6639 37.6104 28.5432 37.451 28.4577C37.2077 28.3274 37.1248 28.3452 36.9741 28.5607ZM43.7858 35.616C44.0204 35.685 43.97 35.7618 43.5407 35.9898C42.9651 36.2955 42.4328 36.9466 42.215 37.6109C42.0559 38.0962 42.033 38.3731 42.033 39.8093C42.033 41.2606 42.0549 41.5193 42.2204 42.0243C42.451 42.7279 43.0142 43.3909 43.6198 43.6718C44.0067 43.8513 44.027 43.8753 43.8653 43.962C43.7398 44.0291 39.0655 44.0565 27.6697 44.0565C18.8591 44.0565 11.6504 44.0357 11.6504 44.0102C11.6504 43.9847 11.8354 43.6534 12.0616 43.2739L12.4727 42.5839L21.1128 42.5835C26.9021 42.5831 29.8081 42.5533 29.9203 42.4932C30.1278 42.382 30.1493 41.9318 29.9507 41.8555C29.8754 41.8265 25.9952 41.8029 21.328 41.8029H12.8421L12.8929 41.5645C12.9208 41.4334 12.9896 41.0628 13.0455 40.7411L13.1473 40.156H19.6235C25.9301 40.156 26.1022 40.1516 26.1891 39.9889C26.2973 39.7865 26.2273 39.574 26.0149 39.4602C25.9171 39.4078 23.4496 39.3759 19.4937 39.3759H13.1298L13.0747 39.0509C13.0444 38.8722 12.9844 38.5893 12.9414 38.4225C12.7695 37.7554 12.3005 37.8158 17.6571 37.8158C21.9495 37.8158 22.4574 37.8014 22.5044 37.6786C22.6118 37.3983 22.5551 37.204 22.342 37.1229C22.2168 37.0752 20.112 37.0402 17.2999 37.0389C13.5215 37.0371 12.4582 37.013 12.4057 36.9278C12.0809 36.3999 11.6504 35.6491 11.6504 35.6105C11.6504 35.5599 42.8126 35.493 43.3314 35.5425C43.498 35.5584 43.7025 35.5915 43.7858 35.616ZM44.6638 36.5661C44.748 36.7858 44.7217 42.9603 44.6359 43.096C44.5226 43.2752 43.7998 42.985 43.4535 42.6211C42.9096 42.0497 42.8581 41.8372 42.8267 40.0343C42.7954 38.2373 42.8583 37.7992 43.2242 37.2658C43.4525 36.9331 44.1996 36.4313 44.469 36.4297C44.5473 36.4293 44.6349 36.4906 44.6638 36.5661ZM24.0622 37.1197C23.829 37.2151 23.7445 37.435 23.8587 37.6487C23.945 37.8101 24.0885 37.8158 28.0906 37.8158C31.7882 37.8158 32.2388 37.801 32.2857 37.6786C32.3891 37.4086 32.3361 37.2026 32.1435 37.1269C31.8918 37.0278 24.3031 37.0211 24.0622 37.1197ZM34.7619 39.5493C34.5613 39.7502 34.5413 39.922 34.703 40.0563C34.7793 40.1197 35.631 40.1537 37.27 40.1587C39.3228 40.1649 39.7435 40.1454 39.8503 40.0384C40.0271 39.8615 39.9219 39.497 39.6752 39.4308C39.5675 39.4019 38.457 39.3778 37.2072 39.3771C35.0496 39.376 34.9263 39.3847 34.7619 39.5493ZM1.05607 46.9672C0.957041 47.2257 0.99859 48.784 1.1074 48.893C1.17535 48.961 1.53379 48.997 2.14309 48.997C3.17454 48.997 3.25408 48.954 3.25408 48.396V48.1302H25.5H47.7459V48.4596C47.7459 48.6408 47.7927 48.8358 47.8498 48.893C47.9923 49.0357 49.7501 49.0357 49.8926 48.893C50.0014 48.784 50.043 47.2257 49.9439 46.9672C49.9001 46.8528 49.7208 46.8301 48.8619 46.8301C47.8565 46.8301 47.8321 46.8346 47.8177 47.0251C47.8095 47.1323 47.7942 47.2786 47.7836 47.3502C47.773 47.4217 47.7602 47.529 47.7551 47.5885C47.7478 47.6748 43.2342 47.6969 25.5 47.6969H3.25408L3.25287 47.4585C3.24976 46.8284 3.25296 46.8301 2.12794 46.8301C1.27827 46.8301 1.09987 46.8529 1.05607 46.9672ZM2.73472 47.9174V48.5713L2.10716 48.5458L1.4796 48.5203L1.45329 48.0099C1.41529 47.2723 1.42317 47.2635 2.12612 47.2635H2.73472V47.9174ZM49.5204 47.9136V48.5203L48.8928 48.5458L48.2653 48.5713V47.9136V47.2559L48.8928 47.2813L49.5204 47.3068V47.9136Z" fill="#0A1849"/>
</svg>
