<svg width="50" height="46" viewBox="0 0 50 46" fill="none" xmlns="http://www.w3.org/2000/svg">
<path fill-rule="evenodd" clip-rule="evenodd" d="M22.1251 1.1551C21.7521 1.4062 21.6257 1.77388 21.6194 2.62557L21.6146 3.29731H19.9424C18.1472 3.29731 17.7545 3.36127 16.9043 3.79249C16.1155 4.19241 15.3573 5.11968 15.0064 6.11351C14.952 6.26771 14.895 7.61457 14.867 9.40799L14.8196 12.4417L14.4301 12.4665C13.9843 12.4951 2.76917 16.1753 2.57138 16.358C2.46595 16.4554 2.4334 16.8474 2.39826 18.4428L2.35498 20.4077L2.01601 20.5852C1.30934 20.955 0.962838 21.792 1.21412 22.5224C1.33773 22.8815 1.33167 22.9245 1.02784 23.8453C0.685845 24.882 0.700214 25.0723 1.12444 25.1233C1.38914 25.1551 1.46237 25.042 1.71634 24.209C1.92729 23.5174 1.95265 23.4831 2.20497 23.5492C2.39064 23.5978 2.39826 23.6385 2.39826 24.5834C2.39826 25.489 2.41246 25.5746 2.57718 25.6629C2.71637 25.7375 2.80293 25.7281 2.9667 25.6206C3.16847 25.4883 3.1773 25.4429 3.1773 24.5368C3.1773 23.6559 3.18959 23.5874 3.35691 23.5342C3.45576 23.5028 3.54388 23.4904 3.5528 23.5067C3.56171 23.5229 3.68541 23.8873 3.82763 24.3163C4.0738 25.0591 4.09813 25.0964 4.33643 25.0964C4.77684 25.0964 4.79952 24.9075 4.48366 23.8692C4.21619 22.9905 4.20503 22.9034 4.30518 22.4853C4.49457 21.6947 4.2387 21.0575 3.56838 20.6502L3.18275 20.4159L3.18007 19.0074C3.17851 18.2328 3.20249 17.5989 3.23322 17.5989C3.26403 17.5989 4.06255 17.8572 5.0077 18.173L6.72626 18.747V21.1098V23.4725L6.25737 23.7023C5.90108 23.8768 5.71922 24.04 5.49996 24.382L5.21146 24.8321L5.18558 27.7996C5.16957 29.638 5.19346 30.8921 5.24842 31.0955C5.36519 31.5282 5.79055 32.033 6.23694 32.2687C6.56474 32.4418 6.7415 32.4606 8.24089 32.4817L9.88527 32.5047L9.95261 32.7649C9.98966 32.908 10.1338 33.1941 10.2729 33.4004C11.0265 34.5185 11.3979 35.626 11.3979 36.7544C11.3979 37.8984 11.1044 38.7889 10.2912 40.1115C9.95954 40.651 9.91305 40.7831 9.95789 41.0598C9.98654 41.2366 10.0902 41.4615 10.1883 41.5597L10.3665 41.7383L26.5726 41.7619C41.4413 41.7836 42.8096 41.7738 43.1555 41.6429C43.6355 41.4613 44.0781 41.0724 44.32 40.6197C44.5062 40.2712 44.5097 40.2011 44.5097 36.7544C44.5097 33.3004 44.5067 33.2383 44.3187 32.8865C44.0959 32.4693 43.6985 32.1114 43.2113 31.889C42.9269 31.7592 42.6367 31.7306 41.5883 31.7291C40.8861 31.728 40.3115 31.6929 40.3115 31.6511C40.3115 31.6092 40.37 31.435 40.4414 31.2638C40.5484 31.0074 40.5709 30.4295 40.5693 27.9812C40.5676 25.2639 40.5536 24.9791 40.4052 24.652C40.316 24.4554 40.2 24.2678 40.1474 24.2352C39.9888 24.1371 40.0387 24.0347 40.2899 23.9426C41.1251 23.6362 41.9621 22.8136 42.4233 21.846L42.6919 21.2827V13.8285C42.6919 6.72388 42.6842 6.3536 42.5278 5.93166C42.1386 4.88184 41.2119 3.93282 40.198 3.54529C39.7064 3.35746 39.511 3.33848 37.8229 3.31421L35.9835 3.28777V2.59635C35.9835 1.45422 35.6291 0.957045 34.815 0.957045C34.0063 0.957045 33.6464 1.46757 33.6464 2.61447V3.29731H32.8241H32.0018V2.64446C32.0018 1.88188 31.872 1.51533 31.4875 1.19133C30.9756 0.759943 30.1535 0.914401 29.8156 1.50553C29.7564 1.60903 29.6885 2.04483 29.6647 2.47388L29.6214 3.25397H28.7991H27.9767L27.9335 2.40185L27.8902 1.54974L27.5669 1.25339C27.2966 1.00567 27.178 0.957045 26.8444 0.957045C26.0169 0.957045 25.6956 1.3672 25.6211 2.51861L25.5707 3.29731H24.7612H23.9517V2.60112C23.9517 1.79174 23.8191 1.4062 23.4504 1.14331C23.0926 0.888138 22.5139 0.893252 22.1251 1.1551ZM22.9802 1.78541C23.1681 1.91716 23.1727 1.96102 23.1727 3.64401C23.1727 5.32259 23.1676 5.37121 22.9819 5.50149C22.8193 5.61555 22.765 5.61789 22.614 5.51761C22.4469 5.40658 22.4356 5.303 22.4134 3.68579C22.3928 2.18222 22.4077 1.95192 22.535 1.81107C22.7111 1.61613 22.7368 1.61466 22.9802 1.78541ZM27.1111 3.65398V5.50755L26.8557 5.53668C26.413 5.58712 26.3754 5.43735 26.3754 3.62746C26.3754 2.1192 26.3882 1.98433 26.5464 1.82589C26.6748 1.69735 26.7667 1.67273 26.9143 1.72742C27.1106 1.80015 27.1111 1.80517 27.1111 3.65398ZM31.0303 1.78541C31.2181 1.91707 31.2227 1.96128 31.2227 3.63829C31.2227 5.51501 31.2033 5.58981 30.7302 5.53546L30.487 5.50755L30.4636 3.71691C30.4434 2.17433 30.4593 1.90728 30.578 1.78836C30.7488 1.61735 30.7904 1.61709 31.0303 1.78541ZM35.0462 1.79391C35.1894 1.92366 35.2044 2.09944 35.2032 3.63578C35.2024 4.56989 35.1732 5.37607 35.1383 5.42721C35.0225 5.59657 34.7941 5.6263 34.6085 5.49611C34.4326 5.37269 34.4255 5.30066 34.4255 3.64401C34.4255 1.96102 34.43 1.91716 34.6179 1.78541C34.8554 1.61882 34.8529 1.61873 35.0462 1.79391ZM21.6151 4.66246C21.6161 5.84906 21.9519 6.33098 22.7781 6.33098C23.6031 6.33098 23.9517 5.85556 23.9517 4.73024V4.07739H24.7618H25.5719L25.6169 4.79794C25.6867 5.91927 26.0078 6.33098 26.8122 6.33098C27.6049 6.33098 27.9335 5.88434 27.9335 4.80712V4.07739H28.7907H29.648L29.6779 4.90758L29.7079 5.73777L30.0312 6.03437C30.3006 6.28149 30.4206 6.33098 30.7497 6.33098C31.6097 6.33098 31.9325 5.94068 31.9861 4.83581L32.023 4.07739H32.8347H33.6464L33.6513 4.7058C33.6576 5.51483 33.7888 5.88512 34.1569 6.13292C34.5524 6.39919 35.1752 6.40387 35.5062 6.14306C35.8499 5.87238 35.9835 5.47505 35.9835 4.72409V4.06509L37.8229 4.09291L39.6623 4.12073L40.1893 4.39662C41.3195 4.98819 41.9562 6.0316 41.9562 7.29213V7.97783H28.7905H15.6247L15.6563 7.21941C15.6815 6.61623 15.7373 6.35456 15.929 5.94094C16.3265 5.08362 17.0052 4.49439 17.9358 4.19891C18.1624 4.12697 18.8576 4.08702 19.9483 4.0832L21.6146 4.07739L21.6151 4.66246ZM41.9995 14.7819C41.9995 20.3562 41.9886 20.7956 41.8401 21.2482C41.5225 22.2164 40.5788 23.1081 39.594 23.3706C39.2243 23.4691 37.6395 23.491 30.8116 23.4919L22.4802 23.4929V21.1165V18.7401L24.4726 18.0751C25.5684 17.7093 26.5227 17.3523 26.5932 17.2818C26.8187 17.0559 26.846 16.7376 26.6611 16.4896C26.5155 16.2943 25.7283 16.0085 21.0884 14.4667L15.6852 12.6712L15.6619 10.7143L15.6387 8.7574L28.8191 8.77933L41.9995 8.80126V14.7819ZM19.8401 10.7447C19.7449 10.7857 19.5709 10.9227 19.4535 11.0492C19.2625 11.2551 19.2363 11.3705 19.2053 12.1458C19.1756 12.8851 19.193 13.037 19.3239 13.182C19.4083 13.2753 19.5415 13.3518 19.6198 13.3518C19.896 13.3518 19.9699 13.1575 19.9699 12.4314C19.9699 12.0397 19.9936 11.6574 20.0225 11.582C20.0673 11.4649 20.2761 11.4449 21.4507 11.4449H22.8264V12.7074C22.8264 14.0493 22.8865 14.3052 23.2017 14.3052C23.5737 14.3052 23.6055 14.1778 23.6055 12.6857V11.2743L23.3531 10.9912L23.1007 10.7081L21.5569 10.6892C20.7079 10.6788 19.9353 10.7037 19.8401 10.7447ZM27.101 10.7991C26.9526 10.874 26.7871 11.0323 26.7331 11.1509C26.6118 11.4175 26.5991 14.286 26.7179 14.5988C26.8747 15.0116 27.1829 15.0853 28.7542 15.0853C30.2832 15.0853 30.6879 15.0049 30.8696 14.6649C30.927 14.5573 30.9631 13.86 30.9631 12.8536V11.2173L30.6979 10.9627L30.4328 10.7081L28.9018 10.6855C27.6497 10.6671 27.3217 10.6878 27.101 10.7991ZM34.5553 10.7467C34.4601 10.7858 34.3043 10.9043 34.2091 11.0101C34.0512 11.1856 34.0336 11.3461 34.0091 12.8334L33.9823 14.4643L34.2399 14.7531L34.4974 15.042L36.0567 15.069C38.3752 15.1093 38.4072 15.0793 38.4072 12.8692C38.4072 10.724 38.3432 10.6618 36.1436 10.6703C35.3652 10.6733 34.6505 10.7077 34.5553 10.7467ZM30.2273 12.875V14.2619L28.8313 14.2856C27.5542 14.3074 27.4324 14.2963 27.4006 14.1556C27.3815 14.071 27.3804 13.4256 27.3982 12.7213L27.4305 11.4406L28.8288 11.4645L30.2273 11.4882V12.875ZM37.5849 12.875V14.2619L36.1783 14.2857L34.7717 14.3095V12.875V11.4406L36.1783 11.4644L37.5849 11.4882V12.875ZM20.2948 15.0085C23.1869 15.9674 25.5816 16.778 25.6165 16.8099C25.6514 16.8418 23.2753 17.6654 20.3363 18.6402C15.7797 20.1516 14.9226 20.4108 14.5167 20.4C14.1496 20.3903 12.8214 19.9802 8.71714 18.609C5.78925 17.6309 3.45213 16.8109 3.52354 16.7868C3.59495 16.7626 5.97102 15.9766 8.8037 15.0401C11.6364 14.1036 13.993 13.3242 14.0406 13.3081C14.0882 13.292 14.3318 13.2757 14.5818 13.2719C14.9521 13.2664 16.0141 13.5892 20.2948 15.0085ZM14.0245 15.9427C13.8727 16.038 13.7059 16.1962 13.6536 16.2941C13.5601 16.469 13.4991 16.4721 10.1962 16.4721C6.53895 16.4721 6.55522 16.4699 6.67493 16.9477L6.72955 17.1655H10.09H13.4504L13.8036 17.5122C14.1005 17.8036 14.2139 17.8589 14.5142 17.8589C15.2014 17.8589 15.6419 17.4368 15.6419 16.7785C15.6419 16.0408 14.6683 15.5377 14.0245 15.9427ZM14.8196 16.8188C14.8196 16.9882 14.77 17.0412 14.5927 17.0619C14.3306 17.0923 14.1945 16.8687 14.3561 16.6736C14.5221 16.4733 14.8196 16.5665 14.8196 16.8188ZM26.9039 17.2436L26.6351 17.4951V19.1388C26.6351 20.6656 26.6477 20.7987 26.8129 21.0088C27.0903 21.362 27.4864 21.4317 29.0306 21.399C30.2776 21.3724 30.4461 21.351 30.6159 21.1969C30.9918 20.856 30.9921 20.8527 30.9659 17.8306C30.9638 17.5819 30.8998 17.4355 30.71 17.2455L30.457 16.9922H28.8149H27.1728L26.9039 17.2436ZM34.4158 17.1222C34.0298 17.3322 33.979 17.6065 34.0087 19.3188L34.0359 20.8891L34.2758 21.1292L34.5156 21.3693L36.0223 21.398C38.342 21.4423 38.4072 21.3824 38.4072 19.2082C38.4072 17.0014 38.3966 16.9908 36.2023 16.9956C35.0238 16.9982 34.5865 17.0292 34.4158 17.1222ZM30.2522 19.0291C30.2659 19.6965 30.2554 20.3303 30.2289 20.4376C30.1815 20.6293 30.1582 20.6326 28.8437 20.6326C27.6564 20.6326 27.4985 20.6156 27.4326 20.4809C27.3729 20.3588 27.3661 19.5388 27.4111 17.8784C27.4134 17.7925 27.7273 17.7733 28.8207 17.7918L30.2273 17.8156L30.2522 19.0291ZM37.5849 19.2024V20.5892H36.1999H34.815L34.7912 19.1786L34.7674 17.7679L36.1761 17.7918L37.5849 17.8156V19.2024ZM11.4656 20.3208C13.6791 21.0479 14.0731 21.1526 14.5972 21.1526C15.1306 21.1526 15.5285 21.0421 18.2109 20.1493C19.8687 19.5974 21.3322 19.1126 21.4631 19.0719L21.7011 18.9979L21.6995 21.3104L21.6978 23.6229L20.3795 24.134C19.6543 24.4152 18.8273 24.7341 18.5417 24.8427C17.9493 25.0679 17.5457 25.2244 16.2046 25.7493C15.3991 26.0644 15.1524 26.1229 14.6032 26.1292C13.9875 26.1362 13.858 26.0991 12.093 25.4114C11.0694 25.0126 9.62818 24.4523 8.89026 24.1663C8.15234 23.8803 7.51993 23.602 7.48496 23.5479C7.40913 23.4306 7.39563 19.1244 7.47085 19.0491C7.49959 19.0204 7.84037 19.1076 8.22825 19.243C8.61621 19.3783 10.073 19.8633 11.4656 20.3208ZM3.37206 21.5005C4.06541 22.2624 3.02651 23.3313 2.23813 22.6671C1.76179 22.2657 1.80429 21.6512 2.33118 21.3227C2.69785 21.094 3.05828 21.1557 3.37206 21.5005ZM7.5517 24.4732L8.06794 24.6734V28.1786V31.6838L7.55213 31.7103C6.88242 31.7448 6.33648 31.5418 6.11333 31.1755C5.95917 30.9223 5.94783 30.7064 5.94757 28.0174C5.94722 24.8286 5.95605 24.7703 6.49246 24.4429C6.84459 24.2278 6.925 24.2302 7.5517 24.4732ZM39.1944 24.4072C39.337 24.481 39.5296 24.6663 39.6225 24.819C39.7813 25.0796 39.7916 25.2727 39.7916 28.0001C39.7916 30.7065 39.7803 30.9222 39.6261 31.1755C39.2654 31.7678 40.2105 31.7333 25.077 31.7072L11.4438 31.6838L11.4209 28.9157C11.4083 27.3933 11.4278 26.1199 11.4642 26.0858C11.5006 26.0518 12.0562 26.2222 12.6989 26.4644C13.7686 26.8676 13.9297 26.9048 14.6032 26.9048C15.2897 26.9047 15.423 26.8722 16.5941 26.4189C19.3368 25.3572 21.0766 24.6818 21.5713 24.4865L22.0907 24.2815L30.5129 24.2772C37.9529 24.2735 38.9654 24.2887 39.1944 24.4072ZM9.79914 25.3486L10.5782 25.6427L10.6009 28.685L10.6237 31.7272H9.75699H8.89026V28.3901C8.89026 26.5547 8.91943 25.0533 8.95518 25.0537C8.99093 25.054 9.37067 25.1867 9.79914 25.3486ZM33.733 25.4865C33.5684 25.6512 33.5599 25.7753 33.5599 27.9939C33.5599 30.0002 33.579 30.3471 33.6958 30.4642C33.8409 30.6094 33.9812 30.6326 34.202 30.5477C34.3225 30.5015 34.3389 30.1947 34.3389 27.9938C34.3389 25.6096 34.331 25.4884 34.1715 25.4028C33.9481 25.2831 33.9332 25.286 33.733 25.4865ZM36.0317 25.5058C35.918 25.6683 35.897 26.0554 35.897 27.9817C35.897 29.3899 35.9313 30.3293 35.9866 30.4327C36.0867 30.6201 36.4131 30.6556 36.5721 30.4964C36.6481 30.4203 36.676 29.7324 36.676 27.9424C36.676 25.609 36.668 25.4883 36.5086 25.4028C36.2653 25.2725 36.1825 25.2903 36.0317 25.5058ZM42.8434 32.5611C43.078 32.6301 43.0276 32.7069 42.5983 32.9349C42.0227 33.2406 41.4904 33.8916 41.2726 34.5559C41.1135 35.0412 41.0906 35.3182 41.0906 36.7544C41.0906 38.2057 41.1125 38.4643 41.2781 38.9694C41.5087 39.6729 42.0718 40.3359 42.6774 40.6169C43.0643 40.7964 43.0846 40.8204 42.9229 40.907C42.7975 40.9742 38.1231 41.0015 26.7273 41.0015C17.9167 41.0015 10.708 40.9807 10.708 40.9552C10.708 40.9298 10.893 40.5985 11.1192 40.219L11.5303 39.529L20.1704 39.5285C25.9597 39.5282 28.8657 39.4984 28.9779 39.4383C29.1854 39.3271 29.2069 38.8768 29.0084 38.8006C28.9331 38.7716 25.0528 38.7479 20.3856 38.7479H11.8997L11.9505 38.5096C11.9785 38.3784 12.0472 38.0079 12.1031 37.6861L12.2049 37.1011H18.6811C24.9877 37.1011 25.1598 37.0967 25.2467 36.934C25.3549 36.7316 25.2849 36.5191 25.0725 36.4053C24.9748 36.3529 22.5072 36.321 18.5513 36.321H12.1874L12.1323 35.996C12.102 35.8172 12.042 35.5344 11.999 35.3676C11.8272 34.7005 11.3581 34.7608 16.7147 34.7608C21.0071 34.7608 21.515 34.7464 21.562 34.6237C21.6695 34.3434 21.6127 34.1491 21.3997 34.0679C21.2744 34.0203 19.1696 33.9852 16.3575 33.9839C12.5791 33.9822 11.5158 33.9581 11.4633 33.8729C11.1385 33.345 10.708 32.5942 10.708 32.5555C10.708 32.505 41.8702 32.4381 42.389 32.4876C42.5556 32.5035 42.7601 32.5365 42.8434 32.5611ZM43.7214 33.5111C43.8056 33.7309 43.7793 39.9054 43.6935 40.0411C43.5802 40.2203 42.8574 39.93 42.5111 39.5662C41.9673 38.9948 41.9157 38.7823 41.8843 36.9794C41.853 35.1823 41.9159 34.7443 42.2818 34.2109C42.5101 33.8782 43.2573 33.3763 43.5266 33.3748C43.6049 33.3743 43.6925 33.4357 43.7214 33.5111ZM23.1198 34.0648C22.8867 34.1602 22.8021 34.3801 22.9164 34.5937C23.0026 34.7552 23.1461 34.7608 27.1482 34.7608C30.8459 34.7608 31.2964 34.7461 31.3433 34.6237C31.4468 34.3537 31.3937 34.1477 31.2011 34.0719C30.9494 33.9729 23.3607 33.9662 23.1198 34.0648ZM33.8195 36.4944C33.6189 36.6953 33.5989 36.8671 33.7606 37.0014C33.8369 37.0648 34.6886 37.0988 36.3276 37.1038C38.3804 37.11 38.8011 37.0904 38.908 36.9835C39.0847 36.8066 38.9795 36.4421 38.7328 36.3759C38.6251 36.347 37.5146 36.3228 36.2649 36.3222C34.1073 36.3211 33.9839 36.3298 33.8195 36.4944ZM0.113683 43.9123C0.0146586 44.1708 0.0562076 45.7291 0.165013 45.8381C0.232963 45.9061 0.591408 45.9421 1.2007 45.9421C2.23215 45.9421 2.3117 45.8991 2.3117 45.3411V45.0753H24.5576H46.8035V45.4047C46.8035 45.5858 46.8503 45.7809 46.9074 45.8381C47.0499 45.9807 48.8077 45.9807 48.9502 45.8381C49.059 45.7291 49.1006 44.1708 49.0016 43.9123C48.9578 43.7979 48.7784 43.7752 47.9196 43.7752C46.9141 43.7752 46.8897 43.7797 46.8753 43.9702C46.8672 44.0774 46.8518 44.2237 46.8412 44.2952C46.8306 44.3667 46.8178 44.474 46.8127 44.5336C46.8054 44.6199 42.2918 44.6419 24.5576 44.6419H2.3117L2.31049 44.4036C2.30737 43.7734 2.31058 43.7752 1.18556 43.7752C0.335884 43.7752 0.157483 43.798 0.113683 43.9123ZM1.79234 44.8624V45.5163L1.16478 45.4908L0.537222 45.4654L0.510907 44.955C0.472908 44.2174 0.480784 44.2085 1.18374 44.2085H1.79234V44.8624ZM48.578 44.8586V45.4654L47.9505 45.4908L47.3229 45.5163V44.8586V44.2009L47.9505 44.2264L48.578 44.2519V44.8586Z" fill="white"/>
</svg>
