<svg width="31" height="31" viewBox="0 0 31 31" fill="none" xmlns="http://www.w3.org/2000/svg">
<circle cx="15.5654" cy="15.5794" r="15.3123" fill="#42E8E0"/>
<circle cx="15.5654" cy="15.5794" r="15.3123" fill="url(#paint0_radial_1_388)"/>
<path d="M9.06266 21.0752C9.56924 21.2125 10.6687 21.2946 11.8233 21.3456L12.0012 21.3529L9.06266 21.0752ZM9.06266 21.0752C8.7095 20.9797 8.38764 20.793 8.12932 20.534C7.871 20.2749 7.68528 19.9525 7.59078 19.5991L9.06266 21.0752ZM12.4478 21.3316C12.4478 21.3316 12.4478 21.3316 12.4478 21.3316L12.2714 21.3254L12.271 21.3254L12.1809 21.3212L12.1807 21.3212L12.0028 21.3139L11.8251 21.3067L15.4911 21.4247C15.1697 21.4247 13.8403 21.4184 12.4464 21.3706L12.4478 21.3316ZM12.4478 21.3316C13.841 21.3794 15.1699 21.3857 15.4911 21.3857H15.6387M12.4478 21.3316L15.6387 21.3857M15.6387 21.3857C15.9563 21.3852 17.2613 21.3792 18.6375 21.3328C19.3257 21.3096 20.0313 21.2763 20.64 21.2286C21.2498 21.1807 21.7593 21.1186 22.0571 21.0386M15.6387 21.3857L23.0008 20.5346C23.2591 20.2753 23.4447 19.9527 23.5391 19.5991M22.0571 21.0386C22.0571 21.0386 22.057 21.0386 22.057 21.0386L22.0672 21.0762L22.0571 21.0386ZM22.0571 21.0386C22.4037 20.9448 22.7197 20.7615 22.9732 20.5071C23.2267 20.2527 23.4088 19.9361 23.5014 19.5891M23.5014 19.5891L23.5391 19.5991M23.5014 19.5891C23.616 19.1577 23.6927 18.5696 23.7447 17.9751M23.5014 19.5891C23.5014 19.5891 23.5014 19.5891 23.5014 19.5891L23.5391 19.5991M23.5391 19.5991L23.7447 17.9751M23.7447 17.9751L23.7835 17.9785L23.7447 17.9751M23.7447 17.9751L11.8249 21.3067C10.669 21.2556 9.57437 21.1735 9.07286 21.0375L9.07283 21.0375C8.72627 20.9438 8.41041 20.7607 8.15691 20.5065C7.90341 20.2522 7.72116 19.9359 7.62843 19.589C7.5139 19.1587 7.43715 18.5698 7.38518 17.9753C7.38517 17.9752 7.38516 17.9752 7.38516 17.9751L7.37687 17.8663L7.37687 17.8663L7.36856 17.7583C7.36856 17.7582 7.36856 17.7582 7.36855 17.7582C7.31729 17.0542 7.28888 16.3489 7.28337 15.6431V15.5155C7.28545 15.2918 7.29377 14.52 7.34986 13.6684L7.35713 13.5613H7.35713L7.35716 13.5609L7.36026 13.5072L7.36852 13.3997L7.36855 13.3994L7.39137 13.1297L7.39141 13.1293L7.40177 13.0215L7.40178 13.0214C7.45165 12.4822 7.52526 11.9605 7.62948 11.5695C7.72205 11.2225 7.90423 10.9059 8.15774 10.6515C8.41124 10.3971 8.72715 10.2138 9.07381 10.12C9.57547 9.98609 10.6702 9.9029 11.8261 9.85083L12.0026 9.84357L12.0028 9.84356L12.1815 9.83732L12.2709 9.8342L12.2712 9.8342L12.4487 9.82693C12.4488 9.82692 12.4488 9.82692 12.4489 9.82692C13.4384 9.79508 14.4283 9.7774 15.4183 9.7739H15.619H15.658V9.77286H15.7115C16.139 9.77442 17.4353 9.783 18.7706 9.83043C19.4383 9.85415 20.1155 9.88758 20.6984 9.93466C21.2823 9.98182 21.7689 10.0425 22.0571 10.12C22.4036 10.2141 22.7194 10.3975 22.9728 10.6518C23.2263 10.9062 23.4085 11.2226 23.5014 11.5694C23.6056 11.9616 23.6793 12.4822 23.7291 13.0214L23.7291 13.0215L23.7395 13.1293L23.7395 13.1297L23.7624 13.3994L23.7624 13.3997L23.7707 13.5074C23.7707 13.5074 23.7707 13.5074 23.7707 13.5074C23.8382 14.4569 23.8465 15.3463 23.8475 15.5405V15.6181C23.8465 15.8195 23.8371 16.7692 23.7624 17.7581L23.7541 17.8669L23.754 17.8673L23.7447 17.9751M23.7447 17.9751L23.7447 17.9751M23.7447 17.9751L23.7447 17.9751M13.9212 13.0392L13.8627 13.0053V13.0729V18.0846V18.1522L13.9212 18.1183L18.2453 15.6135L18.3035 15.5798L18.2453 15.5461L13.9212 13.0392Z" fill="white" stroke="white" stroke-width="0.0779385"/>
<defs>
<radialGradient id="paint0_radial_1_388" cx="0" cy="0" r="1" gradientUnits="userSpaceOnUse" gradientTransform="translate(29.3414 15.2175) rotate(-135.405) scale(58.4172 108.331)">
<stop stop-color="#42E8E0"/>
<stop offset="0.02" stop-color="#43E0DE"/>
<stop offset="0.11" stop-color="#47BAD1"/>
<stop offset="0.21" stop-color="#4B9AC7"/>
<stop offset="0.32" stop-color="#4E7FBE"/>
<stop offset="0.44" stop-color="#506BB7"/>
<stop offset="0.58" stop-color="#525CB3"/>
<stop offset="0.74" stop-color="#5354B0"/>
<stop offset="1" stop-color="#5351AF"/>
</radialGradient>
</defs>
</svg>
