<svg width="31" height="31" viewBox="0 0 31 31" fill="none" xmlns="http://www.w3.org/2000/svg">
<circle cx="15.5657" cy="15.5794" r="15.3123" fill="#42E8E0"/>
<circle cx="15.5657" cy="15.5794" r="15.3123" fill="url(#paint0_radial_98_421)"/>
<path d="M9.06289 21.0753C9.56947 21.2126 10.669 21.2948 11.8236 21.3457L12.0014 21.353L9.06289 21.0753ZM9.06289 21.0753C8.70974 20.9798 8.38787 20.7932 8.12955 20.5341C7.87123 20.275 7.68551 19.9527 7.59101 19.5992L9.06289 21.0753ZM12.448 21.3317C12.448 21.3317 12.448 21.3317 12.448 21.3317L12.2716 21.3255L12.2712 21.3255L12.1811 21.3214L12.1809 21.3214L12.003 21.3141L11.8253 21.3068L12.448 21.3317ZM12.448 21.3317C13.8413 21.3796 15.1701 21.3858 15.4913 21.3858H15.639M12.448 21.3317L15.639 21.3858M15.639 21.3858C15.9565 21.3853 17.2615 21.3793 18.6378 21.3329C19.3259 21.3097 20.0315 21.2764 20.6403 21.2287C21.25 21.1809 21.7595 21.1188 22.0573 21.0387C22.4039 20.9449 22.7199 20.7616 22.9734 20.5072C23.2269 20.2528 23.4091 19.9362 23.5016 19.5892C23.6162 19.1578 23.693 18.5697 23.7449 17.9752L23.7543 17.8675L23.7543 17.8671L23.7626 17.7583C23.8373 16.7697 23.8467 15.8203 23.8478 15.6184C23.8478 15.6183 23.8478 15.6183 23.8478 15.6182M15.639 21.3858L23.8867 15.6184L23.8478 15.6182M23.8478 15.6182V15.5406M23.8478 15.6182V15.5406M23.8478 15.5406L23.8478 15.5404L23.8478 15.5406ZM9.07306 21.0377L9.07309 21.0377C9.5746 21.1736 10.6692 21.2558 11.8252 21.3068L9.07306 21.0377ZM9.07306 21.0377C8.7265 20.9439 8.41065 20.7608 8.15714 20.5066C7.90364 20.2524 7.7214 19.936 7.62866 19.5892C7.51412 19.1589 7.43738 18.5699 7.38541 17.9754C7.3854 17.9754 7.3854 17.9753 7.38539 17.9752L7.3771 17.8664L7.3771 17.8664M9.07306 21.0377L7.3771 17.8664M7.3771 17.8664L7.36879 17.7584M7.3771 17.8664L7.36879 17.7584M7.36879 17.7584C7.36879 17.7583 7.36879 17.7583 7.36879 17.7583C7.31752 17.0544 7.28911 16.349 7.2836 15.6432M7.36879 17.7584L7.2836 15.6432M7.2836 15.6432V15.5156C7.28568 15.2919 7.29401 14.5201 7.35009 13.6685L7.35736 13.5615H7.35736L7.35739 13.5611L7.36049 13.5073L7.36876 13.3998L7.36878 13.3995L7.3916 13.1298L7.39164 13.1294L7.402 13.0216L7.40201 13.0215C7.45188 12.4823 7.5255 11.9606 7.62971 11.5696C7.72229 11.2226 7.90446 10.906 8.15797 10.6516C8.41147 10.3972 8.72738 10.2139 9.07405 10.1201C9.57572 9.98621 10.6705 9.90302 11.8264 9.85095L12.0028 9.84369L12.0031 9.84368L12.1817 9.83745L12.2712 9.83433L12.2714 9.83432L12.4489 9.82705C12.449 9.82705 12.4491 9.82704 12.4491 9.82704C13.4386 9.7952 14.4285 9.77753 15.4186 9.77402H15.6193H15.6582V9.77298H15.7118C16.1392 9.77454 17.4355 9.78312 18.7708 9.83055C19.4386 9.85427 20.1157 9.8877 20.6987 9.93478C21.2826 9.98194 21.7691 10.0426 22.0573 10.1201C22.4038 10.2142 22.7196 10.3976 22.9731 10.6519L7.2836 15.6432ZM13.9214 13.0393L13.8629 13.0054V13.073V18.0847V18.1523L13.9214 18.1184L18.2455 15.6136L18.3037 15.5799L18.2455 15.5462L13.9214 13.0393Z" fill="white" stroke="white" stroke-width="0.0779385"/>
<defs>
<radialGradient id="paint0_radial_98_421" cx="0" cy="0" r="1" gradientUnits="userSpaceOnUse" gradientTransform="translate(29.3417 15.2175) rotate(-135.405) scale(58.4172 108.331)">
<stop stop-color="#42E8E0"/>
<stop offset="0.02" stop-color="#43E0DE"/>
<stop offset="0.11" stop-color="#47BAD1"/>
<stop offset="0.21" stop-color="#4B9AC7"/>
<stop offset="0.32" stop-color="#4E7FBE"/>
<stop offset="0.44" stop-color="#506BB7"/>
<stop offset="0.58" stop-color="#525CB3"/>
<stop offset="0.74" stop-color="#5354B0"/>
<stop offset="1" stop-color="#5351AF"/>
</radialGradient>
</defs>
</svg>
